<?xml version="1.0" encoding="UTF-8" standalone="no"?><!-- Generator: Gravit.io --><svg xmlns="http://www.w3.org/2000/svg" xmlns:xlink="http://www.w3.org/1999/xlink" style="isolation:isolate" viewBox="0 0 2000 1500" width="2000pt" height="1500pt"><defs><clipPath id="_clipPath_VP5oDCkgNL6n2zM40rSxZOCMeKG9rvfG"><rect width="2000" height="1500"/></clipPath></defs><g clip-path="url(#_clipPath_VP5oDCkgNL6n2zM40rSxZOCMeKG9rvfG)"><rect x="0" y="0" width="2000" height="1500" transform="matrix(1,0,0,1,0,0)" fill="none"/><g><g><circle vector-effect="non-scaling-stroke" cx="1000" cy="750" r="10" fill="rgb(15,102,221)"/><g><path d=" M 979.752 725.87 C 993.07 714.695 1012.955 716.434 1024.13 729.752 C 1035.305 743.07 1033.566 762.955 1020.248 774.13 C 1006.93 785.305 987.045 783.566 975.87 770.248 C 964.695 756.93 966.434 737.045 979.752 725.87 Z " fill="none" vector-effect="non-scaling-stroke" stroke-width="5" stroke-dasharray="100,100,100,9999" stroke="rgb(15,102,221)" stroke-linejoin="miter" stroke-linecap="butt" stroke-miterlimit="4"/><path d=" M 1010.94 687.957 C 1045.182 693.995 1068.081 726.697 1062.043 760.94 C 1056.005 795.182 1023.303 818.081 989.06 812.043 C 954.818 806.005 931.919 773.303 937.957 739.06 C 943.995 704.818 976.697 681.919 1010.94 687.957 Z " fill="none" vector-effect="non-scaling-stroke" stroke-width="5" stroke-dasharray="100,100,100,9999" stroke="rgb(15,102,221)" stroke-linejoin="miter" stroke-linecap="butt" stroke-miterlimit="4"/><path d=" M 1081.839 702.75 C 1107.917 747.918 1092.418 805.761 1047.25 831.839 C 1002.082 857.917 944.239 842.418 918.161 797.25 C 892.083 752.082 907.582 694.239 952.75 668.161 C 997.918 642.083 1055.761 657.582 1081.839 702.75 Z " fill="none" vector-effect="non-scaling-stroke" stroke-width="5" stroke-dasharray="100,100,100,9999" stroke="rgb(15,102,221)" stroke-linejoin="miter" stroke-linecap="butt" stroke-miterlimit="4"/></g><g><path d=" M 1118.401 793.095 C 1094.617 858.442 1022.253 892.186 956.905 868.401 C 891.558 844.617 857.814 772.253 881.599 706.905 C 905.383 641.558 977.747 607.814 1043.095 631.599 C 1108.442 655.383 1142.186 727.747 1118.401 793.095 Z " fill="none" vector-effect="non-scaling-stroke" stroke-width="5" stroke-dasharray="250,250,250,250" stroke="rgb(15,102,221)" stroke-linejoin="miter" stroke-linecap="butt" stroke-miterlimit="4"/><g><g><circle vector-effect="non-scaling-stroke" cx="0" cy="0" r="315" fill="none" stroke-width="5" stroke-dasharray="250,250,250,250" stroke="rgb(15,102,221)" stroke-linejoin="miter" stroke-linecap="butt" stroke-miterlimit="4"/><path d=" M 0 -378 C 208.624 -378 378 -208.624 378 0 C 378 208.624 208.624 378 0 378 C -208.624 378 -378 208.624 -378 0 C -378 -208.624 -208.624 -378 0 -378 Z " fill="none" vector-effect="non-scaling-stroke" stroke-width="5" stroke-dasharray="250,250,250,250" stroke="rgb(15,102,221)" stroke-linejoin="miter" stroke-linecap="butt" stroke-miterlimit="4"/><path d=" M -220.5 -381.917 C -9.714 -503.614 260.22 -431.286 381.917 -220.5 C 503.614 -9.714 431.286 260.22 220.5 381.917 C 9.714 503.614 -260.22 431.286 -381.917 220.5 C -503.614 9.714 -431.286 -260.22 -220.5 -381.917 Z " fill="none" vector-effect="non-scaling-stroke" stroke-width="5" stroke-dasharray="250,250,250,250" stroke="rgb(15,102,221)" stroke-linejoin="miter" stroke-linecap="butt" stroke-miterlimit="4"/><path d=" M 252 -436.477 C 492.898 -297.394 575.559 11.102 436.477 252 C 297.394 492.898 -11.102 575.559 -252 436.477 C -492.898 297.394 -575.559 -11.102 -436.477 -252 C -297.394 -492.898 11.102 -575.559 252 -436.477 Z " fill="none" vector-effect="non-scaling-stroke" stroke-width="5" stroke-dasharray="1000,500,1000,500" stroke="rgb(15,102,221)" stroke-linejoin="miter" stroke-linecap="butt" stroke-miterlimit="4"/><path d=" M -491.036 -283.5 C -334.568 -554.51 12.49 -647.504 283.5 -491.036 C 554.51 -334.568 647.504 12.49 491.036 283.5 C 334.568 554.51 -12.49 647.504 -283.5 491.036 C -554.51 334.568 -647.504 -12.49 -491.036 -283.5 Z " fill="none" vector-effect="non-scaling-stroke" stroke-width="5" stroke-dasharray="1000,500,1000,500" stroke="rgb(15,102,221)" stroke-linejoin="miter" stroke-linecap="butt" stroke-miterlimit="4"/></g></g></g><g><g><circle vector-effect="non-scaling-stroke" cx="1000" cy="750" r="315" fill="none" stroke-width="5" stroke-dasharray="250,250,250,250" stroke="rgb(15,102,221)" stroke-linejoin="miter" stroke-linecap="butt" stroke-miterlimit="4"/><path d=" M 1000 372 C 1208.624 372 1378 541.376 1378 750 C 1378 958.624 1208.624 1128 1000 1128 C 791.376 1128 622 958.624 622 750 C 622 541.376 791.376 372 1000 372 Z " fill="none" vector-effect="non-scaling-stroke" stroke-width="5" stroke-dasharray="250,250,250,250" stroke="rgb(15,102,221)" stroke-linejoin="miter" stroke-linecap="butt" stroke-miterlimit="4"/><path d=" M 779.5 368.083 C 990.286 246.386 1260.22 318.714 1381.917 529.5 C 1503.614 740.286 1431.286 1010.22 1220.5 1131.917 C 1009.714 1253.614 739.78 1181.286 618.083 970.5 C 496.386 759.714 568.714 489.78 779.5 368.083 Z " fill="none" vector-effect="non-scaling-stroke" stroke-width="5" stroke-dasharray="250,250,250,250" stroke="rgb(15,102,221)" stroke-linejoin="miter" stroke-linecap="butt" stroke-miterlimit="4"/><path d=" M 1252 313.523 C 1492.898 452.606 1575.559 761.102 1436.477 1002 C 1297.394 1242.898 988.898 1325.559 748 1186.477 C 507.102 1047.394 424.441 738.898 563.523 498 C 702.606 257.102 1011.102 174.441 1252 313.523 Z " fill="none" vector-effect="non-scaling-stroke" stroke-width="5" stroke-dasharray="1000,500,1000,500" stroke="rgb(15,102,221)" stroke-linejoin="miter" stroke-linecap="butt" stroke-miterlimit="4"/><path d=" M 508.964 466.5 C 665.432 195.49 1012.49 102.496 1283.5 258.964 C 1554.51 415.432 1647.504 762.49 1491.036 1033.5 C 1334.568 1304.51 987.51 1397.504 716.5 1241.036 C 445.49 1084.568 352.496 737.51 508.964 466.5 Z " fill="none" vector-effect="non-scaling-stroke" stroke-width="5" stroke-dasharray="1000,500,1000,500" stroke="rgb(15,102,221)" stroke-linejoin="miter" stroke-linecap="butt" stroke-miterlimit="4"/></g></g><g><g><path d=" M 674.397 631.49 C 739.804 451.785 938.805 358.989 1118.51 424.397 C 1298.215 489.804 1391.011 688.805 1325.603 868.51 C 1260.196 1048.215 1061.195 1141.011 881.49 1075.603 C 701.785 1010.196 608.989 811.195 674.397 631.49 Z " fill="none" vector-effect="non-scaling-stroke" stroke-width="5" stroke-dasharray="1000,500,1000,500" stroke="rgb(15,102,221)" stroke-linejoin="miter" stroke-linecap="butt" stroke-miterlimit="4"/><path d=" M 686.305 1013.222 C 541.029 840.088 563.645 581.581 736.778 436.305 C 909.912 291.029 1168.419 313.645 1313.695 486.778 C 1458.971 659.912 1436.355 918.419 1263.222 1063.695 C 1090.088 1208.971 831.581 1186.355 686.305 1013.222 Z " fill="none" vector-effect="non-scaling-stroke" stroke-width="5" stroke-dasharray="1500,9999" stroke="rgb(15,102,221)" stroke-linejoin="miter" stroke-linecap="butt" stroke-miterlimit="4"/><path d=" M 763.75 340.803 C 989.592 210.413 1278.807 287.908 1409.197 513.75 C 1539.587 739.592 1462.092 1028.807 1236.25 1159.197 C 1010.408 1289.587 721.193 1212.092 590.803 986.25 C 460.413 760.408 537.908 471.193 763.75 340.803 Z " fill="none" vector-effect="non-scaling-stroke" stroke-width="5" stroke-dasharray="1500,9999" stroke="rgb(15,102,221)" stroke-linejoin="miter" stroke-linecap="butt" stroke-miterlimit="4"/><path d=" M 907.011 1277.365 C 615.951 1226.043 421.314 948.072 472.635 657.011 C 523.957 365.951 801.928 171.314 1092.989 222.635 C 1384.049 273.957 1578.686 551.928 1527.365 842.989 C 1476.043 1134.049 1198.072 1328.686 907.011 1277.365 Z " fill="none" vector-effect="non-scaling-stroke" stroke-width="5" stroke-dasharray="2000,500,500,9999" stroke="rgb(15,102,221)" stroke-linejoin="miter" stroke-linecap="butt" stroke-miterlimit="4"/><path d=" M 1103.928 160.593 C 1429.231 217.952 1646.767 528.626 1589.407 853.928 C 1532.048 1179.231 1221.374 1396.767 896.072 1339.407 C 570.769 1282.048 353.233 971.374 410.593 646.072 C 467.952 320.769 778.626 103.233 1103.928 160.593 Z " fill="none" vector-effect="non-scaling-stroke" stroke-width="5" stroke-dasharray="800,800,800,800" stroke="rgb(15,102,221)" stroke-linejoin="miter" stroke-linecap="butt" stroke-miterlimit="4"/></g></g><g><g><g><path d=" M 685 204.404 C 986.123 30.551 1371.743 133.877 1545.596 435 C 1719.449 736.123 1616.123 1121.743 1315 1295.596 C 1013.877 1469.449 628.257 1366.123 454.404 1065 C 280.551 763.877 383.877 378.257 685 204.404 Z " fill="none" vector-effect="non-scaling-stroke" stroke-width="5" stroke-dasharray="2000,500,500,9999" stroke="rgb(15,102,221)" stroke-linejoin="miter" stroke-linecap="butt" stroke-miterlimit="4"/><path d=" M 1330.75 177.124 C 1646.929 359.67 1755.422 764.571 1572.876 1080.75 C 1390.33 1396.929 985.429 1505.422 669.25 1322.876 C 353.071 1140.33 244.578 735.429 427.124 419.25 C 609.67 103.071 1014.571 -5.422 1330.75 177.124 Z " fill="none" vector-effect="non-scaling-stroke" stroke-width="5" stroke-dasharray="800,800,800,800" stroke="rgb(15,102,221)" stroke-linejoin="miter" stroke-linecap="butt" stroke-miterlimit="4"/><path d=" M 1724.5 750 C 1724.5 1149.862 1399.862 1474.5 1000 1474.5 C 600.138 1474.5 275.5 1149.862 275.5 750 C 275.5 350.138 600.138 25.5 1000 25.5 C 1399.862 25.5 1724.5 350.138 1724.5 750 Z " fill="none" vector-effect="non-scaling-stroke" stroke-width="5" stroke-dasharray="800,800,800,800" stroke="rgb(15,102,221)" stroke-linejoin="miter" stroke-linecap="butt" stroke-miterlimit="4"/><path d=" M 1378 1404.715 C 1016.653 1613.339 553.909 1489.347 345.285 1128 C 136.661 766.653 260.653 303.909 622 95.285 C 983.347 -113.339 1446.091 10.653 1654.715 372 C 1863.339 733.347 1739.347 1196.091 1378 1404.715 Z " fill="none" vector-effect="non-scaling-stroke" stroke-width="5" stroke-dasharray="2000,500,500,9999" stroke="rgb(15,102,221)" stroke-linejoin="miter" stroke-linecap="butt" stroke-miterlimit="4"/><path d=" M 606.25 1431.995 C 229.847 1214.678 100.688 732.653 318.005 356.25 C 535.322 -20.153 1017.347 -149.312 1393.75 68.005 C 1770.153 285.322 1899.312 767.347 1681.995 1143.75 C 1464.678 1520.153 982.653 1649.312 606.25 1431.995 Z " fill="none" vector-effect="non-scaling-stroke" stroke-width="5" stroke-dasharray="800,800,800,800" stroke="rgb(15,102,221)" stroke-linejoin="miter" stroke-linecap="butt" stroke-miterlimit="4"/></g><g><g><path d=" M -325.603 -118.51 C -260.196 -298.215 -61.195 -391.011 118.51 -325.603 C 298.215 -260.196 391.011 -61.195 325.603 118.51 C 260.196 298.215 61.195 391.011 -118.51 325.603 C -298.215 260.196 -391.011 61.195 -325.603 -118.51 Z " fill="none" vector-effect="non-scaling-stroke" stroke-width="5" stroke-dasharray="1000,500,1000,500" stroke="rgb(15,102,221)" stroke-linejoin="miter" stroke-linecap="butt" stroke-miterlimit="4"/><path d=" M -313.695 263.222 C -458.971 90.088 -436.355 -168.419 -263.222 -313.695 C -90.088 -458.971 168.419 -436.355 313.695 -263.222 C 458.971 -90.088 436.355 168.419 263.222 313.695 C 90.088 458.971 -168.419 436.355 -313.695 263.222 Z " fill="none" vector-effect="non-scaling-stroke" stroke-width="5" stroke-dasharray="1500,9999" stroke="rgb(15,102,221)" stroke-linejoin="miter" stroke-linecap="butt" stroke-miterlimit="4"/><path d=" M -236.25 -409.197 C -10.408 -539.587 278.807 -462.092 409.197 -236.25 C 539.587 -10.408 462.092 278.807 236.25 409.197 C 10.408 539.587 -278.807 462.092 -409.197 236.25 C -539.587 10.408 -462.092 -278.807 -236.25 -409.197 Z " fill="none" vector-effect="non-scaling-stroke" stroke-width="5" stroke-dasharray="1500,9999" stroke="rgb(15,102,221)" stroke-linejoin="miter" stroke-linecap="butt" stroke-miterlimit="4"/><path d=" M -92.989 527.365 C -384.049 476.043 -578.686 198.072 -527.365 -92.989 C -476.043 -384.049 -198.072 -578.686 92.989 -527.365 C 384.049 -476.043 578.686 -198.072 527.365 92.989 C 476.043 384.049 198.072 578.686 -92.989 527.365 Z " fill="none" vector-effect="non-scaling-stroke" stroke-width="5" stroke-dasharray="2000,500,500,9999" stroke="rgb(15,102,221)" stroke-linejoin="miter" stroke-linecap="butt" stroke-miterlimit="4"/><path d=" M 103.928 -589.407 C 429.231 -532.048 646.767 -221.374 589.407 103.928 C 532.048 429.231 221.374 646.767 -103.928 589.407 C -429.231 532.048 -646.767 221.374 -589.407 -103.928 C -532.048 -429.231 -221.374 -646.767 103.928 -589.407 Z " fill="none" vector-effect="non-scaling-stroke" stroke-width="5" stroke-dasharray="800,800,800,800" stroke="rgb(15,102,221)" stroke-linejoin="miter" stroke-linecap="butt" stroke-miterlimit="4"/></g></g><circle vector-effect="non-scaling-stroke" cx="1000" cy="750" r="850.5" fill="none" stroke-width="5" stroke-dasharray="800,800,800,800" stroke="rgb(15,102,221)" stroke-linejoin="miter" stroke-linecap="butt" stroke-miterlimit="4"/><path d=" M 376.332 126.332 C 720.544 -217.88 1279.456 -217.88 1623.668 126.332 C 1967.88 470.544 1967.88 1029.456 1623.668 1373.668 C 1279.456 1717.88 720.544 1717.88 376.332 1373.668 C 32.12 1029.456 32.12 470.544 376.332 126.332 Z " fill="none" vector-effect="non-scaling-stroke" stroke-width="5" stroke-dasharray="800,800,800,800" stroke="rgb(15,102,221)" stroke-linejoin="miter" stroke-linecap="butt" stroke-miterlimit="4"/><path d=" M 1000 -163.5 C 1504.174 -163.5 1913.5 245.826 1913.5 750 C 1913.5 1254.174 1504.174 1663.5 1000 1663.5 C 495.826 1663.5 86.5 1254.174 86.5 750 C 86.5 245.826 495.826 -163.5 1000 -163.5 Z " fill="none" vector-effect="non-scaling-stroke" stroke-width="5" stroke-dasharray="800,800,800,800" stroke="rgb(15,102,221)" stroke-linejoin="miter" stroke-linecap="butt" stroke-miterlimit="4"/><path d=" M 1690.49 59.51 C 2071.581 440.602 2071.581 1059.398 1690.49 1440.49 C 1309.398 1821.581 690.602 1821.581 309.51 1440.49 C -71.581 1059.398 -71.581 440.602 309.51 59.51 C 690.602 -321.581 1309.398 -321.581 1690.49 59.51 Z " fill="none" vector-effect="non-scaling-stroke" stroke-width="5" stroke-dasharray="1200,1200,1200,1200" stroke="rgb(15,102,221)" stroke-linejoin="miter" stroke-linecap="butt" stroke-miterlimit="4"/><path d=" M 2008 750 C 2008 1306.33 1556.33 1758 1000 1758 C 443.67 1758 -8 1306.33 -8 750 C -8 193.67 443.67 -258 1000 -258 C 1556.33 -258 2008 193.67 2008 750 Z " fill="none" vector-effect="non-scaling-stroke" stroke-width="5" stroke-dasharray="1200,1200,1200,1200" stroke="rgb(15,102,221)" stroke-linejoin="miter" stroke-linecap="butt" stroke-miterlimit="4"/></g><path d=" M 1735.037 1485.037 C 1329.359 1890.716 670.641 1890.716 264.963 1485.037 C -140.716 1079.359 -140.716 420.641 264.963 14.963 C 670.641 -390.716 1329.359 -390.716 1735.037 14.963 C 2140.716 420.641 2140.716 1079.359 1735.037 1485.037 Z " fill="none" vector-effect="non-scaling-stroke" stroke-width="5" stroke-dasharray="1200,1200,1200,1200" stroke="rgb(15,102,221)" stroke-linejoin="miter" stroke-linecap="butt" stroke-miterlimit="4"/><path d=" M 1000 1852.5 C 391.514 1852.5 -102.5 1358.486 -102.5 750 C -102.5 141.514 391.514 -352.5 1000 -352.5 C 1608.486 -352.5 2102.5 141.514 2102.5 750 C 2102.5 1358.486 1608.486 1852.5 1000 1852.5 Z " fill="none" vector-effect="non-scaling-stroke" stroke-width="5" stroke-dasharray="1200,1200,1200,1200" stroke="rgb(15,102,221)" stroke-linejoin="miter" stroke-linecap="butt" stroke-miterlimit="4"/><path d=" M 198.141 1551.859 C -244.417 1109.301 -244.417 390.699 198.141 -51.859 C 640.699 -494.417 1359.301 -494.417 1801.859 -51.859 C 2244.417 390.699 2244.417 1109.301 1801.859 1551.859 C 1359.301 1994.417 640.699 1994.417 198.141 1551.859 Z " fill="none" vector-effect="non-scaling-stroke" stroke-width="5" stroke-dasharray="1200,1200,1200,1200" stroke="rgb(15,102,221)" stroke-linejoin="miter" stroke-linecap="butt" stroke-miterlimit="4"/><circle vector-effect="non-scaling-stroke" cx="1000" cy="750" r="1165.5" fill="none" stroke-width="5" stroke-dasharray="1200,1200,1200,1200" stroke="rgb(15,102,221)" stroke-linejoin="miter" stroke-linecap="butt" stroke-miterlimit="4"/><path d=" M 682.041 -436.64 C 1336.965 -612.126 2011.153 -222.884 2186.64 432.041 C 2362.126 1086.965 1972.884 1761.153 1317.959 1936.64 C 663.035 2112.126 -11.153 1722.884 -186.64 1067.959 C -362.126 413.035 27.116 -261.153 682.041 -436.64 Z " fill="none" vector-effect="non-scaling-stroke" stroke-width="5" stroke-dasharray="1200,1200,1200,1200" stroke="rgb(15,102,221)" stroke-linejoin="miter" stroke-linecap="butt" stroke-miterlimit="4"/></g></g></g></g></svg>