<?xml version="1.0" encoding="UTF-8" standalone="no"?><!-- Generator: Gravit.io --><svg xmlns="http://www.w3.org/2000/svg" xmlns:xlink="http://www.w3.org/1999/xlink" style="isolation:isolate" viewBox="0 0 512 512" width="512pt" height="512pt"><defs><clipPath id="_clipPath_AAUmuYzhT4p9IoEzRVwQFlo30Y0u2HMX"><rect width="512" height="512"/></clipPath></defs><g clip-path="url(#_clipPath_AAUmuYzhT4p9IoEzRVwQFlo30Y0u2HMX)"><clipPath id="_clipPath_m4Swu51MopHH2DE4EmeRrALad6qQgsU0"><rect x="0" y="0" width="512" height="512" transform="matrix(1,0,0,1,0,0)" fill="rgb(255,255,255)"/></clipPath><g clip-path="url(#_clipPath_m4Swu51MopHH2DE4EmeRrALad6qQgsU0)"><g><g><g><g><g><path d=" M 453.9 229.1 C 440.8 250 415.4 239.1 375.7 208.9 C 336 178.7 314.5 137.3 327.7 116.4 C 340.8 95.5 383.6 103 423.3 133.2 C 463 163.4 467 208.2 453.9 229.1 Z " fill="rgb(74,134,232)"/></g><g><path d=" M 438.1 472.3 L 58.2 472.3 C -11.8 150.8 177.9 121.1 177.9 121.1 C 245.9 110.3 296.9 139.6 329.4 200.3 C 347.8 234.5 373.3 263.9 411.3 262.6 C 473.4 268.3 500.5 380.6 438.1 472.3 Z " fill="rgb(74,134,232)"/></g></g><g><g><g><path d=" M 400 341.8 L 400 450.2 L 117.2 450.2 L 117.2 263 L 400 263 L 400 326.6" fill="rgb(255,255,255)"/><path d=" M 400 451.4 L 117.2 451.4 C 116.5 451.4 115.9 450.8 115.9 450.1 L 115.9 263 C 115.9 262.3 116.5 261.7 117.2 261.7 L 400 261.7 C 400.7 261.7 401.3 262.3 401.3 263 L 401.3 326.6 C 401.3 327.3 400.7 327.9 400 327.9 C 399.3 327.9 398.7 327.3 398.7 326.6 L 398.7 264.2 L 118.4 264.2 L 118.4 448.9 L 398.8 448.9 L 398.8 341.8 C 398.8 341.1 399.4 340.5 400.1 340.5 C 400.8 340.5 401.4 341.1 401.4 341.8 L 401.4 450.2 C 401.3 450.9 400.7 451.4 400 451.4 Z " fill="rgb(66,43,76)"/></g><g><path d=" M 431.1 473.3 L 86.1 473.3 L 86.1 465 C 86.1 456.9 92.7 450.2 100.9 450.2 L 416.4 450.2 C 424.5 450.2 431.2 456.8 431.2 465 L 431.2 473.3 L 431.1 473.3 L 431.1 473.3 Z " fill="rgb(255,255,255)"/><path d=" M 431.1 474.5 L 86.1 474.5 C 85.4 474.5 84.8 473.9 84.8 473.2 L 84.8 464.9 C 84.8 456.1 92 448.9 100.8 448.9 L 416.3 448.9 C 425.1 448.9 432.3 456.1 432.3 464.9 L 432.3 473.2 C 432.4 474 431.8 474.5 431.1 474.5 Z  M 87.4 472 L 429.9 472 L 429.9 464.9 C 429.9 457.5 423.8 451.4 416.4 451.4 L 100.9 451.4 C 93.5 451.4 87.4 457.5 87.4 464.9 L 87.4 472 L 87.4 472 L 87.4 472 Z " fill="rgb(66,43,76)"/></g><g><path d=" M 430.8 466.5 L 149.6 466.5 C 149.2 466.5 148.9 466.2 148.9 465.8 C 148.9 465.4 149.2 465.1 149.6 465.1 L 430.8 465.1 C 431.2 465.1 431.5 465.4 431.5 465.8 C 431.5 466.2 431.2 466.5 430.8 466.5 Z " fill="rgb(66,43,76)"/></g><g><path d=" M 140.9 466.5 L 130.6 466.5 C 130.2 466.5 129.9 466.2 129.9 465.8 C 129.9 465.4 130.2 465.1 130.6 465.1 L 140.9 465.1 C 141.3 465.1 141.6 465.4 141.6 465.8 C 141.6 466.2 141.3 466.5 140.9 466.5 Z " fill="rgb(66,43,76)"/></g><g><path d=" M 121.1 466.5 L 101.3 466.5 C 100.9 466.5 100.6 466.2 100.6 465.8 C 100.6 465.4 100.9 465.1 101.3 465.1 L 121.1 465.1 C 121.5 465.1 121.8 465.4 121.8 465.8 C 121.8 466.2 121.5 466.5 121.1 466.5 Z " fill="rgb(66,43,76)"/></g></g><g><g><path d=" M 183.4 310.5 L 269.3 310.5 L 269.3 400.4 L 145.2 400.4 L 145.2 310.5 L 165 310.5" fill="rgb(74,134,232)"/><path d=" M 269.3 401.7 L 145.2 401.7 C 144.5 401.7 143.9 401.1 143.9 400.4 L 143.9 310.5 C 143.9 309.8 144.5 309.2 145.2 309.2 L 165 309.2 C 165.7 309.2 166.3 309.8 166.3 310.5 C 166.3 311.2 165.7 311.8 165 311.8 L 146.4 311.8 L 146.4 399.2 L 268 399.2 L 268 311.8 L 183.4 311.8 C 182.7 311.8 182.1 311.2 182.1 310.5 C 182.1 309.8 182.7 309.2 183.4 309.2 L 269.2 309.2 C 269.9 309.2 270.5 309.8 270.5 310.5 L 270.5 400.4 C 270.5 401.1 269.9 401.7 269.3 401.7 Z " fill="rgb(66,43,76)"/></g><g><g><path d=" M 208.5 360 C 208.3 360 208.2 359.9 208.1 359.8 L 199.3 350.1 C 199.1 349.9 199.1 349.5 199.3 349.3 C 199.5 349.1 199.9 349.1 200.1 349.3 L 208.9 359 C 209.1 359.2 209.1 359.6 208.9 359.8 C 208.8 359.9 208.7 360 208.5 360 Z " fill="rgb(66,43,76)"/></g><g><path d=" M 217 359.8 C 216.8 359.8 216.7 359.7 216.6 359.6 L 201.6 343.1 C 201.4 342.9 201.4 342.5 201.6 342.3 C 201.8 342.1 202.2 342.1 202.4 342.3 L 217.4 358.8 C 217.6 359 217.6 359.4 217.4 359.6 C 217.3 359.8 217.2 359.8 217 359.8 Z " fill="rgb(66,43,76)"/></g><g><path d=" M 215.7 348.9 C 215.5 348.9 215.4 348.8 215.3 348.7 L 210.3 343.2 C 210.1 343 210.1 342.6 210.3 342.4 C 210.5 342.2 210.9 342.2 211.1 342.4 L 216.1 347.9 C 216.3 348.1 216.3 348.5 216.1 348.7 C 216 348.9 215.9 348.9 215.7 348.9 Z " fill="rgb(66,43,76)"/></g></g><g><g><path d=" M 239.5 319.7 C 239.2 319.7 238.9 319.4 238.9 319.1 L 238.9 310.6 C 238.9 310.3 239.2 310 239.5 310 C 239.8 310 240.1 310.3 240.1 310.6 L 240.1 319.1 C 240.1 319.4 239.9 319.7 239.5 319.7 Z " fill="rgb(66,43,76)"/></g><g><path d=" M 245.8 327.2 C 245.5 327.2 245.2 326.9 245.2 326.6 L 245.2 310.6 C 245.2 310.3 245.5 310 245.8 310 C 246.1 310 246.4 310.3 246.4 310.6 L 246.4 326.6 C 246.4 326.9 246.2 327.2 245.8 327.2 Z " fill="rgb(66,43,76)"/></g></g></g><g><g><g><path d=" M 137.8 263 C 137.8 276.3 127 287.1 113.7 287.1 C 100.4 287.1 89.7 276.3 89.7 263 L 137.8 263 L 137.8 263 L 137.8 263 Z " fill="rgb(255,120,121)"/><path d=" M 113.7 288.3 C 99.7 288.3 88.4 276.9 88.4 263 C 88.4 262.3 89 261.7 89.7 261.7 L 137.8 261.7 C 138.5 261.7 139.1 262.3 139.1 263 C 139.1 276.9 127.7 288.3 113.7 288.3 Z  M 91 264.2 C 91.7 276.2 101.6 285.8 113.8 285.8 C 126 285.8 135.9 276.2 136.6 264.2 L 91 264.2 L 91 264.2 L 91 264.2 Z " fill="rgb(66,43,76)"/></g><g><path d=" M 185.9 263 C 185.9 276.3 175.1 287.1 161.8 287.1 C 148.5 287.1 137.7 276.3 137.7 263 L 185.9 263 L 185.9 263 L 185.9 263 Z " fill="rgb(255,255,255)"/><path d=" M 161.9 288.3 C 147.9 288.3 136.6 276.9 136.6 263 C 136.6 262.3 137.2 261.7 137.9 261.7 L 186 261.7 C 186.7 261.7 187.3 262.3 187.3 263 C 187.2 276.9 175.8 288.3 161.9 288.3 Z  M 139.1 264.2 C 139.8 276.2 149.7 285.8 161.9 285.8 C 174.1 285.8 184 276.2 184.7 264.2 L 139.1 264.2 L 139.1 264.2 L 139.1 264.2 Z " fill="rgb(66,43,76)"/></g><g><path d=" M 234.1 263 C 234.1 276.3 223.3 287.1 210 287.1 C 196.7 287.1 185.9 276.3 185.9 263 L 234.1 263 L 234.1 263 L 234.1 263 Z " fill="rgb(255,120,121)"/><path d=" M 210 288.3 C 196 288.3 184.7 276.9 184.7 263 C 184.7 262.3 185.3 261.7 186 261.7 L 234.1 261.7 C 234.8 261.7 235.4 262.3 235.4 263 C 235.3 276.9 223.9 288.3 210 288.3 Z  M 187.2 264.2 C 187.9 276.2 197.8 285.8 210 285.8 C 222.2 285.8 232.1 276.2 232.8 264.2 L 187.2 264.2 L 187.2 264.2 L 187.2 264.2 Z " fill="rgb(66,43,76)"/></g><g><path d=" M 282.2 263 C 282.2 276.3 271.4 287.1 258.1 287.1 C 244.8 287.1 234 276.3 234 263 L 282.2 263 L 282.2 263 L 282.2 263 Z " fill="rgb(255,255,255)"/><path d=" M 258.1 288.3 C 244.1 288.3 232.8 276.9 232.8 263 C 232.8 262.3 233.4 261.7 234.1 261.7 L 282.2 261.7 C 282.9 261.7 283.5 262.3 283.5 263 C 283.4 276.9 272.1 288.3 258.1 288.3 Z  M 235.3 264.2 C 236 276.2 245.9 285.8 258.1 285.8 C 270.3 285.8 280.2 276.2 280.9 264.2 L 235.3 264.2 L 235.3 264.2 L 235.3 264.2 Z " fill="rgb(66,43,76)"/></g><g><path d=" M 330.3 263 C 330.3 276.3 319.5 287.1 306.2 287.1 C 292.9 287.1 282.1 276.3 282.1 263 L 330.3 263 L 330.3 263 L 330.3 263 Z " fill="rgb(255,120,121)"/><path d=" M 306.2 288.3 C 292.2 288.3 280.9 276.9 280.9 263 C 280.9 262.3 281.5 261.7 282.2 261.7 L 330.3 261.7 C 331 261.7 331.6 262.3 331.6 263 C 331.5 276.9 320.2 288.3 306.2 288.3 Z  M 283.5 264.2 C 284.2 276.2 294.1 285.8 306.3 285.8 C 318.5 285.8 328.4 276.2 329.1 264.2 L 283.5 264.2 L 283.5 264.2 L 283.5 264.2 Z " fill="rgb(66,43,76)"/></g><g><path d=" M 378.4 263 C 378.4 276.3 367.6 287.1 354.3 287.1 C 341 287.1 330.2 276.3 330.2 263 L 378.4 263 L 378.4 263 L 378.4 263 Z " fill="rgb(255,255,255)"/><path d=" M 354.3 288.3 C 340.3 288.3 329 276.9 329 263 C 329 262.3 329.6 261.7 330.3 261.7 L 378.4 261.7 C 379.1 261.7 379.7 262.3 379.7 263 C 379.7 276.9 368.3 288.3 354.3 288.3 Z  M 331.6 264.2 C 332.3 276.2 342.2 285.8 354.4 285.8 C 366.6 285.8 376.5 276.2 377.2 264.2 L 331.6 264.2 L 331.6 264.2 L 331.6 264.2 Z " fill="rgb(66,43,76)"/></g><g><path d=" M 426.5 263 C 426.5 276.3 415.7 287.1 402.4 287.1 C 389.1 287.1 378.3 276.3 378.3 263 L 426.5 263 L 426.5 263 L 426.5 263 Z " fill="rgb(255,120,121)"/><path d=" M 402.5 288.3 C 388.5 288.3 377.2 276.9 377.2 263 C 377.2 262.3 377.8 261.7 378.5 261.7 L 426.6 261.7 C 427.3 261.7 427.9 262.3 427.9 263 C 427.8 276.9 416.4 288.3 402.5 288.3 Z  M 379.7 264.2 C 380.4 276.2 390.3 285.8 402.5 285.8 C 414.7 285.8 424.6 276.2 425.3 264.2 L 379.7 264.2 L 379.7 264.2 L 379.7 264.2 Z " fill="rgb(66,43,76)"/></g><g><path d=" M 161.9 191 L 137.8 263 L 89.7 263 L 125.6 191 L 161.9 191 L 161.9 191 Z " fill="rgb(255,120,121)"/><path d=" M 137.8 264.2 L 89.7 264.2 C 89.3 264.2 88.9 264 88.6 263.6 C 88.4 263.2 88.4 262.8 88.5 262.4 L 124.4 190.4 C 124.6 190 125 189.7 125.5 189.7 L 161.7 189.7 C 162.1 189.7 162.5 189.9 162.7 190.2 C 162.9 190.5 163 190.9 162.9 191.3 L 138.8 263.3 C 138.8 263.9 138.4 264.2 137.8 264.2 Z  M 91.7 261.7 L 136.9 261.7 L 160.1 192.2 L 126.4 192.2 L 91.7 261.7 L 91.7 261.7 L 91.7 261.7 Z " fill="rgb(66,43,76)"/></g><g><path d=" M 201.3 191 L 185.9 263 L 137.8 263 L 161.9 191 L 201.3 191 L 201.3 191 Z " fill="rgb(255,255,255)"/><path d=" M 185.9 264.2 L 137.8 264.2 C 137.4 264.2 137 264 136.8 263.7 C 136.6 263.4 136.5 263 136.6 262.6 L 160.7 190.6 C 160.9 190.1 161.3 189.7 161.9 189.7 L 201.3 189.7 C 201.7 189.7 202 189.9 202.3 190.2 C 202.6 190.5 202.6 190.9 202.6 191.2 L 187.3 263.2 C 187 263.8 186.5 264.2 185.9 264.2 Z  M 139.6 261.7 L 185 261.7 L 199.8 192.2 L 162.9 192.2 L 139.6 261.7 L 139.6 261.7 L 139.6 261.7 Z " fill="rgb(66,43,76)"/></g><g><path d=" M 239.5 191 L 234.1 263 L 185.9 263 L 201.3 191 L 239.5 191 L 239.5 191 Z " fill="rgb(255,120,121)"/><path d=" M 234.1 264.2 L 186 264.2 C 185.6 264.2 185.3 264 185 263.7 C 184.8 263.4 184.7 263 184.7 262.7 L 200 190.7 C 200.1 190.1 200.6 189.7 201.2 189.7 L 239.5 189.7 C 239.8 189.7 240.2 189.8 240.4 190.1 C 240.6 190.4 240.8 190.7 240.7 191 L 235.2 263 C 235.3 263.7 234.7 264.2 234.1 264.2 Z  M 187.5 261.7 L 232.9 261.7 L 238.2 192.2 L 202.3 192.2 L 187.5 261.7 L 187.5 261.7 L 187.5 261.7 Z " fill="rgb(66,43,76)"/></g><g><path d=" M 282.2 263 L 234.1 263 L 239.5 191 L 277.3 191 L 282.2 263 L 282.2 263 Z " fill="rgb(255,255,255)"/><path d=" M 282.2 264.2 L 234.1 264.2 C 233.8 264.2 233.4 264.1 233.2 263.8 C 233 263.5 232.8 263.2 232.9 262.9 L 238.4 190.9 C 238.4 190.2 239 189.7 239.6 189.7 L 277.4 189.7 C 278.1 189.7 278.6 190.2 278.6 190.9 L 283.5 262.9 C 283.5 263.2 283.4 263.6 283.2 263.8 C 283 264 282.5 264.2 282.2 264.2 Z  M 235.4 261.7 L 280.8 261.7 L 276.1 192.2 L 240.6 192.2 L 235.4 261.7 L 235.4 261.7 L 235.4 261.7 Z " fill="rgb(66,43,76)"/></g><g><path d=" M 330.3 263 L 282.2 263 L 277.3 191 L 317.4 191 L 330.3 263 L 330.3 263 Z " fill="rgb(255,120,121)"/><path d=" M 330.3 264.2 L 282.2 264.2 C 281.5 264.2 281 263.7 281 263 L 276.1 191 C 276.1 190.7 276.2 190.3 276.4 190.1 C 276.6 189.9 277 189.7 277.3 189.7 L 317.4 189.7 C 318 189.7 318.5 190.1 318.6 190.7 L 331.5 262.7 C 331.6 263.1 331.5 263.4 331.2 263.7 C 331 264.1 330.7 264.2 330.3 264.2 Z  M 283.3 261.7 L 328.8 261.7 L 316.4 192.2 L 278.7 192.2 L 283.3 261.7 L 283.3 261.7 L 283.3 261.7 Z " fill="rgb(66,43,76)"/></g><g><path d=" M 378.4 263 L 330.3 263 L 317.4 191 L 354.4 191 L 378.4 263 L 378.4 263 Z " fill="rgb(255,255,255)"/><path d=" M 378.4 264.2 L 330.3 264.2 C 329.7 264.2 329.2 263.8 329.1 263.2 L 316.2 191.2 C 316.1 190.8 316.2 190.5 316.5 190.2 C 316.7 189.9 317.1 189.8 317.5 189.8 L 354.4 189.8 C 354.9 189.8 355.4 190.1 355.6 190.7 L 379.7 262.7 C 379.8 263.1 379.8 263.5 379.5 263.8 C 379.2 264 378.8 264.2 378.4 264.2 Z  M 331.3 261.7 L 376.6 261.7 L 353.4 192.2 L 318.8 192.2 L 331.3 261.7 L 331.3 261.7 L 331.3 261.7 Z " fill="rgb(66,43,76)"/></g><g><path d=" M 426.5 263 L 378.4 263 L 354.4 191 L 390.4 191 L 426.5 263 L 426.5 263 Z " fill="rgb(255,120,121)"/><path d=" M 426.5 264.2 L 378.4 264.2 C 377.9 264.2 377.4 263.9 377.2 263.3 L 353.1 191.3 C 353 190.9 353 190.5 353.3 190.2 C 353.5 189.9 353.9 189.7 354.3 189.7 L 390.4 189.7 C 390.9 189.7 391.3 190 391.5 190.4 L 427.6 262.4 C 427.8 262.8 427.8 263.2 427.5 263.6 C 427.4 264 427 264.2 426.5 264.2 Z  M 379.3 261.7 L 424.5 261.7 L 389.6 192.2 L 356 192.2 L 379.3 261.7 L 379.3 261.7 L 379.3 261.7 Z " fill="rgb(66,43,76)"/></g></g><g><path d=" M 390.4 179.7 L 390.4 191 L 125.6 191 L 125.6 179.7 C 125.6 177.6 127.3 175.9 129.4 175.9 L 386.7 175.9 C 388.7 175.9 390.4 177.6 390.4 179.7 Z " fill="rgb(255,120,121)"/><path d=" M 390.4 192.2 L 125.6 192.2 C 124.9 192.2 124.3 191.6 124.3 190.9 L 124.3 179.6 C 124.3 176.8 126.6 174.6 129.3 174.6 L 386.6 174.6 C 389.4 174.6 391.6 176.8 391.6 179.6 L 391.6 191 C 391.7 191.6 391.1 192.2 390.4 192.2 Z  M 126.9 189.7 L 389.2 189.7 L 389.2 179.7 C 389.2 178.3 388.1 177.2 386.7 177.2 L 129.4 177.2 C 128 177.2 126.9 178.3 126.9 179.7 L 126.9 189.7 L 126.9 189.7 L 126.9 189.7 Z " fill="rgb(66,43,76)"/></g><g><g><path d=" M 117.2 279.2 C 116.9 279.2 116.7 279 116.6 278.8 C 116.4 278.4 116.6 278 117 277.9 C 120.1 276.6 122.8 274.2 124.5 271.3 C 124.7 271 125.1 270.9 125.5 271 C 125.8 271.2 125.9 271.6 125.8 272 C 123.9 275.2 121.1 277.8 117.7 279.2 C 117.4 279.2 117.3 279.2 117.2 279.2 Z " fill="rgb(66,43,76)"/></g><g><g><path d=" M 175.7 229.5 C 175.5 229.5 175.3 229.4 175.2 229.3 L 164.5 217.6 C 164.2 217.3 164.3 216.9 164.5 216.6 C 164.8 216.3 165.2 216.4 165.5 216.6 L 176.2 228.3 C 176.5 228.6 176.4 229 176.2 229.3 C 176 229.4 175.9 229.5 175.7 229.5 Z " fill="rgb(66,43,76)"/></g><g><path d=" M 177.2 223.2 C 177 223.2 176.8 223.1 176.7 223 L 172.9 218.8 C 172.6 218.5 172.7 218.1 172.9 217.8 C 173.2 217.5 173.6 217.6 173.9 217.8 L 177.7 222 C 178 222.3 177.9 222.7 177.7 223 C 177.5 223.2 177.4 223.2 177.2 223.2 Z " fill="rgb(66,43,76)"/></g></g></g></g><g><g><rect x="295.7" y="310.5" width="72.5" height="139.6" transform="matrix(1,0,0,1,0,0)" fill="rgb(255,255,255)"/><path d=" M 368.2 451.4 L 295.7 451.4 C 295 451.4 294.4 450.8 294.4 450.1 L 294.4 310.5 C 294.4 309.8 295 309.2 295.7 309.2 L 368.2 309.2 C 368.9 309.2 369.5 309.8 369.5 310.5 L 369.5 450.1 C 369.4 450.9 368.8 451.4 368.2 451.4 Z  M 296.9 448.9 L 366.9 448.9 L 366.9 311.8 L 296.9 311.8 L 296.9 448.9 L 296.9 448.9 L 296.9 448.9 Z " fill="rgb(66,43,76)"/></g><g><g><g><rect x="309.7" y="365.7" width="44.4" height="17.8" transform="matrix(1,0,0,1,0,0)" fill="rgb(219,171,245)"/><path d=" M 354.1 384.7 L 309.7 384.7 C 309 384.7 308.5 384.2 308.5 383.5 L 308.5 365.7 C 308.5 365 309 364.5 309.7 364.5 L 354.1 364.5 C 354.8 364.5 355.3 365 355.3 365.7 L 355.3 383.5 C 355.3 384.2 354.8 384.7 354.1 384.7 Z  M 310.9 382.3 L 352.9 382.3 L 352.9 366.9 L 310.9 366.9 L 310.9 382.3 L 310.9 382.3 Z " fill="rgb(66,43,76)"/></g><g><path d=" M 344.9 366.4 C 344.6 366.4 344.4 366.2 344.3 366 L 331.9 333.2 L 320.7 366 C 320.6 366.3 320.2 366.5 319.9 366.4 C 319.6 366.3 319.4 365.9 319.5 365.6 L 331 332.3 C 331.2 331.8 331.6 331.5 332 331.5 C 332.5 331.5 332.9 331.8 333.1 332.2 L 345.6 365.5 C 345.7 365.8 345.6 366.2 345.2 366.3 C 345.1 366.4 345 366.4 344.9 366.4 Z " fill="rgb(66,43,76)"/></g></g><g><path d=" M 347.8 375.2 L 317.1 375.2 C 316.8 375.2 316.5 374.9 316.5 374.6 C 316.5 374.3 316.8 374 317.1 374 L 347.8 374 C 348.1 374 348.4 374.3 348.4 374.6 C 348.4 374.9 348.2 375.2 347.8 375.2 Z " fill="rgb(66,43,76)"/></g></g></g></g><g><g><path d=" M 474.6 474.5 L 459.1 474.5 C 458.4 474.5 457.8 473.9 457.8 473.2 C 457.8 472.5 458.4 471.9 459.1 471.9 L 474.6 471.9 C 475.3 471.9 475.9 472.5 475.9 473.2 C 475.9 473.9 475.3 474.5 474.6 474.5 Z " fill="rgb(66,43,76)"/></g><g><path d=" M 449.8 474.5 L 58.4 474.5 C 57.7 474.5 57.1 473.9 57.1 473.2 C 57.1 472.5 57.7 471.9 58.4 471.9 L 449.8 471.9 C 450.5 471.9 451.1 472.5 451.1 473.2 C 451.1 473.9 450.5 474.5 449.8 474.5 Z " fill="rgb(66,43,76)"/></g><g><path d=" M 48.2 474.5 L 37.4 474.5 C 36.7 474.5 36.1 473.9 36.1 473.2 C 36.1 472.5 36.7 471.9 37.4 471.9 L 48.2 471.9 C 48.9 471.9 49.5 472.5 49.5 473.2 C 49.5 473.9 48.9 474.5 48.2 474.5 Z " fill="rgb(66,43,76)"/></g></g><g><g><g><g><g><path d=" M 401.5 55.9 C 401.6 58.1 401.3 60.2 400.6 62.1 C 400.2 63.1 399.7 64.1 399.1 65.1 C 398.7 65.7 398.4 66.4 398 67 L 389.1 81.9 C 387.7 84.3 384.2 84.3 382.8 81.9 L 373.9 67 C 373.6 66.3 373.2 65.7 372.8 65.1 C 372.2 64.2 371.7 63.2 371.3 62.1 C 370.7 60.4 370.4 58.7 370.4 56.8 C 370.4 48 377.6 41 386.5 41.3 C 394.5 41.6 401.1 48 401.5 55.9 Z " fill="rgb(255,222,186)"/><path d=" M 386 84.9 C 384.3 84.9 382.8 84 381.9 82.6 L 373 67.7 C 372.6 67 372.3 66.4 371.9 65.8 C 371.3 64.8 370.7 63.7 370.3 62.6 C 369.6 60.8 369.3 58.9 369.3 56.9 C 369.3 52.3 371.1 48.1 374.4 44.9 C 377.7 41.7 382 40.1 386.6 40.2 C 395.2 40.5 402.2 47.4 402.7 55.9 L 402.7 55.9 C 402.8 58.2 402.5 60.4 401.7 62.6 C 401.3 63.7 400.8 64.8 400.1 65.8 C 399.7 66.4 399.4 67.1 399.1 67.7 L 390.1 82.6 C 389.3 84 387.7 84.9 386 84.9 Z  M 386 42.4 C 382.2 42.4 378.7 43.8 376 46.5 C 373.2 49.2 371.6 52.9 371.6 56.8 C 371.6 58.5 371.9 60.1 372.5 61.7 C 372.8 62.7 373.3 63.6 373.8 64.4 C 374.2 65.1 374.6 65.8 374.9 66.4 L 383.8 81.2 C 384.3 82 385.1 82.4 385.9 82.4 C 386.8 82.4 387.6 81.9 388.1 81.2 L 397 66.3 C 397.3 65.7 397.7 65 398.1 64.3 C 398.6 63.4 399.1 62.5 399.4 61.6 C 400.1 59.8 400.3 57.8 400.2 55.9 C 399.8 48.5 393.7 42.6 386.3 42.3 C 386.3 42.5 386.2 42.4 386 42.4 Z " fill="rgb(66,43,76)"/></g><g><circle vector-effect="non-scaling-stroke" cx="386" cy="57.5" r="6.699999999999989" fill="rgb(255,255,255)"/><path d=" M 386 65.4 C 381.7 65.4 378.1 61.9 378.1 57.5 C 378.1 53.1 381.6 49.6 386 49.6 C 390.4 49.6 393.9 53.1 393.9 57.5 C 393.9 61.9 390.3 65.4 386 65.4 Z  M 386 52 C 382.9 52 380.4 54.5 380.4 57.6 C 380.4 60.7 382.9 63.2 386 63.2 C 389.1 63.2 391.6 60.7 391.6 57.6 C 391.6 54.5 389.1 52 386 52 Z " fill="rgb(66,43,76)"/></g></g></g></g><g><g><path d=" M 385 95.3 C 384.4 95.3 383.9 94.8 383.9 94.2 C 383.9 93.6 384.4 93 385 93 C 385.1 93 386.6 93 389 93 C 389.6 93 390.1 93.5 390.1 94.2 C 390.1 94.8 389.6 95.3 388.9 95.3 C 388.9 95.3 388.9 95.3 388.9 95.3 C 386.6 95.2 385 95.3 385 95.3 C 385 95.3 385 95.3 385 95.3 Z " fill="rgb(66,43,76)"/></g><g><path d=" M 423.1 134.7 C 420.8 134.7 418.6 134.7 416.4 134.6 C 415.8 134.6 415.3 134.1 415.3 133.4 C 415.3 132.8 415.8 132.3 416.4 132.3 C 416.4 132.3 416.4 132.3 416.4 132.3 C 418.6 132.3 420.8 132.4 423.1 132.4 L 424.5 132.4 C 424.5 132.4 424.5 132.4 424.5 132.4 C 425.1 132.4 425.6 132.9 425.7 133.5 C 425.7 134.1 425.2 134.7 424.6 134.7 L 423.1 134.7 L 423.1 134.7 L 423.1 134.7 Z  M 408.3 134.4 C 408.2 134.4 408.2 134.4 408.3 134.4 C 405.5 134.3 402.8 134.1 400.1 133.9 C 399.5 133.9 399 133.3 399 132.7 C 399 132.1 399.6 131.6 400.2 131.6 C 402.8 131.8 405.5 131.9 408.3 132.1 C 408.9 132.1 409.4 132.7 409.4 133.3 C 409.4 133.9 408.9 134.4 408.3 134.4 Z  M 392.1 133.2 C 392.1 133.2 392 133.2 392 133.2 C 389.1 132.9 386.4 132.6 383.9 132.2 C 383.3 132.1 382.8 131.5 382.9 130.9 C 383 130.3 383.6 129.8 384.2 129.9 C 386.7 130.3 389.4 130.6 392.2 130.9 C 392.8 131 393.3 131.5 393.2 132.2 C 393.1 132.8 392.6 133.2 392.1 133.2 Z  M 376 130.7 C 375.9 130.7 375.8 130.7 375.7 130.7 C 375 130.5 374.2 130.4 373.6 130.2 C 371.2 129.6 369.2 128.8 367.8 127.9 C 367.3 127.6 367.1 126.9 367.4 126.3 C 367.7 125.8 368.4 125.6 369 125.9 C 370.3 126.7 372.1 127.4 374.3 127.9 C 375 128.1 375.6 128.2 376.4 128.4 C 377 128.5 377.4 129.2 377.3 129.8 C 377 130.4 376.5 130.7 376 130.7 Z  M 366.5 121.4 C 366.2 121.4 366 121.3 365.8 121.1 C 365.3 120.7 365.2 120 365.6 119.5 C 366.8 118 368.8 116.8 371.2 115.9 C 371.8 115.7 372.5 115.5 373.1 115.2 C 373.7 115 374.4 115.3 374.6 115.9 C 374.8 116.5 374.5 117.2 373.9 117.4 C 373.3 117.6 372.7 117.8 372 118.1 C 370 118.8 368.3 119.9 367.4 121 C 367.1 121.3 366.8 121.4 366.5 121.4 Z  M 381.2 115.1 C 380.7 115.1 380.2 114.8 380.1 114.3 C 379.9 113.7 380.3 113.1 380.9 112.9 C 383.2 112.3 385.7 111.6 388.8 110.8 C 389.4 110.6 390 111 390.2 111.6 C 390.4 112.2 390 112.8 389.4 113 C 386.3 113.8 383.8 114.4 381.6 115 C 381.5 115.1 381.3 115.1 381.2 115.1 Z  M 397 111.2 C 396.5 111.2 396 110.8 395.9 110.3 C 395.7 109.7 396.1 109.1 396.7 108.9 C 399.2 108.3 402 107.6 404.5 106.8 C 405.1 106.6 405.8 107 405.9 107.6 C 406 108.2 405.7 108.9 405.1 109 C 402.6 109.8 399.7 110.5 397.2 111.1 C 397.2 111.1 397.1 111.2 397 111.2 Z  M 412.3 105.8 C 411.9 105.8 411.6 105.6 411.4 105.3 C 411 104.8 411.2 104.1 411.7 103.7 C 412.9 102.8 413.5 102 413.5 101.1 C 413.5 101 413.5 101 413.5 100.9 C 413.5 100.2 413 99.6 412.2 99 C 411.7 98.6 411.6 97.9 411.9 97.4 C 412.3 96.9 413 96.8 413.5 97.1 C 414.9 98.1 415.7 99.3 415.8 100.7 C 415.8 100.8 415.8 100.9 415.8 101 C 415.8 102.7 414.9 104.2 413 105.5 C 412.8 105.8 412.5 105.8 412.3 105.8 Z  M 405.2 96.6 C 405.1 96.6 405.1 96.6 405 96.6 C 402.7 96.2 400.1 95.8 397.1 95.6 C 396.5 95.6 396 95 396 94.4 C 396 93.8 396.6 93.3 397.2 93.3 C 400.3 93.5 403 93.9 405.4 94.3 C 406 94.4 406.4 95 406.3 95.6 C 406.2 96.2 405.7 96.6 405.2 96.6 Z " fill="rgb(66,43,76)"/></g><g><path d=" M 432.7 134.6 C 432.1 134.6 431.6 134.1 431.6 133.5 C 431.6 132.9 432.1 132.3 432.7 132.3 C 434 132.3 435.4 132.2 436.7 132.2 C 437.3 132.2 437.9 132.7 437.9 133.3 C 437.9 133.9 437.4 134.5 436.8 134.5 C 435.4 134.5 434.1 134.6 432.7 134.6 C 432.7 134.6 432.7 134.6 432.7 134.6 Z " fill="rgb(66,43,76)"/></g></g><g><g><g><g><g><path d=" M 471.3 109.7 C 473.3 112.4 474.5 115.6 474.7 119.1 C 474.8 121.6 474.5 124 473.7 126.2 C 473.3 127.4 472.7 128.5 472 129.6 C 471.5 130.3 471.1 131.1 470.8 131.8 L 461.4 147.5 C 459.4 150.8 454.6 150.8 452.7 147.5 L 443.3 131.8 C 442.9 131 442.5 130.3 442.1 129.6 C 441.4 128.5 440.9 127.4 440.4 126.2 C 439.7 124.3 439.3 122.3 439.3 120.1 C 439.3 110 447.6 101.9 457.8 102.3 C 461.1 102.4 464.2 103.5 466.8 105.2" fill="rgb(255,222,186)"/><path d=" M 456.9 151.2 C 456.9 151.2 456.9 151.2 456.9 151.2 C 454.7 151.2 452.7 150.1 451.5 148.2 L 442.1 132.5 C 441.6 131.6 441.3 130.9 440.9 130.3 C 440.2 129.2 439.6 127.9 439.1 126.7 C 438.3 124.6 438 122.5 438 120.2 C 438 115 440.1 110.2 443.8 106.6 C 447.5 103 452.5 101.1 457.7 101.3 C 461.1 101.4 464.5 102.5 467.3 104.4 C 467.8 104.8 468 105.5 467.6 106 C 467.2 106.5 466.5 106.7 466 106.3 C 463.5 104.6 460.6 103.7 457.5 103.6 C 452.9 103.4 448.6 105.1 445.3 108.2 C 442 111.4 440.2 115.6 440.2 120.2 C 440.2 122.2 440.5 124.1 441.2 125.9 C 441.6 127 442.1 128.1 442.8 129.1 C 443.3 129.9 443.7 130.7 444.1 131.4 L 453.5 147 C 454.2 148.2 455.5 148.9 456.9 148.9 L 456.9 148.9 C 458.3 148.9 459.6 148.2 460.3 147 L 469.7 131.3 C 470.1 130.6 470.5 129.8 471 129 C 471.6 128 472.2 126.9 472.6 125.8 C 473.4 123.7 473.7 121.5 473.6 119.2 C 473.4 116 472.3 113 470.4 110.4 C 470 109.9 470.1 109.2 470.7 108.8 C 471.2 108.4 471.9 108.5 472.3 109.1 C 474.4 112 475.7 115.5 475.9 119.1 C 476 121.7 475.7 124.2 474.8 126.6 C 474.3 127.9 473.7 129.1 473 130.2 C 472.6 130.9 472.2 131.5 471.8 132.3 L 462.3 148.1 C 461.1 150 459.1 151.2 456.9 151.2 Z " fill="rgb(66,43,76)"/></g><g><circle vector-effect="non-scaling-stroke" cx="456.9" cy="121" r="7.699999999999989" fill="rgb(255,255,255)"/><path d=" M 456.9 129.8 C 452 129.8 448.1 125.8 448.1 121 C 448.1 116.2 452.1 112.2 456.9 112.2 C 461.7 112.2 465.7 116.2 465.7 121 C 465.7 125.8 461.8 129.8 456.9 129.8 Z  M 456.9 114.4 C 453.3 114.4 450.4 117.3 450.4 120.9 C 450.4 124.5 453.3 127.4 456.9 127.4 C 460.5 127.4 463.4 124.5 463.4 120.9 C 463.4 117.3 460.5 114.4 456.9 114.4 Z " fill="rgb(66,43,76)"/></g></g></g></g></g></g><g><g><path d=" M 430.5 213.3 L 451.8 213.3 C 452.6 213.3 453.3 214 453.3 214.8 L 453.3 260.8 C 453.3 261.6 452.6 262.3 451.8 262.3 L 329.1 262.3 C 328.3 262.3 327.6 261.6 327.6 260.8 L 327.6 214.8 C 327.6 214 328.3 213.3 329.1 213.3 L 419.7 213.3" fill="rgb(255,255,255)"/><path d=" M 451.7 263.6 L 329.1 263.6 C 327.6 263.6 326.3 262.4 326.3 260.8 L 326.3 214.8 C 326.3 213.3 327.5 212 329.1 212 L 419.7 212 C 420.4 212 421 212.6 421 213.3 C 421 214 420.4 214.6 419.7 214.6 L 329.1 214.6 C 329 214.6 328.8 214.7 328.8 214.9 L 328.8 260.9 C 328.8 261 328.9 261.2 329.1 261.2 L 451.7 261.2 C 451.8 261.2 452 261.1 452 260.9 L 452 214.9 C 452 214.8 451.9 214.6 451.7 214.6 L 430.4 214.6 C 429.7 214.6 429.1 214 429.1 213.3 C 429.1 212.6 429.7 212 430.4 212 L 451.7 212 C 453.2 212 454.5 213.2 454.5 214.8 L 454.5 260.8 C 454.5 262.3 453.3 263.6 451.7 263.6 Z " fill="rgb(66,43,76)"/></g><g><g><path d=" M 355.6 245.9 L 350.4 243.2 L 345.2 246 C 345 246.1 344.7 245.9 344.8 245.7 L 345.8 239.9 L 341.6 235.8 C 341.4 235.6 341.5 235.3 341.8 235.3 L 347.6 234.4 L 350.2 229.1 C 350.3 228.9 350.6 228.9 350.8 229.1 L 353.4 234.3 L 359.2 235.1 C 359.5 235.1 359.6 235.4 359.4 235.6 L 355.2 239.7 L 356.2 245.5 C 356.1 245.8 355.8 246 355.6 245.9 Z " fill="rgb(255,222,186)"/><path d=" M 345.1 247.1 C 344.8 247.1 344.5 247 344.3 246.8 C 343.9 246.5 343.6 246 343.7 245.4 L 344.6 240.2 L 340.8 236.5 C 340.4 236.1 340.3 235.6 340.4 235.1 C 340.6 234.6 341 234.2 341.5 234.1 L 346.7 233.3 L 349 228.6 C 349.2 228.1 349.7 227.8 350.3 227.8 C 350.3 227.8 350.3 227.8 350.3 227.8 C 350.8 227.8 351.3 228.1 351.6 228.6 L 354 233.3 L 359.2 234 C 359.7 234.1 360.2 234.4 360.3 235 C 360.5 235.5 360.3 236.1 360 236.4 L 356.2 240.1 L 357.1 245.3 C 357.2 245.8 357 246.4 356.5 246.7 C 356.1 247 355.5 247.1 355 246.8 L 355 246.8 L 350.3 244.4 L 345.6 246.9 C 345.6 247 345.3 247.1 345.1 247.1 Z  M 345.9 245.8 L 345.9 245.8 C 345.9 245.8 345.9 245.8 345.9 245.8 Z  M 344.8 245 C 344.8 245 344.7 245 344.8 245 L 344.8 245 L 344.8 245 L 344.8 245 Z  M 356.1 244.9 L 356.1 244.9 C 356.1 244.9 356.1 244.9 356.1 244.9 Z  M 343.5 236.1 L 346.6 239 C 346.9 239.3 347 239.6 346.9 240 L 346.2 244.2 L 349.9 242.2 C 350.2 242 350.6 242 350.9 242.2 L 354.7 244.2 L 354 240 C 353.9 239.6 354.1 239.3 354.3 239 L 357.3 236 L 353.1 235.4 C 352.7 235.4 352.4 235.1 352.3 234.8 L 350.4 231 L 348.5 234.8 C 348.3 235.1 348 235.4 347.7 235.4 L 343.5 236.1 L 343.5 236.1 L 343.5 236.1 Z  M 349.6 229.6 C 349.6 229.6 349.6 229.6 349.6 229.6 L 349.6 229.6 L 349.6 229.6 L 349.6 229.6 Z " fill="rgb(66,43,76)"/></g><g><path d=" M 375.6 246 L 370.4 243.3 L 365.2 246.1 C 365 246.2 364.7 246 364.8 245.8 L 365.8 240 L 361.6 235.9 C 361.4 235.7 361.5 235.4 361.8 235.4 L 367.6 234.5 L 370.2 229.2 C 370.3 229 370.6 229 370.8 229.2 L 373.4 234.4 L 379.2 235.2 C 379.5 235.2 379.6 235.5 379.4 235.7 L 375.2 239.8 L 376.2 245.6 C 376.1 246 375.9 246.1 375.6 246 Z " fill="rgb(255,222,186)"/><path d=" M 365.1 247.2 C 364.8 247.2 364.5 247.1 364.3 246.9 C 363.9 246.6 363.6 246.1 363.7 245.5 L 364.6 240.3 L 360.8 236.6 C 360.4 236.2 360.3 235.7 360.4 235.2 C 360.6 234.7 361 234.3 361.5 234.2 L 366.7 233.4 L 369 228.7 C 369.2 228.2 369.7 227.9 370.3 227.9 C 370.3 227.9 370.3 227.9 370.3 227.9 C 370.8 227.9 371.3 228.2 371.6 228.7 L 374 233.4 L 379.2 234.1 C 379.7 234.2 380.2 234.5 380.3 235.1 C 380.5 235.6 380.3 236.2 380 236.5 L 376.2 240.2 L 377.1 245.4 C 377.2 245.9 377 246.5 376.6 246.8 C 376.2 247.1 375.6 247.2 375.1 246.9 L 375.1 246.9 L 370.4 244.5 L 365.7 247 C 365.6 247.2 365.4 247.2 365.1 247.2 Z  M 365.9 245.9 L 365.9 245.9 C 365.9 245.9 365.9 245.9 365.9 245.9 Z  M 375 245.9 C 375 245.9 375 245.9 375 245.9 L 375 245.9 L 375 245.9 L 375 245.9 Z  M 364.8 245.1 C 364.8 245.1 364.8 245.1 364.8 245.1 L 364.8 245.1 L 364.8 245.1 L 364.8 245.1 Z  M 376.1 245 L 376.1 245 C 376.1 245 376.1 245 376.1 245 Z  M 363.5 236.3 L 366.6 239.2 C 366.9 239.5 367 239.8 366.9 240.2 L 366.2 244.4 L 369.9 242.4 C 370.2 242.2 370.6 242.2 370.9 242.4 L 374.7 244.4 L 374 240.2 C 373.9 239.8 374.1 239.5 374.3 239.2 L 377.3 236.2 L 373.1 235.6 C 372.7 235.6 372.4 235.3 372.3 235 L 370.4 231.2 L 368.5 235 C 368.3 235.3 368 235.6 367.7 235.6 L 363.5 236.3 L 363.5 236.3 L 363.5 236.3 Z " fill="rgb(66,43,76)"/></g><g><path d=" M 395.7 246.2 L 390.5 243.5 L 385.3 246.3 C 385.1 246.4 384.8 246.2 384.9 246 L 385.9 240.2 L 381.7 236.1 C 381.5 235.9 381.6 235.6 381.9 235.6 L 387.7 234.7 L 390.3 229.4 C 390.4 229.2 390.7 229.2 390.9 229.4 L 393.5 234.6 L 399.3 235.4 C 399.6 235.4 399.7 235.7 399.5 235.9 L 395.3 240 L 396.3 245.8 C 396.2 246.1 395.9 246.3 395.7 246.2 Z " fill="rgb(255,222,186)"/><path d=" M 385.2 247.4 C 384.9 247.4 384.6 247.3 384.4 247.1 C 384 246.8 383.7 246.3 383.8 245.7 L 384.7 240.5 L 380.9 236.8 C 380.5 236.4 380.4 235.9 380.5 235.4 C 380.7 234.9 381.1 234.5 381.6 234.4 L 386.8 233.6 L 389.1 228.9 C 389.3 228.4 389.8 228.1 390.4 228.1 C 391 228.1 391.4 228.4 391.7 228.9 L 394.1 233.6 L 399.3 234.3 C 399.8 234.4 400.3 234.7 400.4 235.3 C 400.6 235.8 400.4 236.4 400.1 236.7 L 396.3 240.4 L 397.2 245.6 C 397.3 246.1 397.1 246.7 396.7 247 C 396.3 247.3 395.7 247.4 395.2 247.1 L 395.2 247.1 L 390.5 244.7 L 385.8 247.2 C 385.6 247.3 385.4 247.4 385.2 247.4 Z  M 395 246 C 395 246 395 246 395 246 L 395 246 L 395 246 L 395 246 Z  M 396.2 245.2 L 396.2 245.2 C 396.2 245.2 396.2 245.2 396.2 245.2 Z  M 383.5 236.4 L 386.6 239.3 C 386.9 239.6 387 239.9 386.9 240.3 L 386.2 244.5 L 389.9 242.5 C 390.2 242.3 390.6 242.3 390.9 242.5 L 394.7 244.5 L 394 240.3 C 393.9 239.9 394.1 239.6 394.3 239.3 L 397.3 236.3 L 393.1 235.7 C 392.7 235.7 392.4 235.4 392.3 235.1 L 390.4 231.3 L 388.5 235.1 C 388.3 235.4 388 235.7 387.7 235.7 L 383.5 236.4 L 383.5 236.4 L 383.5 236.4 Z  M 391.1 229.9 L 391.1 229.9 C 391.1 229.9 391.1 229.9 391.1 229.9 Z " fill="rgb(66,43,76)"/></g><g><path d=" M 415.7 246.3 L 410.5 243.6 L 405.3 246.4 C 405.1 246.5 404.8 246.3 404.9 246.1 L 405.9 240.3 L 401.7 236.2 C 401.5 236 401.6 235.7 401.9 235.7 L 407.7 234.8 L 410.3 229.5 C 410.4 229.3 410.7 229.3 410.9 229.5 L 413.5 234.7 L 419.3 235.5 C 419.6 235.5 419.7 235.8 419.5 236 L 415.3 240.1 L 416.3 245.9 C 416.2 246.2 415.9 246.4 415.7 246.3 Z " fill="rgb(255,222,186)"/><path d=" M 405.2 247.5 C 404.9 247.5 404.6 247.4 404.4 247.2 C 404 246.9 403.7 246.4 403.8 245.8 L 404.7 240.6 L 400.9 236.9 C 400.5 236.5 400.4 236 400.5 235.5 C 400.7 235 401.1 234.6 401.6 234.5 L 406.8 233.7 L 409.1 229 C 409.3 228.5 409.8 228.2 410.4 228.2 C 410.9 228.2 411.4 228.5 411.7 229 L 414.1 233.7 L 419.3 234.4 C 419.8 234.5 420.3 234.8 420.4 235.4 C 420.6 235.9 420.4 236.5 420 236.8 L 416.3 240.5 L 417.2 245.7 C 417.3 246.2 417.1 246.8 416.7 247.1 C 416.3 247.4 415.7 247.5 415.2 247.2 C 415.2 247.2 415.2 247.2 415.2 247.2 L 410.5 244.8 L 405.9 247.3 C 405.6 247.5 405.4 247.5 405.2 247.5 Z  M 415 246.2 C 415 246.2 415 246.2 415 246.2 L 415 246.2 L 415 246.2 L 415 246.2 Z  M 416.2 245.3 L 416.2 245.3 C 416.2 245.3 416.2 245.3 416.2 245.3 Z  M 403.6 236.6 L 406.7 239.5 C 407 239.8 407.1 240.1 407 240.5 L 406.3 244.7 L 410 242.7 C 410.3 242.5 410.7 242.5 411 242.7 L 414.8 244.7 L 414.1 240.5 C 414 240.1 414.2 239.8 414.4 239.5 L 417.4 236.5 L 413.2 235.9 C 412.8 235.9 412.5 235.6 412.4 235.3 L 410.5 231.5 L 408.6 235.3 C 408.4 235.6 408.1 235.9 407.8 235.9 L 403.6 236.6 L 403.6 236.6 L 403.6 236.6 Z  M 418.5 235.3 C 418.5 235.3 418.5 235.3 418.5 235.3 L 418.5 235.3 L 418.5 235.3 L 418.5 235.3 Z  M 411.1 230 L 411.1 230 C 411.1 230.1 411.1 230 411.1 230 Z " fill="rgb(66,43,76)"/></g><g><path d=" M 435.7 246.5 L 430.5 243.8 L 425.3 246.6 C 425.1 246.7 424.8 246.5 424.9 246.3 L 425.9 240.5 L 421.7 236.4 C 421.5 236.2 421.6 235.9 421.9 235.9 L 427.7 235 L 430.3 229.7 C 430.4 229.5 430.7 229.5 430.9 229.7 L 433.5 234.9 L 439.3 235.7 C 439.6 235.7 439.7 236 439.5 236.2 L 435.3 240.3 L 436.3 246.1 C 436.2 246.4 435.9 246.6 435.7 246.5 Z " fill="rgb(255,222,186)"/><path d=" M 425.2 247.7 C 424.9 247.7 424.6 247.6 424.4 247.4 C 424 247.1 423.7 246.6 423.8 246 L 424.7 240.8 L 420.9 237.1 C 420.5 236.7 420.4 236.2 420.5 235.7 C 420.7 235.2 421.1 234.8 421.6 234.7 L 426.8 233.9 L 429.1 229.2 C 429.3 228.7 429.8 228.4 430.4 228.4 C 431 228.4 431.4 228.7 431.7 229.2 L 434.1 233.9 L 439.3 234.6 C 439.8 234.7 440.3 235 440.4 235.6 C 440.6 236.1 440.4 236.7 440 237 L 436.3 240.7 L 437.2 245.9 C 437.3 246.4 437.1 247 436.7 247.3 C 436.3 247.6 435.7 247.7 435.2 247.4 L 435.2 247.4 L 430.5 245 L 425.9 247.5 C 425.7 247.6 425.4 247.7 425.2 247.7 Z  M 435.1 246.3 C 435.1 246.3 435.1 246.3 435.1 246.3 L 435.1 246.3 L 435.1 246.3 L 435.1 246.3 Z  M 436.2 245.5 L 436.2 245.5 C 436.2 245.5 436.2 245.5 436.2 245.5 Z  M 423.6 236.7 L 426.7 239.6 C 427 239.9 427.1 240.2 427 240.6 L 426.3 244.8 L 430 242.8 C 430.3 242.6 430.7 242.6 431 242.8 L 434.8 244.8 L 434.1 240.6 C 434 240.2 434.2 239.9 434.4 239.6 L 437.4 236.6 L 433.2 236 C 432.8 236 432.5 235.7 432.4 235.4 L 430.5 231.6 L 428.6 235.4 C 428.4 235.7 428.1 236 427.8 236 L 423.6 236.7 L 423.6 236.7 L 423.6 236.7 Z  M 422.4 235.6 L 422.4 235.6 C 422.4 235.6 422.4 235.6 422.4 235.6 Z  M 438.5 235.5 C 438.5 235.5 438.5 235.5 438.5 235.5 L 438.5 235.5 L 438.5 235.5 L 438.5 235.5 Z " fill="rgb(66,43,76)"/></g></g></g><g><g><path d=" M 407.6 47.1 C 407.2 47.1 406.9 46.8 406.9 46.5 C 406.9 46.1 407.2 45.8 407.5 45.7 L 411.5 45.4 C 411.9 45.4 412.2 45.7 412.3 46 C 412.3 46.4 412 46.7 411.7 46.8 L 407.6 47.1 C 407.6 47.1 407.6 47.1 407.6 47.1 Z " fill="rgb(66,43,76)"/></g><g><path d=" M 402.3 39.8 C 402.2 39.8 402.1 39.8 402.1 39.8 C 401.7 39.7 401.6 39.3 401.7 38.9 L 403 35.4 C 403.1 35 403.5 34.9 403.9 35 C 404.3 35.1 404.4 35.5 404.3 35.9 L 403 39.4 C 402.9 39.6 402.6 39.8 402.3 39.8 Z " fill="rgb(66,43,76)"/></g><g><path d=" M 405.2 43 C 405 43 404.8 42.9 404.6 42.7 C 404.4 42.4 404.4 42 404.7 41.7 L 408 39.3 C 408.3 39.1 408.8 39.1 409 39.4 C 409.2 39.7 409.2 40.1 408.9 40.4 L 405.6 42.8 C 405.5 43 405.4 43 405.2 43 Z " fill="rgb(66,43,76)"/></g></g><g><g><rect x="37.3" y="36.1" width="110.9" height="11" transform="matrix(1,0,0,1,0,0)" fill="rgb(181,183,255)"/><path d=" M 148.3 48.2 L 37.3 48.2 C 36.7 48.2 36.2 47.7 36.2 47.1 L 36.2 36.1 C 36.2 35.5 36.7 35 37.3 35 L 148.2 35 C 148.8 35 149.3 35.5 149.3 36.1 L 149.3 47.1 C 149.4 47.7 148.9 48.2 148.3 48.2 Z  M 38.5 45.9 L 147.1 45.9 L 147.1 37.2 L 38.5 37.2 L 38.5 45.9 L 38.5 45.9 L 38.5 45.9 Z " fill="rgb(66,43,76)"/></g><g><rect x="37.3" y="47.1" width="110.9" height="97.7" transform="matrix(1,0,0,1,0,0)" fill="rgb(255,255,255)"/><path d=" M 148.3 145.9 L 37.3 145.9 C 36.7 145.9 36.2 145.4 36.2 144.8 L 36.2 47.1 C 36.2 46.5 36.7 46 37.3 46 L 148.2 46 C 148.8 46 149.3 46.5 149.3 47.1 L 149.3 144.8 C 149.4 145.4 148.9 145.9 148.3 145.9 Z  M 38.5 143.6 L 147.1 143.6 L 147.1 48.2 L 38.5 48.2 L 38.5 143.6 L 38.5 143.6 L 38.5 143.6 Z " fill="rgb(66,43,76)"/></g><g><g><rect x="72.9" y="84.2" width="39.8" height="39.8" transform="matrix(1,0,0,1,0,0)" fill="rgb(255,255,255)"/><path d=" M 112.7 125.2 L 72.9 125.2 C 72.3 125.2 71.8 124.7 71.8 124.1 L 71.8 84.2 C 71.8 83.6 72.3 83.1 72.9 83.1 L 112.7 83.1 C 113.3 83.1 113.8 83.6 113.8 84.2 L 113.8 124 C 113.8 124.7 113.3 125.2 112.7 125.2 Z  M 74 122.9 L 111.5 122.9 L 111.5 85.4 L 74 85.4 L 74 122.9 L 74 122.9 L 74 122.9 Z " fill="rgb(66,43,76)"/></g><g><path d=" M 101.5 124 L 73.1 124 L 72.9 124 L 72.9 115.2 L 84.6 94.7 L 96.7 115.8 L 101.4 123.9 L 101.5 124 L 101.5 124 Z " fill="rgb(255,255,255)"/><path d=" M 101.5 125.2 L 73.1 125.2 C 73 125.2 73 125.2 72.9 125.2 L 72.7 125.2 C 72.1 125.1 71.7 124.6 71.7 124.1 L 71.7 115.2 C 71.7 115 71.8 114.8 71.9 114.6 L 83.6 94.2 C 83.8 93.8 84.2 93.6 84.6 93.6 C 84.6 93.6 84.6 93.6 84.6 93.6 C 85 93.6 85.4 93.8 85.6 94.2 L 102.5 123.5 C 102.7 123.9 102.7 124.3 102.5 124.7 C 102.3 125.1 101.9 125.2 101.5 125.2 Z  M 74 122.9 L 99.5 122.9 L 84.6 97 L 74 115.5 L 74 122.9 L 74 122.9 L 74 122.9 Z " fill="rgb(66,43,76)"/></g><g><path d=" M 112.7 119.9 L 112.7 124 L 101.1 124 L 101.4 123.9 L 96.7 115.8 L 103.5 104 L 112.7 119.9 L 112.7 119.9 Z " fill="rgb(255,255,255)"/><path d=" M 112.7 125.2 L 101.2 125.2 C 100.7 125.2 100.2 124.9 100.1 124.4 C 100 124.2 100 124 100.1 123.8 L 95.8 116.4 C 95.6 116 95.6 115.6 95.8 115.3 L 102.6 103.5 C 102.8 103.1 103.2 102.9 103.6 102.9 C 103.6 102.9 103.6 102.9 103.6 102.9 C 104 102.9 104.4 103.1 104.6 103.5 L 113.8 119.4 C 113.9 119.6 114 119.8 114 120 L 114 124.1 C 113.8 124.7 113.3 125.2 112.7 125.2 Z  M 102.1 122.9 L 111.5 122.9 L 111.5 120.2 L 103.5 106.3 L 98.1 115.8 L 102.1 122.9 L 102.1 122.9 L 102.1 122.9 Z " fill="rgb(66,43,76)"/></g><g><circle vector-effect="non-scaling-stroke" cx="96.5" cy="94" r="4.400000000000006" fill="rgb(255,255,255)"/><path d=" M 96.5 99.6 C 93.4 99.6 90.9 97.1 90.9 94 C 90.9 90.9 93.4 88.4 96.5 88.4 C 99.6 88.4 102.1 90.9 102.1 94 C 102.1 97.1 99.5 99.6 96.5 99.6 Z  M 96.5 90.7 C 94.7 90.7 93.2 92.2 93.2 94 C 93.2 95.8 94.7 97.3 96.5 97.3 C 98.3 97.3 99.8 95.8 99.8 94 C 99.8 92.2 98.3 90.7 96.5 90.7 Z " fill="rgb(66,43,76)"/></g></g><g><rect x="66.6" y="59.4" width="74.3" height="11.8" transform="matrix(1,0,0,1,0,0)" fill="rgb(255,255,255)"/><path d=" M 141 72.3 L 66.6 72.3 C 66 72.3 65.5 71.8 65.5 71.2 L 65.5 59.4 C 65.5 58.8 66 58.3 66.6 58.3 L 141 58.3 C 141.6 58.3 142.1 58.8 142.1 59.4 L 142.1 71.2 C 142.1 71.8 141.6 72.3 141 72.3 Z  M 67.8 70 L 139.8 70 L 139.8 60.5 L 67.8 60.5 L 67.8 70 L 67.8 70 L 67.8 70 Z " fill="rgb(66,43,76)"/></g><g><path d=" M 64.1 42.4 L 44.9 42.4 C 44.3 42.4 43.9 42 43.9 41.4 C 43.9 40.8 44.3 40.4 44.9 40.4 L 64.1 40.4 C 64.7 40.4 65.1 40.8 65.1 41.4 C 65.1 42 64.6 42.4 64.1 42.4 Z " fill="rgb(66,43,76)"/></g><g><g><rect x="44.9" y="59.4" width="13.6" height="11.8" transform="matrix(1,0,0,1,0,0)" fill="rgb(255,255,255)"/><path d=" M 58.5 72.3 L 44.9 72.3 C 44.3 72.3 43.8 71.8 43.8 71.2 L 43.8 59.4 C 43.8 58.8 44.3 58.3 44.9 58.3 L 58.5 58.3 C 59.1 58.3 59.6 58.8 59.6 59.4 L 59.6 71.2 C 59.6 71.8 59.1 72.3 58.5 72.3 Z  M 46 70 L 57.3 70 L 57.3 60.5 L 46 60.5 L 46 70 L 46 70 L 46 70 Z " fill="rgb(66,43,76)"/></g><g><path d=" M 56.5 71.1 C 56.1 69.2 54.4 69.1 53.6 68.5 C 52.8 67.9 53 67.2 53 67.2 C 53.4 66.8 53.4 66.2 53.4 66.2 C 53.4 66.2 53.7 66.1 53.9 65.5 C 54.1 64.8 53.6 64.9 53.6 64.9 L 53.7 63.9 C 54.1 63.7 54 63.7 54 63.7 C 53.5 60.9 50.6 62.2 50.6 62.2 C 50.6 62.2 49.4 62.2 49.9 64.9 C 49.9 64.9 49.5 64.8 49.7 65.6 C 49.7 65.6 49.8 66.1 50.1 66.1 C 50.1 66.1 50.1 66.9 50.5 67.3 C 50.5 67.3 50.4 68.4 49.4 68.7 C 48.4 69.1 47 69.7 46.9 71.1 L 56.5 71.1 L 56.5 71.1 L 56.5 71.1 Z " fill="rgb(181,183,255)"/><path d=" M 56.5 72.1 L 46.9 72.1 C 46.6 72.1 46.4 72 46.2 71.8 C 46 71.6 45.9 71.4 45.9 71.1 C 45.9 69 48.1 68.2 49 67.8 C 49.2 67.7 49.3 67.6 49.4 67.4 C 49.3 67.1 49.2 66.8 49.1 66.6 C 48.9 66.4 48.7 66.1 48.7 65.8 C 48.5 65.3 48.5 64.8 48.8 64.4 C 48.7 63.2 48.9 62.3 49.3 61.8 C 49.6 61.5 50 61.3 50.3 61.2 C 50.8 61 52.1 60.6 53.3 61.2 C 53.8 61.5 54.5 62.1 54.8 63.3 C 54.8 63.4 54.8 63.4 54.8 63.5 C 54.8 63.9 54.7 64.1 54.5 64.3 C 54.7 64.6 54.8 65 54.7 65.6 C 54.6 66.1 54.4 66.4 54.2 66.6 C 54.2 66.9 54.1 67.2 53.9 67.5 C 53.9 67.5 54 67.6 54.1 67.7 C 54.2 67.8 54.5 67.9 54.7 68 C 55.6 68.4 57 69 57.4 70.9 C 57.5 71.2 57.4 71.5 57.2 71.7 C 57 71.9 56.7 72.1 56.5 72.1 Z  M 48.4 70.2 L 54.7 70.2 C 54.5 70.1 54.2 69.9 53.9 69.8 C 53.6 69.7 53.2 69.5 52.9 69.3 C 51.8 68.5 51.8 67.4 52 66.9 C 52 66.8 52.1 66.6 52.2 66.5 C 52.3 66.4 52.3 66.2 52.3 66.1 C 52.3 65.8 52.5 65.5 52.7 65.4 C 52.6 65.2 52.5 65 52.5 64.8 L 52.6 63.8 C 52.6 63.6 52.7 63.5 52.8 63.3 C 52.7 63 52.5 62.9 52.4 62.9 C 51.9 62.6 51.1 62.9 50.9 63 C 50.8 63 50.8 63 50.7 63.1 C 50.6 63.2 50.5 63.6 50.7 64.7 C 50.7 64.9 50.7 65.2 50.6 65.4 C 50.8 65.6 51 65.8 51 66.1 C 51 66.3 51.1 66.6 51.1 66.7 C 51.3 66.9 51.4 67.2 51.4 67.5 C 51.3 68.1 50.9 69.3 49.7 69.7 C 49.2 69.8 48.8 70 48.4 70.2 Z  M 49.6 65.8 C 49.6 65.8 49.6 65.8 49.6 65.8 C 49.6 65.8 49.6 65.8 49.6 65.8 Z  M 53.7 65.8 C 53.7 65.8 53.7 65.8 53.7 65.8 C 53.7 65.8 53.7 65.8 53.7 65.8 Z  M 53.1 65.2 C 53.1 65.2 53 65.3 53.1 65.2 C 53 65.3 53.1 65.2 53.1 65.2 Z  M 53.1 65.2 C 53.1 65.2 53.1 65.2 53.1 65.2 C 53.1 65.2 53.1 65.2 53.1 65.2 Z  M 50 65.1 C 50 65.1 50 65.1 50 65.1 C 50 65.1 50 65.1 50 65.1 Z  M 50.5 63.1 C 50.5 63.1 50.5 63.1 50.5 63.1 C 50.5 63.1 50.5 63.1 50.5 63.1 Z  M 50.5 63.1 L 50.5 63.1 L 50.5 63.1 L 50.5 63.1 L 50.5 63.1 Z " fill="rgb(66,43,76)"/></g></g><g><g><rect x="44.9" y="84.3" width="21.7" height="39.7" transform="matrix(1,0,0,1,0,0)" fill="rgb(255,255,255)"/><path d=" M 66.6 125.2 L 44.9 125.2 C 44.3 125.2 43.8 124.7 43.8 124.1 L 43.8 84.3 C 43.8 83.7 44.3 83.2 44.9 83.2 L 66.6 83.2 C 67.2 83.2 67.7 83.7 67.7 84.3 L 67.7 124 C 67.8 124.7 67.2 125.2 66.6 125.2 Z  M 46 122.9 L 65.4 122.9 L 65.4 85.5 L 46 85.5 L 46 122.9 L 46 122.9 L 46 122.9 Z " fill="rgb(66,43,76)"/></g><g><path d=" M 66.6 125 C 66.2 125 65.9 124.8 65.7 124.5 L 44 84.8 C 43.7 84.3 43.9 83.7 44.4 83.4 C 44.9 83.1 45.5 83.3 45.8 83.8 L 67.5 123.5 C 67.8 124 67.6 124.6 67.1 124.9 C 66.9 125 66.8 125 66.6 125 Z " fill="rgb(66,43,76)"/></g><g><path d=" M 44.9 124.9 C 44.7 124.9 44.6 124.9 44.4 124.8 C 43.9 124.5 43.7 123.9 44 123.4 L 65.7 83.7 C 66 83.2 66.6 83 67.1 83.3 C 67.6 83.6 67.8 84.2 67.5 84.7 L 45.8 124.4 C 45.6 124.7 45.2 124.9 44.9 124.9 Z " fill="rgb(66,43,76)"/></g></g><g><g><rect x="119.2" y="84.2" width="21.7" height="39.7" transform="matrix(1,0,0,1,0,0)" fill="rgb(255,255,255)"/><path d=" M 141 125 L 119.3 125 C 118.7 125 118.2 124.5 118.2 123.9 L 118.2 84.2 C 118.2 83.6 118.7 83.1 119.3 83.1 L 141 83.1 C 141.6 83.1 142.1 83.6 142.1 84.2 L 142.1 123.9 C 142.1 124.5 141.6 125 141 125 Z  M 120.4 122.7 L 139.8 122.7 L 139.8 85.3 L 120.4 85.3 L 120.4 122.7 L 120.4 122.7 L 120.4 122.7 Z " fill="rgb(66,43,76)"/></g><g><g><g><path d=" M 136.3 94 L 123.9 94 C 123.3 94 122.9 93.6 122.9 93 C 122.9 92.4 123.3 92 123.9 92 L 136.3 92 C 136.9 92 137.3 92.4 137.3 93 C 137.3 93.6 136.8 94 136.3 94 Z " fill="rgb(66,43,76)"/></g><g><path d=" M 136.3 99.5 L 123.9 99.5 C 123.3 99.5 122.9 99.1 122.9 98.5 C 122.9 97.9 123.3 97.5 123.9 97.5 L 136.3 97.5 C 136.9 97.5 137.3 97.9 137.3 98.5 C 137.3 99.1 136.8 99.5 136.3 99.5 Z " fill="rgb(66,43,76)"/></g></g><g><g><path d=" M 136.3 105 L 123.9 105 C 123.3 105 122.9 104.6 122.9 104 C 122.9 103.4 123.3 103 123.9 103 L 136.3 103 C 136.9 103 137.3 103.4 137.3 104 C 137.3 104.6 136.8 105 136.3 105 Z " fill="rgb(66,43,76)"/></g><g><path d=" M 136.3 110.5 L 123.9 110.5 C 123.3 110.5 122.9 110.1 122.9 109.5 C 122.9 108.9 123.3 108.5 123.9 108.5 L 136.3 108.5 C 136.9 108.5 137.3 108.9 137.3 109.5 C 137.3 110.1 136.8 110.5 136.3 110.5 Z " fill="rgb(66,43,76)"/></g></g><g><g><path d=" M 136.3 116 L 123.9 116 C 123.3 116 122.9 115.6 122.9 115 C 122.9 114.4 123.3 114 123.9 114 L 136.3 114 C 136.9 114 137.3 114.4 137.3 115 C 137.3 115.6 136.8 116 136.3 116 Z " fill="rgb(66,43,76)"/></g></g></g></g><g><g><g><path d=" M 121.4 138 C 121.2 138 121.1 137.9 121 137.8 L 116.8 133.2 C 116.6 133 116.6 132.6 116.8 132.4 C 117 132.2 117.4 132.2 117.6 132.4 L 121.8 137 C 122 137.2 122 137.6 121.8 137.8 C 121.7 137.9 121.5 138 121.4 138 Z " fill="rgb(66,43,76)"/></g><g><path d=" M 122.5 135.4 C 122.3 135.4 122.2 135.3 122.1 135.2 L 120.2 133.2 C 120 133 120 132.6 120.2 132.4 C 120.4 132.2 120.8 132.2 121 132.4 L 122.9 134.4 C 123.1 134.6 123.1 135 122.9 135.2 C 122.8 135.3 122.7 135.4 122.5 135.4 Z " fill="rgb(66,43,76)"/></g></g></g></g></g></g></g></g></g></svg>