<?xml version="1.0" encoding="UTF-8" standalone="no"?><!-- Generator: Gravit.io --><svg xmlns="http://www.w3.org/2000/svg" xmlns:xlink="http://www.w3.org/1999/xlink" style="isolation:isolate" viewBox="0 0 512 512" width="512pt" height="512pt"><defs><clipPath id="_clipPath_uNBqKiHycFh9LZ4uiz4yLS1EMgzgbjkA"><rect width="512" height="512"/></clipPath></defs><g clip-path="url(#_clipPath_uNBqKiHycFh9LZ4uiz4yLS1EMgzgbjkA)"><g><path d=" M 346.9 449.638 L 254.586 449.638 C 246.775 449.638 240.443 443.306 240.443 435.495 C 240.443 427.684 246.775 421.352 254.586 421.352 L 346.9 421.352 C 354.71 421.352 361.043 427.684 361.043 435.495 C 361.043 443.306 354.71 449.638 346.9 449.638 Z " fill="rgb(74,134,232)"/><path d=" M 165.126 449.64 C 158.129 449.64 152.049 444.451 151.12 437.326 L 125.881 243.949 C 113.509 163.112 144.467 81.597 206.697 31.176 C 229.779 12.474 248.438 2.173 249.22 1.743 C 253.494 -0.601 258.67 -0.578 262.925 1.8 C 263.761 2.268 283.67 13.478 307.815 33.577 C 368.346 83.962 398.337 164.759 386.085 244.435 C 384.898 252.156 377.666 257.451 369.958 256.264 C 362.237 255.077 356.941 247.856 358.129 240.135 C 368.882 170.21 342.669 99.391 289.721 55.316 C 275.791 43.721 263.302 35.296 255.961 30.645 C 249.021 34.974 237.49 42.633 224.505 53.154 C 170.017 97.302 142.95 168.827 153.865 239.814 C 153.882 239.92 153.896 240.026 153.91 240.134 L 179.168 433.666 C 180.179 441.411 174.719 448.509 166.974 449.52 C 166.354 449.6 165.736 449.64 165.126 449.64 Z " fill="rgb(74,134,232)"/></g><path d=" M 165.145 435.495 L 149.053 312.186 L 114.066 347.997 C 98.24 364.195 89.379 385.943 89.379 408.591 L 89.379 484.994 L 165.379 435.496 L 165.145 435.496 L 165.145 435.495 Z " fill="rgb(206,232,250)"/><path d=" M 89.377 499.137 C 87.063 499.137 84.745 498.57 82.638 497.429 C 78.075 494.955 75.235 490.183 75.235 484.994 L 75.235 408.591 C 75.235 382.095 85.432 357.066 103.948 338.114 L 138.935 302.303 C 142.721 298.428 148.388 297.056 153.527 298.77 C 158.667 300.484 162.375 304.985 163.075 310.356 L 178.842 431.174 C 178.873 431.272 178.903 431.369 178.933 431.468 C 180.715 437.47 178.339 443.93 173.093 447.345 L 97.095 496.843 C 94.757 498.369 92.07 499.137 89.377 499.137 Z  M 138.799 342.919 L 124.181 357.881 C 110.858 371.518 103.522 389.526 103.522 408.59 L 103.522 458.903 L 149.988 428.641 L 138.799 342.919 L 138.799 342.919 Z " fill="rgb(74,134,232)"/><path d=" M 397.934 347.998 L 362.982 312.224 L 346.898 435.496 L 346.621 435.496 L 422.621 484.994 L 422.621 408.591 C 422.621 385.944 413.761 364.196 397.934 347.998 Z " fill="rgb(206,232,250)"/><path d=" M 422.623 499.137 C 419.929 499.137 417.242 498.369 414.902 496.844 L 338.904 447.346 C 333.658 443.929 331.282 437.471 333.066 431.469 C 333.117 431.294 333.172 431.12 333.231 430.947 L 348.958 310.393 C 349.658 305.02 353.366 300.521 358.506 298.807 C 363.646 297.091 369.314 298.463 373.097 302.34 L 408.049 338.114 C 426.567 357.066 436.764 382.095 436.764 408.591 L 436.764 484.994 C 436.764 490.183 433.923 494.955 429.361 497.429 C 427.253 498.569 424.934 499.137 422.623 499.137 Z  M 362.055 428.667 L 408.479 458.902 L 408.479 408.589 C 408.479 389.525 401.142 371.515 387.82 357.88 L 373.237 342.955 L 362.055 428.667 L 362.055 428.667 Z " fill="rgb(74,134,232)"/><path d=" M 255.999 497.858 L 216.226 435.495 L 255.999 373.134 L 295.773 435.495 L 255.999 497.858 Z " fill="rgb(206,232,250)"/><path d=" M 255.999 512 C 251.168 512 246.672 509.535 244.075 505.462 L 204.302 443.1 C 201.343 438.461 201.343 432.528 204.302 427.889 L 244.075 365.528 C 246.672 361.456 251.169 358.99 255.999 358.99 C 260.829 358.99 265.326 361.455 267.925 365.528 L 307.698 427.889 C 310.655 432.528 310.655 438.461 307.698 443.1 L 267.925 505.462 C 265.327 509.535 260.829 512 255.999 512 Z  M 233.001 435.495 L 255.999 471.556 L 278.999 435.495 L 255.999 399.434 L 233.001 435.495 L 233.001 435.495 Z " fill="rgb(74,134,232)"/><circle vector-effect="non-scaling-stroke" cx="256.005" cy="241.26799999999997" r="47.13900000000001" fill="rgb(206,232,250)"/><g><path d=" M 255.999 302.552 C 222.205 302.552 194.712 275.059 194.712 241.265 C 194.712 207.471 222.205 179.978 255.999 179.978 C 289.793 179.978 317.286 207.471 317.286 241.265 C 317.286 275.059 289.793 302.552 255.999 302.552 Z  M 255.999 208.265 C 237.802 208.265 222.999 223.069 222.999 241.265 C 222.999 259.462 237.803 274.265 255.999 274.265 C 274.195 274.265 288.999 259.461 288.999 241.265 C 288.999 223.069 274.196 208.265 255.999 208.265 Z " fill="rgb(74,134,232)"/><path d=" M 255.999 142.263 L 156.995 142.263 C 149.184 142.263 142.852 135.931 142.852 128.12 C 142.852 120.309 149.184 113.977 156.995 113.977 L 255.999 113.977 C 263.809 113.977 270.142 120.309 270.142 128.12 C 270.142 135.931 263.81 142.263 255.999 142.263 Z " fill="rgb(74,134,232)"/><path d=" M 353.761 142.263 L 310.45 142.263 C 302.64 142.263 296.307 135.931 296.307 128.12 C 296.307 120.309 302.64 113.977 310.45 113.977 L 353.761 113.977 C 361.571 113.977 367.904 120.309 367.904 128.12 C 367.904 135.931 361.572 142.263 353.761 142.263 Z " fill="rgb(74,134,232)"/></g></g></svg>