<?xml version="1.0" encoding="UTF-8" standalone="no"?><!-- Generator: Gravit.io --><svg xmlns="http://www.w3.org/2000/svg" xmlns:xlink="http://www.w3.org/1999/xlink" style="isolation:isolate" viewBox="0 0 512 512" width="512pt" height="512pt"><defs><clipPath id="_clipPath_gH5Oj0ldBlOYFeEsTSWXsfqz12AMDiXX"><rect width="512" height="512"/></clipPath></defs><g clip-path="url(#_clipPath_gH5Oj0ldBlOYFeEsTSWXsfqz12AMDiXX)"><path d=" M 334.221 378.497 L 256 442.533 L 177.779 378.497 L 229.242 149.047 L 282.758 149.047 L 334.221 378.497 Z " fill="rgb(206,232,250)"/><g><path d=" M 256 457.971 C 252.533 457.971 249.066 456.807 246.222 454.479 L 168.001 390.445 C 163.484 386.746 161.44 380.817 162.717 375.12 L 214.181 145.668 C 215.762 138.619 222.02 133.608 229.243 133.608 L 282.758 133.608 C 289.983 133.608 296.24 138.617 297.82 145.668 L 349.284 375.12 C 350.562 380.815 348.517 386.746 344 390.445 L 265.779 454.479 C 262.934 456.807 259.467 457.971 256 457.971 Z  M 194.925 372.586 L 256 422.583 L 317.075 372.586 L 270.4 164.484 L 241.602 164.484 L 194.925 372.586 L 194.925 372.586 Z " fill="rgb(74,134,232)"/><path d=" M 165.277 191.22 C 154.46 191.22 144.474 185.352 139.216 175.909 L 97.001 100.09 C 95.721 97.794 95.051 95.209 95.051 92.581 L 95.051 38.281 C 95.051 17.173 112.225 0 133.337 0 C 140.12 0 146.842 1.856 152.774 5.366 L 253.196 64.783 C 256.964 67.012 259.61 70.739 260.47 75.035 C 261.331 79.328 260.328 83.786 257.71 87.297 L 189.16 179.228 C 183.478 186.848 174.773 191.22 165.277 191.22 Z  M 125.926 88.572 L 165.392 159.454 L 222.693 82.61 L 137.052 31.937 C 135.86 31.232 134.61 30.875 133.338 30.875 C 129.774 30.875 125.926 33.706 125.926 38.282 L 125.926 88.572 L 125.926 88.572 Z " fill="rgb(74,134,232)"/><path d=" M 346.726 191.22 C 346.724 191.22 346.724 191.22 346.723 191.22 C 337.229 191.218 328.524 186.848 322.841 179.227 L 254.291 87.296 C 251.673 83.786 250.669 79.327 251.531 75.034 C 252.392 70.739 255.037 67.014 258.805 64.782 L 359.227 5.363 C 365.159 1.854 371.879 0 378.663 0 C 399.774 0 416.949 17.173 416.949 38.282 L 416.949 92.582 C 416.949 95.209 416.277 97.795 414.999 100.091 L 372.784 175.91 C 367.528 185.352 357.541 191.22 346.726 191.22 Z  M 289.308 82.61 L 346.609 159.454 L 386.075 88.572 L 386.075 38.282 C 386.075 33.706 382.228 30.875 378.664 30.875 C 377.39 30.875 376.14 31.232 374.95 31.937 L 289.308 82.61 L 289.308 82.61 Z " fill="rgb(74,134,232)"/></g><path d=" M 266.667 78.068 L 245.334 78.068 L 199.204 139.934 L 209.824 172.366 L 302.176 172.366 L 312.796 139.932 L 266.667 78.068 Z " fill="rgb(206,232,250)"/><g><path d=" M 302.176 187.804 L 209.825 187.804 C 203.15 187.804 197.231 183.514 195.155 177.169 L 184.536 144.735 C 182.974 139.963 183.829 134.73 186.832 130.704 L 232.962 68.84 C 235.875 64.933 240.463 62.631 245.338 62.631 L 266.671 62.631 C 271.545 62.631 276.133 64.933 279.047 68.84 L 325.176 130.704 C 328.177 134.729 329.034 139.963 327.472 144.735 L 316.853 177.169 C 314.77 183.514 308.85 187.804 302.176 187.804 Z  M 221.013 156.929 L 290.986 156.929 L 295.633 142.74 L 258.921 93.505 L 253.079 93.505 L 216.367 142.74 L 221.013 156.929 L 221.013 156.929 Z " fill="rgb(74,134,232)"/><path d=" M 408.359 512 L 334.221 512 C 325.695 512 318.784 505.087 318.784 496.563 C 318.784 488.039 325.695 481.126 334.221 481.126 L 408.359 481.126 C 435.2 481.126 457.038 459.288 457.038 432.447 L 457.038 183.031 C 457.038 174.784 453.827 167.033 447.995 161.201 C 441.967 155.173 441.967 145.398 447.995 139.368 C 454.023 133.341 463.798 133.341 469.828 139.368 C 481.491 151.031 487.913 166.538 487.913 183.03 L 487.913 432.444 C 487.913 476.312 452.225 512 408.359 512 Z " fill="rgb(74,134,232)"/><path d=" M 240.563 512 L 103.641 512 C 59.774 512 24.087 476.312 24.087 432.446 L 24.087 183.031 C 24.087 166.538 30.509 151.032 42.172 139.371 L 97.603 83.938 C 103.631 77.911 113.406 77.911 119.436 83.938 C 125.464 89.966 125.464 99.741 119.436 105.771 L 64.003 161.202 C 58.172 167.033 54.961 174.785 54.961 183.032 L 54.961 432.446 C 54.961 459.289 76.799 481.125 103.64 481.125 L 240.561 481.125 C 249.087 481.125 255.998 488.038 255.998 496.562 C 255.998 505.086 249.089 512 240.563 512 Z " fill="rgb(74,134,232)"/></g></g></svg>