<?xml version="1.0" encoding="UTF-8" standalone="no"?><!-- Generator: Gravit.io --><svg xmlns="http://www.w3.org/2000/svg" xmlns:xlink="http://www.w3.org/1999/xlink" style="isolation:isolate" viewBox="77.857 44 692.596 211.008" width="692.596pt" height="211.008pt"><path d=" M 222.319 185.536 L 200.699 185.536 L 200.699 185.536 Q 199.69 183.951 198.825 181.212 L 198.825 181.212 L 198.825 181.212 Q 197.96 178.474 197.96 175.447 L 197.96 175.447 L 197.96 175.447 Q 197.96 169.826 200.483 167.376 L 200.483 167.376 L 200.483 167.376 Q 203.005 164.925 207.041 164.925 L 207.041 164.925 L 269.882 164.925 L 269.882 164.925 Q 270.891 166.511 271.756 169.249 L 271.756 169.249 L 271.756 169.249 Q 272.621 171.988 272.621 175.015 L 272.621 175.015 L 272.621 175.015 Q 272.621 180.636 270.099 183.086 L 270.099 183.086 L 270.099 183.086 Q 267.576 185.536 263.541 185.536 L 263.541 185.536 L 247.542 185.536 L 247.542 252.125 L 247.542 252.125 Q 245.956 252.558 242.569 252.99 L 242.569 252.99 L 242.569 252.99 Q 239.182 253.423 235.867 253.423 L 235.867 253.423 L 235.867 253.423 Q 232.552 253.423 230.03 252.918 L 230.03 252.918 L 230.03 252.918 Q 227.508 252.414 225.778 251.116 L 225.778 251.116 L 225.778 251.116 Q 224.048 249.819 223.184 247.513 L 223.184 247.513 L 223.184 247.513 Q 222.319 245.207 222.319 241.46 L 222.319 241.46 L 222.319 185.536 Z  M 311.392 255.008 L 311.392 255.008 L 311.392 255.008 Q 302.889 255.008 295.61 252.63 L 295.61 252.63 L 295.61 252.63 Q 288.331 250.252 282.926 245.495 L 282.926 245.495 L 282.926 245.495 Q 277.521 240.739 274.423 233.532 L 274.423 233.532 L 274.423 233.532 Q 271.324 226.326 271.324 216.669 L 271.324 216.669 L 271.324 216.669 Q 271.324 207.156 274.423 200.31 L 274.423 200.31 L 274.423 200.31 Q 277.521 193.464 282.566 189.068 L 282.566 189.068 L 282.566 189.068 Q 287.611 184.671 294.097 182.582 L 294.097 182.582 L 294.097 182.582 Q 300.582 180.492 307.357 180.492 L 307.357 180.492 L 307.357 180.492 Q 314.996 180.492 321.265 182.798 L 321.265 182.798 L 321.265 182.798 Q 327.535 185.104 332.075 189.14 L 332.075 189.14 L 332.075 189.14 Q 336.616 193.175 339.138 198.796 L 339.138 198.796 L 339.138 198.796 Q 341.66 204.418 341.66 211.048 L 341.66 211.048 L 341.66 211.048 Q 341.66 215.948 338.922 218.543 L 338.922 218.543 L 338.922 218.543 Q 336.183 221.137 331.283 221.858 L 331.283 221.858 L 295.682 227.19 L 295.682 227.19 Q 297.267 231.947 302.168 234.325 L 302.168 234.325 L 302.168 234.325 Q 307.068 236.703 313.41 236.703 L 313.41 236.703 L 313.41 236.703 Q 319.32 236.703 324.58 235.19 L 324.58 235.19 L 324.58 235.19 Q 329.841 233.676 333.156 231.659 L 333.156 231.659 L 333.156 231.659 Q 335.462 233.1 337.048 235.694 L 337.048 235.694 L 337.048 235.694 Q 338.633 238.289 338.633 241.171 L 338.633 241.171 L 338.633 241.171 Q 338.633 247.657 332.58 250.828 L 332.58 250.828 L 332.58 250.828 Q 327.968 253.278 322.202 254.143 L 322.202 254.143 L 322.202 254.143 Q 316.437 255.008 311.392 255.008 Z  M 307.357 198.364 L 307.357 198.364 L 307.357 198.364 Q 303.898 198.364 301.375 199.517 L 301.375 199.517 L 301.375 199.517 Q 298.853 200.67 297.267 202.472 L 297.267 202.472 L 297.267 202.472 Q 295.682 204.273 294.889 206.508 L 294.889 206.508 L 294.889 206.508 Q 294.097 208.742 293.952 211.048 L 293.952 211.048 L 318.599 207.012 L 318.599 207.012 Q 318.167 204.129 315.428 201.247 L 315.428 201.247 L 315.428 201.247 Q 312.69 198.364 307.357 198.364 Z  M 392.971 199.805 L 392.971 199.805 L 392.971 199.805 Q 389.368 199.805 386.125 200.958 L 386.125 200.958 L 386.125 200.958 Q 382.882 202.111 380.504 204.346 L 380.504 204.346 L 380.504 204.346 Q 378.126 206.58 376.684 209.895 L 376.684 209.895 L 376.684 209.895 Q 375.243 213.21 375.243 217.678 L 375.243 217.678 L 375.243 217.678 Q 375.243 226.614 380.36 231.082 L 380.36 231.082 L 380.36 231.082 Q 385.476 235.55 392.827 235.55 L 392.827 235.55 L 392.827 235.55 Q 397.151 235.55 400.322 234.541 L 400.322 234.541 L 400.322 234.541 Q 403.493 233.532 405.943 232.379 L 405.943 232.379 L 405.943 232.379 Q 408.826 234.397 410.267 236.775 L 410.267 236.775 L 410.267 236.775 Q 411.708 239.153 411.708 242.468 L 411.708 242.468 L 411.708 242.468 Q 411.708 248.378 406.087 251.621 L 406.087 251.621 L 406.087 251.621 Q 400.466 254.864 390.521 254.864 L 390.521 254.864 L 390.521 254.864 Q 381.441 254.864 374.09 252.197 L 374.09 252.197 L 374.09 252.197 Q 366.739 249.531 361.478 244.703 L 361.478 244.703 L 361.478 244.703 Q 356.217 239.874 353.335 233.1 L 353.335 233.1 L 353.335 233.1 Q 350.452 226.326 350.452 218.11 L 350.452 218.11 L 350.452 218.11 Q 350.452 208.597 353.551 201.463 L 353.551 201.463 L 353.551 201.463 Q 356.65 194.328 361.983 189.716 L 361.983 189.716 L 361.983 189.716 Q 367.316 185.104 374.306 182.798 L 374.306 182.798 L 374.306 182.798 Q 381.296 180.492 389.08 180.492 L 389.08 180.492 L 389.08 180.492 Q 399.457 180.492 405.078 184.239 L 405.078 184.239 L 405.078 184.239 Q 410.699 187.987 410.699 193.896 L 410.699 193.896 L 410.699 193.896 Q 410.699 196.634 409.402 199.013 L 409.402 199.013 L 409.402 199.013 Q 408.105 201.391 406.375 203.12 L 406.375 203.12 L 406.375 203.12 Q 403.925 201.967 400.466 200.886 L 400.466 200.886 L 400.466 200.886 Q 397.007 199.805 392.971 199.805 Z  M 493.143 208.886 L 493.143 252.558 L 493.143 252.558 Q 491.702 252.99 488.603 253.423 L 488.603 253.423 L 488.603 253.423 Q 485.504 253.855 482.189 253.855 L 482.189 253.855 L 482.189 253.855 Q 479.018 253.855 476.496 253.423 L 476.496 253.423 L 476.496 253.423 Q 473.973 252.99 472.244 251.693 L 472.244 251.693 L 472.244 251.693 Q 470.514 250.396 469.577 248.162 L 469.577 248.162 L 469.577 248.162 Q 468.641 245.928 468.641 242.324 L 468.641 242.324 L 468.641 210.327 L 468.641 210.327 Q 468.641 204.418 465.686 202.039 L 465.686 202.039 L 465.686 202.039 Q 462.731 199.661 458.407 199.661 L 458.407 199.661 L 458.407 199.661 Q 455.524 199.661 452.93 200.382 L 452.93 200.382 L 452.93 200.382 Q 450.336 201.103 448.75 202.111 L 448.75 202.111 L 448.75 252.558 L 448.75 252.558 Q 447.309 252.99 444.21 253.423 L 444.21 253.423 L 444.21 253.423 Q 441.111 253.855 437.796 253.855 L 437.796 253.855 L 437.796 253.855 Q 434.625 253.855 432.103 253.423 L 432.103 253.423 L 432.103 253.423 Q 429.581 252.99 427.851 251.693 L 427.851 251.693 L 427.851 251.693 Q 426.122 250.396 425.185 248.162 L 425.185 248.162 L 425.185 248.162 Q 424.248 245.928 424.248 242.324 L 424.248 242.324 L 424.248 158.728 L 424.248 158.728 Q 425.833 158.439 428.932 157.935 L 428.932 157.935 L 428.932 157.935 Q 432.031 157.431 435.202 157.431 L 435.202 157.431 L 435.202 157.431 Q 438.373 157.431 440.895 157.863 L 440.895 157.863 L 440.895 157.863 Q 443.417 158.295 445.147 159.593 L 445.147 159.593 L 445.147 159.593 Q 446.877 160.89 447.813 163.124 L 447.813 163.124 L 447.813 163.124 Q 448.75 165.358 448.75 168.961 L 448.75 168.961 L 448.75 183.086 L 448.75 183.086 Q 450.624 182.365 454.444 181.429 L 454.444 181.429 L 454.444 181.429 Q 458.263 180.492 462.875 180.492 L 462.875 180.492 L 462.875 180.492 Q 477.144 180.492 485.144 187.626 L 485.144 187.626 L 485.144 187.626 Q 493.143 194.761 493.143 208.886 L 493.143 208.886 Z  M 558.435 252.702 L 510.727 252.702 L 510.727 252.702 Q 508.421 250.684 507.052 247.945 L 507.052 247.945 L 507.052 247.945 Q 505.682 245.207 505.682 241.748 L 505.682 241.748 L 505.682 241.748 Q 505.682 238.865 507.052 236.055 L 507.052 236.055 L 507.052 236.055 Q 508.421 233.244 510.439 230.794 L 510.439 230.794 L 535.23 201.679 L 508.709 201.679 L 508.709 201.679 Q 507.844 200.094 507.052 197.643 L 507.052 197.643 L 507.052 197.643 Q 506.259 195.193 506.259 192.311 L 506.259 192.311 L 506.259 192.311 Q 506.259 187.266 508.493 185.032 L 508.493 185.032 L 508.493 185.032 Q 510.727 182.798 514.474 182.798 L 514.474 182.798 L 559.876 182.798 L 559.876 182.798 Q 562.182 184.816 563.552 187.554 L 563.552 187.554 L 563.552 187.554 Q 564.921 190.293 564.921 193.752 L 564.921 193.752 L 564.921 193.752 Q 564.921 196.634 563.552 199.445 L 563.552 199.445 L 563.552 199.445 Q 562.182 202.256 560.164 204.706 L 560.164 204.706 L 535.95 233.821 L 564.2 233.821 L 564.2 233.821 Q 565.065 235.406 565.858 237.856 L 565.858 237.856 L 565.858 237.856 Q 566.65 240.306 566.65 243.189 L 566.65 243.189 L 566.65 243.189 Q 566.65 248.234 564.416 250.468 L 564.416 250.468 L 564.416 250.468 Q 562.182 252.702 558.435 252.702 L 558.435 252.702 Z  M 648.662 217.678 L 648.662 217.678 L 648.662 217.678 Q 648.662 226.614 645.923 233.604 L 645.923 233.604 L 645.923 233.604 Q 643.184 240.595 638.212 245.351 L 638.212 245.351 L 638.212 245.351 Q 633.239 250.107 626.321 252.558 L 626.321 252.558 L 626.321 252.558 Q 619.403 255.008 610.899 255.008 L 610.899 255.008 L 610.899 255.008 Q 602.395 255.008 595.477 252.414 L 595.477 252.414 L 595.477 252.414 Q 588.558 249.819 583.586 244.991 L 583.586 244.991 L 583.586 244.991 Q 578.613 240.162 575.875 233.244 L 575.875 233.244 L 575.875 233.244 Q 573.136 226.326 573.136 217.678 L 573.136 217.678 L 573.136 217.678 Q 573.136 209.174 575.875 202.256 L 575.875 202.256 L 575.875 202.256 Q 578.613 195.337 583.586 190.509 L 583.586 190.509 L 583.586 190.509 Q 588.558 185.68 595.477 183.086 L 595.477 183.086 L 595.477 183.086 Q 602.395 180.492 610.899 180.492 L 610.899 180.492 L 610.899 180.492 Q 619.403 180.492 626.321 183.158 L 626.321 183.158 L 626.321 183.158 Q 633.239 185.825 638.212 190.653 L 638.212 190.653 L 638.212 190.653 Q 643.184 195.481 645.923 202.4 L 645.923 202.4 L 645.923 202.4 Q 648.662 209.318 648.662 217.678 Z  M 598.215 217.678 L 598.215 217.678 L 598.215 217.678 Q 598.215 226.47 601.602 231.154 L 601.602 231.154 L 601.602 231.154 Q 604.989 235.838 611.043 235.838 L 611.043 235.838 L 611.043 235.838 Q 617.097 235.838 620.34 231.082 L 620.34 231.082 L 620.34 231.082 Q 623.582 226.326 623.582 217.678 L 623.582 217.678 L 623.582 217.678 Q 623.582 209.03 620.267 204.346 L 620.267 204.346 L 620.267 204.346 Q 616.952 199.661 610.899 199.661 L 610.899 199.661 L 610.899 199.661 Q 604.845 199.661 601.53 204.346 L 601.53 204.346 L 601.53 204.346 Q 598.215 209.03 598.215 217.678 Z  M 660.048 163.196 L 660.048 163.196 L 660.048 163.196 Q 660.048 157.719 663.723 153.971 L 663.723 153.971 L 663.723 153.971 Q 667.399 150.224 673.452 150.224 L 673.452 150.224 L 673.452 150.224 Q 679.506 150.224 683.181 153.971 L 683.181 153.971 L 683.181 153.971 Q 686.857 157.719 686.857 163.196 L 686.857 163.196 L 686.857 163.196 Q 686.857 168.673 683.181 172.42 L 683.181 172.42 L 683.181 172.42 Q 679.506 176.168 673.452 176.168 L 673.452 176.168 L 673.452 176.168 Q 667.399 176.168 663.723 172.42 L 663.723 172.42 L 663.723 172.42 Q 660.048 168.673 660.048 163.196 Z  M 685.703 193.896 L 685.703 252.558 L 685.703 252.558 Q 684.118 252.846 681.019 253.35 L 681.019 253.35 L 681.019 253.35 Q 677.92 253.855 674.749 253.855 L 674.749 253.855 L 674.749 253.855 Q 671.578 253.855 669.056 253.423 L 669.056 253.423 L 669.056 253.423 Q 666.534 252.99 664.804 251.693 L 664.804 251.693 L 664.804 251.693 Q 663.075 250.396 662.138 248.162 L 662.138 248.162 L 662.138 248.162 Q 661.201 245.928 661.201 242.324 L 661.201 242.324 L 661.201 183.663 L 661.201 183.663 Q 662.786 183.374 665.885 182.87 L 665.885 182.87 L 665.885 182.87 Q 668.984 182.365 672.155 182.365 L 672.155 182.365 L 672.155 182.365 Q 675.326 182.365 677.848 182.798 L 677.848 182.798 L 677.848 182.798 Q 680.371 183.23 682.1 184.527 L 682.1 184.527 L 682.1 184.527 Q 683.83 185.825 684.767 188.059 L 684.767 188.059 L 684.767 188.059 Q 685.703 190.293 685.703 193.896 L 685.703 193.896 Z  M 698.243 217.678 L 698.243 217.678 L 698.243 217.678 Q 698.243 208.165 701.126 201.175 L 701.126 201.175 L 701.126 201.175 Q 704.008 194.184 709.125 189.572 L 709.125 189.572 L 709.125 189.572 Q 714.242 184.96 721.088 182.726 L 721.088 182.726 L 721.088 182.726 Q 727.934 180.492 735.861 180.492 L 735.861 180.492 L 735.861 180.492 Q 738.744 180.492 741.483 180.996 L 741.483 180.996 L 741.483 180.996 Q 744.221 181.501 745.951 182.221 L 745.951 182.221 L 745.951 158.872 L 745.951 158.872 Q 747.392 158.439 750.563 157.935 L 750.563 157.935 L 750.563 157.935 Q 753.734 157.431 757.049 157.431 L 757.049 157.431 L 757.049 157.431 Q 760.22 157.431 762.742 157.863 L 762.742 157.863 L 762.742 157.863 Q 765.264 158.295 766.994 159.593 L 766.994 159.593 L 766.994 159.593 Q 768.724 160.89 769.588 163.124 L 769.588 163.124 L 769.588 163.124 Q 770.453 165.358 770.453 168.961 L 770.453 168.961 L 770.453 237.28 L 770.453 237.28 Q 770.453 244.054 764.111 248.09 L 764.111 248.09 L 764.111 248.09 Q 759.931 250.828 753.301 252.918 L 753.301 252.918 L 753.301 252.918 Q 746.671 255.008 738.023 255.008 L 738.023 255.008 L 738.023 255.008 Q 728.655 255.008 721.232 252.414 L 721.232 252.414 L 721.232 252.414 Q 713.809 249.819 708.692 244.919 L 708.692 244.919 L 708.692 244.919 Q 703.576 240.018 700.909 233.172 L 700.909 233.172 L 700.909 233.172 Q 698.243 226.326 698.243 217.678 Z  M 739.176 199.661 L 739.176 199.661 L 739.176 199.661 Q 731.393 199.661 727.214 204.129 L 727.214 204.129 L 727.214 204.129 Q 723.034 208.597 723.034 217.678 L 723.034 217.678 L 723.034 217.678 Q 723.034 226.614 726.925 231.154 L 726.925 231.154 L 726.925 231.154 Q 730.817 235.694 738.168 235.694 L 738.168 235.694 L 738.168 235.694 Q 740.762 235.694 742.852 234.902 L 742.852 234.902 L 742.852 234.902 Q 744.942 234.109 746.095 233.1 L 746.095 233.1 L 746.095 201.391 L 746.095 201.391 Q 743.212 199.661 739.176 199.661 Z " fill="rgb(0,0,0)"/><path d=" M 121.818 172.357 L 145.796 172.357 L 145.796 180.35 L 121.818 180.35 L 121.818 172.357 Z " fill="rgb(74,134,232)"/><path d=" M 153.789 172.357 L 161.782 172.357 L 161.782 180.35 L 153.789 180.35 L 153.789 172.357 Z " fill="rgb(74,134,232)"/><path d=" M 101.836 100.422 L 101.836 196.336 C 101.836 198.543 103.625 200.332 105.832 200.332 C 108.039 200.332 109.828 198.543 109.828 196.336 L 109.828 100.422 C 109.828 98.215 108.039 96.425 105.832 96.425 C 103.625 96.425 101.836 98.215 101.836 100.422 Z " fill="rgb(74,134,232)"/><path d=" M 137.132 94.207 C 136.544 93.325 135.629 92.713 134.59 92.506 C 133.55 92.298 132.471 92.512 131.589 93.1 L 119.6 101.093 C 118.488 101.834 117.82 103.082 117.82 104.418 C 117.82 105.754 118.488 107.002 119.6 107.743 L 131.589 115.736 C 132.777 116.528 134.297 116.627 135.578 115.994 C 136.858 115.362 137.703 114.094 137.796 112.669 C 137.888 111.244 137.213 109.878 136.025 109.086 L 129.011 104.418 L 136.013 99.75 C 136.897 99.164 137.512 98.25 137.721 97.211 C 137.931 96.171 137.719 95.091 137.132 94.207 Z " fill="rgb(74,134,232)"/><path d=" M 162.453 114.629 C 163.042 115.511 163.956 116.123 164.996 116.331 C 166.035 116.538 167.115 116.324 167.996 115.736 L 179.986 107.743 C 181.097 107.002 181.765 105.754 181.765 104.418 C 181.765 103.082 181.097 101.834 179.986 101.093 L 167.996 93.1 C 166.16 91.875 163.678 92.371 162.453 94.207 C 161.228 96.044 161.724 98.525 163.56 99.75 L 170.574 104.418 L 163.572 109.086 C 162.688 109.672 162.074 110.586 161.864 111.626 C 161.654 112.665 161.866 113.746 162.453 114.629 Z " fill="rgb(74,134,232)"/><path d=" M 155.052 88.636 C 154.046 88.301 152.948 88.379 152 88.854 C 151.052 89.328 150.331 90.16 149.997 91.166 L 142.004 115.145 C 141.306 117.241 142.441 119.507 144.537 120.204 C 146.634 120.901 148.899 119.767 149.597 117.67 L 157.59 93.692 C 157.925 92.685 157.845 91.586 157.369 90.638 C 156.893 89.689 156.059 88.969 155.052 88.636 Z " fill="rgb(74,134,232)"/><path d=" M 121.818 124.4 L 145.796 124.4 L 145.796 132.393 L 121.818 132.393 L 121.818 124.4 Z " fill="rgb(74,134,232)"/><path d=" M 153.789 124.4 L 161.782 124.4 L 161.782 132.393 L 153.789 132.393 L 153.789 124.4 Z " fill="rgb(74,134,232)"/><path d=" M 137.803 140.386 L 185.76 140.386 L 185.76 148.379 L 137.803 148.379 L 137.803 140.386 Z " fill="rgb(74,134,232)"/><path d=" M 209.739 132.393 L 245.707 132.393 L 245.707 140.386 L 209.739 140.386 L 209.739 132.393 Z " fill="rgb(74,134,232)"/><path d=" M 137.803 156.372 L 145.796 156.372 L 145.796 164.364 L 137.803 164.364 L 137.803 156.372 Z " fill="rgb(74,134,232)"/><path d=" M 153.789 156.372 L 201.746 156.372 L 201.746 164.364 L 153.789 164.364 L 153.789 156.372 Z " fill="rgb(74,134,232)"/><path d=" M 193.753 132.393 L 201.746 132.393 L 201.746 140.386 L 193.753 140.386 L 193.753 132.393 Z " fill="rgb(74,134,232)"/><path d=" M 200.941 208.112 L 90.166 208.112 C 87.9 208.112 86.063 206.275 86.063 204.009 L 86.063 76.822 L 258.381 76.822 L 258.381 150.673 C 258.381 152.939 260.218 154.776 262.483 154.776 C 264.749 154.776 266.586 152.939 266.586 150.673 L 266.586 56.308 C 266.586 49.511 261.076 44 254.278 44 L 90.166 44 C 83.368 44 77.857 49.511 77.857 56.308 L 77.857 204.009 C 77.857 210.807 83.368 216.318 90.166 216.318 L 200.941 216.318 C 203.207 216.318 205.044 214.481 205.044 212.215 C 205.044 209.949 203.207 208.112 200.941 208.112 Z  M 90.166 52.206 L 254.278 52.206 C 256.544 52.206 258.381 54.042 258.381 56.308 L 258.381 68.617 L 86.063 68.617 L 86.063 56.308 C 86.063 54.042 87.9 52.206 90.166 52.206 Z " fill="rgb(0,0,0)"/></svg>