<?xml version="1.0" encoding="UTF-8" standalone="no"?><!-- Generator: Gravit.io --><svg xmlns="http://www.w3.org/2000/svg" xmlns:xlink="http://www.w3.org/1999/xlink" style="isolation:isolate" viewBox="0 0 882.346 778.999" width="882.346pt" height="778.999pt"><defs><clipPath id="_clipPath_hDI2b7FaGK1HZVPObFz9NRSOUZkTirIQ"><rect width="882.346" height="778.999"/></clipPath></defs><g clip-path="url(#_clipPath_hDI2b7FaGK1HZVPObFz9NRSOUZkTirIQ)"><path d=" M 342.362 20.06 L 345.831 14.698 C 344.803 11.856 343.614 9.074 342.272 6.365 L 340.028 8.177 L 341.805 5.432 C 340.112 2.1 338.78 0 338.78 0 C 338.78 0 331.822 10.965 329.497 22.575 L 333.949 29.455 L 329.02 25.474 C 328.845 26.827 328.754 28.189 328.75 29.553 C 328.75 43.302 333.24 54.448 338.78 54.448 C 344.319 54.448 348.81 43.302 348.81 29.553 C 348.706 25.178 347.932 20.845 346.515 16.705 L 342.362 20.06 Z " fill="rgb(230,230,230)"/><path d=" M 366.92 31.98 L 373.165 30.642 C 374.447 27.905 375.574 25.097 376.54 22.233 L 373.672 21.928 L 376.869 21.243 C 378.029 17.689 378.571 15.263 378.571 15.263 C 378.571 15.263 365.898 18.096 356.045 24.661 L 354.327 32.675 L 353.657 26.375 C 352.577 27.207 351.55 28.106 350.582 29.067 C 340.86 38.79 336.154 49.846 340.071 53.763 C 343.988 57.68 355.044 52.974 364.767 43.252 C 367.787 40.085 370.303 36.474 372.229 32.545 L 366.92 31.98 Z " fill="rgb(230,230,230)"/><path d=" M 369.201 85.184 C 354.72 86.11 338.941 85.13 322.155 85.184 L 322.155 46.752 C 336.946 49.055 352.72 48.818 369.201 46.752 L 369.201 85.184 Z " fill="rgb(230,230,230)"/><path d=" M 472.802 115.152 L 475.064 111.655 C 474.393 109.801 473.618 107.987 472.743 106.221 L 471.28 107.402 L 472.438 105.612 C 471.334 103.439 470.466 102.07 470.466 102.07 C 467.678 106.624 465.635 111.594 464.412 116.791 L 467.315 121.279 L 464.101 118.682 C 463.986 119.564 463.928 120.453 463.925 121.342 C 463.925 130.309 466.853 137.578 470.466 137.578 C 474.078 137.578 477.007 130.309 477.007 121.342 C 476.939 118.489 476.434 115.664 475.51 112.964 L 472.802 115.152 Z " fill="rgb(230,230,230)"/><path d=" M 488.817 122.925 L 492.889 122.052 C 493.726 120.267 494.46 118.436 495.09 116.569 L 493.22 116.37 L 495.305 115.923 C 496.061 113.605 496.415 112.023 496.415 112.023 C 491.224 113.272 486.265 115.341 481.725 118.152 L 480.605 123.378 L 480.168 119.27 C 479.463 119.812 478.793 120.399 478.162 121.025 C 471.822 127.366 468.753 134.576 471.307 137.131 C 473.862 139.685 481.072 136.616 487.413 130.276 C 489.382 128.211 491.023 125.856 492.279 123.293 L 488.817 122.925 Z " fill="rgb(230,230,230)"/><path d=" M 490.304 157.622 C 480.861 158.226 470.571 157.586 459.624 157.622 L 459.624 132.559 C 469.801 133.984 480.127 133.984 490.304 132.559 L 490.304 157.622 Z " fill="rgb(230,230,230)"/><path d=" M 484.473 231.898 C 476.134 232.431 467.048 231.867 457.382 231.898 L 457.382 209.767 C 466.368 211.026 475.486 211.026 484.473 209.767 L 484.473 231.898 Z " fill="rgb(230,230,230)"/><rect x="167.508" y="82.481" width="364.547" height="10.183" transform="matrix(1,0,0,1,0,0)" fill="rgb(230,230,230)"/><rect x="167.508" y="154.78" width="364.547" height="10.183" transform="matrix(1,0,0,1,0,0)" fill="rgb(230,230,230)"/><rect x="167.508" y="227.078" width="364.547" height="10.183" transform="matrix(1,0,0,1,0,0)" fill="rgb(230,230,230)"/><circle vector-effect="non-scaling-stroke" cx="470.9581" cy="197.54783" r="20.365760000000023" fill="rgb(230,230,230)"/><circle vector-effect="non-scaling-stroke" cx="470.9581" cy="197.54783" r="16.292599999999993" fill="rgb(255,255,255)"/><circle vector-effect="non-scaling-stroke" cx="470.9581" cy="197.54783" r="4.073149999999998" fill="rgb(230,230,230)"/><rect x="476.05" y="189.402" width="2.037" height="16.293" transform="matrix(0,1,-1,0,674.616,-279.52)" fill="rgb(230,230,230)"/><rect x="469.94" y="183.292" width="2.037" height="16.293" transform="matrix(-1,0,0,-1,941.916,382.876)" fill="rgb(230,230,230)"/><rect x="339.725" y="105.104" width="13.475" height="53.339" transform="matrix(1,0,0,1,0,0)" fill="rgb(230,230,230)"/><rect x="339.725" y="113.526" width="13.475" height="6.176" transform="matrix(1,0,0,1,0,0)" fill="rgb(204,204,204)"/><rect x="339.725" y="140.476" width="13.475" height="6.176" transform="matrix(1,0,0,1,0,0)" fill="rgb(204,204,204)"/><rect x="318.951" y="105.104" width="13.475" height="53.339" transform="matrix(1,0,0,1,0,0)" fill="rgb(230,230,230)"/><rect x="318.951" y="113.526" width="13.475" height="6.176" transform="matrix(1,0,0,1,0,0)" fill="rgb(204,204,204)"/><rect x="318.951" y="140.476" width="13.475" height="6.176" transform="matrix(1,0,0,1,0,0)" fill="rgb(204,204,204)"/><rect x="363.868" y="105.104" width="13.475" height="53.339" transform="matrix(0.896,-0.444,0.444,0.896,-19.99,178.115)" fill="rgb(230,230,230)"/><rect x="357.142" y="115.1" width="13.475" height="6.176" transform="matrix(0.896,-0.444,0.444,0.896,-14.661,173.72)" fill="rgb(204,204,204)"/><rect x="369.1" y="139.252" width="13.475" height="6.176" transform="matrix(0.896,-0.444,0.444,0.896,-24.136,181.533)" fill="rgb(204,204,204)"/><rect x="219.567" y="177.403" width="13.475" height="53.339" transform="matrix(1,0,0,1,0,0)" fill="rgb(230,230,230)"/><rect x="219.567" y="185.825" width="13.475" height="6.176" transform="matrix(1,0,0,1,0,0)" fill="rgb(204,204,204)"/><rect x="219.567" y="212.775" width="13.475" height="6.176" transform="matrix(1,0,0,1,0,0)" fill="rgb(204,204,204)"/><rect x="198.793" y="177.403" width="13.475" height="53.339" transform="matrix(1,0,0,1,0,0)" fill="rgb(230,230,230)"/><rect x="198.793" y="185.825" width="13.475" height="6.176" transform="matrix(1,0,0,1,0,0)" fill="rgb(204,204,204)"/><rect x="198.793" y="212.775" width="13.475" height="6.176" transform="matrix(1,0,0,1,0,0)" fill="rgb(204,204,204)"/><rect x="243.71" y="177.403" width="13.475" height="53.339" transform="matrix(0.896,-0.444,0.444,0.896,-64.543,132.308)" fill="rgb(230,230,230)"/><rect x="236.984" y="187.398" width="13.475" height="6.176" transform="matrix(0.896,-0.444,0.444,0.896,-59.214,127.913)" fill="rgb(204,204,204)"/><rect x="248.942" y="211.551" width="13.475" height="6.176" transform="matrix(0.896,-0.444,0.444,0.896,-68.689,135.726)" fill="rgb(204,204,204)"/><rect x="345.835" y="177.403" width="13.475" height="53.339" transform="matrix(1,0,0,1,0,0)" fill="rgb(230,230,230)"/><rect x="345.835" y="185.825" width="13.475" height="6.176" transform="matrix(1,0,0,1,0,0)" fill="rgb(204,204,204)"/><rect x="345.835" y="212.775" width="13.475" height="6.176" transform="matrix(1,0,0,1,0,0)" fill="rgb(204,204,204)"/><rect x="325.061" y="177.403" width="13.475" height="53.339" transform="matrix(1,0,0,1,0,0)" fill="rgb(230,230,230)"/><rect x="325.061" y="185.825" width="13.475" height="6.176" transform="matrix(1,0,0,1,0,0)" fill="rgb(204,204,204)"/><rect x="325.061" y="212.775" width="13.475" height="6.176" transform="matrix(1,0,0,1,0,0)" fill="rgb(204,204,204)"/><rect x="369.978" y="177.403" width="13.475" height="53.339" transform="matrix(0.896,-0.444,0.444,0.896,-51.434,188.332)" fill="rgb(230,230,230)"/><rect x="363.252" y="187.398" width="13.475" height="6.176" transform="matrix(0.896,-0.444,0.444,0.896,-46.105,183.937)" fill="rgb(204,204,204)"/><rect x="375.209" y="211.551" width="13.475" height="6.176" transform="matrix(0.896,-0.444,0.444,0.896,-55.579,191.75)" fill="rgb(204,204,204)"/><rect x="449.987" y="32.646" width="53.556" height="53.556" transform="matrix(1,0,0,1,0,0)" fill="rgb(230,230,230)"/><rect x="460.699" y="43.357" width="32.134" height="32.134" transform="matrix(1,0,0,1,0,0)" fill="rgb(204,204,204)"/><path d=" M 470 54.143 L 476.814 65.944 L 483.627 77.745 L 470 77.745 L 456.373 77.745 L 463.187 65.944 L 470 54.143 L 470 54.143 Z " fill="rgb(230,230,230)"/><path d=" M 481.839 56.398 L 488.653 68.199 L 495.466 80 L 481.839 80 L 468.212 80 L 475.026 68.199 L 481.839 56.398 L 481.839 56.398 Z " fill="rgb(230,230,230)"/><circle vector-effect="non-scaling-stroke" cx="486.63091" cy="48.99433" r="3.946230000000014" fill="rgb(230,230,230)"/><rect x="179.123" y="32.646" width="53.556" height="53.556" transform="matrix(1,0,0,1,0,0)" fill="rgb(230,230,230)"/><rect x="189.834" y="43.357" width="32.134" height="32.134" transform="matrix(1,0,0,1,0,0)" fill="rgb(204,204,204)"/><path d=" M 199.136 54.143 L 205.949 65.944 L 212.763 77.745 L 199.136 77.745 L 185.509 77.745 L 192.322 65.944 L 199.136 54.143 L 199.136 54.143 Z " fill="rgb(230,230,230)"/><path d=" M 210.975 56.398 L 217.788 68.199 L 224.601 80 L 210.975 80 L 197.348 80 L 204.161 68.199 L 210.975 56.398 L 210.975 56.398 Z " fill="rgb(230,230,230)"/><circle vector-effect="non-scaling-stroke" cx="215.76636000000002" cy="48.99433" r="3.946230000000014" fill="rgb(230,230,230)"/><path d=" M 71.497 397.845 L 74.967 392.483 C 73.938 389.641 72.75 386.859 71.407 384.15 L 69.164 385.962 L 70.94 383.217 C 69.247 379.884 67.915 377.785 67.915 377.785 C 67.915 377.785 60.957 388.75 58.632 400.359 L 63.084 407.24 L 58.156 403.259 C 57.98 404.611 57.89 405.974 57.885 407.337 C 57.885 421.087 62.376 432.233 67.915 432.233 C 73.455 432.233 77.945 421.087 77.945 407.337 C 77.841 402.963 77.068 398.63 75.651 394.49 L 71.497 397.845 Z " fill="rgb(0,138,255)"/><path d=" M 96.055 409.765 L 102.3 408.427 C 103.582 405.689 104.709 402.882 105.675 400.018 L 102.807 399.713 L 106.005 399.028 C 107.164 395.474 107.707 393.047 107.707 393.047 C 107.707 393.047 95.033 395.881 85.18 402.446 L 83.463 410.46 L 82.793 404.159 C 81.712 404.992 80.685 405.891 79.718 406.852 C 69.995 416.574 65.289 427.631 69.206 431.548 C 73.123 435.465 84.18 430.759 93.902 421.036 C 96.922 417.87 99.439 414.259 101.364 410.33 L 96.055 409.765 Z " fill="rgb(0,138,255)"/><path d=" M 98.336 462.969 C 83.855 463.895 68.076 462.915 51.29 462.969 L 51.29 424.537 C 66.082 426.84 81.855 426.603 98.336 424.537 L 98.336 462.969 Z " fill="rgb(63,61,86)"/><rect x="500.998" y="475.031" width="195.511" height="253.554" transform="matrix(1,0,0,1,0,0)" fill="rgb(230,230,230)"/><rect x="92.664" y="488.269" width="10.183" height="240.316" transform="matrix(1,0,0,1,0,0)" fill="rgb(230,230,230)"/><rect x="0" y="457.72" width="696.509" height="20.366" transform="matrix(1,0,0,1,0,0)" fill="rgb(230,230,230)"/><rect x="87.573" y="478.086" width="20.366" height="20.366" transform="matrix(1,0,0,1,0,0)" fill="rgb(230,230,230)"/><path d=" M 614.155 489.796 L 613.009 494.379 L 584.497 494.379 L 582.779 489.796 L 510.162 489.796 L 510.162 536.638 L 687.344 536.638 L 687.344 489.796 L 614.155 489.796 L 614.155 489.796 Z " fill="rgb(63,61,86)"/><path d=" M 614.155 548.857 L 613.009 553.439 L 584.497 553.439 L 582.779 548.857 L 510.162 548.857 L 510.162 595.698 L 687.344 595.698 L 687.344 548.857 L 614.155 548.857 L 614.155 548.857 Z " fill="rgb(63,61,86)"/><path d=" M 614.155 607.918 L 613.009 612.5 L 584.497 612.5 L 582.779 607.918 L 510.162 607.918 L 510.162 654.759 L 687.344 654.759 L 687.344 607.918 L 614.155 607.918 L 614.155 607.918 Z " fill="rgb(63,61,86)"/><path d=" M 614.155 666.979 L 613.009 671.561 L 584.497 671.561 L 582.779 666.979 L 510.162 666.979 L 510.162 713.82 L 687.344 713.82 L 687.344 666.979 L 614.155 666.979 L 614.155 666.979 Z " fill="rgb(63,61,86)"/><path d=" M 377.785 454.665 L 317.706 454.665 L 319.742 428.19 L 375.748 428.19 L 377.785 454.665 L 377.785 454.665 Z " fill="rgb(230,230,230)"/><rect x="314.651" y="451.611" width="67.207" height="6.11" transform="matrix(1,0,0,1,0,0)" fill="rgb(230,230,230)"/><path d=" M 462.812 257.627 L 233.188 257.627 C 231.568 257.627 230.013 258.271 228.868 259.416 C 227.722 260.562 227.078 262.116 227.078 263.737 L 227.078 403.751 L 468.922 403.751 L 468.922 263.737 C 468.922 260.362 466.186 257.627 462.812 257.627 L 462.812 257.627 Z " fill="rgb(63,61,86)"/><path d=" M 227.078 403.751 L 227.078 426.663 C 227.078 428.283 227.722 429.837 228.868 430.983 C 230.013 432.129 231.568 432.772 233.188 432.772 L 462.812 432.772 C 466.186 432.772 468.922 430.037 468.922 426.663 L 468.922 403.751 L 227.078 403.751 Z " fill="rgb(230,230,230)"/><rect x="239.298" y="270.355" width="217.914" height="122.195" transform="matrix(1,0,0,1,0,0)" fill="rgb(255,255,255)"/><circle vector-effect="non-scaling-stroke" cx="348.25442" cy="418.00714" r="6.109730000000013" fill="rgb(63,61,86)"/><path d=" M 865.035 727.057 C 842.781 728.481 818.533 726.975 792.737 727.057 L 792.737 667.997 C 815.468 671.535 839.708 671.172 865.035 667.997 L 865.035 727.057 Z " fill="rgb(63,61,86)"/><path d=" M 831.432 673.3 L 825.322 673.3 L 827.359 553.949 L 829.395 553.949 L 831.432 673.3 L 831.432 673.3 Z " fill="rgb(63,61,86)"/><path d=" M 858.926 674.107 L 852.816 674.107 L 854.853 554.755 L 856.889 554.755 L 858.926 674.107 L 858.926 674.107 Z " fill="rgb(63,61,86)"/><path d=" M 806.993 674.107 L 800.883 674.107 L 802.92 554.755 L 804.956 554.755 L 806.993 674.107 L 806.993 674.107 Z " fill="rgb(63,61,86)"/><path d=" M 836.523 477.577 L 846.386 462.334 C 843.461 454.255 840.083 446.347 836.268 438.648 L 829.89 443.799 L 834.94 435.995 C 830.127 426.521 826.341 420.553 826.341 420.553 C 826.341 420.553 806.56 451.723 799.952 484.726 L 812.608 504.285 L 798.597 492.969 C 798.098 496.813 797.841 500.685 797.829 504.562 C 797.829 543.647 810.594 575.333 826.341 575.333 C 842.087 575.333 854.853 543.647 854.853 504.562 C 854.853 492.445 852.111 479.768 848.33 468.041 L 836.523 477.577 Z " fill="rgb(230,230,230)"/><path d=" M 864.017 479.614 L 873.88 464.371 C 870.955 456.292 867.577 448.383 863.761 440.684 L 857.384 445.835 L 862.434 438.031 C 857.621 428.558 853.834 422.589 853.834 422.589 C 853.834 422.589 834.054 453.76 827.446 486.762 L 840.102 506.322 L 826.091 495.005 C 825.592 498.85 825.335 502.722 825.322 506.598 C 825.322 545.684 838.088 577.369 853.834 577.369 C 869.581 577.369 882.346 545.684 882.346 506.598 C 882.346 494.481 879.605 481.804 875.824 470.078 L 864.017 479.614 Z " fill="rgb(0,138,255)"/><path d=" M 812.085 479.614 L 821.947 464.371 C 819.022 456.292 815.644 448.383 811.829 440.684 L 805.451 445.835 L 810.501 438.031 C 805.688 428.558 801.902 422.589 801.902 422.589 C 801.902 422.589 782.121 453.76 775.513 486.762 L 788.169 506.322 L 774.158 495.005 C 773.659 498.85 773.403 502.722 773.39 506.598 C 773.39 545.684 786.155 577.369 801.902 577.369 C 817.648 577.369 830.414 545.684 830.414 506.598 C 830.414 494.481 827.672 481.804 823.891 470.078 L 812.085 479.614 Z " fill="rgb(0,138,255)"/><rect x="309.964" y="304.848" width="58.756" height="3.373" transform="matrix(1,0,0,1,0,0)" fill="rgb(63,61,86)"/><rect x="309.964" y="317.151" width="90.732" height="3.373" transform="matrix(1,0,0,1,0,0)" fill="rgb(0,138,255)"/><rect x="309.964" y="328.742" width="73.945" height="3.373" transform="matrix(1,0,0,1,0,0)" fill="rgb(0,138,255)"/><rect x="309.964" y="340.29" width="43.168" height="3.373" transform="matrix(1,0,0,1,0,0)" fill="rgb(63,61,86)"/><rect x="309.964" y="351.837" width="65.151" height="3.373" transform="matrix(1,0,0,1,0,0)" fill="rgb(63,61,86)"/><rect x="283.184" y="303.649" width="7.195" height="7.195" transform="matrix(1,0,0,1,0,0)" fill="rgb(63,61,86)"/><rect x="283.184" y="315.24" width="7.195" height="7.195" transform="matrix(1,0,0,1,0,0)" fill="rgb(0,138,255)"/><rect x="283.184" y="326.831" width="7.195" height="7.195" transform="matrix(1,0,0,1,0,0)" fill="rgb(0,138,255)"/><rect x="283.184" y="338.423" width="7.195" height="7.195" transform="matrix(1,0,0,1,0,0)" fill="rgb(63,61,86)"/><rect x="283.184" y="350.014" width="7.195" height="7.195" transform="matrix(1,0,0,1,0,0)" fill="rgb(63,61,86)"/><path d=" M 447.115 298.463 L 416.282 298.463 C 414.178 286.299 414.178 273.864 416.282 261.7 L 447.115 261.7 C 443.642 273.708 443.642 286.455 447.115 298.463 L 447.115 298.463 Z " fill="rgb(0,138,255)"/><path d=" M 222.764 372.144 L 210.079 369.052 C 200.277 369.065 190.988 364.673 184.776 357.091 C 178.564 349.508 176.087 339.536 178.028 329.928 L 178.028 329.928 C 177.999 306.354 197.085 287.22 220.659 287.19 L 220.659 287.19 C 244.234 287.161 263.368 306.247 263.398 329.821 L 263.398 329.821 C 270.59 354.849 248.064 378.312 222.764 372.144 Z " fill="rgb(47,46,65)"/><circle vector-effect="non-scaling-stroke" cx="236.61974" cy="345.24334" r="31.36368999999999" fill="rgb(160,97,106)"/><path d=" M 216.165 361.607 C 216.165 361.607 206.62 394.334 201.165 397.062 C 201.165 397.062 244.802 403.88 244.802 403.88 C 244.802 403.88 243.438 372.516 246.165 369.789 C 248.893 367.061 216.165 361.607 216.165 361.607 Z " fill="rgb(160,97,106)"/><path d=" M 265.256 563.426 C 265.256 563.426 326.62 557.971 334.802 578.426 C 342.984 598.88 329.347 720.244 329.347 720.244 L 303.438 720.244 L 303.438 620.698 C 303.438 620.698 192.966 589.297 192.966 578.387 C 192.966 567.478 265.256 563.426 265.256 563.426 Z " fill="rgb(47,46,65)"/><path d=" M 325.256 714.789 L 338.893 720.244 C 338.893 720.244 355.256 718.88 348.438 731.153 C 344.485 738.37 337.456 743.39 329.347 744.789 C 329.347 744.789 303.438 754.335 302.074 744.789 C 302.074 744.789 308.893 716.153 308.893 716.153 L 325.256 714.789 Z " fill="rgb(47,46,65)"/><path d=" M 231.165 563.426 C 231.165 563.426 292.529 557.971 300.711 578.426 C 308.893 598.88 295.256 720.244 295.256 720.244 L 269.347 720.244 L 269.347 620.698 C 269.347 620.698 190.929 602.534 190.929 591.625 C 190.929 586.5 185.585 560.454 195.002 554.967 C 205.63 548.774 231.165 563.426 231.165 563.426 Z " fill="rgb(47,46,65)"/><path d=" M 291.165 714.789 L 304.802 720.244 C 304.802 720.244 321.165 718.88 314.347 731.153 C 310.394 738.37 303.365 743.39 295.256 744.789 C 295.256 744.789 269.347 754.335 267.983 744.789 C 267.983 744.789 274.802 716.153 274.802 716.153 L 291.165 714.789 Z " fill="rgb(47,46,65)"/><path d=" M 202.529 392.971 L 243.509 397.425 C 256.483 398.835 267.08 408.424 269.778 421.192 L 285.711 496.607 C 285.711 496.607 291.165 571.607 280.256 575.698 C 280.256 575.698 254.347 559.335 233.892 562.062 C 233.892 562.062 186.847 570.926 186.847 570.926 C 186.847 570.926 182.624 436.678 182.074 425.698 C 180.975 403.747 202.529 392.971 202.529 392.971 Z " fill="rgb(87,90,137)"/><path d=" M 299.601 567.322 L 316.424 577.23 C 316.424 577.23 346.607 572.899 345.665 583.508 C 345.665 583.508 311.776 592.066 311.776 592.066 L 291.501 579.573 L 299.601 567.322 Z " fill="rgb(255,184,184)"/><circle vector-effect="non-scaling-stroke" cx="175.7429" cy="299.47504" r="20.259659999999997" fill="rgb(47,46,65)"/><path d=" M 194.436 288.584 C 194.431 282.516 191.705 276.769 187.008 272.926 C 182.311 269.084 176.139 267.55 170.19 268.748 C 177.265 265.404 185.634 266.437 191.684 271.4 C 197.735 276.363 200.384 284.369 198.489 291.961 C 196.594 299.554 190.493 305.375 182.82 306.912 C 189.916 303.57 194.442 296.428 194.436 288.584 L 194.436 288.584 Z " fill="rgb(47,46,65)"/><path d=" M 211.817 300.074 L 239.13 295.045 L 260.135 308.21 C 270.68 314.819 276.412 326.963 274.812 339.305 L 253.775 333.973 L 249.064 322.161 L 243.454 331.357 L 214.12 369.107 L 197.65 358.619 L 182.967 335.61 L 211.817 300.074 Z " fill="rgb(47,46,65)"/><path d=" M 234.309 404.571 L 247.945 397.752 C 247.945 397.752 276.582 401.843 282.036 420.934 C 282.036 420.934 312.036 572.298 312.036 572.298 L 288.854 583.207 L 256.127 502.753 L 234.309 404.571 Z " fill="rgb(87,90,137)"/><g opacity="0.2"><path d=" M 245.917 458.23 L 259.565 511.205 L 283.767 570.701 L 282.928 572.761 L 254.063 512.199 L 245.917 458.23 L 245.917 458.23 Z " fill="rgb(0,0,0)"/></g><path d=" M 144.084 750.379 L 139.271 748.721 L 185.896 610.231 L 192.636 612.553 L 144.084 750.379 L 144.084 750.379 Z " fill="rgb(63,61,86)"/><path d=" M 322.291 750.379 L 327.105 748.721 L 280.479 610.231 L 273.74 612.553 L 322.291 750.379 L 322.291 750.379 Z " fill="rgb(63,61,86)"/><path d=" M 223.77 778.981 L 228.861 778.999 L 230.443 617.107 L 223.315 617.082 L 223.77 778.981 L 223.77 778.981 Z " fill="rgb(63,61,86)"/><path d=" M 132.3 528.856 L 146.266 585.301 C 150.251 601.41 162.809 613.998 178.908 618.023 L 178.908 618.023 C 217.857 627.76 258.635 627.497 297.455 617.259 L 318.306 611.76 C 330.422 608.565 339.532 598.159 340.395 585.659 C 340.744 581.239 339.944 576.805 338.072 572.787 Q 337.949 572.527 337.826 572.272 C 332.284 560.887 320.884 553.516 308.228 553.134 L 286.139 552.421 L 205.694 516.781 C 205.694 516.781 178.027 502.728 155.282 501.155 C 140.262 500.116 128.683 514.24 132.3 528.856 Z " fill="rgb(0,138,255)"/><rect x="543.257" y="351.309" width="79.426" height="107.939" transform="matrix(1,0,0,1,0,0)" fill="rgb(230,230,230)"/><rect x="552.421" y="363.764" width="61.097" height="83.03" transform="matrix(1,0,0,1,0,0)" fill="rgb(255,255,255)"/><rect x="576.467" y="385.492" width="29.602" height="3.373" transform="matrix(1,0,0,1,0,0)" fill="rgb(63,61,86)"/><rect x="559.87" y="383.625" width="7.195" height="7.195" transform="matrix(1,0,0,1,0,0)" fill="rgb(63,61,86)"/><rect x="576.467" y="399.748" width="29.602" height="3.373" transform="matrix(1,0,0,1,0,0)" fill="rgb(63,61,86)"/><rect x="559.87" y="397.881" width="7.195" height="7.195" transform="matrix(1,0,0,1,0,0)" fill="rgb(63,61,86)"/><rect x="576.467" y="414.004" width="29.602" height="3.373" transform="matrix(1,0,0,1,0,0)" fill="rgb(63,61,86)"/><rect x="559.87" y="412.137" width="7.195" height="7.195" transform="matrix(1,0,0,1,0,0)" fill="rgb(63,61,86)"/><path d="M 582.97 354.364 L 582.97 354.364 C 584.656 354.364 586.025 355.733 586.025 357.419 L 586.025 357.419 C 586.025 359.105 584.656 360.474 582.97 360.474 L 582.97 360.474 C 581.284 360.474 579.915 359.105 579.915 357.419 L 579.915 357.419 C 579.915 355.733 581.284 354.364 582.97 354.364 Z" style="stroke:none;fill:#3F3D56;stroke-miterlimit:10;"/></g></svg>