<?xml version="1.0" encoding="UTF-8" standalone="no"?><!-- Generator: Gravit.io --><svg xmlns="http://www.w3.org/2000/svg" xmlns:xlink="http://www.w3.org/1999/xlink" style="isolation:isolate" viewBox="-17.947 0 839.682 832.087" width="839.682pt" height="832.087pt"><defs><clipPath id="_clipPath_UfvJcxXTu1WC8phlpZvXcSyeRAvmBbYI"><rect x="-17.947" y="0" width="839.682" height="832.087"/></clipPath></defs><g clip-path="url(#_clipPath_UfvJcxXTu1WC8phlpZvXcSyeRAvmBbYI)"><clipPath id="_clipPath_vPrBe98I1qPpQIQ8eJB9GaMcYD97zYu2"><rect x="-17.947" y="0" width="839.682" height="832.087" transform="matrix(1,0,0,1,0,0)" fill="rgb(255,255,255)"/></clipPath><g clip-path="url(#_clipPath_vPrBe98I1qPpQIQ8eJB9GaMcYD97zYu2)"><g><clipPath id="_clipPath_a5V6RUNueHn1h70TnS8SwOsGlYtiCCos"><rect x="-17.947" y="0" width="839.682" height="832.087" transform="matrix(1,0,0,1,0,0)" fill="rgb(255,255,255)"/></clipPath><g clip-path="url(#_clipPath_a5V6RUNueHn1h70TnS8SwOsGlYtiCCos)"><g><g><clipPath id="_clipPath_ttOPa7WBuNTpVX6j1nwZpk4lkF3sshtO"><rect x="-17.947" y="0" width="839.682" height="832.087" transform="matrix(1,0,0,1,0,0)" fill="rgb(255,255,255)"/></clipPath><g clip-path="url(#_clipPath_ttOPa7WBuNTpVX6j1nwZpk4lkF3sshtO)"><g><g><g><ellipse vector-effect="non-scaling-stroke" cx="440.38356824413387" cy="142.94849002718735" rx="77.31634262468782" ry="88.7788481531334" fill="rgb(160,97,106)"/><path d=" M 382.677 187.338 C 382.677 187.338 397.243 313.43 374.833 327.583 C 374.833 327.583 508.176 343.023 508.176 343.023 C 508.176 343.023 473.439 233.658 489.126 200.204 L 382.677 187.338 L 382.677 187.338 Z " fill="rgb(160,97,106)"/><path d=" M 621.907 343.66 L 608.954 411.389 L 581.565 554.681 L 580.745 562.529 L 571.293 653.377 L 565.005 713.729 L 560.789 754.269 C 535.156 769.397 516.577 779.84 516.577 779.84 C 516.577 779.84 514.979 770.64 512.403 758.869 C 494.414 765.062 461.126 775.336 432.917 777.389 C 443.189 790.536 447.91 802.887 441.507 812.002 C 422.182 839.479 342.401 781.916 314.497 760.451 C 313.847 765.59 313.601 770.786 313.761 775.976 L 292.407 757.119 L 294.52 713.729 L 298.085 640.314 L 302.564 548.247 C 301.151 544.305 299.968 540.259 299.02 536.137 C 292.481 509.432 284.542 456.107 278.455 411.389 C 273.555 375.4 269.875 344.988 269.097 338.517 C 268.992 337.672 268.94 337.238 268.94 337.238 L 387.149 277.26 C 395.55 299.631 434.778 306.355 434.778 306.355 C 467.277 303.784 492.753 284.105 492.753 284.105 L 621.907 343.66 L 621.907 343.66 L 621.907 343.66 Z " fill="rgb(208,205,225)"/><path d=" M 525.546 754.112 C 525.546 754.112 520.541 756.08 512.403 758.869 C 494.414 765.062 461.126 775.336 432.917 777.389 C 408.629 779.176 388.106 774.878 384.352 756.684 C 382.744 748.861 385.025 742.426 389.999 737.138 C 404.844 721.335 443.62 715.673 474.374 713.729 C 483.059 713.186 491.091 712.932 497.778 712.835 C 509.133 712.666 516.577 712.932 516.577 712.932 L 516.756 713.729 L 525.546 754.112 L 525.546 754.112 L 525.546 754.112 Z " fill="rgb(160,97,106)"/><path d=" M 376.063 58.972 L 361.607 52.326 C 361.607 52.326 391.834 14.114 433.888 17.438 L 422.06 2.486 C 422.06 2.486 450.973 -10.805 477.257 24.083 C 491.074 42.423 507.061 63.981 517.026 88.266 L 532.508 88.266 L 526.046 104.603 L 548.662 120.94 L 525.45 118.005 C 526.833 126.951 527.045 136.084 526.08 145.102 C 525.084 154.123 521.074 162.347 514.898 168.038 L 514.898 168.038 C 514.898 168.038 496.97 125.426 496.97 118.781 L 496.97 135.394 C 496.97 135.394 482.514 120.442 482.514 110.474 L 474.628 122.103 L 470.686 103.829 L 422.06 122.103 L 429.946 107.151 L 399.719 112.136 L 411.547 93.86 C 411.547 93.86 377.378 115.459 376.063 133.733 C 374.75 152.008 364.748 169.325 364.748 169.325 C 364.748 169.325 337.952 83.892 376.063 58.972 Z " fill="rgb(47,46,65)"/><path d=" M 705.946 655.031 C 698.071 664.834 678.557 679.599 654.901 695.583 C 646.1 701.523 636.732 707.644 627.175 713.729 C 604.37 728.252 580.492 742.643 560.789 754.269 C 535.156 769.397 516.577 779.84 516.577 779.84 C 516.577 779.84 514.979 770.64 512.403 758.869 C 508.955 743.114 503.761 722.747 498.346 713.729 C 498.157 713.415 497.968 713.125 497.778 712.835 C 496.201 710.457 494.614 709.069 493.047 709.069 L 571.293 653.377 L 605.106 629.304 L 580.745 562.529 L 550.191 478.767 L 568.633 411.389 L 587.169 343.66 L 621.907 343.66 C 621.907 343.66 633.41 372.49 648.119 412.693 C 650.316 418.705 652.587 424.971 654.901 431.442 C 685.16 515.952 722.885 633.964 705.946 655.031 Z " fill="rgb(208,205,225)"/><path d=" M 441.507 812.002 C 422.182 839.479 342.401 781.916 314.497 760.451 C 308.42 755.778 304.803 752.821 304.803 752.821 L 330.331 713.729 L 338.417 701.354 C 338.417 701.354 345.65 705.761 356.343 712.932 C 356.732 713.198 357.121 713.463 357.521 713.729 C 366.741 719.946 378.317 728.071 389.999 737.138 C 406.117 749.658 422.413 763.94 432.917 777.389 C 443.189 790.536 447.91 802.887 441.507 812.002 Z " fill="rgb(160,97,106)"/><path d=" M 356.343 712.932 C 353.489 712.92 350.641 713.186 347.827 713.729 C 323.655 718.498 316.526 743.621 314.497 760.451 C 313.847 765.59 313.601 770.786 313.761 775.976 L 292.407 757.119 L 284.627 750.249 C 265.901 742.752 249.215 729.436 234.748 713.729 C 222.197 699.862 210.939 684.531 201.155 667.985 C 191.411 651.677 182.724 634.567 175.165 616.796 C 170.895 606.756 170.73 595.058 174.712 584.863 L 201.155 517.195 L 239.805 418.295 Q 240.231 414.763 240.741 411.389 C 248.406 360.925 268.94 338.517 268.94 338.517 L 284.627 338.517 L 295.12 411.389 L 308.157 501.923 L 299.02 536.137 L 277.908 615.154 L 298.085 640.314 L 356.343 712.932 L 356.343 712.932 L 356.343 712.932 Z " fill="rgb(208,205,225)"/><path d=" M 374.098 501.996 L 387.508 519.961 C 392.49 518.87 397.694 517.588 403.053 516.148 L 399.2 501.996 L 408.619 514.612 C 465.392 498.579 535.762 467.406 535.762 467.406 C 535.762 467.406 459.791 473.802 403.065 459.572 C 377.968 453.276 352.146 467.561 341.846 494.586 C 335.861 510.293 336.8 523.902 358.032 523.902 C 365.205 523.762 372.36 522.989 379.431 521.591 L 374.098 501.996 L 374.098 501.996 L 374.098 501.996 Z " fill="rgb(74,134,232)"/><path d=" M 679.819 797.273 L 679.819 804.601 C 679.823 806.612 679.498 808.607 678.862 810.48 C 678.58 811.316 678.239 812.124 677.842 812.895 C 675.294 817.809 670.679 820.817 665.698 820.815 L 196.193 820.815 C 191.212 820.817 186.599 817.809 184.049 812.895 C 183.653 812.124 183.312 811.316 183.029 810.48 C 182.394 808.607 182.069 806.612 182.072 804.601 L 182.072 797.273 C 182.071 792.972 183.559 788.847 186.207 785.807 C 188.856 782.766 192.448 781.058 196.193 781.059 L 223.256 781.059 L 223.256 777.642 C 223.256 777.462 223.318 777.291 223.428 777.164 C 223.539 777.038 223.689 776.966 223.845 776.966 L 237.965 776.966 C 238.122 776.966 238.271 777.038 238.382 777.164 C 238.493 777.291 238.555 777.462 238.554 777.642 L 238.554 781.059 L 247.375 781.059 L 247.375 777.642 C 247.375 777.462 247.437 777.291 247.548 777.164 C 247.658 777.038 247.808 776.966 247.964 776.966 L 262.084 776.966 C 262.241 776.966 262.39 777.038 262.501 777.164 C 262.612 777.291 262.673 777.462 262.673 777.642 L 262.673 781.059 L 271.505 781.059 L 271.505 777.642 C 271.505 777.462 271.567 777.291 271.677 777.164 C 271.788 777.038 271.938 776.966 272.094 776.966 L 286.214 776.966 C 286.371 776.966 286.52 777.038 286.631 777.164 C 286.742 777.291 286.803 777.462 286.803 777.642 L 286.803 781.059 L 295.624 781.059 L 295.624 777.642 C 295.624 777.462 295.686 777.291 295.797 777.164 C 295.907 777.038 296.057 776.966 296.213 776.966 L 310.333 776.966 C 310.49 776.966 310.639 777.038 310.75 777.164 C 310.861 777.291 310.922 777.462 310.922 777.642 L 310.922 781.059 L 319.744 781.059 L 319.744 777.642 C 319.744 777.462 319.806 777.291 319.916 777.164 C 320.026 777.038 320.177 776.966 320.332 776.966 L 334.453 776.966 C 334.609 776.966 334.759 777.038 334.869 777.164 C 334.981 777.291 335.041 777.462 335.041 777.642 L 335.041 781.059 L 343.873 781.059 L 343.873 777.642 C 343.873 777.462 343.935 777.291 344.046 777.164 C 344.156 777.038 344.306 776.966 344.462 776.966 L 358.582 776.966 C 358.739 776.966 358.888 777.038 358.999 777.164 C 359.11 777.291 359.171 777.462 359.171 777.642 L 359.171 781.059 L 367.993 781.059 L 367.993 777.642 C 367.993 777.462 368.055 777.291 368.165 777.164 C 368.275 777.038 368.426 776.966 368.581 776.966 L 479.189 776.966 C 479.346 776.966 479.495 777.038 479.606 777.164 C 479.717 777.291 479.778 777.462 479.778 777.642 L 479.778 781.059 L 488.61 781.059 L 488.61 777.642 C 488.61 777.462 488.672 777.291 488.782 777.164 C 488.893 777.038 489.043 776.966 489.199 776.966 L 503.319 776.966 C 503.643 776.97 503.905 777.271 503.908 777.642 L 503.908 781.059 L 512.729 781.059 L 512.729 777.642 C 512.729 777.462 512.791 777.291 512.902 777.164 C 513.012 777.038 513.162 776.966 513.318 776.966 L 527.438 776.966 C 527.595 776.966 527.744 777.038 527.856 777.164 C 527.966 777.291 528.028 777.462 528.027 777.642 L 528.027 781.059 L 536.849 781.059 L 536.849 777.642 C 536.849 777.462 536.911 777.291 537.021 777.164 C 537.131 777.038 537.282 776.966 537.437 776.966 L 551.558 776.966 C 551.714 776.966 551.864 777.038 551.975 777.164 C 552.086 777.291 552.148 777.462 552.147 777.642 L 552.147 781.059 L 560.978 781.059 L 560.978 777.642 C 560.978 777.462 561.04 777.291 561.151 777.164 C 561.261 777.038 561.412 776.966 561.567 776.966 L 575.688 776.966 C 576.009 776.971 576.268 777.273 576.266 777.642 L 576.266 781.059 L 585.098 781.059 L 585.098 777.642 C 585.098 777.462 585.16 777.291 585.27 777.164 C 585.38 777.038 585.531 776.966 585.686 776.966 L 599.807 776.966 C 599.963 776.966 600.113 777.038 600.224 777.164 C 600.335 777.291 600.397 777.462 600.396 777.642 L 600.396 781.059 L 609.217 781.059 L 609.217 777.642 C 609.217 777.462 609.279 777.291 609.389 777.164 C 609.5 777.038 609.65 776.966 609.806 776.966 L 623.926 776.966 C 624.083 776.966 624.232 777.038 624.343 777.164 C 624.454 777.291 624.516 777.462 624.515 777.642 L 624.515 781.059 L 665.698 781.059 C 669.444 781.058 673.036 782.766 675.685 785.807 C 678.333 788.847 679.82 792.972 679.819 797.273 L 679.819 797.273 L 679.819 797.273 L 679.819 797.273 Z " fill="rgb(63,61,86)"/><rect x="45.663" y="810.48" width="770.681" height="2.415" transform="matrix(1,0,0,1,0,0)" fill="rgb(63,61,86)"/><path d=" M 642.016 488.656 L 467.016 488.656 L 467.016 484.514 L 387.664 484.514 L 387.664 488.656 L 211.944 488.656 C 208.804 488.656 205.793 490.088 203.574 492.637 C 201.353 495.186 200.106 498.643 200.106 502.248 L 200.106 777.402 C 200.106 784.909 205.406 790.994 211.944 790.994 L 642.016 790.994 C 648.552 790.994 653.852 784.909 653.852 777.402 L 653.852 502.248 C 653.852 498.643 652.605 495.186 650.386 492.637 C 648.165 490.088 645.154 488.656 642.016 488.656 L 642.016 488.656 L 642.016 488.656 L 642.016 488.656 Z " fill="rgb(63,61,86)"/><ellipse vector-effect="non-scaling-stroke" cx="427.3237363346967" cy="584.7186129141373" rx="26.285176317107982" ry="30.182075324780612" fill="none" stroke-width="2" stroke="rgb(208,205,225)" stroke-opacity="1000000" stroke-linejoin="miter" stroke-linecap="butt" stroke-miterlimit="10"/><ellipse vector-effect="non-scaling-stroke" cx="418.91247991322217" cy="595.5841600310587" rx="26.285176317107982" ry="30.182075324780612" fill="rgb(208,205,225)"/><rect x="66.634" y="798.283" width="29.439" height="33.804" transform="matrix(1,0,0,1,0,0)" fill="rgb(208,205,225)"/><path d=" M 78.204 771.723 L 78.204 812.771 L 113.952 812.771 L 113.952 771.723 L 78.204 771.723 L 78.204 771.723 L 78.204 771.723 Z  M 112.396 810.984 L 79.749 810.984 L 79.749 773.51 L 112.396 773.51 L 112.396 810.984 L 112.396 810.984 L 112.396 810.984 Z " fill="rgb(63,61,86)"/><rect x="727.946" y="798.283" width="29.439" height="33.804" transform="matrix(1,0,0,1,0,0)" fill="rgb(208,205,225)"/><path d=" M 739.516 771.723 L 739.516 812.771 L 775.263 812.771 L 775.263 771.723 L 739.516 771.723 L 739.516 771.723 L 739.516 771.723 Z  M 773.707 810.984 L 741.061 810.984 L 741.061 773.51 L 773.707 773.51 L 773.707 810.984 L 773.707 810.984 L 773.707 810.984 Z " fill="rgb(63,61,86)"/><ellipse vector-effect="non-scaling-stroke" cx="84.9289783801016" cy="182.0255126981039" rx="86.85330570446658" ry="95.78635338241918" fill="rgb(74,134,232)"/><path d=" M 113.9 68.199 C 106.094 67.096 98.195 67.096 90.39 68.199 C 54.88 73.38 25.337 101.064 14.751 139.081 C 12.394 147.565 11.058 156.36 10.78 165.234 C 10.741 166.467 10.715 167.716 10.715 168.964 C 10.765 225.048 51.67 270.499 102.145 270.556 C 104.091 270.556 106.037 270.483 107.957 270.352 C 112.465 270.038 116.943 269.348 121.358 268.291 C 164.881 257.891 195.338 214.177 193.496 164.754 C 191.654 115.332 158.047 74.564 113.9 68.199 L 113.9 68.199 L 113.9 68.199 L 113.9 68.199 Z  M 130.762 262.399 L 130.749 262.399 C 123.385 265.191 115.721 266.884 107.957 267.435 C 106.037 267.58 104.091 267.652 102.145 267.652 C 53.117 267.586 13.387 223.44 13.327 168.964 C 13.327 167.716 13.353 166.467 13.392 165.234 C 15.258 112.25 54.424 70.345 102.145 70.275 C 145.6 70.277 182.675 105.216 189.77 152.854 C 196.866 200.491 171.9 246.839 130.762 262.399 L 130.762 262.399 L 130.762 262.399 L 130.762 262.399 Z " fill="rgb(63,61,86)"/><rect x="97.926" y="76.081" width="2.528" height="20.319" transform="matrix(1,0,0,1,0,0)" fill="rgb(63,61,86)"/><rect x="46.834" y="101.026" width="2.721" height="18.862" transform="matrix(0.657,-0.754,0.663,0.761,-56.693,62.707)" fill="rgb(63,61,86)"/><rect x="25.695" y="160.116" width="2.902" height="17.695" transform="matrix(0,-1,1,0,-141.818,196.11)" fill="rgb(63,61,86)"/><rect x="46.844" y="218.124" width="2.721" height="18.862" transform="matrix(-0.657,-0.754,0.663,-0.761,-71.014,437.151)" fill="rgb(63,61,86)"/><rect x="148.794" y="101.134" width="2.721" height="18.862" transform="matrix(-0.657,-0.754,0.663,-0.761,175.459,307.975)" fill="rgb(63,61,86)"/><rect x="169.782" y="160.116" width="2.902" height="17.695" transform="matrix(0,-1,1,0,2.269,340.197)" fill="rgb(63,61,86)"/><rect x="148.655" y="218.017" width="2.721" height="18.862" transform="matrix(0.657,-0.754,0.663,0.761,-99.311,167.414)" fill="rgb(63,61,86)"/><rect x="97.926" y="241.529" width="2.528" height="20.319" transform="matrix(1,0,0,1,0,0)" fill="rgb(63,61,86)"/><path d=" M 102.981 163.158 C 100.734 161.223 97.645 161.223 95.397 163.158 C 94.649 163.811 94.033 164.643 93.59 165.597 C 92.032 169.014 93.073 173.233 95.96 175.203 C 98.848 177.174 102.573 176.205 104.442 173.001 C 106.31 169.796 105.669 165.473 102.981 163.158 L 102.981 163.158 L 102.981 163.158 L 102.981 163.158 Z  M 99.19 173.318 C 97.099 173.31 95.404 171.365 95.397 168.964 C 95.403 168.083 95.636 167.224 96.068 166.496 C 97.09 164.797 99.013 164.157 100.669 164.966 C 102.324 165.776 103.256 167.81 102.897 169.835 C 102.539 171.859 100.989 173.315 99.19 173.318 L 99.19 173.318 L 99.19 173.318 L 99.19 173.318 Z " fill="rgb(63,61,86)"/><rect x="87.815" y="42.7" width="22.75" height="26.123" transform="matrix(1,0,0,1,0,0)" fill="rgb(63,61,86)"/><ellipse vector-effect="non-scaling-stroke" cx="99.18972024183768" cy="34.71771687628746" rx="30.334207961418485" ry="12.336126482215484" fill="rgb(63,61,86)"/><rect x="95.397" y="113.814" width="7.584" height="49.344" transform="matrix(1,0,0,1,0,0)" fill="rgb(63,61,86)"/><rect x="-17.947" y="266.133" width="237.618" height="2.902" transform="matrix(1,0,0,1,0,0)" fill="rgb(63,61,86)"/><path d=" M 140.388 724.073 C 141.369 762.646 121.741 776.782 97.108 777.607 Q 96.25 777.636 95.4 777.642 Q 93.687 777.658 92.006 777.577 C 69.728 776.515 52.094 762.936 51.183 727.064 C 50.238 689.941 90.366 641.706 93.378 638.138 L 93.383 638.135 C 93.498 637.998 93.556 637.931 93.556 637.931 C 93.556 637.931 139.407 685.504 140.388 724.073 Z " fill="rgb(74,134,232)"/><path d=" M 95.335 771.762 L 110.982 745.043 L 95.367 774.636 L 95.4 777.642 Q 93.686 777.658 92.006 777.577 L 92.783 738.93 L 92.761 738.631 L 92.79 738.575 L 92.864 734.923 L 75.728 706.355 L 92.844 732.189 L 92.905 732.961 L 93.49 703.761 L 78.69 674.143 L 93.532 698.632 L 93.378 638.138 L 93.378 637.937 L 93.383 638.135 L 94.366 685.812 L 107.855 666.446 L 94.41 689.919 L 94.705 716.037 L 107.116 690.547 L 94.75 719.878 L 94.914 734.4 L 112.965 698.893 L 94.968 739.467 L 95.335 771.762 L 95.335 771.762 L 95.335 771.762 Z " fill="rgb(63,61,86)"/><path d=" M 801.7 724.073 C 802.681 762.646 783.053 776.782 758.42 777.607 Q 757.562 777.636 756.711 777.642 Q 754.999 777.658 753.317 777.577 C 731.04 776.515 713.406 762.936 712.494 727.064 C 711.55 689.941 751.679 641.706 754.689 638.138 L 754.695 638.135 C 754.809 637.998 754.868 637.931 754.868 637.931 C 754.868 637.931 800.719 685.504 801.7 724.073 Z " fill="rgb(74,134,232)"/><path d=" M 756.647 771.762 L 772.294 745.043 L 756.679 774.636 L 756.711 777.642 Q 754.998 777.658 753.317 777.577 L 754.094 738.93 L 754.072 738.631 L 754.102 738.575 L 754.175 734.923 L 737.039 706.355 L 754.155 732.189 L 754.216 732.961 L 754.802 703.761 L 740.001 674.143 L 754.844 698.632 L 754.689 638.138 L 754.689 637.937 L 754.695 638.135 L 755.678 685.812 L 769.166 666.446 L 755.722 689.919 L 756.016 716.037 L 768.428 690.547 L 756.062 719.878 L 756.226 734.4 L 774.277 698.893 L 756.28 739.467 L 756.647 771.762 L 756.647 771.762 L 756.647 771.762 Z " fill="rgb(63,61,86)"/></g></g></g></g></g></g></g></g></g></g></svg>