<?xml version="1.0" encoding="UTF-8" standalone="no"?><!-- Generator: Gravit.io --><svg xmlns="http://www.w3.org/2000/svg" xmlns:xlink="http://www.w3.org/1999/xlink" style="isolation:isolate" viewBox="0 0 894.134 610.926" width="894.134pt" height="610.926pt"><defs><clipPath id="_clipPath_S78QxyEDiuF4c3pKBNDDznBfyHrFNVMe"><rect width="894.134" height="610.926"/></clipPath></defs><g clip-path="url(#_clipPath_S78QxyEDiuF4c3pKBNDDznBfyHrFNVMe)"><clipPath id="_clipPath_crVcdwvoG9ZebOmDfwmdX5mR2LSbh7mF"><rect x="0" y="0" width="894.134" height="610.926" transform="matrix(1,0,0,1,0,0)" fill="rgb(255,255,255)"/></clipPath><g clip-path="url(#_clipPath_crVcdwvoG9ZebOmDfwmdX5mR2LSbh7mF)"><g><clipPath id="_clipPath_Z2Z8g7wo1RTzgYoDXq0y7QIdR41dzWMh"><rect x="0" y="0" width="894.134" height="610.926" transform="matrix(1,0,0,1,0,0)" fill="rgb(255,255,255)"/></clipPath><g clip-path="url(#_clipPath_Z2Z8g7wo1RTzgYoDXq0y7QIdR41dzWMh)"><g><g><ellipse vector-effect="non-scaling-stroke" cx="447.06693" cy="582.86506" rx="447.06693" ry="28.06138999999996" fill="rgb(208,205,225)"/><rect x="187.067" y="0" width="520" height="212.13" transform="matrix(1,0,0,1,0,0)" fill="rgb(63,61,86)"/><path d=" M 261.802 78.971 L 223.033 78.971 C 220.387 63.676 220.387 48.041 223.033 32.747 L 261.802 32.747 C 257.434 47.845 257.434 63.872 261.802 78.971 Z " fill="rgb(255,101,132)"/><path d=" M 342.548 66.024 L 381.316 66.024 C 383.962 50.729 383.962 35.094 381.316 19.799 L 342.548 19.799 C 346.915 34.898 346.915 50.925 342.548 66.024 L 342.548 66.024 L 342.548 66.024 L 342.548 66.024 Z " fill="rgb(92,201,167)"/><path d=" M 585.751 87.792 Q 616.48 88.115 647.146 85.894 L 645.789 84.112 C 642.442 92.592 642.534 101.529 642.978 110.499 C 643.089 112.747 643.794 115.777 643.338 118.003 C 642.765 120.803 640.252 120.134 637.752 120.214 Q 629.495 120.481 621.234 120.598 Q 613.433 120.708 605.63 120.685 Q 601.958 120.674 598.286 120.633 C 595.412 120.601 592.145 121.436 591.403 118.106 C 590.927 115.974 591.406 113.169 591.407 110.975 L 591.413 102.953 L 591.423 86.908 C 591.397 86.15 590.775 85.548 590.015 85.548 C 589.256 85.548 588.634 86.15 588.607 86.908 L 588.594 106.518 L 588.588 115.432 C 588.587 117.203 588.219 119.342 588.88 121.023 C 590.401 124.889 596.972 123.438 600.122 123.467 Q 609.76 123.556 619.398 123.438 Q 629.036 123.322 638.67 123.001 C 641.437 122.909 645.265 123.538 646.105 120.126 C 646.693 117.733 646.007 114.614 645.881 112.173 C 645.738 109.387 645.584 106.6 645.547 103.81 C 645.46 97.295 646.098 90.958 648.504 84.861 C 648.618 84.437 648.529 83.985 648.263 83.636 C 647.998 83.287 647.585 83.081 647.146 83.079 Q 616.496 85.299 585.751 84.976 C 584.992 85.002 584.391 85.625 584.391 86.384 C 584.391 87.143 584.992 87.766 585.751 87.792 L 585.751 87.792 L 585.751 87.792 L 585.751 87.792 Z " fill="rgb(241,241,241)"/><path d=" M 591.253 88.341 C 596.952 90.358 602.51 92.758 607.886 95.524 C 612.71 98.017 619.025 100.74 622.344 105.195 C 623.04 106.129 624.629 105.217 623.925 104.271 C 620.535 99.722 614.699 97.045 609.797 94.459 C 603.974 91.403 597.939 88.768 591.739 86.576 C 590.627 86.18 590.149 87.948 591.253 88.341 L 591.253 88.341 L 591.253 88.341 L 591.253 88.341 Z " fill="rgb(241,241,241)"/><path d=" M 647.704 84.252 C 642.865 86.511 638.765 90.864 634.44 94.089 Q 627.418 99.325 619.978 103.835 C 619.155 104.337 619.893 105.718 620.718 105.216 Q 628.142 100.69 635.179 95.469 C 639.503 92.245 643.605 87.891 648.443 85.633 C 649.307 85.23 648.562 83.852 647.704 84.252 L 647.704 84.252 L 647.704 84.252 L 647.704 84.252 Z " fill="rgb(241,241,241)"/><path d=" M 403.559 93.046 Q 432.031 93.479 460.502 92.819 C 462.311 92.777 462.317 89.961 460.502 90.003 Q 432.033 90.663 403.559 90.23 C 402.8 90.257 402.199 90.879 402.199 91.638 C 402.199 92.397 402.8 93.02 403.559 93.046 Z " fill="rgb(241,241,241)"/><path d=" M 405.155 105.813 Q 434.426 106.28 463.694 105.562 C 465.503 105.517 465.51 102.701 463.694 102.746 Q 434.429 103.464 405.155 102.997 C 404.397 103.023 403.795 103.646 403.795 104.405 C 403.795 105.164 404.397 105.787 405.155 105.813 Z " fill="rgb(241,241,241)"/><path d=" M 403.019 119.598 L 458.366 117.027 C 460.17 116.944 460.18 114.127 458.366 114.212 L 403.019 116.782 C 401.215 116.866 401.205 119.682 403.019 119.598 Z " fill="rgb(241,241,241)"/><path d=" M 489.231 106.209 L 541.913 106.209 C 542.671 106.183 543.273 105.56 543.273 104.801 C 543.273 104.042 542.671 103.419 541.913 103.393 L 489.231 103.393 C 488.473 103.419 487.871 104.042 487.871 104.801 C 487.871 105.56 488.473 106.183 489.231 106.209 Z " fill="rgb(241,241,241)"/><path d=" M 539.605 90.11 L 547.836 97.623 C 548.777 98.482 551.366 100.256 551.951 101.379 C 553.16 103.702 551.861 103.172 549.789 103.977 C 544.697 106.003 540.005 108.917 535.931 112.582 C 534.569 113.782 536.567 115.768 537.922 114.573 C 541.638 111.234 545.907 108.567 550.537 106.692 C 552.198 106.036 555.348 105.651 556.137 103.673 C 557.103 101.252 554.027 99.466 552.57 98.136 L 541.596 88.119 C 540.26 86.899 538.263 88.885 539.605 90.11 L 539.605 90.11 L 539.605 90.11 L 539.605 90.11 Z " fill="rgb(241,241,241)"/><path d=" M 411.755 200.033 L 450.523 200.033 C 453.169 184.739 453.169 169.103 450.523 153.809 L 411.755 153.809 C 416.122 168.907 416.122 184.935 411.755 200.033 L 411.755 200.033 L 411.755 200.033 L 411.755 200.033 Z " fill="rgb(255,153,0)"/><path d=" M 250.311 165.304 L 289.079 165.304 C 291.725 150.009 291.725 134.374 289.079 119.08 L 250.311 119.08 C 254.678 134.178 254.678 150.205 250.311 165.304 L 250.311 165.304 L 250.311 165.304 L 250.311 165.304 Z " fill="rgb(0,255,255)"/><path d=" M 495.293 63.932 L 534.061 63.932 C 536.707 48.637 536.707 33.002 534.061 17.708 L 495.293 17.708 C 499.66 32.806 499.66 48.833 495.293 63.932 Z " fill="rgb(74,134,232)"/><path d=" M 880.902 534.848 L 885.955 555.062 L 863.721 561.126 L 861.699 539.902 L 880.902 534.848 L 880.902 534.848 L 880.902 534.848 L 880.902 534.848 Z " fill="rgb(160,97,106)"/><path d=" M 800.048 560.115 L 800.048 579.318 L 777.813 583.361 L 773.771 573.254 L 781.856 556.072 L 800.048 560.115 L 800.048 560.115 L 800.048 560.115 L 800.048 560.115 Z " fill="rgb(160,97,106)"/><path d=" M 844.518 350.906 L 841.486 378.194 L 843.507 430.749 C 844.316 430.732 845.098 431.046 845.67 431.618 C 846.242 432.19 846.556 432.972 846.539 433.781 C 846.539 436.813 843.507 435.802 846.539 437.824 C 848.165 438.928 849.853 439.94 851.592 440.856 L 883.934 538.891 C 883.934 538.891 875.849 548.998 860.689 545.966 L 857.657 535.859 C 857.657 535.859 851.593 529.795 851.593 526.763 C 851.593 526.763 853.614 522.72 851.593 519.688 C 849.571 516.656 819.251 455.005 819.251 455.005 L 805.102 429.738 L 801.059 464.101 C 801.059 464.101 809.144 507.56 807.123 527.774 C 807.123 527.774 801.059 569.211 801.059 569.211 L 776.803 565.168 C 776.693 561.907 775.64 558.748 773.771 556.072 C 770.739 552.03 766.696 553.04 770.739 550.008 C 774.781 546.976 779.835 550.008 775.792 545.966 C 771.749 541.923 771.749 537.88 771.749 537.88 L 771.749 534.848 L 765.685 457.027 L 754.568 354.949 L 844.518 350.906 L 844.518 350.906 L 844.518 350.906 Z " fill="rgb(47,46,65)"/><circle vector-effect="non-scaling-stroke" cx="775.79199" cy="139.67509" r="27.288170000000036" fill="rgb(160,97,106)"/><path d=" M 799.543 140.18 L 810.66 167.469 L 784.383 186.671 L 768.212 158.373 L 799.543 140.18 L 799.543 140.18 L 799.543 140.18 L 799.543 140.18 Z " fill="rgb(160,97,106)"/><path d=" M 801.059 160.899 L 811.166 155.846 L 817.23 169.995 C 817.23 169.995 856.646 182.123 853.614 237.71 C 853.614 237.71 843.507 314.522 843.507 314.522 C 843.507 314.522 860.688 350.906 850.582 354.948 C 850.582 354.948 754.568 374.151 752.546 360.002 C 752.546 360.002 759.621 262.977 759.621 262.977 C 759.621 262.977 756.589 203.347 781.856 191.219 L 776.803 180.102 L 801.059 160.899 L 801.059 160.899 L 801.059 160.899 Z " fill="rgb(208,205,225)"/><path d=" M 745.472 356.97 C 745.472 356.97 722.226 381.226 735.365 387.29 C 735.365 387.29 756.589 360.002 756.589 360.002 L 745.472 356.97 L 745.472 356.97 L 745.472 356.97 Z " fill="rgb(160,97,106)"/><path d=" M 792.973 574.265 L 804.091 570.222 C 804.091 570.222 816.219 597.51 806.112 597.51 L 779.835 597.51 C 779.835 597.51 764.675 592.457 756.589 592.457 C 756.589 592.457 733.344 577.297 744.461 570.222 C 744.461 570.222 769.728 565.168 769.728 565.168 L 773.771 556.072 L 778.824 570.222 C 778.824 570.222 784.888 580.329 792.973 574.265 Z " fill="rgb(47,46,65)"/><path d=" M 874.838 552.03 C 874.838 552.03 881.167 548.036 884.572 549.528 C 884.572 549.528 889.998 567.19 889.998 567.19 C 889.998 567.19 900.105 579.318 877.87 581.339 C 877.87 581.339 850.582 579.318 848.56 573.254 C 848.56 573.254 850.582 561.126 850.582 561.126 L 856.646 559.104 C 856.646 559.104 863.72 554.051 861.699 552.03 C 861.699 552.03 861.699 545.966 861.699 545.966 C 861.699 545.966 868.774 560.115 874.838 552.03 Z " fill="rgb(47,46,65)"/><path d=" M 785.126 139.238 C 785.015 138.355 784.816 137.485 784.532 136.641 C 783.065 133.564 777.343 134.462 776.323 131.21 C 776.124 130.573 776.165 129.881 775.97 129.243 C 775.471 127.617 773.558 126.81 771.859 126.888 C 770.174 127.121 768.52 127.546 766.932 128.157 C 762.934 129.291 758.68 128.858 754.548 128.416 C 752.705 128.354 750.9 127.884 749.261 127.039 C 747.696 126.077 746.568 124.139 747.138 122.392 C 747.684 120.717 749.517 119.797 750.341 118.24 C 751.649 115.768 750.05 112.574 751.111 109.986 C 752.814 105.835 759.259 106.668 762.533 103.6 C 763.327 102.855 763.9 101.903 764.661 101.124 C 766.921 98.814 770.49 98.367 773.706 98.686 C 776.922 99.004 780.082 99.949 783.313 99.892 C 786.377 99.837 789.589 98.904 792.413 100.096 C 794.073 100.946 795.531 102.144 796.687 103.608 L 803.929 111.55 C 804.923 112.488 805.689 113.641 806.167 114.922 C 806.603 116.443 806.202 118.077 806.388 119.649 C 806.812 123.234 810.168 125.942 810.621 129.524 C 810.712 130.635 810.659 131.753 810.461 132.85 L 809.447 140.329 C 809.396 141.058 809.202 141.771 808.875 142.425 C 808.58 142.929 808.134 143.327 807.802 143.807 C 806.864 145.164 806.95 146.956 806.484 148.538 C 806.018 150.12 804.347 151.685 802.885 150.923 C 801.932 150.425 801.301 146.313 800.143 145.245 C 798.529 143.758 797.686 143.941 795.695 143.966 C 791.706 144.017 786.402 144.359 785.126 139.238 Z " fill="rgb(47,46,65)"/><path d=" M 789.941 198.294 C 789.941 198.294 820.262 210.422 811.166 237.71 C 811.166 237.71 777.813 348.884 777.813 348.884 L 763.664 355.959 L 759.621 367.077 L 740.418 360.002 L 743.45 344.842 C 743.45 344.842 744.461 343.831 744.461 339.788 C 744.461 339.788 740.418 334.735 745.472 334.735 C 745.472 334.735 750.525 329.682 750.525 329.682 L 768.717 216.486 C 768.717 216.486 768.717 197.283 789.941 198.294 Z " fill="rgb(208,205,225)"/><g style="opacity:0.1;"><g style="opacity:0.1;"><g opacity="0.1"><path d=" M 812.682 243.269 L 781.351 350.4 L 768.212 363.539 L 775.792 349.895 L 812.682 243.269 L 812.682 243.269 L 812.682 243.269 L 812.682 243.269 Z " fill="rgb(0,0,0)"/></g></g></g><path d=" M 60.867 179.123 L 92.628 184.417 L 103.215 134.128 L 77.63 123.541 L 60.867 179.123 L 60.867 179.123 L 60.867 179.123 L 60.867 179.123 Z " fill="rgb(47,46,65)"/><circle vector-effect="non-scaling-stroke" cx="104.53881" cy="141.62754" r="27.349980000000002" fill="rgb(160,97,106)"/><path d=" M 92.628 157.067 C 92.628 157.067 95.275 190.593 74.983 193.24 C 74.983 193.24 92.628 255.88 102.333 254.998 C 102.333 254.998 129.683 189.711 129.683 189.711 C 129.683 189.711 106.745 173.83 114.685 159.714 L 92.628 157.067 L 92.628 157.067 L 92.628 157.067 Z " fill="rgb(160,97,106)"/><path d=" M 58.661 279.26 C 58.661 279.26 62.19 304.845 72.778 304.845 C 72.778 304.845 65.719 275.731 65.719 275.731 L 58.661 279.26 L 58.661 279.26 L 58.661 279.26 Z " fill="rgb(160,97,106)"/><path d=" M 213.056 304.845 C 213.056 304.845 239.524 326.902 235.995 333.96 C 235.995 333.96 209.527 326.019 207.763 308.374 L 213.056 304.845 L 213.056 304.845 L 213.056 304.845 Z " fill="rgb(160,97,106)"/><path d=" M 53.368 389.542 L 36.605 452.182 L 18.078 528.056 L 35.723 528.056 C 35.723 528.056 41.899 504.235 53.368 491.884 C 53.368 491.884 64.837 472.474 64.837 459.24 L 92.187 394.835 L 53.368 389.542 L 53.368 389.542 L 53.368 389.542 Z " fill="rgb(160,97,106)"/><path d=" M 125.713 393.071 L 131.007 452.182 C 131.007 452.182 130.124 494.53 131.007 504.235 C 131.007 504.235 131.007 528.056 131.007 528.056 L 146.887 528.056 C 146.887 528.056 161.886 476.003 157.474 447.771 L 163.65 381.602 L 125.713 393.071 L 125.713 393.071 L 125.713 393.071 Z " fill="rgb(160,97,106)"/><path d=" M 104.539 230.736 C 104.539 230.736 80.769 211.898 86.919 185.585 C 86.919 185.585 63.073 186.623 53.368 196.327 C 43.663 206.032 56.015 238.676 56.015 238.676 C 56.015 238.676 77.189 273.966 73.66 289.847 C 70.131 305.727 32.194 389.542 44.545 394.835 C 56.897 400.129 131.889 418.656 169.826 387.777 C 169.826 387.777 179.531 300.434 140.711 272.202 L 140.711 250.145 C 140.711 250.145 147.769 243.969 144.24 228.089 C 144.24 228.089 159.239 200.739 150.416 195.445 C 141.594 190.152 121.327 182.394 121.327 182.394 C 121.327 182.394 123.066 221.913 104.539 230.736 Z " fill="rgb(74,134,232)"/><path d=" M 58.661 196.327 C 58.661 196.327 47.192 194.563 35.723 211.326 C 35.723 211.326 -5.743 254.556 8.373 267.79 C 22.489 281.024 60.426 289.847 60.426 289.847 L 69.249 273.966 L 31.311 255.439 L 63.073 231.618 L 58.661 196.327 L 58.661 196.327 L 58.661 196.327 Z " fill="rgb(74,134,232)"/><path d=" M 146.005 196.327 C 146.005 196.327 158.357 196.327 163.65 211.326 C 163.65 211.326 199.823 277.495 199.823 277.495 L 217.468 304.845 L 205.116 318.961 L 170.708 280.142 L 138.065 226.324 L 146.005 196.327 L 146.005 196.327 L 146.005 196.327 Z " fill="rgb(74,134,232)"/><path d=" M 39.252 526.292 L 14.549 526.292 L 9.255 569.522 C 9.255 569.522 -4.861 592.461 16.313 589.814 C 37.487 587.167 30.429 563.347 30.429 563.347 L 35.723 554.524 L 37.487 573.051 L 39.252 572.169 L 39.252 551.877 C 39.252 551.877 48.957 543.055 39.252 526.292 Z " fill="rgb(47,46,65)"/><path d=" M 151.298 526.292 L 128.36 524.527 L 123.948 573.934 C 123.948 573.934 121.302 592.461 137.182 589.814 C 137.182 589.814 147.769 572.169 147.769 572.169 L 147.769 544.819 L 151.298 526.292 L 151.298 526.292 L 151.298 526.292 Z " fill="rgb(47,46,65)"/><path d=" M 84.688 113.836 C 84.688 113.836 71.835 118.121 71.182 135.041 C 71.116 137.747 71.416 140.449 72.074 143.075 C 72.798 146.142 73.263 152.742 67.655 161.366 C 63.899 167.06 60.468 172.962 57.378 179.043 L 57.338 179.123 L 71.454 180.888 L 74.456 157.489 C 75.911 146.145 79.028 135.077 83.708 124.641 L 83.806 124.424 C 83.806 124.424 89.982 135.893 102.333 135.893 L 97.922 131.482 C 97.922 131.482 117.332 139.422 124.39 139.422 C 124.39 139.422 129.683 142.951 124.39 148.244 C 119.096 153.538 108.509 165.89 114.685 175.594 C 120.861 185.299 115.567 187.946 115.567 187.946 L 125.272 182.653 L 129.683 180.006 L 129.683 183.535 L 152.622 180.888 C 152.622 180.888 158.798 180.006 145.564 165.007 C 145.564 165.007 142.069 159.183 143.598 154.16 C 144.854 150.342 145.185 146.28 144.561 142.31 C 141.597 125.77 129.965 92.888 84.688 113.836 Z " fill="rgb(47,46,65)"/><path d=" M 586.14 609.205 C 586.02 609.009 583.188 604.281 582.207 594.463 C 581.306 585.455 581.885 570.272 589.759 549.094 C 604.676 508.972 586.322 476.599 586.134 476.277 L 587.04 475.751 C 590.574 482.514 593.127 489.746 594.621 497.23 C 598.318 514.654 596.972 532.772 590.741 549.458 C 575.849 589.512 586.92 608.473 587.033 608.66 L 586.14 609.205 L 586.14 609.205 L 586.14 609.205 Z " fill="rgb(63,61,86)"/><circle vector-effect="non-scaling-stroke" cx="580.30721" cy="467.11771" r="6.802909999999997" fill="rgb(63,61,86)"/><circle vector-effect="non-scaling-stroke" cx="601.76255" cy="492.23616" r="6.802909999999997" fill="rgb(63,61,86)"/><circle vector-effect="non-scaling-stroke" cx="587.11012" cy="508.98179000000005" r="6.802909999999997" fill="rgb(74,134,232)"/><circle vector-effect="non-scaling-stroke" cx="604.90236" cy="523.11092" r="6.802909999999997" fill="rgb(74,134,232)"/><circle vector-effect="non-scaling-stroke" cx="581.87711" cy="545.08957" r="6.802909999999997" fill="rgb(63,61,86)"/><path d=" M 590.25 609.456 C 590.25 609.456 583.447 592.71 603.856 580.151 L 590.25 609.456 L 590.25 609.456 L 590.25 609.456 Z " fill="rgb(63,61,86)"/><path d=" M 581.883 609.152 C 581.883 609.152 578.787 591.344 554.824 591.497 L 581.883 609.152 L 581.883 609.152 L 581.883 609.152 Z " fill="rgb(63,61,86)"/><path d=" M 311.942 559.753 C 311.822 559.557 308.991 554.829 308.009 545.011 C 307.108 536.003 307.687 520.82 315.561 499.642 C 330.479 459.52 312.124 427.147 311.936 426.825 L 312.842 426.299 C 316.376 433.062 318.929 440.294 320.423 447.778 C 324.12 465.202 322.774 483.32 316.543 500.006 C 301.651 540.06 312.722 559.021 312.836 559.208 L 311.942 559.753 L 311.942 559.753 L 311.942 559.753 Z " fill="rgb(208,205,225)"/><circle vector-effect="non-scaling-stroke" cx="306.10936" cy="417.66575" r="6.802909999999997" fill="rgb(63,61,86)"/><circle vector-effect="non-scaling-stroke" cx="327.5647" cy="442.78421" r="6.802909999999997" fill="rgb(63,61,86)"/><circle vector-effect="non-scaling-stroke" cx="312.91227" cy="459.52984" r="6.802909999999997" fill="rgb(208,205,225)"/><circle vector-effect="non-scaling-stroke" cx="330.70451" cy="473.65897" r="6.802909999999997" fill="rgb(208,205,225)"/><circle vector-effect="non-scaling-stroke" cx="307.67926" cy="495.63761" r="6.802909999999997" fill="rgb(63,61,86)"/><path d=" M 316.052 560.004 C 316.052 560.004 309.249 543.258 329.658 530.699 L 316.052 560.004 L 316.052 560.004 L 316.052 560.004 Z " fill="rgb(208,205,225)"/><path d=" M 307.686 559.7 C 307.686 559.7 304.589 541.892 280.626 542.045 L 307.686 559.7 L 307.686 559.7 L 307.686 559.7 Z " fill="rgb(208,205,225)"/></g></g></g></g></g></g></svg>