<?xml version="1.0" encoding="UTF-8" standalone="no"?><!-- Generator: Gravit.io --><svg xmlns="http://www.w3.org/2000/svg" xmlns:xlink="http://www.w3.org/1999/xlink" style="isolation:isolate" viewBox="0 0 1082.11 786.29" width="1082.11pt" height="786.29pt"><defs><clipPath id="_clipPath_0JzeTsWfdH1QC2AREklAss7O3xIGM0lw"><rect width="1082.11" height="786.29"/></clipPath></defs><g clip-path="url(#_clipPath_0JzeTsWfdH1QC2AREklAss7O3xIGM0lw)"><clipPath id="_clipPath_mS5XdcGj5wLsDK6FVRIOgrEINcGFT1IS"><rect x="0" y="0" width="1082.11" height="786.29" transform="matrix(1,0,0,1,0,0)" fill="rgb(255,255,255)"/></clipPath><g clip-path="url(#_clipPath_mS5XdcGj5wLsDK6FVRIOgrEINcGFT1IS)"><g><clipPath id="_clipPath_0e20jYko4cuBsRX5h4sguW3tqos5Klwm"><rect x="0" y="0" width="1082.11" height="786.29" transform="matrix(1,0,0,1,0,0)" fill="rgb(255,255,255)"/></clipPath><g clip-path="url(#_clipPath_0e20jYko4cuBsRX5h4sguW3tqos5Klwm)"><g><g><clipPath id="_clipPath_0W0bbYHyNpgonA8aMOh6soEurA083DK6"><rect x="0" y="0" width="1082.11" height="786.29" transform="matrix(1,0,0,1,0,0)" fill="rgb(255,255,255)"/></clipPath><g clip-path="url(#_clipPath_0W0bbYHyNpgonA8aMOh6soEurA083DK6)"><g><g><g><g style="opacity:0.1;"><g style="opacity:0.1;"><g style="opacity:0.1;"><g opacity="0.1"><path d=" M 345.48 29.66 C 374.7 3.66 420.55 -1.67 462.28 0.4 C 593.37 6.91 711.7 70.2 814.05 141.79 C 851.11 167.7 887.59 195.63 911.64 231.32 C 960.64 303.96 946.08 404.61 878 464.45 C 854.83 484.82 826.75 500.45 797.92 514.26 C 746.66 538.87 691.35 558.62 633.18 564.26 C 591.69 568.26 549.69 565.01 508.45 559.42 C 393.22 543.77 280.11 509.21 185.31 450.14 C 143.73 424.2 104.53 391.97 87.39 350.01 C 70.25 308.05 81.22 254.9 123.68 230.07 C 141.24 219.8 162.24 215.16 182.79 210.81 C 213.05 204.4 243.79 198.08 271.1 185.05 C 299.3 171.59 332.69 145.55 327.1 115.76 C 321.12 83.74 316.31 55.66 345.48 29.66 Z " fill="rgb(74,134,232)"/></g></g></g></g><g style="opacity:0.1;"><g style="opacity:0.1;"><g style="opacity:0.1;"><g opacity="0.1"><ellipse vector-effect="non-scaling-stroke" cx="850.44" cy="707.99" rx="109.46000000000004" ry="7.019999999999982" fill="rgb(255,196,49)"/></g></g></g></g><g style="opacity:0.1;"><g style="opacity:0.1;"><g style="opacity:0.1;"><g opacity="0.1"><ellipse vector-effect="non-scaling-stroke" cx="565.93" cy="661.01" rx="109.46000000000004" ry="7.019999999999982" fill="rgb(255,196,49)"/></g></g></g></g><g style="opacity:0.1;"><g style="opacity:0.1;"><g style="opacity:0.1;"><g opacity="0.1"><ellipse vector-effect="non-scaling-stroke" cx="164.07" cy="772.37" rx="109.45999999999998" ry="7.019999999999982" fill="rgb(255,196,49)"/></g></g></g></g><g style="opacity:0.1;"><g style="opacity:0.1;"><g style="opacity:0.1;"><g opacity="0.1"><ellipse vector-effect="non-scaling-stroke" cx="372.07" cy="783.4" rx="45.04000000000002" ry="2.8899999999999864" fill="rgb(255,196,49)"/></g></g></g></g><g style="opacity:0.1;"><g style="opacity:0.1;"><g style="opacity:0.1;"><g opacity="0.1"><ellipse vector-effect="non-scaling-stroke" cx="1047" cy="708.99" rx="35.09999999999991" ry="2.25" fill="rgb(255,196,49)"/></g></g></g></g><g style="opacity:0.1;"><g style="opacity:0.1;"><g style="opacity:0.1;"><g opacity="0.1"><ellipse vector-effect="non-scaling-stroke" cx="724.85" cy="662.1" rx="29.75999999999999" ry="1.9099999999999682" fill="rgb(255,196,49)"/></g></g></g></g><path d=" M 1052.05 654.99 C 1052.05 654.99 1056.75 661.14 1049.89 670.42 C 1049.89 670.42 1037.35 687.53 1039.64 693.31 C 1039.64 693.31 1050.01 676.08 1058.44 675.84 C 1066.87 675.6 1061.34 665.36 1052.05 654.99 Z " fill="rgb(74,134,232)"/><g style="opacity:0.1;"><g style="opacity:0.1;"><g style="opacity:0.1;"><g opacity="0.1"><path d=" M 1052.05 654.99 C 1052.472 655.583 1052.809 656.233 1053.05 656.92 C 1061.28 666.59 1065.66 675.61 1057.75 675.84 C 1050.38 676.05 1041.54 689.23 1039.42 692.56 C 1039.488 692.815 1039.572 693.065 1039.67 693.31 C 1039.67 693.31 1050.04 676.08 1058.47 675.84 C 1066.9 675.6 1061.34 665.36 1052.05 654.99 Z " fill="rgb(0,0,0)"/></g></g></g></g><path d=" M 1060.8 662.82 C 1060.8 664.99 1060.56 666.74 1060.26 666.74 C 1059.96 666.74 1059.72 664.99 1059.72 662.82 C 1059.72 660.65 1060.02 661.68 1060.32 661.68 C 1060.62 661.68 1060.8 660.66 1060.8 662.82 Z " fill="rgb(255,208,55)"/><path d=" M 1063.8 665.41 C 1061.9 666.41 1060.25 667.07 1060.1 666.81 C 1059.95 666.55 1061.38 665.49 1063.28 664.45 C 1065.18 663.41 1064.43 664.17 1064.57 664.45 C 1064.71 664.73 1065.7 664.37 1063.8 665.41 Z " fill="rgb(255,208,55)"/><path d=" M 1027.24 654.99 C 1027.24 654.99 1022.54 661.14 1029.41 670.42 C 1029.41 670.42 1041.94 687.53 1039.65 693.31 C 1039.65 693.31 1029.29 676.08 1020.85 675.84 C 1012.41 675.6 1017.96 665.36 1027.24 654.99 Z " fill="rgb(74,134,232)"/><g style="opacity:0.1;"><g style="opacity:0.1;"><g style="opacity:0.1;"><g opacity="0.1"><path d=" M 1027.24 654.99 C 1026.816 655.582 1026.479 656.232 1026.24 656.92 C 1018.01 666.59 1013.62 675.61 1021.53 675.84 C 1028.9 676.05 1037.75 689.23 1039.86 692.56 C 1039.792 692.815 1039.708 693.065 1039.61 693.31 C 1039.61 693.31 1029.25 676.08 1020.81 675.84 C 1012.37 675.6 1017.96 665.36 1027.24 654.99 Z " fill="rgb(0,0,0)"/></g></g></g></g><path d=" M 1018.5 662.82 C 1018.5 664.99 1018.74 666.74 1019.04 666.74 C 1019.34 666.74 1019.59 664.99 1019.59 662.82 C 1019.59 660.65 1019.28 661.68 1018.98 661.68 C 1018.68 661.68 1018.5 660.66 1018.5 662.82 Z " fill="rgb(255,208,55)"/><path d=" M 1015.5 665.41 C 1017.4 666.41 1019.06 667.07 1019.2 666.81 C 1019.34 666.55 1017.92 665.49 1016.02 664.45 C 1014.12 663.41 1014.87 664.17 1014.73 664.45 C 1014.59 664.73 1013.6 664.37 1015.5 665.41 Z " fill="rgb(255,208,55)"/><path d=" M 1020.05 692.51 C 1020.05 692.51 1033.19 692.11 1037.15 689.29 C 1037.15 689.29 1057.36 683.1 1058.35 687.62 C 1058.35 687.62 1078.09 710.11 1063.26 710.23 C 1063.26 710.23 1028.79 707.92 1024.83 705.52 C 1020.87 703.12 1020.05 692.51 1020.05 692.51 Z " fill="rgb(168,168,168)"/><g style="opacity:0.2;"><g style="opacity:0.2;"><g style="opacity:0.2;"><g opacity="0.2"><path d=" M 1063.47 708.66 C 1048.64 708.78 1029 706.35 1025.05 703.94 C 1022.05 702.11 1020.84 695.53 1020.44 692.49 L 1020 692.49 C 1020 692.49 1020.83 703.09 1024.78 705.49 C 1024.78 705.49 1048.37 710.32 1063.21 710.2 C 1067.49 710.2 1068.97 708.65 1068.89 706.39 C 1068.29 707.78 1066.66 708.63 1063.47 708.66 Z " fill="rgb(0,0,0)"/></g></g></g></g><path d=" M 730.13 615.93 C 730.13 615.93 734.13 621.18 728.27 629.12 C 728.27 629.12 717.55 643.76 719.51 648.71 C 719.51 648.71 728.37 633.97 735.59 633.71 C 742.81 633.45 738.05 624.79 730.13 615.93 Z " fill="rgb(74,134,232)"/><g style="opacity:0.1;"><g style="opacity:0.1;"><g style="opacity:0.1;"><g opacity="0.1"><path d=" M 730.13 615.93 C 730.479 616.439 730.755 616.994 730.95 617.58 C 737.95 625.85 741.74 633.58 734.95 633.76 C 728.65 633.94 721.08 645.22 719.27 648.07 C 719.33 648.288 719.403 648.501 719.49 648.71 C 719.49 648.71 728.35 633.97 735.57 633.71 C 742.79 633.45 738.05 624.79 730.13 615.93 Z " fill="rgb(0,0,0)"/></g></g></g></g><path d=" M 737.6 622.63 C 737.6 624.48 737.39 625.98 737.14 625.98 C 736.89 625.98 736.67 624.48 736.67 622.63 C 736.67 620.78 736.93 621.63 737.19 621.63 C 737.45 621.63 737.6 620.78 737.6 622.63 Z " fill="rgb(255,208,55)"/><path d=" M 740.17 624.84 C 738.54 625.72 737.17 626.26 737 626.03 C 736.83 625.8 738.1 624.91 739.72 624.03 C 741.34 623.15 740.72 623.79 740.83 624.03 C 740.94 624.27 741.79 623.95 740.17 624.84 Z " fill="rgb(255,208,55)"/><path d=" M 708.89 615.93 C 708.89 615.93 704.89 621.18 710.74 629.12 C 710.74 629.12 721.47 643.76 719.51 648.71 C 719.51 648.71 710.64 633.97 703.42 633.71 C 696.2 633.45 700.95 624.79 708.89 615.93 Z " fill="rgb(22,105,255)" fill-opacity="0.6392156862745098"/><g style="opacity:0.1;"><g style="opacity:0.1;"><g style="opacity:0.1;"><g opacity="0.1"><path d=" M 708.89 615.93 C 708.535 616.437 708.255 616.993 708.06 617.58 C 701.06 625.85 697.27 633.58 704.06 633.76 C 710.37 633.94 717.93 645.22 719.74 648.07 C 719.68 648.28 719.61 648.5 719.53 648.71 C 719.53 648.71 710.66 633.97 703.44 633.71 C 696.22 633.45 700.95 624.79 708.89 615.93 Z " fill="rgb(0,0,0)"/></g></g></g></g><path d=" M 701.41 622.63 C 701.41 624.48 701.62 625.98 701.88 625.98 C 702.14 625.98 702.34 624.48 702.34 622.63 C 702.34 620.78 702.08 621.63 701.82 621.63 C 701.56 621.63 701.41 620.78 701.41 622.63 Z " fill="rgb(255,208,55)"/><path d=" M 698.85 624.84 C 700.47 625.72 701.85 626.26 702.01 626.03 C 702.17 625.8 700.92 624.91 699.29 624.03 C 697.66 623.15 698.29 623.79 698.18 624.03 C 698.07 624.27 697.22 623.95 698.85 624.84 Z " fill="rgb(255,208,55)"/><path d=" M 702.69 648.03 C 702.69 648.03 713.93 647.68 717.32 645.27 C 717.32 645.27 734.62 639.97 735.46 643.84 C 735.46 643.84 752.35 663.09 739.66 663.19 C 739.66 663.19 710.17 661.19 706.79 659.19 C 703.41 657.19 702.69 648.03 702.69 648.03 Z " fill="rgb(168,168,168)"/><g style="opacity:0.2;"><g style="opacity:0.2;"><g style="opacity:0.2;"><g opacity="0.2"><path d=" M 739.89 661.84 C 727.19 661.95 710.39 659.84 707.01 657.84 C 704.44 656.27 703.41 650.64 703.07 648.04 L 702.69 648.04 C 702.69 648.04 703.4 657.1 706.79 659.16 C 706.79 659.16 726.97 663.3 739.66 663.16 C 743.32 663.16 744.59 661.83 744.52 659.9 C 744.05 661.14 742.61 661.82 739.89 661.84 Z " fill="rgb(0,0,0)"/></g></g></g></g><g style="opacity:0.8;"><g style="opacity:0.8;"><g style="opacity:0.8;"><g style="opacity:0.8;"><g opacity="0.8"><path d=" M 147.78 621.77 C 189.073 621.787 222.537 655.27 222.53 696.563 C 222.523 737.857 189.047 771.328 147.753 771.33 C 106.46 771.332 72.981 737.863 72.97 696.57 C 72.957 676.726 80.835 657.691 94.867 643.66 C 108.9 629.629 127.936 621.754 147.78 621.77 L 147.78 621.77 L 147.78 621.77 L 147.78 621.77 L 147.78 621.77 Z " fill="rgb(231,77,137)"/></g></g></g></g><g style="opacity:0.8;"><g style="opacity:0.8;"><g style="opacity:0.8;"><g opacity="0.8"><path d=" M 147.78 776.65 C 103.552 776.6 67.732 740.718 67.76 696.49 C 67.788 652.262 103.652 616.425 147.88 616.43 C 192.108 616.436 227.963 652.282 227.98 696.51 C 227.941 740.778 192.048 776.644 147.78 776.65 L 147.78 776.65 L 147.78 776.65 L 147.78 776.65 L 147.78 776.65 Z  M 215.39 707.48 C 201.544 703.442 186.994 702.419 172.72 704.48 C 178.567 720.33 183.027 736.658 186.05 753.28 C 201.77 742.755 212.401 726.161 215.39 707.48 L 215.39 707.48 L 215.39 707.48 L 215.39 707.48 L 215.39 707.48 Z  M 174.54 759.6 C 171.321 741.888 166.432 724.521 159.94 707.73 C 159.802 707.796 159.653 707.837 159.5 707.85 C 120.84 721.32 106.99 748.08 105.74 750.58 C 117.742 759.931 132.525 765.003 147.74 764.99 C 156.936 765.054 166.046 763.219 174.5 759.6 L 174.54 759.6 L 174.54 759.6 L 174.54 759.6 L 174.54 759.6 Z  M 96.91 742.37 C 98.47 739.74 117.27 708.67 152.61 697.2 C 153.48 696.89 154.42 696.64 155.3 696.39 C 153.61 692.5 151.73 688.62 149.72 684.8 C 115.52 695.01 82.31 694.57 79.3 694.51 C 79.3 695.2 79.24 695.89 79.24 696.57 C 79.26 713.497 85.556 729.816 96.91 742.37 L 96.91 742.37 L 96.91 742.37 L 96.91 742.37 L 96.91 742.37 Z  M 80.74 682.6 C 102.11 682.506 123.383 679.707 144.05 674.27 C 136.303 660.646 127.831 647.447 118.67 634.73 C 99.235 643.875 85.2 661.589 80.74 682.6 L 80.74 682.6 L 80.74 682.6 L 80.74 682.6 L 80.74 682.6 Z  M 131.74 630.1 C 141.135 642.856 149.676 656.218 157.31 670.1 C 181.68 660.96 191.95 647.17 193.21 645.42 C 180.691 634.302 164.524 628.17 147.78 628.19 C 142.377 628.229 136.995 628.883 131.74 630.14 L 131.74 630.1 L 131.74 630.1 L 131.74 630.1 L 131.74 630.1 Z  M 200.79 653.34 C 199.35 655.29 187.88 670.01 162.57 680.34 C 164.13 683.6 165.7 686.92 167.14 690.24 C 167.64 691.43 168.14 692.62 168.65 693.75 C 191.45 690.86 214.07 695.5 216.33 695.94 C 216.161 680.38 210.678 665.345 200.79 653.33 L 200.79 653.34 L 200.79 653.34 L 200.79 653.34 L 200.79 653.34 Z " fill="rgb(178,33,90)"/></g></g></g></g></g><linearGradient id="_lgradient_1" x1="0.49998428427416686" y1="0.9999570775580766" x2="0.4999842842741669" y2="-0.000039930064772875085" gradientTransform="matrix(202.444,0,0,533.26,133.431,240.532)" gradientUnits="userSpaceOnUse"><stop offset="0%" stop-opacity="0.25" style="stop-color:rgb(128,128,128)"/><stop offset="54%" stop-opacity="0.12" style="stop-color:rgb(128,128,128)"/><stop offset="100%" stop-opacity="0.1" style="stop-color:rgb(128,128,128)"/></linearGradient><path d=" M 333.23 468.3 C 331.42 466.03 329.36 450.42 329.36 450.42 L 321.36 410.64 L 317.22 387.72 C 317.22 387.72 316.22 358.77 298.1 344.41 L 296.69 343.3 C 296.69 343.04 296.69 342.79 296.69 342.53 L 296.69 342.53 L 296.69 342.53 C 296.525 339.734 295.914 336.983 294.88 334.38 C 294.442 333.537 294.219 332.6 294.23 331.65 C 294.277 331.276 294.399 330.915 294.59 330.59 L 294.59 330.59 C 295.439 329.426 296.558 328.486 297.85 327.85 C 301.14 325.85 303.94 322.7 304.7 318.97 C 304.695 318.887 304.695 318.803 304.7 318.72 C 304.7 318.56 304.7 318.39 304.77 318.22 C 304.84 318.05 304.77 318.04 304.77 317.94 C 304.78 317.767 304.78 317.593 304.77 317.42 L 304.77 317.2 C 304.77 317 304.77 316.79 304.77 316.58 C 304.765 316.537 304.765 316.493 304.77 316.45 C 304.77 316.22 304.72 315.98 304.68 315.75 L 304.68 315.7 L 304.68 315.7 C 304.313 312.949 302.561 310.579 300.04 309.42 C 300.953 309.202 301.712 308.569 302.09 307.71 L 302.09 307.71 C 302.213 307.464 302.31 307.206 302.38 306.94 L 302.38 306.94 C 302.448 306.692 302.492 306.437 302.51 306.18 C 302.51 306.18 302.51 306.1 302.51 306.06 C 302.525 305.84 302.525 305.62 302.51 305.4 C 302.51 305.33 302.51 305.26 302.51 305.19 C 302.48 304.97 302.433 304.753 302.37 304.54 C 302.375 304.483 302.375 304.427 302.37 304.37 L 302.31 304.23 L 302.31 304.23 C 301.64 302.31 300.05 300.83 298.68 299.29 C 290.78 290.44 289.25 277.99 287.1 266.45 C 285.91 260.05 283.66 252.76 277.46 250.33 C 275.708 249.775 273.925 249.321 272.12 248.97 C 266.62 247.51 262.12 243.67 256.74 241.79 C 253.107 240.543 249.221 240.216 245.43 240.84 C 242.54 241.32 240.12 242.74 237.33 243.41 C 231.33 244.88 224.05 243.24 219.33 248.09 C 216.02 251.46 215.76 256.6 214.13 260.99 C 211.05 269.14 203.05 275.07 200.98 283.54 C 199.65 289 201.03 294.54 202.48 300.03 C 203.572 303.718 204.309 307.502 204.68 311.33 C 204.735 312.296 204.735 313.264 204.68 314.23 C 204.466 317.049 203.829 319.82 202.79 322.45 C 196.03 324.95 189.04 327.9 188.52 329.56 C 187.52 332.83 171.2 342.15 171.2 342.15 C 171.2 342.15 165 347.44 165 349.45 C 165 351.46 162.94 357.76 161.64 357.76 C 160.34 357.76 157.77 383.19 157.77 383.19 L 157.77 409.63 C 157.77 409.63 148.22 440.85 146.02 468.55 C 146.02 468.55 142.16 486.24 148.46 496.39 C 149.284 497.767 150.336 498.994 151.57 500.02 L 154.79 508.43 C 155.923 506.539 157.362 504.849 159.05 503.43 C 159.21 504.48 159.39 505.71 159.61 507.08 C 159.88 508.8 160.2 510.75 160.61 512.84 C 158.61 515.97 153.78 522.52 147.98 524.97 C 142.62 527.23 149.6 533.21 154.42 536.7 C 153.14 543.07 151.29 550.89 149.79 551.91 C 147.2 553.67 138.94 575.83 138.94 575.83 C 138.94 575.83 122.67 613.83 146.05 618.13 C 169.43 622.43 181.35 612.34 181.35 612.34 L 186.95 612.34 C 186.95 612.34 193.76 608.5 193.95 600.56 C 197.76 597.42 203.61 592.44 204.8 590.43 C 205.99 588.42 202.71 581.88 200.63 578.31 L 201.18 577.31 C 201.18 577.31 223.41 548.86 226.25 551.88 C 226.25 551.88 230.9 559.68 229.61 562.71 L 230.83 580.14 L 230.83 607.33 C 230.83 607.33 227.64 619.67 230.83 620.93 C 230.83 620.93 230.83 626.93 230.83 626.93 C 230.83 626.93 232.02 632.47 232.24 634.23 C 232.354 636.495 232.354 638.765 232.24 641.03 L 231.17 668.23 L 229.1 708.51 C 229.1 708.51 226.78 711.79 228.59 714.05 C 228.59 714.05 229.59 721.61 229.1 722.61 C 229.1 722.61 228.33 731.93 228.33 731.93 C 228.33 731.93 220.83 739.73 226.78 741.75 L 227.01 741.82 C 224.55 744.1 224.52 749.23 224.71 750.82 C 224.9 752.41 223.13 758.82 221.8 762.45 C 221.534 763.373 221.122 764.247 220.58 765.04 C 219.67 765.68 220.58 772.73 220.58 772.73 C 220.58 772.73 249.64 775.12 252.1 772.73 C 253.1 771.8 252.85 769.54 252.15 766.93 C 251.034 763.143 249.547 759.475 247.71 755.98 C 246.02 752.84 246.81 748.81 246.81 748.81 L 246.81 745.81 C 248.76 746.12 250.03 746.3 250.03 746.3 C 250.03 746.3 253.65 743.3 252.1 740.51 C 250.55 737.72 254.94 722.14 254.94 722.14 C 254.94 722.14 259.85 704.51 259.85 702.75 C 259.85 700.99 266.31 678.08 266.31 678.08 C 266.31 678.08 275.87 637.54 271.22 618.4 C 271.22 618.4 275.35 613.62 274.83 612.4 C 274.31 611.18 273.11 605.85 274.88 603.59 C 276.65 601.33 284.14 573.12 286.21 568.34 C 287.16 566.13 289.54 560.03 291.82 554.08 C 302.11 552.54 314.37 549.7 314.37 549.7 C 314.37 549.7 312.54 541.91 311.18 533.95 L 312.3 528.48 L 312.7 526.59 C 313.624 527.497 314.446 528.503 315.15 529.59 L 317.21 519.52 C 317.21 519.52 317.44 519.17 317.83 518.52 C 320.24 514.75 329.02 501.2 333.23 497.09 C 338.14 492.22 335.05 470.56 333.23 468.3 Z " fill="url(#_lgradient_1)"/><rect x="242.04" y="299.83" width="28.5" height="32" transform="matrix(1,0,0,1,0,0)" fill="rgb(146,89,120)"/><g style="opacity:0.1;"><g style="opacity:0.1;"><g style="opacity:0.1;"><g opacity="0.1"><rect x="242.04" y="299.83" width="28.5" height="32" transform="matrix(1,0,0,1,0,0)" fill="rgb(0,0,0)"/></g></g></g></g><path d=" M 200.28 575.58 C 200.28 575.58 207.53 587.08 205.78 590.08 C 204.03 593.08 192.05 602.83 192.05 602.83 L 188.51 578.83 L 200.28 575.58 L 200.28 575.58 L 200.28 575.58 L 200.28 575.58 Z " fill="rgb(74,134,232)"/><path d=" M 177.78 612.58 L 183.07 611.83 L 188.49 611.83 C 188.49 611.83 195.69 607.69 195.28 599.08 C 195.28 599.08 195.28 582.08 195.28 582.08 L 177.78 612.58 L 177.78 612.58 L 177.78 612.58 L 177.78 612.58 Z " fill="rgb(87,89,136)"/><g style="opacity:0.1;"><g style="opacity:0.1;"><g style="opacity:0.1;"><g opacity="0.1"><path d=" M 177.78 612.58 L 183.07 611.83 L 188.49 611.83 C 188.49 611.83 195.69 607.69 195.28 599.08 C 195.28 599.08 195.28 582.08 195.28 582.08 L 177.78 612.58 L 177.78 612.58 L 177.78 612.58 L 177.78 612.58 Z " fill="rgb(0,0,0)"/></g></g></g></g><path d=" M 188.49 495.33 L 158.49 528.33 C 158.49 528.33 154.99 550.08 152.49 551.83 C 149.99 553.58 142.05 575.58 142.05 575.58 C 142.05 575.58 126.32 613.33 148.93 617.58 C 171.54 621.83 183.05 611.83 183.05 611.83 L 202.25 577.08 C 202.25 577.08 223.76 548.83 226.51 551.83 C 226.51 551.83 231.01 559.58 229.76 562.58 L 230.93 579.83 L 230.93 606.83 C 230.93 606.83 227.85 619.08 230.93 620.33 C 230.93 620.33 230.93 626.33 230.93 626.33 C 230.93 626.33 232.09 631.83 232.3 633.58 C 232.3 633.58 232.3 640.33 232.3 640.33 L 231.3 667.33 L 229.3 707.33 C 229.3 707.33 227.05 710.58 228.8 712.83 C 228.8 712.83 229.8 720.33 229.3 721.33 C 229.3 721.33 228.55 730.58 228.55 730.58 C 228.55 730.58 221.3 738.33 227.05 740.33 C 227.05 740.33 249.55 744.83 249.55 744.83 C 249.55 744.83 253.05 741.83 251.55 739.08 C 251.55 739.08 254.3 720.83 254.3 720.83 C 254.3 720.83 259.05 703.33 259.05 701.58 C 259.05 701.58 265.3 677.08 265.3 677.08 C 265.3 677.08 274.55 636.83 270.05 617.83 C 270.05 617.83 274.05 613.08 273.55 611.83 C 273.05 610.58 271.88 605.33 273.55 603.08 C 275.22 600.83 282.55 572.83 284.55 568.08 C 286.55 563.33 295.05 540.33 295.05 540.33 L 295.05 497.83 L 188.49 495.33 L 188.49 495.33 L 188.49 495.33 L 188.49 495.33 Z " fill="rgb(87,89,136)"/><path d=" M 278.05 344.58 L 260.79 377.19 L 256.24 385.77 L 255.55 387.08 L 211.05 388.83 C 211.05 388.83 209.78 386.02 207.98 381.66 C 204.87 374.11 200.17 361.89 197.8 351.58 C 197.214 349.112 196.779 346.611 196.5 344.09 C 195.84 337.85 196.84 333.4 200.84 333.02 C 201.851 332.928 202.869 333.033 203.84 333.33 C 206.621 334.152 209.533 334.433 212.42 334.16 C 222.98 332.88 226.07 321.73 226.59 311.25 C 226.59 310.51 226.66 309.77 226.67 309.04 C 226.67 306.77 226.67 304.57 226.52 302.55 C 226.32 299.124 225.926 295.712 225.34 292.33 C 227.983 291.036 230.75 290.014 233.6 289.28 C 242.04 287.12 253.93 287.18 254.09 304.58 C 254.072 308.436 254.454 312.283 255.23 316.06 C 255.68 318.213 256.403 320.3 257.38 322.27 C 260.31 327.9 264.38 328.51 266.29 328.44 C 266.643 328.44 266.995 328.404 267.34 328.33 L 278.05 344.58 L 278.05 344.58 L 278.05 344.58 L 278.05 344.58 Z " fill="rgb(198,122,133)"/><g style="opacity:0.1;"><g style="opacity:0.1;"><g style="opacity:0.1;"><g opacity="0.1"><path d=" M 233.63 363.46 C 234.246 365.232 234.56 367.094 234.56 368.97 C 234.749 370.945 234.702 372.936 234.42 374.9 C 234.135 376.887 233.149 378.707 231.64 380.03" fill="rgb(0,0,0)"/></g></g></g></g><g style="opacity:0.1;"><g style="opacity:0.1;"><g style="opacity:0.1;"><g opacity="0.1"><circle vector-effect="non-scaling-stroke" cx="246.22000000000003" cy="291.85" r="26.75" fill="rgb(0,0,0)"/></g></g></g></g><path d=" M 272.96 290.85 C 272.965 301.852 266.23 311.734 255.989 315.753 C 245.747 319.772 234.089 317.108 226.61 309.04 C 226.377 308.802 226.156 308.552 225.95 308.29 C 218.211 299.305 217.313 286.297 223.745 276.334 C 230.177 266.372 242.402 261.836 253.776 265.191 C 265.15 268.546 272.955 278.992 272.95 290.85 L 272.96 290.85 L 272.96 290.85 L 272.96 290.85 L 272.96 290.85 Z " fill="rgb(198,122,133)"/><g style="opacity:0.1;"><g style="opacity:0.1;"><g style="opacity:0.1;"><g opacity="0.1"><path d=" M 203.28 357.58 C 203.28 357.58 212.78 382.33 232.78 378.33 C 232.78 378.33 252.97 379.91 264.53 365.08 C 276.09 350.25 276.78 450.08 276.78 450.08 L 272.28 516.33 C 272.28 516.33 240.05 535.58 226.05 533.08 C 212.05 530.58 205.3 523.08 205.3 523.08 C 205.3 523.08 190.55 509.33 186.55 507.58 C 182.55 505.83 188.3 420.58 188.3 420.58 L 193.05 388.58 L 203.28 357.58 L 203.28 357.58 L 203.28 357.58 L 203.28 357.58 Z " fill="rgb(0,0,0)"/></g></g></g></g><path d=" M 203.28 355.58 C 203.28 355.58 212.78 380.33 232.78 376.33 C 232.78 376.33 252.97 377.91 264.53 363.08 C 276.09 348.25 276.78 448.08 276.78 448.08 L 272.28 514.33 C 272.28 514.33 240.05 533.58 226.05 531.08 C 212.05 528.58 205.3 521.08 205.3 521.08 C 205.3 521.08 190.55 507.33 186.55 505.58 C 182.55 503.83 188.3 418.58 188.3 418.58 L 193.05 386.58 L 203.28 355.58 L 203.28 355.58 L 203.28 355.58 L 203.28 355.58 Z " fill="rgb(232,244,255)"/><g style="opacity:0.1;"><g style="opacity:0.1;"><g style="opacity:0.1;"><g opacity="0.1"><path d=" M 202.28 495.33 C 202.28 495.33 223.78 519.33 222.53 521.83 C 221.28 524.33 201.78 502.58 202.28 495.33 Z " fill="rgb(0,0,0)"/></g></g></g></g><g style="opacity:0.1;"><g style="opacity:0.1;"><g style="opacity:0.1;"><g opacity="0.1"><path d=" M 198.58 435.65 C 198.58 435.65 205.45 445.25 209.75 444.25" fill="rgb(0,0,0)"/></g></g></g></g><g style="opacity:0.1;"><g style="opacity:0.1;"><g style="opacity:0.1;"><g opacity="0.1"><path d=" M 213.43 333.33 C 213.43 333.33 213.43 333.62 213.36 334.16 C 213.13 337.23 212.27 348.36 211.11 360.76 C 210.46 367.76 209.72 375.1 208.96 381.66 C 207.72 392.33 206.4 400.87 205.28 402.08 C 202.03 405.58 203.28 438.58 203.28 438.58 L 203.28 480.33 C 203.28 480.33 200.54 493.58 198.28 496.58 C 198.28 496.58 190.5 510.83 186.08 512.33 C 184.525 513.182 183.128 514.295 181.95 515.62 C 177.95 519.62 172.29 526.29 167.95 531.55 C 164.37 535.94 161.72 539.33 161.72 539.33 C 161.72 539.33 144.22 528.33 151.72 525.08 C 157.33 522.65 161.97 516.15 163.94 513.08 C 164.61 512.08 164.94 511.37 164.94 511.37 C 165.294 509.04 165.826 506.74 166.53 504.49 C 167.165 502.369 168.098 500.349 169.3 498.49 C 170.215 496.943 171.702 495.819 173.44 495.36 C 179.94 494.11 183.19 432.36 183.19 432.36 L 163.19 388.72 L 161.19 384.36 C 161.19 384.36 163.69 359.11 164.94 359.11 C 164.94 359.11 168.19 352.86 168.19 350.86 C 168.19 350.86 174.19 343.61 174.19 343.61 C 174.19 343.61 190.05 334.33 191.05 331.08 C 191.58 329.37 198.85 326.28 205.62 323.74 C 211.7 321.46 217.37 319.62 217.37 319.62 C 220.68 324.66 213.43 333.33 213.43 333.33 Z " fill="rgb(0,0,0)"/></g></g></g></g><path d=" M 212.43 333.33 C 212.43 333.33 212.43 333.62 212.36 334.16 C 212.13 337.23 211.27 348.36 210.11 360.76 C 209.46 367.76 208.72 375.1 207.96 381.66 C 206.72 392.33 205.4 400.87 204.28 402.08 C 201.03 405.58 202.28 438.58 202.28 438.58 L 202.28 480.33 C 202.28 480.33 199.54 493.58 197.28 496.58 C 197.28 496.58 189.5 510.83 185.08 512.33 C 183.525 513.182 182.128 514.295 180.95 515.62 C 176.95 519.62 171.29 526.29 166.95 531.55 C 163.37 535.94 160.72 539.33 160.72 539.33 C 160.72 539.33 143.22 528.33 150.72 525.08 C 156.33 522.65 160.97 516.15 162.94 513.08 C 163.61 512.08 163.94 511.37 163.94 511.37 C 164.294 509.04 164.826 506.74 165.53 504.49 C 166.165 502.369 167.098 500.349 168.3 498.49 C 169.215 496.943 170.702 495.819 172.44 495.36 C 178.94 494.11 182.19 432.36 182.19 432.36 L 162.19 388.72 L 160.19 384.36 C 160.19 384.36 162.69 359.11 163.94 359.11 C 163.94 359.11 167.19 352.86 167.19 350.86 C 167.19 350.86 173.19 343.61 173.19 343.61 C 173.19 343.61 189.05 334.33 190.05 331.08 C 190.58 329.37 197.85 326.28 204.62 323.74 C 210.7 321.46 216.37 319.62 216.37 319.62 C 219.68 324.66 212.43 333.33 212.43 333.33 Z " fill="rgb(74,134,232)"/><g style="opacity:0.1;"><g style="opacity:0.1;"><g style="opacity:0.1;"><g opacity="0.1"><path d=" M 311.87 390.77 L 290.28 416.08 C 290.28 416.08 309.03 513.33 306.78 517.83 C 306.608 518.203 306.497 518.602 306.45 519.01 C 306.219 521.34 306.263 523.69 306.58 526.01 C 306.84 528.46 307.24 531.18 307.69 533.89 C 309.01 541.79 310.78 549.53 310.78 549.53 C 310.78 549.53 285.53 555.53 277.78 554.78 C 270.03 554.03 274.53 541.53 275.78 535.78 C 277.03 530.03 267.28 521.98 267.28 521.98 L 253.53 465.53 C 253.53 465.53 252.53 453.03 249.53 447.03 C 249.53 447.03 249.28 434.53 248.28 426.03 C 247.57 419.97 251.93 398.31 255.22 385.72 C 256.47 380.93 257.57 377.46 258.22 376.65 C 258.248 376.606 258.282 376.566 258.32 376.53 C 260.32 374.78 258.32 364.53 258.32 364.53 C 258.32 364.53 263.07 337.53 262.57 335.28 C 262.29 334 263.86 330.86 265.27 328.39 C 266.34 326.52 267.32 325.03 267.32 325.03 C 267.32 325.03 276.99 331.16 293.57 344.56 L 295.07 345.78 C 312.57 360.03 313.57 388.78 313.57 388.78 L 311.87 390.77 L 311.87 390.77 L 311.87 390.77 L 311.87 390.77 Z " fill="rgb(0,0,0)"/></g></g></g></g><path d=" M 312.87 390.77 L 291.28 416.08 C 291.28 416.08 310.03 513.33 307.78 517.83 C 307.608 518.203 307.497 518.602 307.45 519.01 C 307.219 521.34 307.263 523.69 307.58 526.01 C 307.84 528.46 308.24 531.18 308.69 533.89 C 310.01 541.79 311.78 549.53 311.78 549.53 C 311.78 549.53 286.53 555.53 278.78 554.78 C 271.03 554.03 275.53 541.53 276.78 535.78 C 278.03 530.03 268.28 521.98 268.28 521.98 L 254.53 465.53 C 254.53 465.53 253.53 453.03 250.53 447.03 C 250.53 447.03 250.28 434.53 249.28 426.03 C 248.57 419.97 252.93 398.31 256.22 385.72 C 257.47 380.93 258.57 377.46 259.22 376.65 C 259.248 376.606 259.282 376.566 259.32 376.53 C 261.32 374.78 259.32 364.53 259.32 364.53 C 259.32 364.53 264.07 337.53 263.57 335.28 C 263.29 334 264.86 330.86 266.27 328.39 C 267.34 326.52 268.32 325.03 268.32 325.03 C 268.32 325.03 277.99 331.16 294.57 344.56 L 296.07 345.78 C 313.57 360.03 314.57 388.78 314.57 388.78 L 312.87 390.77 L 312.87 390.77 L 312.87 390.77 L 312.87 390.77 Z " fill="rgb(74,134,232)"/><g style="opacity:0.1;"><g style="opacity:0.1;"><g style="opacity:0.1;"><g opacity="0.1"><path d=" M 267.28 404.33 C 267.03 406.33 273.28 512.58 279.78 518.83 L 267.28 404.33 L 267.28 404.33 L 267.28 404.33 L 267.28 404.33 Z " fill="rgb(0,0,0)"/></g></g></g></g><path d=" M 182.99 552.08 C 175.99 556.48 170.65 544.9 166.99 531.55 C 165.28 525.28 163.99 518.62 162.99 513.04 C 162.62 510.96 162.31 509.04 162.05 507.32 C 161.36 502.86 161.05 499.94 161.05 499.94 L 168.41 498.46 L 176.55 496.83 L 177.55 506.02 L 178.02 510.19 C 178.02 510.19 179.3 512.31 181.02 515.62 C 185.85 525.3 194.05 545.19 182.99 552.08 Z " fill="rgb(198,122,133)"/><path d=" M 311.53 519.88 L 309.78 528.51 L 308.69 533.94 L 308.63 534.21 C 308.63 534.21 286.78 563.83 279.78 551.58 C 274.43 542.22 287.48 526.87 293.92 520.16 C 295.92 518.08 297.28 516.83 297.28 516.83 L 307.45 519.01 L 311.53 519.88 L 311.53 519.88 L 311.53 519.88 L 311.53 519.88 Z " fill="rgb(198,122,133)"/><path d=" M 251.53 771.08 C 249.15 773.45 221.03 771.08 221.03 771.08 C 221.03 771.08 220.15 764.08 221.03 763.45 C 221.56 762.66 221.959 761.788 222.21 760.87 C 223.5 757.22 225.21 750.87 225.03 749.33 C 224.78 747.21 224.91 738.71 230.65 739.33 C 230.65 739.33 238.15 724.08 246.41 742.83 L 246.41 747.33 C 245.998 749.737 246.3 752.213 247.28 754.45 C 249.06 757.926 250.5 761.567 251.58 765.32 C 252.26 767.91 252.46 770.14 251.53 771.08 Z " fill="rgb(74,134,232)"/><path d=" M 251.53 771.08 C 249.15 773.45 221.03 771.08 221.03 771.08 C 221.03 771.08 220.15 764.08 221.03 763.45 C 221.56 762.66 221.959 761.788 222.21 760.87 C 225.93 759.28 230.99 757.74 234.53 759.08 C 239 760.78 247.25 763.76 251.53 765.32 C 252.26 767.91 252.46 770.14 251.53 771.08 Z " fill="rgb(232,244,255)"/><g style="opacity:0.1;"><g style="opacity:0.1;"><g style="opacity:0.1;"><g opacity="0.1"><path d=" M 226.53 311.25 C 227.24 314.11 228.22 317 228.26 319.92 C 228.32 323.92 226.59 327.78 224.75 331.38 C 222.65 335.5 220.28 339.92 220.98 344.49 C 221.359 346.222 221.857 347.926 222.47 349.59 C 224.023 354.952 223.516 360.702 221.05 365.71 C 219.41 369.02 216.05 372.22 212.46 371.15 C 212.19 367.62 211.75 363.77 210.08 360.76 C 209.42 359.538 208.51 358.468 207.41 357.62 C 204.81 355.62 201.22 355.2 198.86 352.94 C 198.436 352.534 198.063 352.077 197.75 351.58 C 196.6 349.641 196.109 347.382 196.35 345.14 C 196.35 344.8 196.42 344.46 196.48 344.14 C 196.962 341.707 197.776 339.351 198.9 337.14 C 199.52 335.8 200.17 334.46 200.82 333.14 C 202.324 330.152 203.588 327.049 204.6 323.86 C 210.68 321.58 216.35 319.74 216.35 319.74 C 219.68 324.74 212.43 333.45 212.43 333.45 C 212.43 333.45 212.43 333.74 212.36 334.28 C 222.92 332.88 226.05 321.73 226.53 311.25 Z " fill="rgb(0,0,0)"/></g></g></g></g><g style="opacity:0.1;"><g style="opacity:0.1;"><g style="opacity:0.1;"><g opacity="0.1"><path d=" M 241.51 273.63 C 238.59 274.56 235.8 276.42 234.51 279.22 C 233.13 282.32 233.84 285.9 233.51 289.28 C 233.435 290.021 233.294 290.754 233.09 291.47 C 231.85 295.62 227.96 298.55 226.43 302.55 C 226.32 302.85 226.22 303.15 226.13 303.47 C 225.726 305.045 225.655 306.686 225.92 308.29 C 218.597 299.765 217.388 287.571 222.895 277.774 C 228.402 267.978 239.449 262.672 250.538 264.497 C 261.626 266.323 270.389 274.889 272.466 285.934 C 274.542 296.978 269.489 308.142 259.82 313.87 C 260.95 310.5 262.14 307.14 263.06 303.7 C 265.22 295.61 265.59 286.26 260.5 279.61 C 255.979 273.934 248.467 271.569 241.51 273.63 Z " fill="rgb(0,0,0)"/></g></g></g></g><g style="opacity:0.1;"><g style="opacity:0.1;"><g style="opacity:0.1;"><g opacity="0.1"><path d=" M 293.75 354.6 C 292.87 357.79 290.63 361.29 287.33 361.14 C 285.76 361.07 284.33 360.14 282.76 359.99 C 280.53 359.79 278.42 361.23 277.08 362.99 C 275.864 364.879 274.807 366.866 273.92 368.93 C 271.46 373.71 266.64 378.01 261.32 377.26 L 260.77 377.16 C 260.225 377.051 259.692 376.887 259.18 376.67 C 254.41 374.67 251.83 368.53 252 363.1 C 252.2 356.91 254.79 351.05 255.64 344.91 C 256.43 339.25 255.71 333.48 256.32 327.8 C 256.528 325.926 256.862 324.069 257.32 322.24 C 260.25 327.87 264.32 328.48 266.23 328.41 C 267.3 326.54 268.28 325.05 268.28 325.05 C 268.28 325.05 277.95 331.18 294.53 344.58 C 294.906 347.939 294.641 351.339 293.75 354.6 Z " fill="rgb(0,0,0)"/></g></g></g></g><path d=" M 256.05 243.91 C 261.24 245.78 265.61 249.59 270.93 251.04 C 272.678 251.384 274.405 251.832 276.1 252.38 C 282.1 254.79 284.28 262.03 285.43 268.38 C 287.5 279.84 288.99 292.2 296.63 300.99 C 297.99 302.55 299.57 304.05 300.2 305.99 C 300.83 307.93 299.98 310.61 297.95 311.04 C 301.43 312.51 303.14 316.81 302.41 320.52 C 301.68 324.23 298.97 327.29 295.78 329.33 C 294.29 330.33 292.49 331.33 292.29 333.09 C 292.278 334.034 292.494 334.967 292.92 335.81 C 294.981 341.157 295.279 347.022 293.77 352.55 C 292.89 355.73 290.65 359.24 287.35 359.09 C 285.78 359.02 284.35 358.09 282.79 357.94 C 280.55 357.74 278.45 359.18 277.1 360.94 C 275.882 362.828 274.825 364.815 273.94 366.88 C 271.49 371.66 266.67 375.96 261.34 375.21 C 255.21 374.34 251.83 367.21 252.02 361.05 C 252.21 354.89 254.82 349 255.67 342.86 C 256.45 337.2 255.73 331.43 256.35 325.75 C 257.25 317.43 260.96 309.7 263.12 301.62 C 265.28 293.54 265.64 284.18 260.55 277.53 C 256.034 271.841 248.514 269.466 241.55 271.53 C 238.62 272.46 235.84 274.32 234.55 277.12 C 232.87 280.9 234.3 285.4 233.12 289.37 C 231.79 293.83 227.39 296.89 226.12 301.37 C 224.64 306.76 228.12 312.24 228.22 317.82 C 228.28 321.82 226.55 325.68 224.72 329.28 C 222.61 333.4 220.24 337.82 220.95 342.39 C 221.325 344.122 221.82 345.826 222.43 347.49 C 224.016 352.879 223.524 358.667 221.05 363.71 C 219.41 367.02 215.99 370.22 212.46 369.15 C 212.07 364.2 211.37 358.62 207.41 355.62 C 204.8 353.62 201.21 353.2 198.85 350.93 C 196.884 348.83 195.957 345.963 196.32 343.11 C 196.696 340.296 197.559 337.568 198.87 335.05 C 201.74 328.85 205.23 322.67 205.63 315.85 C 206.23 305.56 199.63 295.42 202.03 285.38 C 204.03 276.98 211.79 271.09 214.73 262.97 C 216.3 258.61 216.55 253.5 219.73 250.15 C 224.33 245.34 231.36 246.97 237.18 245.52 C 239.88 244.84 242.18 243.44 245.02 242.97 C 248.716 242.322 252.517 242.646 256.05 243.91 Z " fill="rgb(70,70,70)"/><g style="opacity:0.1;"><g style="opacity:0.1;"><g style="opacity:0.1;"><g opacity="0.1"><path d=" M 185.05 457.31 C 185.05 457.31 185.05 479.81 185.05 489.81 C 185.05 491.15 185.05 492.54 184.97 493.94 C 184.63 502.94 183.26 512.31 183.26 512.31 C 181.66 509.954 179.734 507.836 177.54 506.02 C 172.75 502.25 168.67 502.73 165.6 504.45 C 164.274 505.219 163.073 506.187 162.04 507.32 C 161.35 502.86 161.04 499.94 161.04 499.94 L 168.4 498.46 C 169.315 496.913 170.802 495.789 172.54 495.33 C 179.04 494.08 182.29 432.33 182.29 432.33 L 162.29 388.69 L 162.29 386.56 L 169.05 375.81 C 180.3 366.06 183.05 380.06 183.05 380.06 C 183.05 380.06 185.05 418.06 185.05 419.06 C 185.05 420.06 185.05 457.31 185.05 457.31 Z " fill="rgb(0,0,0)"/></g></g></g></g><path d=" M 183.05 455.08 C 183.05 455.08 183.05 477.58 183.05 487.58 C 183.05 488.92 183.05 490.31 182.97 491.71 C 182.63 500.71 181.26 510.08 181.26 510.08 C 167.26 490.33 157.38 508.68 157.38 508.68 L 154.26 500.33 C 153.066 499.306 152.052 498.089 151.26 496.73 C 145.17 486.65 148.9 469.08 148.9 469.08 C 151.03 441.58 160.27 410.58 160.27 410.58 L 160.27 384.33 L 167.05 373.58 C 178.3 363.83 183.05 377.83 183.05 377.83 C 183.05 377.83 183.05 415.83 183.05 416.83 C 183.05 417.83 183.05 455.08 183.05 455.08 Z " fill="rgb(74,134,232)"/><g style="opacity:0.1;"><g style="opacity:0.1;"><g style="opacity:0.1;"><g opacity="0.1"><path d=" M 182.99 490.71 C 182.65 499.71 181.28 509.08 181.28 509.08 C 167.28 489.33 157.4 507.68 157.4 507.68 L 154.28 499.33 C 153.086 498.306 152.072 497.089 151.28 495.73 C 157.8 492.14 172.17 485.52 182.99 490.71 Z " fill="rgb(0,0,0)"/></g></g></g></g><path d=" M 182.99 491.71 C 182.65 500.71 181.28 510.08 181.28 510.08 C 167.28 490.33 157.4 508.68 157.4 508.68 L 154.28 500.33 C 153.086 499.306 152.072 498.089 151.28 496.73 C 157.8 493.14 172.17 486.52 182.99 491.71 Z " fill="rgb(255,255,255)"/><g style="opacity:0.1;"><g style="opacity:0.1;"><g style="opacity:0.1;"><g opacity="0.1"><path d=" M 164.05 424.08 C 164.05 424.08 168.55 448.83 173.05 456.08 C 177.55 463.33 164.05 424.08 164.05 424.08 Z " fill="rgb(0,0,0)"/></g></g></g></g><g style="opacity:0.1;"><g style="opacity:0.1;"><g style="opacity:0.1;"><g opacity="0.1"><path d=" M 152.53 466.08 C 152.53 466.08 155.28 481.08 161.03 482.83 C 166.78 484.58 152.53 466.08 152.53 466.08 Z " fill="rgb(0,0,0)"/></g></g></g></g><g style="opacity:0.1;"><g style="opacity:0.1;"><g style="opacity:0.1;"><g opacity="0.1"><path d=" M 307.45 519.01 L 311.53 519.88 L 309.78 528.51 C 309.116 527.634 308.38 526.814 307.58 526.06 C 303.876 522.527 299.031 520.435 293.92 520.16 C 291.698 520.017 289.466 520.158 287.28 520.58 C 288.232 517.183 288.861 513.705 289.16 510.19 C 289.338 508.869 289.119 507.526 288.53 506.33 C 286.53 503.58 285.53 478.08 285.53 478.08 C 285.53 478.08 287.28 465.08 288.28 462.58 C 289.28 460.08 283.78 447.3 284.03 443.44 C 284.28 439.58 287.28 406.33 287.28 404.58 C 287.28 402.83 293.78 368.58 307.28 381.58 L 312.53 388.83 L 312.87 390.77 L 291.28 416.08 C 291.28 416.08 310.03 513.33 307.78 517.83 C 307.608 518.203 307.497 518.602 307.45 519.01 Z " fill="rgb(0,0,0)"/></g></g></g></g><path d=" M 330.05 497.33 C 325.97 501.41 317.48 514.87 315.15 518.61 L 314.55 519.61 L 312.55 529.61 C 312.55 529.61 305.55 517.61 289.3 520.61 C 290.252 517.213 290.881 513.735 291.18 510.22 C 291.358 508.899 291.139 507.556 290.55 506.36 C 288.55 503.61 287.55 478.11 287.55 478.11 C 287.55 478.11 289.3 465.11 290.3 462.61 C 291.3 460.11 285.8 447.33 286.05 443.47 C 286.3 439.61 289.3 406.36 289.3 404.61 C 289.3 402.86 295.8 368.61 309.3 381.61 L 314.55 388.86 L 318.55 411.61 L 326.3 451.11 C 326.3 451.11 328.3 466.61 330.05 468.86 C 331.8 471.11 334.78 492.58 330.05 497.33 Z " fill="rgb(74,134,232)"/><g style="opacity:0.1;"><g style="opacity:0.1;"><g style="opacity:0.1;"><g opacity="0.1"><path d=" M 315.13 517.61 L 314.53 518.61 L 312.53 528.61 C 312.53 528.61 305.53 516.61 289.28 519.61 C 290.232 516.213 290.861 512.735 291.16 509.22 C 296.73 509.57 307.95 511.14 315.13 517.61 Z " fill="rgb(0,0,0)"/></g></g></g></g><path d=" M 315.13 518.61 L 314.53 519.61 L 312.53 529.61 C 312.53 529.61 305.53 517.61 289.28 520.61 C 290.232 517.213 290.861 513.735 291.16 510.22 C 296.73 510.57 307.95 512.14 315.13 518.61 Z " fill="rgb(255,255,255)"/><g style="opacity:0.1;"><g style="opacity:0.1;"><g style="opacity:0.1;"><g opacity="0.1"><path d=" M 298.78 448.33 C 298.78 448.33 315.78 448.12 318.28 456.97 C 320.78 465.82 298.78 448.33 298.78 448.33 Z " fill="rgb(0,0,0)"/></g></g></g></g><g style="opacity:0.1;"><g style="opacity:0.1;"><g style="opacity:0.1;"><g opacity="0.1"><path d=" M 295.53 473.33 C 295.53 473.33 324.28 472.08 323.03 484.58 C 321.78 497.08 295.53 473.33 295.53 473.33 Z " fill="rgb(0,0,0)"/></g></g></g></g><g style="opacity:0.1;"><g style="opacity:0.1;"><g style="opacity:0.1;"><g opacity="0.1"><path d=" M 297.28 492.58 C 297.28 492.58 299.53 492.08 301.03 497.33 C 302.53 502.58 297.28 492.58 297.28 492.58 Z " fill="rgb(0,0,0)"/></g></g></g></g><g style="opacity:0.1;"><g style="opacity:0.1;"><g style="opacity:0.1;"><g opacity="0.1"><path d=" M 239.05 614.83 C 239.05 614.83 245.9 612.83 249.05 614.83 C 252.2 616.83 239.05 614.83 239.05 614.83 Z " fill="rgb(0,0,0)"/></g></g></g></g><g style="opacity:0.1;"><g style="opacity:0.1;"><g style="opacity:0.1;"><g opacity="0.1"><path d=" M 240.28 622.08 C 240.28 622.08 256.53 622.33 258.03 624.08 C 259.53 625.83 240.28 622.08 240.28 622.08 Z " fill="rgb(0,0,0)"/></g></g></g></g><g style="opacity:0.1;"><g style="opacity:0.1;"><g style="opacity:0.1;"><g style="opacity:0.1;"><g opacity="0.1"><path d=" M 205.67 312.85 C 206.15 304.67 202.12 296.6 201.62 288.59 C 201.1 296.67 205.2 304.81 205.62 313.05 C 205.641 312.985 205.658 312.918 205.67 312.85 L 205.67 312.85 L 205.67 312.85 L 205.67 312.85 L 205.67 312.85 Z " fill="rgb(0,0,0)"/></g></g></g></g><g style="opacity:0.1;"><g style="opacity:0.1;"><g style="opacity:0.1;"><g opacity="0.1"><path d=" M 224.76 326.37 C 222.68 330.43 220.36 334.77 220.96 339.28 C 221.39 335.85 223.15 332.53 224.76 329.38 C 226.59 325.78 228.32 321.96 228.27 317.92 Q 228.27 317.26 228.18 316.6 C 227.83 320.02 226.33 323.28 224.76 326.37 Z " fill="rgb(0,0,0)"/></g></g></g></g><g style="opacity:0.1;"><g style="opacity:0.1;"><g style="opacity:0.1;"><g opacity="0.1"><path d=" M 297.93 308.08 C 298.672 308.394 299.35 308.841 299.93 309.4 C 300.429 308.351 300.522 307.154 300.19 306.04 C 300.19 306.04 300.19 305.95 300.14 305.9 C 299.852 306.973 299.007 307.807 297.93 308.08 L 297.93 308.08 L 297.93 308.08 L 297.93 308.08 L 297.93 308.08 Z " fill="rgb(0,0,0)"/></g></g></g></g><g style="opacity:0.1;"><g style="opacity:0.1;"><g style="opacity:0.1;"><g opacity="0.1"><path d=" M 221.05 360.7 C 219.41 364.01 215.99 367.21 212.46 366.14 C 212.07 361.19 211.37 355.61 207.41 352.61 C 204.8 350.61 201.21 350.19 198.86 347.93 C 197.452 346.498 196.577 344.628 196.38 342.63 C 196.38 342.79 196.33 342.95 196.32 343.11 C 195.955 345.965 196.887 348.834 198.86 350.93 C 201.21 353.2 204.8 353.65 207.41 355.62 C 211.41 358.62 212.07 364.2 212.46 369.15 C 215.99 370.22 219.41 367.02 221.05 363.71 C 222.76 360.197 223.521 356.298 223.26 352.4 C 223.071 355.284 222.32 358.104 221.05 360.7 Z " fill="rgb(0,0,0)"/></g></g></g></g><g style="opacity:0.1;"><g style="opacity:0.1;"><g style="opacity:0.1;"><g opacity="0.1"><path d=" M 302.39 317.56 C 301.66 321.26 298.95 324.33 295.77 326.37 C 294.27 327.37 292.47 328.37 292.27 330.13 C 292.224 330.814 292.341 331.499 292.61 332.13 C 293.429 330.982 294.513 330.049 295.77 329.41 C 298.95 327.41 301.66 324.3 302.39 320.6 C 302.585 319.525 302.585 318.425 302.39 317.35 C 302.394 317.42 302.394 317.49 302.39 317.56 Z " fill="rgb(0,0,0)"/></g></g></g></g><g style="opacity:0.1;"><g style="opacity:0.1;"><g style="opacity:0.1;"><g opacity="0.1"><path d=" M 293.75 349.59 C 292.87 352.77 290.64 356.28 287.33 356.13 C 285.76 356.06 284.33 355.13 282.77 354.98 C 280.53 354.78 278.43 356.22 277.08 357.98 C 275.864 359.867 274.81 361.854 273.93 363.92 C 271.47 368.7 266.65 373 261.33 372.25 C 256.01 371.5 252.6 365.77 252.08 360.16 C 252.08 360.47 252.01 360.78 252.01 361.1 C 251.81 367.29 255.19 374.39 261.33 375.26 C 266.65 376.01 271.47 371.71 273.93 366.93 C 274.808 364.863 275.862 362.876 277.08 360.99 C 278.43 359.2 280.53 357.76 282.77 357.99 C 284.33 358.14 285.77 359.07 287.33 359.14 C 290.64 359.29 292.87 355.78 293.75 352.6 C 294.524 349.783 294.825 346.856 294.64 343.94 C 294.549 345.85 294.25 347.744 293.75 349.59 L 293.75 349.59 L 293.75 349.59 L 293.75 349.59 L 293.75 349.59 Z " fill="rgb(0,0,0)"/></g></g></g></g><g style="opacity:0.1;"><g style="opacity:0.1;"><g style="opacity:0.1;"><g opacity="0.1"><path d=" M 260.53 277.61 C 263.065 281.104 264.462 285.294 264.53 289.61 C 264.79 284.17 263.77 278.81 260.53 274.55 C 256.014 268.861 248.494 266.486 241.53 268.55 C 238.6 269.48 235.82 271.34 234.53 274.14 C 232.84 277.92 234.27 282.43 233.09 286.39 C 231.76 290.85 227.36 293.91 226.09 298.39 C 225.72 299.826 225.632 301.32 225.83 302.79 C 225.884 302.321 225.971 301.857 226.09 301.4 C 227.32 296.92 231.72 293.86 233.09 289.4 C 234.27 285.4 232.84 280.93 234.53 277.15 C 235.78 274.35 238.53 272.49 241.53 271.56 C 248.505 269.507 256.027 271.902 260.53 277.61 L 260.53 277.61 L 260.53 277.61 L 260.53 277.61 L 260.53 277.61 Z " fill="rgb(0,0,0)"/></g></g></g></g></g><g style="opacity:0.8;"><g style="opacity:0.8;"><g style="opacity:0.8;"><g style="opacity:0.8;"><g opacity="0.8"><circle vector-effect="non-scaling-stroke" cx="567.86" cy="580.82" r="80.20000000000005" fill="rgb(23,105,255)"/></g></g></g></g><g style="opacity:0.8;"><g style="opacity:0.8;"><g style="opacity:0.8;"><g opacity="0.8"><path d=" M 544.31 544.47 C 547.49 544.444 550.664 544.752 553.78 545.39 C 556.396 545.9 558.887 546.919 561.11 548.39 C 563.147 549.792 564.779 551.706 565.84 553.94 C 567.047 556.628 567.625 559.555 567.53 562.5 C 567.643 565.736 566.771 568.93 565.03 571.66 C 563.147 574.28 560.6 576.352 557.65 577.66 C 561.681 578.659 565.225 581.059 567.65 584.43 C 571.602 590.836 572.043 598.808 568.82 605.61 C 567.456 608.226 565.484 610.475 563.07 612.17 C 560.567 613.909 557.773 615.186 554.82 615.94 C 551.715 616.75 548.519 617.16 545.31 617.16 L 510.11 617.16 L 510.11 544.47 L 544.31 544.47 L 544.31 544.47 L 544.31 544.47 L 544.31 544.47 Z  M 542.31 573.89 C 544.798 573.998 547.254 573.296 549.31 571.89 Q 552.07 569.89 552.06 565.27 C 552.115 563.824 551.798 562.389 551.14 561.1 C 550.565 560.05 549.724 559.17 548.7 558.55 C 547.616 557.918 546.427 557.488 545.19 557.28 C 543.826 557.043 542.444 556.926 541.06 556.93 L 526.06 556.93 L 526.06 573.93 L 542.31 573.89 L 542.31 573.89 L 542.31 573.89 L 542.31 573.89 Z  M 543.23 604.73 C 544.735 604.737 546.237 604.583 547.71 604.27 C 549.047 604.003 550.323 603.488 551.47 602.75 C 552.571 602.022 553.467 601.024 554.07 599.85 C 554.776 598.39 555.119 596.781 555.07 595.16 C 555.07 591.44 554.02 588.77 551.91 587.16 C 549.469 585.458 546.532 584.614 543.56 584.76 L 526.16 584.76 L 526.16 604.76 L 543.23 604.73 L 543.23 604.73 L 543.23 604.73 L 543.23 604.73 Z  M 591.13 603.2 Q 594.39 606.36 600.49 606.36 C 603.18 606.426 605.823 605.65 608.05 604.14 C 609.83 603.083 611.196 601.449 611.92 599.51 L 624.64 599.51 Q 621.58 608.98 615.27 613.05 C 610.673 615.881 605.347 617.303 599.95 617.14 C 596.127 617.191 592.329 616.512 588.76 615.14 C 585.561 613.902 582.676 611.973 580.31 609.49 C 577.95 606.968 576.13 603.99 574.96 600.74 C 573.675 597.147 573.039 593.355 573.08 589.54 C 573.045 585.786 573.699 582.058 575.01 578.54 C 577.448 571.929 582.517 566.625 589.01 563.89 C 592.473 562.427 596.201 561.698 599.96 561.75 C 604.016 561.656 608.035 562.548 611.67 564.35 C 614.908 566.014 617.712 568.411 619.86 571.35 C 622.037 574.351 623.61 577.748 624.49 581.35 C 625.442 585.176 625.779 589.128 625.49 593.06 L 587.49 593.06 C 587.69 597.72 588.88 601.12 591.05 603.21 L 591.13 603.2 L 591.13 603.2 L 591.13 603.2 L 591.13 603.2 Z  M 607.47 575.52 Q 604.87 572.67 599.58 572.67 C 597.598 572.6 595.627 573.001 593.83 573.84 C 592.412 574.527 591.163 575.517 590.17 576.74 C 589.29 577.821 588.631 579.065 588.23 580.4 C 587.891 581.527 587.67 582.687 587.57 583.86 L 611.05 583.86 Q 610.05 578.37 607.43 575.52 L 607.47 575.52 L 607.47 575.52 L 607.47 575.52 L 607.47 575.52 Z  M 585.05 548.14 L 614.42 548.14 L 614.42 556.29 L 585.05 556.29 L 585.05 548.14 L 585.05 548.14 L 585.05 548.14 L 585.05 548.14 Z " fill="rgb(255,255,255)"/></g></g></g></g></g><g style="opacity:0.8;"><g style="opacity:0.8;"><g style="opacity:0.8;"><g style="opacity:0.8;"><g opacity="0.8"><path d=" M 930.28 627.79 C 930.28 628.54 930.28 629.3 930.28 630.06 C 929.15 669.737 899.173 702.622 859.77 707.41 C 856.568 707.792 853.345 707.982 850.12 707.98 C 817.681 707.98 788.437 688.439 776.024 658.469 C 763.611 628.499 770.474 594.003 793.414 571.067 C 816.353 548.13 850.85 541.271 880.818 553.688 C 910.787 566.104 930.324 595.351 930.32 627.79 L 930.28 627.79 L 930.28 627.79 L 930.28 627.79 Z " fill="rgb(179,187,198)"/></g></g></g></g><g style="opacity:0.8;"><g style="opacity:0.8;"><g style="opacity:0.8;"><g opacity="0.8"><path d=" M 930.24 630.06 C 929.11 669.737 899.133 702.622 859.73 707.41 L 794.25 658.7 L 802.43 605.7 L 834.81 607.7 L 853.23 623.14 L 866.33 601.79 L 888.33 620.07 L 900.16 628.54 L 900.16 601.81 L 929.98 629.41 C 930.05 629.63 930.16 629.84 930.24 630.06 Z " fill="rgb(102,108,118)"/></g></g></g></g><g style="opacity:0.8;"><g style="opacity:0.8;"><g style="opacity:0.8;"><g opacity="0.8"><path d=" M 794.25 658.71 L 794.25 658.71 L 794.25 658.71 L 794.25 658.71 L 794.25 658.71 L 794.25 658.71 L 794.25 658.71 L 794.25 658.71 Z " fill="rgb(102,108,118)"/></g></g></g></g><g style="opacity:0.8;"><g style="opacity:0.8;"><g style="opacity:0.8;"><g opacity="0.8"><path d=" M 844.34 629.76 C 844.34 612.76 833.89 601.24 813.99 601.24 L 794.34 601.24 L 794.34 658.46 L 814.4 658.46 C 833.72 658.46 844.34 646.76 844.34 629.76 Z  M 830.07 629.85 C 830.07 642.12 823.77 647.43 813.66 647.43 L 808.51 647.43 L 808.51 612.27 L 813.66 612.27 C 823.36 612.27 830.07 617.82 830.07 629.85 Z  M 900.81 658.46 L 900.81 601.24 L 887.62 601.24 L 887.62 633.24 L 866.56 601.24 L 852.79 601.24 L 852.79 658.45 L 865.98 658.45 L 865.98 624.21 L 888.53 658.45 L 900.81 658.45 L 900.81 658.46 L 900.81 658.46 L 900.81 658.46 Z " fill="rgb(255,255,255)"/></g></g></g></g></g><g style="opacity:0.1;"><g style="opacity:0.1;"><g style="opacity:0.1;"><g opacity="0.1"><path d=" M 643.64 499.84 L 642.64 504.55 C 642.64 504.55 642.31 505.01 641.8 505.75 L 624.05 510.05 C 624.05 510.05 614.72 488.72 619.05 488.22 C 620.577 487.9 622.019 487.26 623.28 486.34 C 622.37 493.02 627.55 500.05 627.55 500.05 C 634.86 505.55 643.64 499.84 643.64 499.84 Z " fill="rgb(0,0,0)"/></g></g></g></g><g style="opacity:0.1;"><g style="opacity:0.1;"><g style="opacity:0.1;"><g opacity="0.1"><path d=" M 639.94 447.64 C 639.94 447.64 636.44 453.64 639.94 456.39 C 643.44 459.14 639.94 447.64 639.94 447.64 Z " fill="rgb(0,0,0)"/></g></g></g></g><g style="opacity:0.1;"><g style="opacity:0.1;"><g style="opacity:0.1;"><g opacity="0.1"><path d=" M 827.94 470.89 C 828.94 472.89 831.6 475.89 831.14 479.39 C 830.68 482.89 827.94 470.89 827.94 470.89 Z " fill="rgb(0,0,0)"/></g></g></g></g><g style="opacity:0.1;"><g style="opacity:0.1;"><g style="opacity:0.1;"><g opacity="0.1"><path d=" M 715.53 113.89 C 715.53 113.89 725.92 120.89 726.14 131.89 L 715.53 113.89 L 715.53 113.89 L 715.53 113.89 L 715.53 113.89 Z " fill="rgb(0,0,0)"/></g></g></g></g><g style="opacity:0.1;"><g style="opacity:0.1;"><g style="opacity:0.1;"><g opacity="0.1"><path d=" M 662.44 396.39 C 662.44 396.39 652.94 401.39 657.94 402.39 C 662.94 403.39 662.44 396.39 662.44 396.39 Z " fill="rgb(0,0,0)"/></g></g></g></g><g style="opacity:0.1;"><g style="opacity:0.1;"><g style="opacity:0.1;"><g opacity="0.1"><path d=" M 818.94 408.39 C 818.94 408.39 824.19 401.39 829.94 405.64 C 835.69 409.89 818.94 408.39 818.94 408.39 Z " fill="rgb(0,0,0)"/></g></g></g></g><g style="opacity:0.1;"><g style="opacity:0.1;"><g style="opacity:0.1;"><g opacity="0.1"><path d=" M 831.14 412.89 C 831.14 412.89 837.69 410.64 841.69 412.89 L 831.14 412.89 L 831.14 412.89 L 831.14 412.89 L 831.14 412.89 Z " fill="rgb(0,0,0)"/></g></g></g></g><g style="opacity:0.1;"><g style="opacity:0.1;"><g style="opacity:0.1;"><g opacity="0.1"><path d=" M 701.69 299.39 C 701.69 299.39 715.69 312.89 720.19 313.39 C 724.69 313.89 701.69 299.39 701.69 299.39 Z " fill="rgb(0,0,0)"/></g></g></g></g><g style="opacity:0.1;"><g style="opacity:0.1;"><g style="opacity:0.1;"><g opacity="0.1"><path d=" M 777.86 263.82 C 777.86 263.82 778.86 266.07 783.36 266.89 C 787.86 267.71 777.86 263.82 777.86 263.82 Z " fill="rgb(0,0,0)"/></g></g></g></g><g style="opacity:0.1;"><g style="opacity:0.1;"><g style="opacity:0.1;"><g opacity="0.1"><path d=" M 814.86 207.05 C 814.86 207.05 823.36 215.39 821.69 219.39 C 820.02 223.39 814.86 207.05 814.86 207.05 Z " fill="rgb(0,0,0)"/></g></g></g></g><path d=" M 479.55 146.83 L 479.55 251.77 C 479.545 252.216 479.72 252.646 480.037 252.96 C 480.353 253.275 480.784 253.448 481.23 253.44 C 510.13 252.54 534.23 228.65 534.23 199.3 C 534.23 169.95 510.15 146.05 481.23 145.16 C 480.783 145.149 480.351 145.321 480.034 145.636 C 479.716 145.952 479.542 146.383 479.55 146.83 Z " fill="rgb(97,190,236)"/><path d=" M 407.38 290.14 L 407.38 203.29 C 407.277 189.401 411.727 175.86 420.05 164.74 C 427.92 154.4 440.17 145.04 458.69 145.16 C 459.194 145.157 459.678 145.355 460.036 145.709 C 460.395 146.064 460.597 146.546 460.6 147.05 L 460.6 236.45 C 460.6 236.45 463.6 285.31 408.44 291.09 C 408.173 291.106 407.911 291.015 407.711 290.837 C 407.512 290.658 407.393 290.407 407.38 290.14 L 407.38 290.14 L 407.38 290.14 L 407.38 290.14 L 407.38 290.14 Z " fill="rgb(64,100,172)"/><g style="opacity:0.1;"><g style="opacity:0.1;"><g style="opacity:0.1;"><g opacity="0.1"><circle vector-effect="non-scaling-stroke" cx="179.99" cy="103.86000000000001" r="31.5" fill="rgb(74,134,232)"/></g></g></g></g><g style="opacity:0.1;"><g style="opacity:0.1;"><g style="opacity:0.1;"><g opacity="0.1"><circle vector-effect="non-scaling-stroke" cx="113.99000000000001" cy="28.86" r="19.5" fill="rgb(74,134,232)"/></g></g></g></g><g style="opacity:0.1;"><g style="opacity:0.1;"><g style="opacity:0.1;"><g opacity="0.1"><circle vector-effect="non-scaling-stroke" cx="12" cy="72.36" r="12" fill="rgb(74,134,232)"/></g></g></g></g><path d=" M 409.87 671.93 C 408.911 673.245 408.143 674.689 407.59 676.22 C 407.45 676.59 407.31 677.02 407.17 677.43 C 406.918 677.31 406.653 677.22 406.38 677.16 C 405.215 676.863 404.009 676.758 402.81 676.85 C 402.81 676.39 402.87 675.85 402.88 675.39 C 403.03 670.12 402.41 662.77 397.38 665.88 C 392.56 668.88 396 673.88 399.11 677.09 L 399.91 677.87 C 397.07 679.87 396.53 684.6 396.06 689.51 C 395.59 694.42 391.42 699.8 388.65 702.85 C 388.37 703.16 388.12 703.44 387.87 703.7 C 385.608 701.887 382.676 701.133 379.82 701.63 C 379.71 701.2 379.59 700.75 379.45 700.27 C 377.22 692.14 372.57 678.14 366.63 675.14 L 367.41 674.14 C 369.93 670.84 372.77 665.94 368.58 664.69 C 364.39 663.44 364.01 668.94 364.24 673.06 C 364.24 673.57 364.32 674.06 364.36 674.52 C 362.667 674.598 361.082 675.373 359.98 676.66 L 359.33 675.9 C 355.93 671.9 349.7 665.53 347.81 670.34 C 346.06 674.82 351.54 680.63 355.4 684 L 355.64 684.21 C 353.05 694.73 364.36 703.3 370.45 707.05 L 371.24 707.53 C 362.84 717.43 357.65 735.98 357.65 735.98 L 381.18 740.18 C 381.18 740.18 396.77 726.72 394.77 714.09 L 394.93 714.09 C 410.52 710.97 414.06 694.35 411.64 684.48 C 411.73 684.48 411.82 684.41 411.91 684.36 C 414.748 683.199 417.236 681.321 419.13 678.91 C 423.49 672.82 414.35 665.98 409.87 671.93 Z " fill="rgb(255,196,49)"/><g style="opacity:0.1;"><g style="opacity:0.1;"><g style="opacity:0.1;"><g opacity="0.1"><path d=" M 409.87 671.93 C 408.911 673.245 408.143 674.689 407.59 676.22 C 407.45 676.59 407.31 677.02 407.17 677.43 C 406.918 677.31 406.653 677.22 406.38 677.16 C 405.215 676.863 404.009 676.758 402.81 676.85 C 402.81 676.39 402.87 675.85 402.88 675.39 C 403.03 670.12 402.41 662.77 397.38 665.88 C 392.56 668.88 396 673.88 399.11 677.09 L 399.91 677.87 C 397.07 679.87 396.53 684.6 396.06 689.51 C 395.59 694.42 391.42 699.8 388.65 702.85 C 388.37 703.16 388.12 703.44 387.87 703.7 C 385.608 701.887 382.676 701.133 379.82 701.63 C 379.71 701.2 379.59 700.75 379.45 700.27 C 377.22 692.14 372.57 678.14 366.63 675.14 L 367.41 674.14 C 369.93 670.84 372.77 665.94 368.58 664.69 C 364.39 663.44 364.01 668.94 364.24 673.06 C 364.24 673.57 364.32 674.06 364.36 674.52 C 362.667 674.598 361.082 675.373 359.98 676.66 L 359.33 675.9 C 355.93 671.9 349.7 665.53 347.81 670.34 C 346.06 674.82 351.54 680.63 355.4 684 L 355.64 684.21 C 353.05 694.73 364.36 703.3 370.45 707.05 L 371.24 707.53 C 362.84 717.43 357.65 735.98 357.65 735.98 L 381.18 740.18 C 381.18 740.18 396.77 726.72 394.77 714.09 L 394.93 714.09 C 410.52 710.97 414.06 694.35 411.64 684.48 C 411.73 684.48 411.82 684.41 411.91 684.36 C 414.748 683.199 417.236 681.321 419.13 678.91 C 423.49 672.82 414.35 665.98 409.87 671.93 Z " fill="rgb(0,0,0)"/></g></g></g></g><path d=" M 363.05 678.71 L 360.3 686.71 C 360.3 686.71 358.77 685.63 356.84 683.93 C 352.98 680.56 347.5 674.75 349.25 670.27 C 351.14 665.46 357.37 671.81 360.77 675.83 C 362.14 677.47 363.05 678.71 363.05 678.71 Z " fill="rgb(22,105,255)" fill-opacity="0.6392156862745098"/><path d=" M 368.85 674.14 C 368.013 675.237 367.119 676.288 366.17 677.29 C 365.936 675.889 365.772 674.477 365.68 673.06 C 365.45 668.94 365.89 663.47 370.02 664.69 C 374.15 665.91 371.37 670.82 368.85 674.14 Z " fill="rgb(22,105,255)" fill-opacity="0.6392156862745098"/><path d=" M 404.32 675.39 C 404.24 678.04 403.98 680.15 403.98 680.15 C 402.771 679.225 401.625 678.219 400.55 677.14 C 397.44 673.91 394 668.93 398.82 665.93 C 403.85 662.77 404.47 670.14 404.32 675.39 Z " fill="rgb(22,105,255)" fill-opacity="0.6392156862745098"/><path d=" M 420.57 678.86 C 418.676 681.271 416.188 683.149 413.35 684.31 C 412.564 684.657 411.755 684.951 410.93 685.19 L 407.69 680.64 C 408.033 679.137 408.481 677.66 409.03 676.22 C 409.583 674.689 410.351 673.245 411.31 671.93 C 415.79 665.98 424.93 672.82 420.57 678.86 Z " fill="rgb(22,105,255)" fill-opacity="0.6392156862745098"/><g style="opacity:0.1;"><g style="opacity:0.1;"><g style="opacity:0.1;"><g opacity="0.1"><path d=" M 360.77 675.88 C 362.14 677.47 363.05 678.71 363.05 678.71 L 360.3 686.71 C 360.3 686.71 358.77 685.63 356.84 683.93 C 357.271 681.353 358.336 678.923 359.94 676.86 C 360.21 676.54 360.5 676.19 360.77 675.88 Z " fill="rgb(0,0,0)"/></g></g></g></g><g style="opacity:0.1;"><g style="opacity:0.1;"><g style="opacity:0.1;"><g opacity="0.1"><path d=" M 368.85 674.14 C 368.013 675.237 367.119 676.288 366.17 677.29 C 365.936 675.889 365.772 674.477 365.68 673.06 C 366.824 673.079 367.933 673.457 368.85 674.14 L 368.85 674.14 L 368.85 674.14 L 368.85 674.14 L 368.85 674.14 Z " fill="rgb(0,0,0)"/></g></g></g></g><path d=" M 382.38 706.07 L 375.53 709.07 C 375.53 709.07 374.04 708.35 371.89 707.02 C 364.7 702.59 350.25 691.46 359.94 678.34 C 369.63 665.22 377.71 688.75 380.89 700.26 C 381.86 703.71 382.38 706.07 382.38 706.07 Z " fill="rgb(22,105,255)" fill-opacity="0.6392156862745098"/><g style="opacity:0.1;"><g style="opacity:0.1;"><g style="opacity:0.1;"><g opacity="0.1"><path d=" M 400.55 677.14 C 401.543 676.112 402.892 675.504 404.32 675.44 C 404.24 678.09 403.98 680.2 403.98 680.2 C 402.769 679.259 401.623 678.236 400.55 677.14 L 400.55 677.14 L 400.55 677.14 L 400.55 677.14 L 400.55 677.14 Z " fill="rgb(0,0,0)"/></g></g></g></g><g style="opacity:0.1;"><g style="opacity:0.1;"><g style="opacity:0.1;"><g opacity="0.1"><path d=" M 413.35 684.31 C 412.564 684.657 411.755 684.951 410.93 685.19 L 407.69 680.64 C 408.033 679.137 408.481 677.66 409.03 676.22 C 411.12 677.45 412.66 680.48 413.35 684.31 Z " fill="rgb(0,0,0)"/></g></g></g></g><path d=" M 396.37 714.04 L 395.22 714.24 C 372.29 717.73 387.66 705.35 387.66 705.35 C 387.66 705.35 388.66 704.35 390.09 702.85 C 392.86 699.8 397.02 694.45 397.5 689.51 C 398.22 682.08 399.05 675.11 407.82 677.16 C 416.43 679.14 418.05 709.69 396.37 714.04 Z " fill="rgb(22,105,255)" fill-opacity="0.6392156862745098"/><rect x="352.14" y="771.13" width="43.81" height="11.52" transform="matrix(1,0,0,1,0,0)" fill="rgb(212,223,236)"/><rect x="345.18" y="733.69" width="57.24" height="40.2" transform="matrix(1,0,0,1,0,0)" fill="rgb(212,223,236)"/><g style="opacity:0.1;"><g style="opacity:0.1;"><g style="opacity:0.1;"><g opacity="0.1"><rect x="352.14" y="771.13" width="43.81" height="11.52" transform="matrix(1,0,0,1,0,0)" fill="rgb(0,0,0)"/></g></g></g></g><g style="opacity:0.1;"><g style="opacity:0.1;"><g style="opacity:0.1;"><g opacity="0.1"><rect x="345.18" y="733.69" width="57.24" height="40.2" transform="matrix(1,0,0,1,0,0)" fill="rgb(0,0,0)"/></g></g></g></g><rect x="355.02" y="771.13" width="43.81" height="11.52" transform="matrix(1,0,0,1,0,0)" fill="rgb(212,223,236)"/><g style="opacity:0.1;"><g style="opacity:0.1;"><g style="opacity:0.1;"><g opacity="0.1"><path d=" M 380.89 700.27 C 381.89 703.71 382.38 706.07 382.38 706.07 L 375.53 709.07 C 375.53 709.07 374.04 708.35 371.89 707.02 C 374.57 703.63 377.59 701.06 380.89 700.27 Z " fill="rgb(0,0,0)"/></g></g></g></g><g style="opacity:0.1;"><g style="opacity:0.1;"><g style="opacity:0.1;"><g opacity="0.1"><path d=" M 396.37 714.04 L 395.22 714.24 C 372.29 717.73 387.66 705.35 387.66 705.35 C 387.66 705.35 388.66 704.35 390.09 702.85 C 394.37 706.28 396.14 710.14 396.37 714.04 Z " fill="rgb(0,0,0)"/></g></g></g></g><path d=" M 359.05 735.96 C 359.05 735.96 371.89 689.96 389.9 704.16 C 389.9 704.16 382.58 740.16 382.58 740.16 L 359.05 735.96 L 359.05 735.96 L 359.05 735.96 L 359.05 735.96 Z " fill="rgb(22,105,255)" fill-opacity="0.6392156862745098"/><g style="opacity:0.1;"><g style="opacity:0.1;"><g style="opacity:0.1;"><g opacity="0.1"><circle vector-effect="non-scaling-stroke" cx="365.58" cy="685.56" r="1.4399999999999977" fill="rgb(0,0,0)"/></g></g></g></g><g style="opacity:0.1;"><g style="opacity:0.1;"><g style="opacity:0.1;"><g opacity="0.1"><circle vector-effect="non-scaling-stroke" cx="365.46" cy="692.28" r="1.4399999999999977" fill="rgb(0,0,0)"/></g></g></g></g><g style="opacity:0.1;"><g style="opacity:0.1;"><g style="opacity:0.1;"><g opacity="0.1"><circle vector-effect="non-scaling-stroke" cx="407.22" cy="686.8800000000001" r="1.4399999999999977" fill="rgb(0,0,0)"/></g></g></g></g><g style="opacity:0.1;"><g style="opacity:0.1;"><g style="opacity:0.1;"><g opacity="0.1"><circle vector-effect="non-scaling-stroke" cx="373.62" cy="721.3300000000002" r="1.4399999999999977" fill="rgb(0,0,0)"/></g></g></g></g><g style="opacity:0.1;"><g style="opacity:0.1;"><g style="opacity:0.1;"><g opacity="0.1"><circle vector-effect="non-scaling-stroke" cx="404.22" cy="698.04" r="1.4399999999999977" fill="rgb(0,0,0)"/></g></g></g></g><g style="opacity:0.1;"><g style="opacity:0.1;"><g style="opacity:0.1;"><g opacity="0.1"><circle vector-effect="non-scaling-stroke" cx="389.34" cy="712.9300000000001" r="1.4399999999999977" fill="rgb(0,0,0)"/></g></g></g></g><g style="opacity:0.1;"><g style="opacity:0.1;"><g style="opacity:0.1;"><g opacity="0.1"><circle vector-effect="non-scaling-stroke" cx="370.5" cy="688.44" r="1.4399999999999977" fill="rgb(0,0,0)"/></g></g></g></g><g style="opacity:0.1;"><g style="opacity:0.1;"><g style="opacity:0.1;"><g opacity="0.1"><circle vector-effect="non-scaling-stroke" cx="403.26" cy="691.2" r="1.4399999999999977" fill="rgb(0,0,0)"/></g></g></g></g><g style="opacity:0.1;"><g style="opacity:0.1;"><g style="opacity:0.1;"><g opacity="0.1"><circle vector-effect="non-scaling-stroke" cx="398.34" cy="702.3600000000001" r="1.4399999999999977" fill="rgb(0,0,0)"/></g></g></g></g><g style="opacity:0.1;"><g style="opacity:0.1;"><g style="opacity:0.1;"><g opacity="0.1"><circle vector-effect="non-scaling-stroke" cx="383.22" cy="720.25" r="1.4399999999999977" fill="rgb(0,0,0)"/></g></g></g></g><g style="opacity:0.1;"><g style="opacity:0.1;"><g style="opacity:0.1;"><g opacity="0.1"><circle vector-effect="non-scaling-stroke" cx="380.1" cy="713.1700000000001" r="1.4399999999999977" fill="rgb(0,0,0)"/></g></g></g></g><g style="opacity:0.1;"><g style="opacity:0.1;"><g style="opacity:0.1;"><g opacity="0.1"><circle vector-effect="non-scaling-stroke" cx="372.66" cy="697.2" r="1.4399999999999977" fill="rgb(0,0,0)"/></g></g></g></g><g style="opacity:0.1;"><g style="opacity:0.1;"><g style="opacity:0.1;"><g opacity="0.1"><rect x="355.02" y="771.13" width="43.81" height="4.21" transform="matrix(1,0,0,1,0,0)" fill="rgb(0,0,0)"/></g></g></g></g><rect x="348.06" y="733.69" width="57.24" height="40.2" transform="matrix(1,0,0,1,0,0)" fill="rgb(212,223,236)"/><g style="opacity:0.1;"><g style="opacity:0.1;"><g style="opacity:0.1;"><g opacity="0.1"><circle vector-effect="non-scaling-stroke" cx="385.14" cy="726.73" r="1.4399999999999977" fill="rgb(0,0,0)"/></g></g></g></g><g style="opacity:0.1;"><g style="opacity:0.1;"><g style="opacity:0.1;"><g opacity="0.1"><circle vector-effect="non-scaling-stroke" cx="376.5" cy="728.53" r="1.4399999999999977" fill="rgb(0,0,0)"/></g></g></g></g></g></g></g></g></g></g></g></g></g><path d=" M 779.049 286.233 C 779.049 286.233 772.39 314.773 778.098 314.773 C 778.098 314.773 795.222 301.454 795.222 301.454 L 795.222 293.844 L 779.049 286.233 Z " fill="rgb(160,97,106)"/><rect x="782.379" y="493.15" width="22.832" height="19.027" transform="matrix(1,0,0,1,0,0)" fill="rgb(160,97,106)"/><path d=" M 855.633 490.296 L 860.389 512.177 L 884.173 506.469 L 878.465 487.443 L 855.633 490.296 L 855.633 490.296 Z " fill="rgb(160,97,106)"/><path d=" M 784.282 293.368 C 784.282 293.368 776.671 297.173 775.72 314.298 C 774.768 331.422 778.574 376.135 778.574 376.135 C 778.574 376.135 774.768 396.113 778.574 414.189 C 782.379 432.264 774.768 497.907 779.525 497.907 C 784.282 497.907 809.017 500.761 809.968 497.907 C 810.919 495.053 811.871 452.243 811.871 452.243 C 811.871 452.243 819.481 430.362 811.871 417.043 C 811.871 417.043 828.995 431.313 828.995 435.118 C 828.995 438.924 847.07 497.907 855.633 498.858 C 864.195 499.81 887.978 497.907 883.222 489.345 C 878.465 480.783 867.049 441.778 867.049 441.778 C 867.049 441.778 858.487 413.237 843.265 400.87 L 850.876 339.984 C 850.876 339.984 867.049 299.076 857.535 293.368 C 848.022 287.66 784.282 293.368 784.282 293.368 Z " fill="rgb(47,46,65)"/><circle vector-effect="non-scaling-stroke" cx="812.8220568762123" cy="113.5637337414839" r="24.73496700606688" fill="rgb(160,97,106)"/><path d=" M 800.455 128.785 C 800.455 128.785 809.968 160.18 807.114 163.985 C 804.26 167.79 837.557 143.055 837.557 143.055 C 837.557 143.055 825.19 134.493 829.946 122.126 L 800.455 128.785 Z " fill="rgb(160,97,106)"/><path d=" M 840.411 140.201 C 840.411 140.201 828.995 144.007 823.287 150.666 C 823.287 150.666 804.26 158.277 804.26 158.277 C 804.26 158.277 792.486 164.908 788.087 176.352 C 783.399 188.55 786.124 205.723 788.087 209.65 C 791.892 217.26 791.892 236.287 791.892 236.287 L 787.136 280.049 C 787.136 280.049 770.012 296.222 783.33 298.125 C 783.33 298.125 820.433 297.173 834.703 298.125 C 834.703 298.125 865.146 300.979 860.389 291.465 C 860.389 291.465 849.925 275.292 855.633 256.265 C 860.099 241.376 859.906 185.708 859.61 162.2 C 859.528 155.635 856.049 149.582 850.419 146.206 L 840.411 140.201 Z " fill="rgb(208,205,225)"/><path d=" M 803.309 285.757 C 803.309 285.757 798.98 295.287 798.552 300.979 C 795.222 345.216 819.481 300.979 819.481 300.979 L 819.481 293.368 L 803.309 285.757 Z " fill="rgb(160,97,106)"/><path d=" M 869.903 504.566 C 869.903 504.566 855.633 494.102 855.633 499.81 C 855.633 499.81 839.46 528.35 839.46 528.35 C 839.46 528.35 812.822 547.377 834.703 547.377 C 834.703 547.377 866.097 543.572 866.097 543.572 L 888.93 528.35 C 888.93 528.35 894.638 521.691 892.735 514.08 C 892.735 514.08 884.173 496.004 884.173 496.004 C 884.173 496.004 876.562 506.469 869.903 504.566 Z " fill="rgb(47,46,65)"/><path d=" M 786.184 507.42 C 786.184 507.42 784.282 497.907 777.622 502.664 C 777.622 502.664 752.887 521.691 752.887 521.691 C 752.887 521.691 719.59 529.301 740.52 538.815 C 740.52 538.815 809.017 535.009 809.017 535.009 C 809.017 535.009 810.919 504.566 809.017 505.518 C 807.114 506.469 787.136 509.323 786.184 507.42 Z " fill="rgb(47,46,65)"/><g opacity="0.1"><path d=" M 826.617 170.169 L 829.47 228.201 L 801.815 284.212 L 797.125 282.428 L 825.665 230.103 L 826.617 170.169 L 826.617 170.169 Z " fill="rgb(0,0,0)"/></g><path d=" M 848.973 152.569 L 856.108 151.142 C 856.108 151.142 877.513 166.839 870.854 198.233 C 870.854 198.233 834.703 277.195 834.703 277.195 C 834.703 277.195 828.044 285.757 826.141 287.66 C 826.141 287.66 820.433 287.66 822.336 290.514 C 822.336 290.514 819.481 295.271 819.481 295.271 C 819.481 295.271 798.552 295.271 800.455 287.66 C 800.455 287.66 834.703 225.822 834.703 225.822 L 829.946 175.401 C 829.946 175.401 826.141 150.666 848.973 152.569 Z " fill="rgb(208,205,225)"/><path d=" M 795.271 90.65 L 791.181 89.013 C 791.181 89.013 799.731 79.6 811.627 80.419 L 808.281 76.735 C 808.281 76.735 816.46 73.461 823.894 82.056 C 827.803 86.574 832.325 91.884 835.144 97.867 L 839.523 97.867 L 837.695 101.891 L 844.092 105.915 L 837.526 105.192 C 838.148 108.667 837.935 112.239 836.905 115.615 L 837.081 118.796 C 837.081 118.796 829.471 107.021 829.471 105.384 L 829.471 109.476 C 829.471 109.476 825.381 105.793 825.381 103.337 L 823.151 106.202 L 822.036 101.7 L 808.281 106.202 L 810.512 102.519 L 801.962 103.747 L 805.308 99.245 C 805.308 99.245 795.642 104.565 795.271 109.067 C 795.271 109.067 790.066 119.299 790.066 119.299 L 787.836 115.206 C 787.836 115.206 784.49 96.789 795.271 90.65 Z " fill="rgb(47,46,65)"/></g></svg>