<?xml version="1.0" encoding="UTF-8" standalone="no"?><!-- Generator: Gravit.io --><svg xmlns="http://www.w3.org/2000/svg" xmlns:xlink="http://www.w3.org/1999/xlink" style="isolation:isolate" viewBox="0 0 1082.11 786.29" width="1082.11pt" height="786.29pt"><defs><clipPath id="_clipPath_567fN7YjonTUcIarvJlZePUdoPZxew02"><rect width="1082.11" height="786.29"/></clipPath></defs><g clip-path="url(#_clipPath_567fN7YjonTUcIarvJlZePUdoPZxew02)"><clipPath id="_clipPath_u5rntcu6zLZ16Kojszya5JmWC4JcT1fs"><rect x="0" y="-1.356" width="1082.11" height="737.679" transform="matrix(1,0,0,1,0,0)" fill="rgb(255,255,255)"/></clipPath><g clip-path="url(#_clipPath_u5rntcu6zLZ16Kojszya5JmWC4JcT1fs)"><g><clipPath id="_clipPath_lxpLKkhksgDaCYH4l7wpayCnzLHPfmOJ"><rect x="0" y="-1.356" width="1082.11" height="737.679" transform="matrix(1,0,0,1,0,0)" fill="rgb(255,255,255)"/></clipPath><g clip-path="url(#_clipPath_lxpLKkhksgDaCYH4l7wpayCnzLHPfmOJ)"><g><g><clipPath id="_clipPath_WnIMxd0T8qFs7n4kmkI1lmnCxnBONWVE"><rect x="0" y="-1.356" width="1082.11" height="737.679" transform="matrix(1,0,0,1,0,0)" fill="rgb(255,255,255)"/></clipPath><g clip-path="url(#_clipPath_WnIMxd0T8qFs7n4kmkI1lmnCxnBONWVE)"><g><g><g><clipPath id="_clipPath_3ICF3Ldf60LuV4aLDu3MVw0Ru83NTNQ3"><rect x="0" y="-1.356" width="1082.11" height="737.679" transform="matrix(1,0,0,1,0,0)" fill="rgb(255,255,255)"/></clipPath><g clip-path="url(#_clipPath_3ICF3Ldf60LuV4aLDu3MVw0Ru83NTNQ3)"><g><g><g><g><clipPath id="_clipPath_lI3BbwoyDXjxQ7oUXnO7IfDUsXIBdEv4"><rect x="0" y="-1.356" width="1082.11" height="737.679" transform="matrix(1,0,0,1,0,0)" fill="rgb(255,255,255)"/></clipPath><g clip-path="url(#_clipPath_lI3BbwoyDXjxQ7oUXnO7IfDUsXIBdEv4)"><g><g><g><g><g><g style="opacity:0.1;"><g style="opacity:0.1;"><g style="opacity:0.1;"><g style="opacity:0.1;"><g style="opacity:0.1;"><g opacity="0.1"><ellipse vector-effect="non-scaling-stroke" cx="850.44" cy="662.8637303264966" rx="109.46000000000004" ry="6.586000791573042" fill="rgb(255,196,49)"/></g></g></g></g></g></g><g style="opacity:0.1;"><g style="opacity:0.1;"><g style="opacity:0.1;"><g style="opacity:0.1;"><g style="opacity:0.1;"><g opacity="0.1"><ellipse vector-effect="non-scaling-stroke" cx="164.07" cy="723.2635495517779" rx="109.45999999999998" ry="6.586000791573042" fill="rgb(255,196,49)"/></g></g></g></g></g></g><g style="opacity:0.1;"><g style="opacity:0.1;"><g style="opacity:0.1;"><g style="opacity:0.1;"><g style="opacity:0.1;"><g opacity="0.1"><ellipse vector-effect="non-scaling-stroke" cx="372.07" cy="733.6116391146059" rx="45.04000000000002" ry="2.71133081020605" fill="rgb(255,196,49)"/></g></g></g></g></g></g><g style="opacity:0.1;"><g style="opacity:0.1;"><g style="opacity:0.1;"><g style="opacity:0.1;"><g style="opacity:0.1;"><g opacity="0.1"><ellipse vector-effect="non-scaling-stroke" cx="1047" cy="663.8019070774328" rx="35.09999999999991" ry="2.110897689606759" fill="rgb(255,196,49)"/></g></g></g></g></g></g><g style="opacity:0.1;"><g style="opacity:0.1;"><g style="opacity:0.1;"><g style="opacity:0.1;"><g style="opacity:0.1;"><g opacity="0.1"><ellipse vector-effect="non-scaling-stroke" cx="724.85" cy="619.8107992260282" rx="29.75999999999999" ry="1.7919175942884067" fill="rgb(255,196,49)"/></g></g></g></g></g></g><path d=" M 1052.05 613.14 C 1052.05 613.14 1056.75 618.91 1049.89 627.616 C 1049.89 627.616 1037.35 643.669 1039.64 649.091 C 1039.64 649.091 1050.01 632.927 1058.44 632.701 C 1066.87 632.476 1061.34 622.869 1052.05 613.14 Z " fill="rgb(74,134,232)"/><g style="opacity:0.1;"><g style="opacity:0.1;"><g style="opacity:0.1;"><g style="opacity:0.1;"><g style="opacity:0.1;"><g opacity="0.1"><path d=" M 1052.05 613.14 C 1052.472 613.697 1052.809 614.307 1053.05 614.951 C 1061.28 624.023 1065.66 632.486 1057.75 632.701 C 1050.38 632.898 1041.54 645.264 1039.42 648.388 C 1039.488 648.627 1039.572 648.861 1039.67 649.091 C 1039.67 649.091 1050.04 632.927 1058.47 632.701 C 1066.9 632.476 1061.34 622.869 1052.05 613.14 Z " fill="rgb(0,0,0)"/></g></g></g></g></g></g><path d=" M 1060.8 620.486 C 1060.8 622.522 1060.56 624.164 1060.26 624.164 C 1059.96 624.164 1059.72 622.522 1059.72 620.486 C 1059.72 618.45 1060.02 619.417 1060.32 619.417 C 1060.62 619.417 1060.8 618.46 1060.8 620.486 Z " fill="rgb(255,208,55)"/><path d=" M 1063.8 622.916 C 1061.9 623.854 1060.25 624.474 1060.1 624.23 C 1059.95 623.986 1061.38 622.991 1063.28 622.016 C 1065.18 621.04 1064.43 621.753 1064.57 622.016 C 1064.71 622.278 1065.7 621.94 1063.8 622.916 Z " fill="rgb(255,208,55)"/><path d=" M 1027.24 613.14 C 1027.24 613.14 1022.54 618.91 1029.41 627.616 C 1029.41 627.616 1041.94 643.669 1039.65 649.091 C 1039.65 649.091 1029.29 632.927 1020.85 632.701 C 1012.41 632.476 1017.96 622.869 1027.24 613.14 Z " fill="rgb(74,134,232)"/><g style="opacity:0.1;"><g style="opacity:0.1;"><g style="opacity:0.1;"><g style="opacity:0.1;"><g style="opacity:0.1;"><g opacity="0.1"><path d=" M 1027.24 613.14 C 1026.816 613.696 1026.479 614.306 1026.24 614.951 C 1018.01 624.023 1013.62 632.486 1021.53 632.701 C 1028.9 632.898 1037.75 645.264 1039.86 648.388 C 1039.792 648.627 1039.708 648.861 1039.61 649.091 C 1039.61 649.091 1029.25 632.927 1020.81 632.701 C 1012.37 632.476 1017.96 622.869 1027.24 613.14 Z " fill="rgb(0,0,0)"/></g></g></g></g></g></g><path d=" M 1018.5 620.486 C 1018.5 622.522 1018.74 624.164 1019.04 624.164 C 1019.34 624.164 1019.59 622.522 1019.59 620.486 C 1019.59 618.45 1019.28 619.417 1018.98 619.417 C 1018.68 619.417 1018.5 618.46 1018.5 620.486 Z " fill="rgb(255,208,55)"/><path d=" M 1015.5 622.916 C 1017.4 623.854 1019.06 624.474 1019.2 624.23 C 1019.34 623.986 1017.92 622.991 1016.02 622.016 C 1014.12 621.04 1014.87 621.753 1014.73 622.016 C 1014.59 622.278 1013.6 621.94 1015.5 622.916 Z " fill="rgb(255,208,55)"/><path d=" M 1020.05 648.341 C 1020.05 648.341 1033.19 647.965 1037.15 645.32 C 1037.15 645.32 1057.36 639.513 1058.35 643.753 C 1058.35 643.753 1078.09 664.853 1063.26 664.965 C 1063.26 664.965 1028.79 662.798 1024.83 660.546 C 1020.87 658.295 1020.05 648.341 1020.05 648.341 Z " fill="rgb(168,168,168)"/><g style="opacity:0.2;"><g style="opacity:0.2;"><g style="opacity:0.2;"><g style="opacity:0.2;"><g style="opacity:0.2;"><g opacity="0.2"><path d=" M 1063.47 663.492 C 1048.64 663.605 1029 661.325 1025.05 659.064 C 1022.05 657.347 1020.84 651.174 1020.44 648.322 L 1020 648.322 C 1020 648.322 1020.83 658.267 1024.78 660.518 C 1024.78 660.518 1048.37 665.05 1063.21 664.937 C 1067.49 664.937 1068.97 663.483 1068.89 661.363 C 1068.29 662.667 1066.66 663.464 1063.47 663.492 Z " fill="rgb(0,0,0)"/></g></g></g></g></g></g><path d=" M 737.6 582.781 C 737.6 584.517 737.39 585.924 737.14 585.924 C 736.89 585.924 736.67 584.517 736.67 582.781 C 736.67 581.045 736.93 581.843 737.19 581.843 C 737.45 581.843 737.6 581.045 737.6 582.781 Z " fill="rgb(255,208,55)"/><path d=" M 740.17 584.854 C 738.54 585.68 737.17 586.187 737 585.971 C 736.83 585.755 738.1 584.92 739.72 584.094 C 741.34 583.269 740.72 583.869 740.83 584.094 C 740.94 584.32 741.79 584.019 740.17 584.854 Z " fill="rgb(255,208,55)"/><path d=" M 701.41 582.781 C 701.41 584.517 701.62 585.924 701.88 585.924 C 702.14 585.924 702.34 584.517 702.34 582.781 C 702.34 581.045 702.08 581.843 701.82 581.843 C 701.56 581.843 701.41 581.045 701.41 582.781 Z " fill="rgb(255,208,55)"/><path d=" M 698.85 584.854 C 700.47 585.68 701.85 586.187 702.01 585.971 C 702.17 585.755 700.92 584.92 699.29 584.094 C 697.66 583.269 698.29 583.869 698.18 584.094 C 698.07 584.32 697.22 584.019 698.85 584.854 Z " fill="rgb(255,208,55)"/><g style="opacity:0.2;"><g style="opacity:0.2;"><g style="opacity:0.2;"><g style="opacity:0.2;"><g style="opacity:0.2;"><g opacity="0.2"><path d=" M 739.89 619.567 C 727.19 619.67 710.39 617.691 707.01 615.814 C 704.44 614.341 703.41 609.059 703.07 606.62 L 702.69 606.62 C 702.69 606.62 703.4 615.12 706.79 617.053 C 706.79 617.053 726.97 620.937 739.66 620.805 C 743.32 620.805 744.59 619.557 744.52 617.747 C 744.05 618.91 742.61 619.548 739.89 619.567 Z " fill="rgb(0,0,0)"/></g></g></g></g></g></g><g style="opacity:0.8;"><g style="opacity:0.8;"><g style="opacity:0.8;"><g style="opacity:0.8;"><g style="opacity:0.8;"><g style="opacity:0.8;"><g opacity="0.8"><path d=" M 147.78 581.974 C 189.073 581.99 222.537 613.403 222.53 652.143 C 222.523 690.884 189.047 722.286 147.753 722.288 C 106.46 722.29 72.981 690.89 72.97 652.15 C 72.957 633.533 80.835 615.674 94.867 602.511 C 108.9 589.347 127.936 581.959 147.78 581.974 L 147.78 581.974 L 147.78 581.974 L 147.78 581.974 L 147.78 581.974 L 147.78 581.974 Z " fill="rgb(231,77,137)"/></g></g></g></g></g></g><g style="opacity:0.8;"><g style="opacity:0.8;"><g style="opacity:0.8;"><g style="opacity:0.8;"><g style="opacity:0.8;"><g opacity="0.8"><path d=" M 147.78 727.279 C 103.552 727.232 67.732 693.568 67.76 652.075 C 67.788 610.581 103.652 576.96 147.88 576.964 C 192.108 576.97 227.963 610.6 227.98 652.093 C 227.941 693.625 192.048 727.273 147.78 727.279 L 147.78 727.279 L 147.78 727.279 L 147.78 727.279 L 147.78 727.279 L 147.78 727.279 Z  M 215.39 662.385 C 201.544 658.597 186.994 657.637 172.72 659.571 C 178.567 674.441 183.027 689.759 186.05 705.354 C 201.77 695.479 212.401 679.911 215.39 662.385 L 215.39 662.385 L 215.39 662.385 L 215.39 662.385 L 215.39 662.385 L 215.39 662.385 Z  M 174.54 711.283 C 171.321 694.666 166.432 678.373 159.94 662.62 C 159.802 662.682 159.653 662.72 159.5 662.732 C 120.84 675.37 106.99 700.475 105.74 702.821 C 117.742 711.594 132.525 716.352 147.74 716.34 C 156.936 716.4 166.046 714.678 174.5 711.283 L 174.54 711.283 L 174.54 711.283 L 174.54 711.283 L 174.54 711.283 L 174.54 711.283 Z  M 96.91 695.118 C 98.47 692.651 117.27 663.502 152.61 652.741 C 153.48 652.45 154.42 652.215 155.3 651.981 C 153.61 648.331 151.73 644.691 149.72 641.107 C 115.52 650.686 82.31 650.273 79.3 650.217 C 79.3 650.864 79.24 651.512 79.24 652.15 C 79.26 668.03 85.556 683.34 96.91 695.118 L 96.91 695.118 L 96.91 695.118 L 96.91 695.118 L 96.91 695.118 L 96.91 695.118 Z  M 80.74 639.043 C 102.11 638.955 123.383 636.329 144.05 631.228 C 136.303 618.447 127.831 606.064 118.67 594.133 C 99.235 602.713 85.2 619.331 80.74 639.043 L 80.74 639.043 L 80.74 639.043 L 80.74 639.043 L 80.74 639.043 L 80.74 639.043 Z  M 131.74 589.789 C 141.135 601.757 149.676 614.292 157.31 627.316 C 181.68 618.741 191.95 605.804 193.21 604.162 C 180.691 593.731 164.524 587.978 147.78 587.997 C 142.377 588.034 136.995 588.647 131.74 589.827 L 131.74 589.789 L 131.74 589.789 L 131.74 589.789 L 131.74 589.789 L 131.74 589.789 Z  M 200.79 611.592 C 199.35 613.422 187.88 627.232 162.57 636.923 C 164.13 639.982 165.7 643.096 167.14 646.211 C 167.64 647.328 168.14 648.444 168.65 649.504 C 191.45 646.793 214.07 651.146 216.33 651.559 C 216.161 636.961 210.678 622.855 200.79 611.583 L 200.79 611.592 L 200.79 611.592 L 200.79 611.592 L 200.79 611.592 L 200.79 611.592 Z " fill="rgb(178,33,90)"/></g></g></g></g></g></g></g><linearGradient id="_lgradient_2" x1="0.49998383587091744" y1="0.9999562441762311" x2="0.4999838358709175" y2="0.21611399915481166" gradientTransform="matrix(202.444,0,0,500.293,133.431,224.305)" gradientUnits="userSpaceOnUse"><stop offset="0%" stop-opacity="0.25" style="stop-color:rgb(128,128,128)"/><stop offset="54%" stop-opacity="0.12" style="stop-color:rgb(128,128,128)"/><stop offset="100%" stop-opacity="0.1" style="stop-color:rgb(128,128,128)"/></linearGradient><path d=" M 333.23 437.992 C 331.42 435.862 329.36 421.218 329.36 421.218 L 321.36 383.897 L 317.22 362.394 C 317.22 362.394 316.22 335.234 298.1 321.761 L 296.69 320.72 C 296.69 320.476 296.69 320.242 296.69 319.998 L 296.69 319.998 L 296.69 319.998 C 296.525 317.375 295.914 314.794 294.88 312.352 C 294.442 311.561 294.219 310.682 294.23 309.79 C 294.277 309.439 294.399 309.101 294.59 308.796 L 294.59 308.796 C 295.439 307.704 296.558 306.822 297.85 306.225 C 301.14 304.349 303.94 301.394 304.7 297.894 C 304.695 297.816 304.695 297.738 304.7 297.66 C 304.7 297.51 304.7 297.35 304.77 297.191 C 304.84 297.031 304.77 297.022 304.77 296.928 C 304.78 296.766 304.78 296.602 304.77 296.44 L 304.77 296.234 C 304.77 296.046 304.77 295.849 304.77 295.652 C 304.765 295.612 304.765 295.57 304.77 295.53 C 304.77 295.314 304.72 295.089 304.68 294.873 L 304.68 294.826 L 304.68 294.826 C 304.313 292.245 302.561 290.022 300.04 288.935 C 300.953 288.73 301.712 288.136 302.09 287.33 L 302.09 287.33 C 302.213 287.1 302.31 286.857 302.38 286.608 L 302.38 286.608 C 302.448 286.375 302.492 286.136 302.51 285.895 C 302.51 285.895 302.51 285.82 302.51 285.782 C 302.525 285.576 302.525 285.37 302.51 285.163 C 302.51 285.097 302.51 285.032 302.51 284.966 C 302.48 284.76 302.433 284.556 302.37 284.356 C 302.375 284.303 302.375 284.25 302.37 284.197 L 302.31 284.065 L 302.31 284.065 C 301.64 282.264 300.05 280.876 298.68 279.431 C 290.78 271.128 289.25 259.448 287.1 248.621 C 285.91 242.617 283.66 235.778 277.46 233.498 C 275.708 232.977 273.925 232.551 272.12 232.222 C 266.62 230.852 262.12 227.25 256.74 225.486 C 253.107 224.316 249.221 224.009 245.43 224.594 C 242.54 225.045 240.12 226.377 237.33 227.006 C 231.33 228.385 224.05 226.846 219.33 231.396 C 216.02 234.558 215.76 239.38 214.13 243.499 C 211.05 251.145 203.05 256.708 200.98 264.655 C 199.65 269.777 201.03 274.975 202.48 280.125 C 203.572 283.585 204.309 287.135 204.68 290.727 C 204.735 291.633 204.735 292.541 204.68 293.447 C 204.466 296.092 203.829 298.692 202.79 301.159 C 196.03 303.505 189.04 306.272 188.52 307.83 C 187.52 310.897 171.2 319.641 171.2 319.641 C 171.2 319.641 165 324.604 165 326.49 C 165 328.376 162.94 334.286 161.64 334.286 C 160.34 334.286 157.77 358.144 157.77 358.144 L 157.77 382.949 C 157.77 382.949 148.22 412.239 146.02 438.227 C 146.02 438.227 142.16 454.823 148.46 464.346 C 149.284 465.637 150.336 466.789 151.57 467.751 L 154.79 475.641 C 155.923 473.867 157.362 472.282 159.05 470.95 C 159.21 471.935 159.39 473.089 159.61 474.375 C 159.88 475.988 160.2 477.818 160.61 479.779 C 158.61 482.715 153.78 488.86 147.98 491.159 C 142.62 493.279 149.6 498.889 154.42 502.163 C 153.14 508.14 151.29 515.476 149.79 516.433 C 147.2 518.084 138.94 538.874 138.94 538.874 C 138.94 538.874 122.67 574.525 146.05 578.559 C 169.43 582.593 181.35 573.127 181.35 573.127 L 186.95 573.127 C 186.95 573.127 193.76 569.525 193.95 562.075 C 197.76 559.13 203.61 554.457 204.8 552.572 C 205.99 550.686 202.71 544.55 200.63 541.201 L 201.18 540.263 C 201.18 540.263 223.41 513.572 226.25 516.405 C 226.25 516.405 230.9 523.723 229.61 526.565 L 230.83 542.918 L 230.83 568.427 C 230.83 568.427 227.64 580.004 230.83 581.186 C 230.83 581.186 230.83 586.815 230.83 586.815 C 230.83 586.815 232.02 592.013 232.24 593.664 C 232.354 595.789 232.354 597.918 232.24 600.043 L 231.17 625.562 L 229.1 663.352 C 229.1 663.352 226.78 666.429 228.59 668.549 C 228.59 668.549 229.59 675.642 229.1 676.58 C 229.1 676.58 228.33 685.324 228.33 685.324 C 228.33 685.324 220.83 692.641 226.78 694.537 L 227.01 694.602 C 224.55 696.741 224.52 701.554 224.71 703.046 C 224.9 704.538 223.13 710.551 221.8 713.957 C 221.534 714.823 221.122 715.643 220.58 716.387 C 219.67 716.987 220.58 723.601 220.58 723.601 C 220.58 723.601 249.64 725.844 252.1 723.601 C 253.1 722.729 252.85 720.609 252.15 718.16 C 251.034 714.607 249.547 711.166 247.71 707.887 C 246.02 704.941 246.81 701.16 246.81 701.16 L 246.81 698.346 C 248.76 698.636 250.03 698.805 250.03 698.805 C 250.03 698.805 253.65 695.991 252.1 693.373 C 250.55 690.756 254.94 676.139 254.94 676.139 C 254.94 676.139 259.85 659.599 259.85 657.948 C 259.85 656.296 266.31 634.803 266.31 634.803 C 266.31 634.803 275.87 596.769 271.22 578.812 C 271.22 578.812 275.35 574.328 274.83 573.183 C 274.31 572.039 273.11 567.038 274.88 564.918 C 276.65 562.798 284.14 536.332 286.21 531.847 C 287.16 529.774 289.54 524.051 291.82 518.469 C 302.11 517.024 314.37 514.36 314.37 514.36 C 314.37 514.36 312.54 507.051 311.18 499.583 L 312.3 494.452 L 312.7 492.678 C 313.624 493.529 314.446 494.473 315.15 495.493 L 317.21 486.046 C 317.21 486.046 317.44 485.717 317.83 485.107 C 320.24 481.57 329.02 468.858 333.23 465.002 C 338.14 460.433 335.05 440.112 333.23 437.992 Z " fill="url(#_lgradient_2)"/><rect x="242.04" y="279.938" width="28.5" height="30.022" transform="matrix(1,0,0,1,0,0)" fill="rgb(146,89,120)"/><g style="opacity:0.1;"><g style="opacity:0.1;"><g style="opacity:0.1;"><g style="opacity:0.1;"><g style="opacity:0.1;"><g opacity="0.1"><rect x="242.04" y="279.938" width="28.5" height="30.022" transform="matrix(1,0,0,1,0,0)" fill="rgb(0,0,0)"/></g></g></g></g></g></g><path d=" M 200.28 538.64 C 200.28 538.64 207.53 549.429 205.78 552.243 C 204.03 555.058 192.05 564.205 192.05 564.205 L 188.51 541.689 L 200.28 538.64 L 200.28 538.64 L 200.28 538.64 L 200.28 538.64 L 200.28 538.64 Z " fill="rgb(74,134,232)"/><path d=" M 177.78 573.352 L 183.07 572.649 L 188.49 572.649 C 188.49 572.649 195.69 568.765 195.28 560.687 C 195.28 560.687 195.28 544.738 195.28 544.738 L 177.78 573.352 L 177.78 573.352 L 177.78 573.352 L 177.78 573.352 L 177.78 573.352 Z " fill="rgb(87,89,136)"/><g style="opacity:0.1;"><g style="opacity:0.1;"><g style="opacity:0.1;"><g style="opacity:0.1;"><g style="opacity:0.1;"><g opacity="0.1"><path d=" M 177.78 573.352 L 183.07 572.649 L 188.49 572.649 C 188.49 572.649 195.69 568.765 195.28 560.687 C 195.28 560.687 195.28 544.738 195.28 544.738 L 177.78 573.352 L 177.78 573.352 L 177.78 573.352 L 177.78 573.352 L 177.78 573.352 Z " fill="rgb(0,0,0)"/></g></g></g></g></g></g><path d=" M 188.49 463.351 L 158.49 494.311 C 158.49 494.311 154.99 514.716 152.49 516.358 C 149.99 518 142.05 538.64 142.05 538.64 C 142.05 538.64 126.32 574.056 148.93 578.043 C 171.54 582.03 183.05 572.649 183.05 572.649 L 202.25 540.047 C 202.25 540.047 223.76 513.544 226.51 516.358 C 226.51 516.358 231.01 523.629 229.76 526.443 L 230.93 542.627 L 230.93 567.958 C 230.93 567.958 227.85 579.45 230.93 580.623 C 230.93 580.623 230.93 586.252 230.93 586.252 C 230.93 586.252 232.09 591.412 232.3 593.054 C 232.3 593.054 232.3 599.387 232.3 599.387 L 231.3 624.717 L 229.3 662.245 C 229.3 662.245 227.05 665.294 228.8 667.405 C 228.8 667.405 229.8 674.441 229.3 675.379 C 229.3 675.379 228.55 684.057 228.55 684.057 C 228.55 684.057 221.3 691.328 227.05 693.204 C 227.05 693.204 249.55 697.426 249.55 697.426 C 249.55 697.426 253.05 694.612 251.55 692.032 C 251.55 692.032 254.3 674.91 254.3 674.91 C 254.3 674.91 259.05 658.492 259.05 656.85 C 259.05 656.85 265.3 633.865 265.3 633.865 C 265.3 633.865 274.55 596.103 270.05 578.278 C 270.05 578.278 274.05 573.821 273.55 572.649 C 273.05 571.476 271.88 566.551 273.55 564.44 C 275.22 562.329 282.55 536.06 284.55 531.603 C 286.55 527.147 295.05 505.569 295.05 505.569 L 295.05 465.697 L 188.49 463.351 L 188.49 463.351 L 188.49 463.351 L 188.49 463.351 L 188.49 463.351 Z " fill="rgb(87,89,136)"/><path d=" M 278.05 321.921 L 260.79 352.515 L 256.24 360.564 L 255.55 361.793 L 211.05 363.435 C 211.05 363.435 209.78 360.799 207.98 356.709 C 204.87 349.625 200.17 338.161 197.8 328.488 C 197.214 326.173 196.779 323.826 196.5 321.461 C 195.84 315.607 196.84 311.432 200.84 311.076 C 201.851 310.989 202.869 311.088 203.84 311.366 C 206.621 312.138 209.533 312.401 212.42 312.145 C 222.98 310.944 226.07 300.484 226.59 290.651 C 226.59 289.957 226.66 289.263 226.67 288.578 C 226.67 286.448 226.67 284.384 226.52 282.489 C 226.32 279.275 225.926 276.074 225.34 272.901 C 227.983 271.687 230.75 270.728 233.6 270.04 C 242.04 268.013 253.93 268.07 254.09 284.394 C 254.072 288.011 254.454 291.621 255.23 295.164 C 255.68 297.184 256.403 299.142 257.38 300.99 C 260.31 306.272 264.38 306.844 266.29 306.779 C 266.643 306.779 266.995 306.745 267.34 306.676 L 278.05 321.921 L 278.05 321.921 L 278.05 321.921 L 278.05 321.921 L 278.05 321.921 Z " fill="rgb(198,122,133)"/><g style="opacity:0.1;"><g style="opacity:0.1;"><g style="opacity:0.1;"><g style="opacity:0.1;"><g style="opacity:0.1;"><g opacity="0.1"><path d=" M 233.63 339.634 C 234.246 341.296 234.56 343.043 234.56 344.803 C 234.749 346.656 234.702 348.524 234.42 350.366 C 234.135 352.231 233.149 353.938 231.64 355.179" fill="rgb(0,0,0)"/></g></g></g></g></g></g><g style="opacity:0.1;"><g style="opacity:0.1;"><g style="opacity:0.1;"><g style="opacity:0.1;"><g style="opacity:0.1;"><g opacity="0.1"><ellipse vector-effect="non-scaling-stroke" cx="246.22000000000003" cy="272.4508571918483" rx="26.75" ry="25.09622808754709" fill="rgb(0,0,0)"/></g></g></g></g></g></g><path d=" M 272.96 271.513 C 272.965 281.835 266.23 291.106 255.989 294.876 C 245.747 298.647 234.089 296.147 226.61 288.578 C 226.377 288.355 226.156 288.12 225.95 287.874 C 218.211 279.445 217.313 267.241 223.745 257.894 C 230.177 248.548 242.402 244.292 253.776 247.44 C 265.15 250.588 272.955 260.388 272.95 271.513 L 272.96 271.513 L 272.96 271.513 L 272.96 271.513 L 272.96 271.513 L 272.96 271.513 Z " fill="rgb(198,122,133)"/><g style="opacity:0.1;"><g style="opacity:0.1;"><g style="opacity:0.1;"><g style="opacity:0.1;"><g style="opacity:0.1;"><g opacity="0.1"><path d=" M 203.28 334.117 C 203.28 334.117 212.78 357.337 232.78 353.584 C 232.78 353.584 252.97 355.067 264.53 341.154 C 276.09 327.24 276.78 420.899 276.78 420.899 L 272.28 483.053 C 272.28 483.053 240.05 501.113 226.05 498.767 C 212.05 496.422 205.3 489.385 205.3 489.385 C 205.3 489.385 190.55 476.486 186.55 474.844 C 182.55 473.202 188.3 393.222 188.3 393.222 L 193.05 363.201 L 203.28 334.117 L 203.28 334.117 L 203.28 334.117 L 203.28 334.117 L 203.28 334.117 Z " fill="rgb(0,0,0)"/></g></g></g></g></g></g><path d=" M 203.28 332.241 C 203.28 332.241 212.78 355.461 232.78 351.708 C 232.78 351.708 252.97 353.19 264.53 339.277 C 276.09 325.364 276.78 419.022 276.78 419.022 L 272.28 481.176 C 272.28 481.176 240.05 499.236 226.05 496.891 C 212.05 494.545 205.3 487.509 205.3 487.509 C 205.3 487.509 190.55 474.609 186.55 472.967 C 182.55 471.326 188.3 391.346 188.3 391.346 L 193.05 361.324 L 203.28 332.241 L 203.28 332.241 L 203.28 332.241 L 203.28 332.241 L 203.28 332.241 Z " fill="rgb(232,244,255)"/><g style="opacity:0.1;"><g style="opacity:0.1;"><g style="opacity:0.1;"><g style="opacity:0.1;"><g style="opacity:0.1;"><g opacity="0.1"><path d=" M 202.28 463.351 C 202.28 463.351 223.78 485.867 222.53 488.213 C 221.28 490.558 201.78 470.153 202.28 463.351 Z " fill="rgb(0,0,0)"/></g></g></g></g></g></g><g style="opacity:0.1;"><g style="opacity:0.1;"><g style="opacity:0.1;"><g style="opacity:0.1;"><g style="opacity:0.1;"><g opacity="0.1"><path d=" M 198.58 407.361 C 198.58 407.361 205.45 416.367 209.75 415.429" fill="rgb(0,0,0)"/></g></g></g></g></g></g><g style="opacity:0.1;"><g style="opacity:0.1;"><g style="opacity:0.1;"><g style="opacity:0.1;"><g style="opacity:0.1;"><g opacity="0.1"><path d=" M 213.43 311.366 C 213.43 311.366 213.43 311.639 213.36 312.145 C 213.13 315.025 212.27 325.467 211.11 337.101 C 210.46 343.668 209.72 350.554 208.96 356.709 C 207.72 366.719 206.4 374.731 205.28 375.866 C 202.03 379.15 203.28 410.11 203.28 410.11 L 203.28 449.278 C 203.28 449.278 200.54 461.709 198.28 464.524 C 198.28 464.524 190.5 477.893 186.08 479.3 C 184.525 480.099 183.128 481.144 181.95 482.387 C 177.95 486.139 172.29 492.397 167.95 497.332 C 164.37 501.45 161.72 504.631 161.72 504.631 C 161.72 504.631 144.22 494.311 151.72 491.262 C 157.33 488.982 161.97 482.884 163.94 480.004 C 164.61 479.066 164.94 478.399 164.94 478.399 C 165.294 476.213 165.826 474.056 166.53 471.945 C 167.165 469.955 168.098 468.06 169.3 466.316 C 170.215 464.864 171.702 463.81 173.44 463.379 C 179.94 462.206 183.19 404.274 183.19 404.274 L 163.19 363.332 L 161.19 359.242 C 161.19 359.242 163.69 335.553 164.94 335.553 C 164.94 335.553 168.19 329.689 168.19 327.813 C 168.19 327.813 174.19 321.011 174.19 321.011 C 174.19 321.011 190.05 312.305 191.05 309.256 C 191.58 307.651 198.85 304.752 205.62 302.369 C 211.7 300.23 217.37 298.504 217.37 298.504 C 220.68 303.232 213.43 311.366 213.43 311.366 Z " fill="rgb(0,0,0)"/></g></g></g></g></g></g><path d=" M 212.43 311.366 C 212.43 311.366 212.43 311.639 212.36 312.145 C 212.13 315.025 211.27 325.467 210.11 337.101 C 209.46 343.668 208.72 350.554 207.96 356.709 C 206.72 366.719 205.4 374.731 204.28 375.866 C 201.03 379.15 202.28 410.11 202.28 410.11 L 202.28 449.278 C 202.28 449.278 199.54 461.709 197.28 464.524 C 197.28 464.524 189.5 477.893 185.08 479.3 C 183.525 480.099 182.128 481.144 180.95 482.387 C 176.95 486.139 171.29 492.397 166.95 497.332 C 163.37 501.45 160.72 504.631 160.72 504.631 C 160.72 504.631 143.22 494.311 150.72 491.262 C 156.33 488.982 160.97 482.884 162.94 480.004 C 163.61 479.066 163.94 478.399 163.94 478.399 C 164.294 476.213 164.826 474.056 165.53 471.945 C 166.165 469.955 167.098 468.06 168.3 466.316 C 169.215 464.864 170.702 463.81 172.44 463.379 C 178.94 462.206 182.19 404.274 182.19 404.274 L 162.19 363.332 L 160.19 359.242 C 160.19 359.242 162.69 335.553 163.94 335.553 C 163.94 335.553 167.19 329.689 167.19 327.813 C 167.19 327.813 173.19 321.011 173.19 321.011 C 173.19 321.011 189.05 312.305 190.05 309.256 C 190.58 307.651 197.85 304.752 204.62 302.369 C 210.7 300.23 216.37 298.504 216.37 298.504 C 219.68 303.232 212.43 311.366 212.43 311.366 Z " fill="rgb(74,134,232)"/><g style="opacity:0.1;"><g style="opacity:0.1;"><g style="opacity:0.1;"><g style="opacity:0.1;"><g style="opacity:0.1;"><g opacity="0.1"><path d=" M 311.87 365.255 L 290.28 389.001 C 290.28 389.001 309.03 480.238 306.78 484.46 C 306.608 484.81 306.497 485.184 306.45 485.567 C 306.219 487.753 306.263 489.958 306.58 492.134 C 306.84 494.433 307.24 496.985 307.69 499.527 C 309.01 506.939 310.78 514.2 310.78 514.2 C 310.78 514.2 285.53 519.829 277.78 519.126 C 270.03 518.422 274.53 506.695 275.78 501.3 C 277.03 495.906 267.28 488.353 267.28 488.353 L 253.53 435.393 C 253.53 435.393 252.53 423.666 249.53 418.037 C 249.53 418.037 249.28 406.31 248.28 398.335 C 247.57 392.65 251.93 372.329 255.22 360.518 C 256.47 356.024 257.57 352.768 258.22 352.008 C 258.248 351.967 258.282 351.929 258.32 351.896 C 260.32 350.254 258.32 340.638 258.32 340.638 C 258.32 340.638 263.07 315.307 262.57 313.196 C 262.29 311.995 263.86 309.049 265.27 306.732 C 266.34 304.977 267.32 303.58 267.32 303.58 C 267.32 303.58 276.99 309.331 293.57 321.902 L 295.07 323.047 C 312.57 336.416 313.57 363.388 313.57 363.388 L 311.87 365.255 L 311.87 365.255 L 311.87 365.255 L 311.87 365.255 L 311.87 365.255 Z " fill="rgb(0,0,0)"/></g></g></g></g></g></g><path d=" M 312.87 365.255 L 291.28 389.001 C 291.28 389.001 310.03 480.238 307.78 484.46 C 307.608 484.81 307.497 485.184 307.45 485.567 C 307.219 487.753 307.263 489.958 307.58 492.134 C 307.84 494.433 308.24 496.985 308.69 499.527 C 310.01 506.939 311.78 514.2 311.78 514.2 C 311.78 514.2 286.53 519.829 278.78 519.126 C 271.03 518.422 275.53 506.695 276.78 501.3 C 278.03 495.906 268.28 488.353 268.28 488.353 L 254.53 435.393 C 254.53 435.393 253.53 423.666 250.53 418.037 C 250.53 418.037 250.28 406.31 249.28 398.335 C 248.57 392.65 252.93 372.329 256.22 360.518 C 257.47 356.024 258.57 352.768 259.22 352.008 C 259.248 351.967 259.282 351.929 259.32 351.896 C 261.32 350.254 259.32 340.638 259.32 340.638 C 259.32 340.638 264.07 315.307 263.57 313.196 C 263.29 311.995 264.86 309.049 266.27 306.732 C 267.34 304.977 268.32 303.58 268.32 303.58 C 268.32 303.58 277.99 309.331 294.57 321.902 L 296.07 323.047 C 313.57 336.416 314.57 363.388 314.57 363.388 L 312.87 365.255 L 312.87 365.255 L 312.87 365.255 L 312.87 365.255 L 312.87 365.255 Z " fill="rgb(74,134,232)"/><g style="opacity:0.1;"><g style="opacity:0.1;"><g style="opacity:0.1;"><g style="opacity:0.1;"><g style="opacity:0.1;"><g opacity="0.1"><path d=" M 267.28 377.977 C 267.03 379.853 273.28 479.535 279.78 485.398 L 267.28 377.977 L 267.28 377.977 L 267.28 377.977 L 267.28 377.977 L 267.28 377.977 Z " fill="rgb(0,0,0)"/></g></g></g></g></g></g><path d=" M 182.99 516.593 C 175.99 520.721 170.65 509.856 166.99 497.332 C 165.28 491.449 163.99 485.201 162.99 479.966 C 162.62 478.015 162.31 476.213 162.05 474.6 C 161.36 470.416 161.05 467.676 161.05 467.676 L 168.41 466.288 L 176.55 464.758 L 177.55 473.38 L 178.02 477.292 C 178.02 477.292 179.3 479.281 181.02 482.387 C 185.85 491.468 194.05 510.129 182.99 516.593 Z " fill="rgb(198,122,133)"/><path d=" M 311.53 486.383 L 309.78 494.48 L 308.69 499.574 L 308.63 499.827 C 308.63 499.827 286.78 527.616 279.78 516.124 C 274.43 507.342 287.48 492.941 293.92 486.646 C 295.92 484.695 297.28 483.522 297.28 483.522 L 307.45 485.567 L 311.53 486.383 L 311.53 486.383 L 311.53 486.383 L 311.53 486.383 L 311.53 486.383 Z " fill="rgb(198,122,133)"/><path d=" M 251.53 722.053 C 249.15 724.277 221.03 722.053 221.03 722.053 C 221.03 722.053 220.15 715.486 221.03 714.895 C 221.56 714.154 221.959 713.336 222.21 712.475 C 223.5 709.05 225.21 703.093 225.03 701.648 C 224.78 699.659 224.91 691.685 230.65 692.266 C 230.65 692.266 238.15 677.959 246.41 695.55 L 246.41 699.772 C 245.998 702.03 246.3 704.353 247.28 706.451 C 249.06 709.713 250.5 713.128 251.58 716.649 C 252.26 719.079 252.46 721.171 251.53 722.053 Z " fill="rgb(74,134,232)"/><path d=" M 251.53 722.053 C 249.15 724.277 221.03 722.053 221.03 722.053 C 221.03 722.053 220.15 715.486 221.03 714.895 C 221.56 714.154 221.959 713.336 222.21 712.475 C 225.93 710.983 230.99 709.538 234.53 710.795 C 239 712.39 247.25 715.186 251.53 716.649 C 252.26 719.079 252.46 721.171 251.53 722.053 Z " fill="rgb(232,244,255)"/><g style="opacity:0.1;"><g style="opacity:0.1;"><g style="opacity:0.1;"><g style="opacity:0.1;"><g style="opacity:0.1;"><g opacity="0.1"><path d=" M 226.53 290.651 C 227.24 293.335 228.22 296.046 228.26 298.785 C 228.32 302.538 226.59 306.16 224.75 309.537 C 222.65 313.402 220.28 317.549 220.98 321.836 C 221.359 323.461 221.857 325.06 222.47 326.621 C 224.023 331.652 223.516 337.046 221.05 341.745 C 219.41 344.85 216.05 347.852 212.46 346.848 C 212.19 343.537 211.75 339.925 210.08 337.101 C 209.42 335.954 208.51 334.95 207.41 334.155 C 204.81 332.278 201.22 331.884 198.86 329.764 C 198.436 329.383 198.063 328.954 197.75 328.488 C 196.6 326.669 196.109 324.55 196.35 322.446 C 196.35 322.127 196.42 321.808 196.48 321.508 C 196.962 319.226 197.776 317.015 198.9 314.941 C 199.52 313.684 200.17 312.427 200.82 311.188 C 202.324 308.385 203.588 305.474 204.6 302.482 C 210.68 300.343 216.35 298.617 216.35 298.617 C 219.68 303.307 212.43 311.479 212.43 311.479 C 212.43 311.479 212.43 311.751 212.36 312.258 C 222.92 310.944 226.05 300.484 226.53 290.651 Z " fill="rgb(0,0,0)"/></g></g></g></g></g></g><g style="opacity:0.1;"><g style="opacity:0.1;"><g style="opacity:0.1;"><g style="opacity:0.1;"><g style="opacity:0.1;"><g opacity="0.1"><path d=" M 241.51 255.357 C 238.59 256.23 235.8 257.975 234.51 260.602 C 233.13 263.51 233.84 266.869 233.51 270.04 C 233.435 270.735 233.294 271.423 233.09 272.094 C 231.85 275.988 227.96 278.737 226.43 282.489 C 226.32 282.771 226.22 283.052 226.13 283.352 C 225.726 284.83 225.655 286.37 225.92 287.874 C 218.597 279.877 217.388 268.436 222.895 259.245 C 228.402 250.055 239.449 245.077 250.538 246.789 C 261.626 248.502 270.389 256.538 272.466 266.901 C 274.542 277.262 269.489 287.736 259.82 293.11 C 260.95 289.948 262.14 286.796 263.06 283.568 C 265.22 275.978 265.59 267.206 260.5 260.968 C 255.979 255.642 248.467 253.424 241.51 255.357 Z " fill="rgb(0,0,0)"/></g></g></g></g></g></g><g style="opacity:0.1;"><g style="opacity:0.1;"><g style="opacity:0.1;"><g style="opacity:0.1;"><g style="opacity:0.1;"><g opacity="0.1"><path d=" M 293.75 331.321 C 292.87 334.314 290.63 337.598 287.33 337.457 C 285.76 337.391 284.33 336.519 282.76 336.378 C 280.53 336.191 278.42 337.542 277.08 339.193 C 275.864 340.965 274.807 342.829 273.92 344.766 C 271.46 349.25 266.64 353.284 261.32 352.581 L 260.77 352.487 C 260.225 352.384 259.692 352.231 259.18 352.027 C 254.41 350.151 251.83 344.39 252 339.296 C 252.2 333.489 254.79 327.991 255.64 322.231 C 256.43 316.92 255.71 311.507 256.32 306.178 C 256.528 304.42 256.862 302.678 257.32 300.962 C 260.25 306.244 264.32 306.816 266.23 306.751 C 267.3 304.996 268.28 303.598 268.28 303.598 C 268.28 303.598 277.95 309.349 294.53 321.921 C 294.906 325.072 294.641 328.262 293.75 331.321 Z " fill="rgb(0,0,0)"/></g></g></g></g></g></g><path d=" M 256.05 227.475 C 261.24 229.229 265.61 232.804 270.93 234.164 C 272.678 234.487 274.405 234.907 276.1 235.421 C 282.1 237.682 284.28 244.474 285.43 250.432 C 287.5 261.183 288.99 272.779 296.63 281.026 C 297.99 282.489 299.57 283.897 300.2 285.717 C 300.83 287.537 299.98 290.051 297.95 290.454 C 301.43 291.834 303.14 295.868 302.41 299.348 C 301.68 302.829 298.97 305.7 295.78 307.614 C 294.29 308.552 292.49 309.49 292.29 311.141 C 292.278 312.027 292.494 312.902 292.92 313.693 C 294.981 318.71 295.279 324.212 293.77 329.398 C 292.89 332.382 290.65 335.675 287.35 335.534 C 285.78 335.468 284.35 334.596 282.79 334.455 C 280.55 334.267 278.45 335.618 277.1 337.269 C 275.882 339.041 274.825 340.905 273.94 342.842 C 271.49 347.327 266.67 351.361 261.34 350.657 C 255.21 349.841 251.83 343.152 252.02 337.373 C 252.21 331.594 254.82 326.068 255.67 320.307 C 256.45 314.997 255.73 309.584 256.35 304.255 C 257.25 296.449 260.96 289.197 263.12 281.617 C 265.28 274.036 265.64 265.255 260.55 259.016 C 256.034 253.679 248.514 251.451 241.55 253.387 C 238.62 254.26 235.84 256.005 234.55 258.632 C 232.87 262.178 234.3 266.4 233.12 270.124 C 231.79 274.308 227.39 277.179 226.12 281.382 C 224.64 286.439 228.12 291.58 228.22 296.815 C 228.28 300.568 226.55 304.189 224.72 307.567 C 222.61 311.432 220.24 315.579 220.95 319.866 C 221.325 321.491 221.82 323.09 222.43 324.651 C 224.016 329.707 223.524 335.137 221.05 339.868 C 219.41 342.974 215.99 345.976 212.46 344.972 C 212.07 340.328 211.37 335.093 207.41 332.278 C 204.8 330.402 201.21 330.008 198.85 327.878 C 196.884 325.908 195.957 323.218 196.32 320.542 C 196.696 317.902 197.559 315.342 198.87 312.98 C 201.74 307.163 205.23 301.365 205.63 294.967 C 206.23 285.313 199.63 275.8 202.03 266.381 C 204.03 258.5 211.79 252.974 214.73 245.356 C 216.3 241.266 216.55 236.472 219.73 233.329 C 224.33 228.816 231.36 230.345 237.18 228.985 C 239.88 228.347 242.18 227.034 245.02 226.593 C 248.716 225.985 252.517 226.289 256.05 227.475 Z " fill="rgb(70,70,70)"/><g style="opacity:0.1;"><g style="opacity:0.1;"><g style="opacity:0.1;"><g style="opacity:0.1;"><g style="opacity:0.1;"><g opacity="0.1"><path d=" M 185.05 427.682 C 185.05 427.682 185.05 448.791 185.05 458.172 C 185.05 459.429 185.05 460.734 184.97 462.047 C 184.63 470.491 183.26 479.281 183.26 479.281 C 181.66 477.071 179.734 475.084 177.54 473.38 C 172.75 469.843 168.67 470.294 165.6 471.907 C 164.274 472.629 163.073 473.537 162.04 474.6 C 161.35 470.416 161.04 467.676 161.04 467.676 L 168.4 466.288 C 169.315 464.836 170.802 463.782 172.54 463.351 C 179.04 462.178 182.29 404.246 182.29 404.246 L 162.29 363.304 L 162.29 361.306 L 169.05 351.22 C 180.3 342.073 183.05 355.207 183.05 355.207 C 183.05 355.207 185.05 390.858 185.05 391.796 C 185.05 392.734 185.05 427.682 185.05 427.682 Z " fill="rgb(0,0,0)"/></g></g></g></g></g></g><path d=" M 183.05 425.589 C 183.05 425.589 183.05 446.698 183.05 456.08 C 183.05 457.337 183.05 458.641 182.97 459.955 C 182.63 468.398 181.26 477.189 181.26 477.189 C 167.26 458.66 157.38 475.876 157.38 475.876 L 154.26 468.042 C 153.066 467.081 152.052 465.939 151.26 464.665 C 145.17 455.208 148.9 438.724 148.9 438.724 C 151.03 412.924 160.27 383.841 160.27 383.841 L 160.27 359.213 L 167.05 349.128 C 178.3 339.981 183.05 353.115 183.05 353.115 C 183.05 353.115 183.05 388.766 183.05 389.704 C 183.05 390.642 183.05 425.589 183.05 425.589 Z " fill="rgb(74,134,232)"/><g style="opacity:0.1;"><g style="opacity:0.1;"><g style="opacity:0.1;"><g style="opacity:0.1;"><g style="opacity:0.1;"><g opacity="0.1"><path d=" M 182.99 459.017 C 182.65 467.46 181.28 476.251 181.28 476.251 C 167.28 457.722 157.4 474.938 157.4 474.938 L 154.28 467.104 C 153.086 466.143 152.072 465.001 151.28 463.726 C 157.8 460.358 172.17 454.148 182.99 459.017 Z " fill="rgb(0,0,0)"/></g></g></g></g></g></g><path d=" M 182.99 459.955 C 182.65 468.398 181.28 477.189 181.28 477.189 C 167.28 458.66 157.4 475.876 157.4 475.876 L 154.28 468.042 C 153.086 467.081 152.072 465.939 151.28 464.665 C 157.8 461.296 172.17 455.086 182.99 459.955 Z " fill="rgb(255,255,255)"/><g style="opacity:0.1;"><g style="opacity:0.1;"><g style="opacity:0.1;"><g style="opacity:0.1;"><g style="opacity:0.1;"><g opacity="0.1"><path d=" M 164.05 396.506 C 164.05 396.506 168.55 419.726 173.05 426.528 C 177.55 433.329 164.05 396.506 164.05 396.506 Z " fill="rgb(0,0,0)"/></g></g></g></g></g></g><g style="opacity:0.1;"><g style="opacity:0.1;"><g style="opacity:0.1;"><g style="opacity:0.1;"><g style="opacity:0.1;"><g opacity="0.1"><path d=" M 152.53 435.909 C 152.53 435.909 155.28 449.982 161.03 451.624 C 166.78 453.266 152.53 435.909 152.53 435.909 Z " fill="rgb(0,0,0)"/></g></g></g></g></g></g><g style="opacity:0.1;"><g style="opacity:0.1;"><g style="opacity:0.1;"><g style="opacity:0.1;"><g style="opacity:0.1;"><g opacity="0.1"><path d=" M 307.45 485.567 L 311.53 486.383 L 309.78 494.48 C 309.116 493.658 308.38 492.889 307.58 492.181 C 303.876 488.867 299.031 486.904 293.92 486.646 C 291.698 486.512 289.466 486.644 287.28 487.04 C 288.232 483.853 288.861 480.59 289.16 477.292 C 289.338 476.053 289.119 474.793 288.53 473.671 C 286.53 471.091 285.53 447.168 285.53 447.168 C 285.53 447.168 287.28 434.971 288.28 432.626 C 289.28 430.28 283.78 418.29 284.03 414.669 C 284.28 411.048 287.28 379.853 287.28 378.212 C 287.28 376.57 293.78 344.437 307.28 356.633 L 312.53 363.435 L 312.87 365.255 L 291.28 389.001 C 291.28 389.001 310.03 480.238 307.78 484.46 C 307.608 484.81 307.497 485.184 307.45 485.567 Z " fill="rgb(0,0,0)"/></g></g></g></g></g></g><path d=" M 330.05 465.227 C 325.97 469.055 317.48 481.683 315.15 485.192 L 314.55 486.13 L 312.55 495.512 C 312.55 495.512 305.55 484.254 289.3 487.068 C 290.252 483.881 290.881 480.618 291.18 477.321 C 291.358 476.081 291.139 474.821 290.55 473.699 C 288.55 471.119 287.55 447.196 287.55 447.196 C 287.55 447.196 289.3 434.999 290.3 432.654 C 291.3 430.308 285.8 418.319 286.05 414.697 C 286.3 411.076 289.3 379.881 289.3 378.24 C 289.3 376.598 295.8 344.465 309.3 356.662 L 314.55 363.463 L 318.55 384.807 L 326.3 421.865 C 326.3 421.865 328.3 436.407 330.05 438.518 C 331.8 440.628 334.78 460.771 330.05 465.227 Z " fill="rgb(74,134,232)"/><g style="opacity:0.1;"><g style="opacity:0.1;"><g style="opacity:0.1;"><g style="opacity:0.1;"><g style="opacity:0.1;"><g opacity="0.1"><path d=" M 315.13 484.254 L 314.53 485.192 L 312.53 494.574 C 312.53 494.574 305.53 483.315 289.28 486.13 C 290.232 482.943 290.861 479.68 291.16 476.382 C 296.73 476.711 307.95 478.184 315.13 484.254 Z " fill="rgb(0,0,0)"/></g></g></g></g></g></g><path d=" M 315.13 485.192 L 314.53 486.13 L 312.53 495.512 C 312.53 495.512 305.53 484.254 289.28 487.068 C 290.232 483.881 290.861 480.618 291.16 477.321 C 296.73 477.649 307.95 479.122 315.13 485.192 Z " fill="rgb(255,255,255)"/><g style="opacity:0.1;"><g style="opacity:0.1;"><g style="opacity:0.1;"><g style="opacity:0.1;"><g style="opacity:0.1;"><g opacity="0.1"><path d=" M 298.78 419.257 C 298.78 419.257 315.78 419.06 318.28 427.363 C 320.78 435.665 298.78 419.257 298.78 419.257 Z " fill="rgb(0,0,0)"/></g></g></g></g></g></g><g style="opacity:0.1;"><g style="opacity:0.1;"><g style="opacity:0.1;"><g style="opacity:0.1;"><g style="opacity:0.1;"><g opacity="0.1"><path d=" M 295.53 442.711 C 295.53 442.711 324.28 441.538 323.03 453.266 C 321.78 464.993 295.53 442.711 295.53 442.711 Z " fill="rgb(0,0,0)"/></g></g></g></g></g></g><g style="opacity:0.1;"><g style="opacity:0.1;"><g style="opacity:0.1;"><g style="opacity:0.1;"><g style="opacity:0.1;"><g opacity="0.1"><path d=" M 297.28 460.771 C 297.28 460.771 299.53 460.302 301.03 465.227 C 302.53 470.153 297.28 460.771 297.28 460.771 Z " fill="rgb(0,0,0)"/></g></g></g></g></g></g><g style="opacity:0.1;"><g style="opacity:0.1;"><g style="opacity:0.1;"><g style="opacity:0.1;"><g style="opacity:0.1;"><g opacity="0.1"><path d=" M 239.05 575.463 C 239.05 575.463 245.9 573.587 249.05 575.463 C 252.2 577.34 239.05 575.463 239.05 575.463 Z " fill="rgb(0,0,0)"/></g></g></g></g></g></g><g style="opacity:0.1;"><g style="opacity:0.1;"><g style="opacity:0.1;"><g style="opacity:0.1;"><g style="opacity:0.1;"><g opacity="0.1"><path d=" M 240.28 582.265 C 240.28 582.265 256.53 582.5 258.03 584.141 C 259.53 585.783 240.28 582.265 240.28 582.265 Z " fill="rgb(0,0,0)"/></g></g></g></g></g></g><g style="opacity:0.1;"><g style="opacity:0.1;"><g style="opacity:0.1;"><g style="opacity:0.1;"><g style="opacity:0.1;"><g style="opacity:0.1;"><g opacity="0.1"><path d=" M 205.67 292.153 C 206.15 284.478 202.12 276.907 201.62 269.392 C 201.1 276.973 205.2 284.61 205.62 292.34 C 205.641 292.279 205.658 292.216 205.67 292.153 L 205.67 292.153 L 205.67 292.153 L 205.67 292.153 L 205.67 292.153 L 205.67 292.153 Z " fill="rgb(0,0,0)"/></g></g></g></g></g></g><g style="opacity:0.1;"><g style="opacity:0.1;"><g style="opacity:0.1;"><g style="opacity:0.1;"><g style="opacity:0.1;"><g opacity="0.1"><path d=" M 224.76 304.837 C 222.68 308.646 220.36 312.717 220.96 316.949 C 221.39 313.731 223.15 310.616 224.76 307.661 C 226.59 304.283 228.32 300.699 228.27 296.909 Q 228.27 296.29 228.18 295.671 C 227.83 298.879 226.33 301.938 224.76 304.837 Z " fill="rgb(0,0,0)"/></g></g></g></g></g></g><g style="opacity:0.1;"><g style="opacity:0.1;"><g style="opacity:0.1;"><g style="opacity:0.1;"><g style="opacity:0.1;"><g opacity="0.1"><path d=" M 297.93 287.677 C 298.672 287.972 299.35 288.391 299.93 288.916 C 300.429 287.932 300.522 286.809 300.19 285.764 C 300.19 285.764 300.19 285.679 300.14 285.632 C 299.852 286.639 299.007 287.421 297.93 287.677 L 297.93 287.677 L 297.93 287.677 L 297.93 287.677 L 297.93 287.677 L 297.93 287.677 Z " fill="rgb(0,0,0)"/></g></g></g></g></g></g><g style="opacity:0.1;"><g style="opacity:0.1;"><g style="opacity:0.1;"><g style="opacity:0.1;"><g style="opacity:0.1;"><g opacity="0.1"><path d=" M 221.05 337.044 C 219.41 340.15 215.99 343.152 212.46 342.148 C 212.07 337.504 211.37 332.269 207.41 329.454 C 204.8 327.578 201.21 327.184 198.86 325.064 C 197.452 323.72 196.577 321.966 196.38 320.091 C 196.38 320.242 196.33 320.392 196.32 320.542 C 195.955 323.22 196.887 325.912 198.86 327.878 C 201.21 330.008 204.8 330.43 207.41 332.278 C 211.41 335.093 212.07 340.328 212.46 344.972 C 215.99 345.976 219.41 342.974 221.05 339.868 C 222.76 336.572 223.521 332.914 223.26 329.257 C 223.071 331.963 222.32 334.609 221.05 337.044 Z " fill="rgb(0,0,0)"/></g></g></g></g></g></g><g style="opacity:0.1;"><g style="opacity:0.1;"><g style="opacity:0.1;"><g style="opacity:0.1;"><g style="opacity:0.1;"><g opacity="0.1"><path d=" M 302.39 296.571 C 301.66 300.043 298.95 302.923 295.77 304.837 C 294.27 305.775 292.47 306.713 292.27 308.364 C 292.224 309.006 292.341 309.649 292.61 310.241 C 293.429 309.164 294.513 308.288 295.77 307.689 C 298.95 305.812 301.66 302.895 302.39 299.423 C 302.585 298.415 302.585 297.383 302.39 296.374 C 302.394 296.44 302.394 296.506 302.39 296.571 Z " fill="rgb(0,0,0)"/></g></g></g></g></g></g><g style="opacity:0.1;"><g style="opacity:0.1;"><g style="opacity:0.1;"><g style="opacity:0.1;"><g style="opacity:0.1;"><g opacity="0.1"><path d=" M 293.75 326.621 C 292.87 329.605 290.64 332.898 287.33 332.757 C 285.76 332.691 284.33 331.819 282.77 331.678 C 280.53 331.49 278.43 332.841 277.08 334.492 C 275.864 336.263 274.81 338.127 273.93 340.065 C 271.47 344.55 266.65 348.584 261.33 347.88 C 256.01 347.177 252.6 341.801 252.08 336.538 C 252.08 336.829 252.01 337.119 252.01 337.42 C 251.81 343.227 255.19 349.888 261.33 350.704 C 266.65 351.408 271.47 347.374 273.93 342.889 C 274.808 340.95 275.862 339.086 277.08 337.316 C 278.43 335.637 280.53 334.286 282.77 334.502 C 284.33 334.643 285.77 335.515 287.33 335.581 C 290.64 335.721 292.87 332.428 293.75 329.445 C 294.524 326.802 294.825 324.056 294.64 321.32 C 294.549 323.112 294.25 324.889 293.75 326.621 L 293.75 326.621 L 293.75 326.621 L 293.75 326.621 L 293.75 326.621 L 293.75 326.621 Z " fill="rgb(0,0,0)"/></g></g></g></g></g></g><g style="opacity:0.1;"><g style="opacity:0.1;"><g style="opacity:0.1;"><g style="opacity:0.1;"><g style="opacity:0.1;"><g opacity="0.1"><path d=" M 260.53 259.091 C 263.065 262.369 264.462 266.3 264.53 270.349 C 264.79 265.246 263.77 260.217 260.53 256.22 C 256.014 250.883 248.494 248.655 241.53 250.591 C 238.6 251.464 235.82 253.209 234.53 255.836 C 232.84 259.382 234.27 263.613 233.09 267.328 C 231.76 271.513 227.36 274.384 226.09 278.587 C 225.72 279.934 225.632 281.335 225.83 282.715 C 225.884 282.275 225.971 281.839 226.09 281.41 C 227.32 277.207 231.72 274.337 233.09 270.152 C 234.27 266.4 232.84 262.206 234.53 258.66 C 235.78 256.033 238.53 254.288 241.53 253.415 C 248.505 251.489 256.027 253.736 260.53 259.091 L 260.53 259.091 L 260.53 259.091 L 260.53 259.091 L 260.53 259.091 L 260.53 259.091 Z " fill="rgb(0,0,0)"/></g></g></g></g></g></g></g><g style="opacity:0.8;"><g style="opacity:0.8;"><g style="opacity:0.8;"><g style="opacity:0.8;"><g style="opacity:0.8;"><g style="opacity:0.8;"><g opacity="0.8"><ellipse vector-effect="non-scaling-stroke" cx="633.0099122807017" cy="482.4336598826263" rx="145.3499122807018" ry="136.36390845239072" fill="rgb(23,105,255)"/></g></g></g></g></g></g><g style="opacity:0.8;"><g style="opacity:0.8;"><g style="opacity:0.8;"><g style="opacity:0.8;"><g style="opacity:0.8;"><g opacity="0.8"><path d=" M 589.729 420.063 C 596.203 420.013 602.664 420.601 609.007 421.819 C 614.332 422.794 619.403 424.739 623.928 427.548 C 628.075 430.226 631.397 433.882 633.557 438.148 C 636.014 443.282 637.19 448.871 636.997 454.496 C 637.227 460.676 635.452 466.776 631.908 471.99 C 628.075 476.993 622.89 480.95 616.885 483.449 C 625.09 485.356 632.305 489.94 637.241 496.378 C 645.286 508.612 646.184 523.837 639.623 536.827 C 636.846 541.824 632.832 546.119 627.918 549.356 C 622.823 552.677 617.135 555.116 611.124 556.556 C 604.803 558.102 598.297 558.886 591.765 558.886 L 520.11 558.886 L 520.11 420.063 L 589.729 420.063 L 589.729 420.063 L 589.729 420.063 L 589.729 420.063 Z  M 585.658 476.248 C 590.723 476.455 595.722 475.114 599.907 472.429 Q 605.526 468.61 605.506 459.786 C 605.617 457.025 604.972 454.284 603.633 451.822 C 602.462 449.817 600.75 448.137 598.666 446.953 C 596.459 445.745 594.039 444.924 591.521 444.527 C 588.744 444.074 585.931 443.851 583.113 443.859 L 552.579 443.859 L 552.579 476.325 L 585.658 476.248 L 585.658 476.248 L 585.658 476.248 L 585.658 476.248 Z  M 587.531 535.147 C 590.594 535.16 593.652 534.866 596.65 534.268 C 599.372 533.758 601.97 532.775 604.304 531.365 C 606.546 529.975 608.37 528.069 609.597 525.827 C 611.034 523.039 611.733 519.965 611.633 516.87 C 611.633 509.765 609.495 504.666 605.2 501.592 C 600.231 498.341 594.252 496.73 588.202 497.008 L 552.782 497.008 L 552.782 535.204 L 587.531 535.147 L 587.531 535.147 L 587.531 535.147 L 587.531 535.147 Z  M 685.038 532.224 Q 691.675 538.26 704.092 538.26 C 709.568 538.386 714.948 536.904 719.482 534.02 C 723.105 532.001 725.886 528.881 727.359 525.178 L 753.253 525.178 Q 747.024 543.263 734.179 551.036 C 724.821 556.443 713.979 559.159 702.993 558.847 C 695.21 558.945 687.479 557.648 680.214 555.028 C 673.702 552.664 667.829 548.979 663.013 544.238 C 658.208 539.421 654.504 533.733 652.122 527.527 C 649.506 520.665 648.211 513.422 648.295 506.137 C 648.224 498.968 649.555 491.848 652.224 485.129 C 657.187 472.504 667.505 462.373 680.723 457.151 C 687.772 454.357 695.361 452.965 703.013 453.064 C 711.27 452.884 719.451 454.588 726.851 458.029 C 733.442 461.207 739.15 465.785 743.523 471.398 C 747.954 477.129 751.156 483.617 752.948 490.495 C 754.886 497.803 755.572 505.35 754.983 512.86 L 677.629 512.86 C 678.036 521.759 680.458 528.252 684.875 532.244 L 685.038 532.224 L 685.038 532.224 L 685.038 532.224 L 685.038 532.224 Z  M 718.301 479.362 Q 713.008 473.919 702.24 473.919 C 698.205 473.785 694.193 474.551 690.535 476.153 C 687.648 477.465 685.106 479.355 683.084 481.691 C 681.293 483.756 679.951 486.132 679.135 488.682 C 678.445 490.834 677.995 493.049 677.791 495.289 L 725.588 495.289 Q 723.553 484.804 718.219 479.362 L 718.301 479.362 L 718.301 479.362 L 718.301 479.362 L 718.301 479.362 Z  M 672.662 427.071 L 732.449 427.071 L 732.449 442.636 L 672.662 442.636 L 672.662 427.071 L 672.662 427.071 L 672.662 427.071 L 672.662 427.071 Z " fill="rgb(255,255,255)"/></g></g></g></g></g></g></g><g style="opacity:0.8;"><g style="opacity:0.8;"><g style="opacity:0.8;"><g style="opacity:0.8;"><g style="opacity:0.8;"><g style="opacity:0.8;"><g opacity="0.8"><path d=" M 930.28 587.622 C 930.28 588.326 930.28 589.039 930.28 589.752 C 929.15 626.976 899.173 657.828 859.77 662.32 C 856.568 662.678 853.345 662.856 850.12 662.854 C 817.681 662.854 788.437 644.521 776.024 616.404 C 763.611 588.287 770.474 555.924 793.414 534.406 C 816.353 512.887 850.85 506.452 880.818 518.101 C 910.787 529.75 930.324 557.188 930.32 587.622 L 930.28 587.622 L 930.28 587.622 L 930.28 587.622 L 930.28 587.622 Z " fill="rgb(179,187,198)"/></g></g></g></g></g></g><g style="opacity:0.8;"><g style="opacity:0.8;"><g style="opacity:0.8;"><g style="opacity:0.8;"><g style="opacity:0.8;"><g opacity="0.8"><path d=" M 930.24 589.752 C 929.11 626.976 899.133 657.828 859.73 662.32 L 794.25 616.621 L 802.43 566.898 L 834.81 568.774 L 853.23 583.259 L 866.33 563.229 L 888.33 580.379 L 900.16 588.326 L 900.16 563.248 L 929.98 589.142 C 930.05 589.348 930.16 589.545 930.24 589.752 Z " fill="rgb(102,108,118)"/></g></g></g></g></g></g><g style="opacity:0.8;"><g style="opacity:0.8;"><g style="opacity:0.8;"><g style="opacity:0.8;"><g style="opacity:0.8;"><g opacity="0.8"><path d=" M 794.25 616.63 L 794.25 616.63 L 794.25 616.63 L 794.25 616.63 L 794.25 616.63 L 794.25 616.63 L 794.25 616.63 L 794.25 616.63 L 794.25 616.63 Z " fill="rgb(102,108,118)"/></g></g></g></g></g></g><g style="opacity:0.8;"><g style="opacity:0.8;"><g style="opacity:0.8;"><g style="opacity:0.8;"><g style="opacity:0.8;"><g opacity="0.8"><path d=" M 844.34 589.47 C 844.34 573.521 833.89 562.713 813.99 562.713 L 794.34 562.713 L 794.34 616.396 L 814.4 616.396 C 833.72 616.396 844.34 605.419 844.34 589.47 Z  M 830.07 589.555 C 830.07 601.066 823.77 606.048 813.66 606.048 L 808.51 606.048 L 808.51 573.061 L 813.66 573.061 C 823.36 573.061 830.07 578.268 830.07 589.555 Z  M 900.81 616.396 L 900.81 562.713 L 887.62 562.713 L 887.62 592.735 L 866.56 562.713 L 852.79 562.713 L 852.79 616.386 L 865.98 616.386 L 865.98 584.263 L 888.53 616.386 L 900.81 616.386 L 900.81 616.396 L 900.81 616.396 L 900.81 616.396 L 900.81 616.396 Z " fill="rgb(255,255,255)"/></g></g></g></g></g></g></g><g style="opacity:0.1;"><g style="opacity:0.1;"><g style="opacity:0.1;"><g style="opacity:0.1;"><g style="opacity:0.1;"><g opacity="0.1"><path d=" M 639.94 418.609 C 639.94 418.609 636.44 424.238 639.94 426.818 C 643.44 429.398 639.94 418.609 639.94 418.609 Z " fill="rgb(0,0,0)"/></g></g></g></g></g></g><g style="opacity:0.1;"><g style="opacity:0.1;"><g style="opacity:0.1;"><g style="opacity:0.1;"><g style="opacity:0.1;"><g opacity="0.1"><path d=" M 827.94 440.422 C 828.94 442.298 831.6 445.113 831.14 448.397 C 830.68 451.68 827.94 440.422 827.94 440.422 Z " fill="rgb(0,0,0)"/></g></g></g></g></g></g><g style="opacity:0.1;"><g style="opacity:0.1;"><g style="opacity:0.1;"><g style="opacity:0.1;"><g style="opacity:0.1;"><g opacity="0.1"><path d=" M 715.53 105.493 C 715.53 105.493 725.92 112.06 726.14 122.38 L 715.53 105.493 L 715.53 105.493 L 715.53 105.493 L 715.53 105.493 L 715.53 105.493 Z " fill="rgb(0,0,0)"/></g></g></g></g></g></g><g style="opacity:0.1;"><g style="opacity:0.1;"><g style="opacity:0.1;"><g style="opacity:0.1;"><g style="opacity:0.1;"><g opacity="0.1"><path d=" M 662.44 370.528 C 662.44 370.528 652.94 375.219 657.94 376.157 C 662.94 377.095 662.44 370.528 662.44 370.528 Z " fill="rgb(0,0,0)"/></g></g></g></g></g></g><g style="opacity:0.1;"><g style="opacity:0.1;"><g style="opacity:0.1;"><g style="opacity:0.1;"><g style="opacity:0.1;"><g opacity="0.1"><path d=" M 818.94 381.786 C 818.94 381.786 824.19 375.219 829.94 379.206 C 835.69 383.193 818.94 381.786 818.94 381.786 Z " fill="rgb(0,0,0)"/></g></g></g></g></g></g><g style="opacity:0.1;"><g style="opacity:0.1;"><g style="opacity:0.1;"><g style="opacity:0.1;"><g style="opacity:0.1;"><g opacity="0.1"><path d=" M 831.14 386.008 C 831.14 386.008 837.69 383.897 841.69 386.008 L 831.14 386.008 L 831.14 386.008 L 831.14 386.008 L 831.14 386.008 L 831.14 386.008 Z " fill="rgb(0,0,0)"/></g></g></g></g></g></g><g style="opacity:0.1;"><g style="opacity:0.1;"><g style="opacity:0.1;"><g style="opacity:0.1;"><g style="opacity:0.1;"><g opacity="0.1"><path d=" M 701.69 279.525 C 701.69 279.525 715.69 292.19 720.19 292.659 C 724.69 293.128 701.69 279.525 701.69 279.525 Z " fill="rgb(0,0,0)"/></g></g></g></g></g></g><g style="opacity:0.1;"><g style="opacity:0.1;"><g style="opacity:0.1;"><g style="opacity:0.1;"><g style="opacity:0.1;"><g opacity="0.1"><path d=" M 777.86 246.154 C 777.86 246.154 778.86 248.265 783.36 249.034 C 787.86 249.803 777.86 246.154 777.86 246.154 Z " fill="rgb(0,0,0)"/></g></g></g></g></g></g><g style="opacity:0.1;"><g style="opacity:0.1;"><g style="opacity:0.1;"><g style="opacity:0.1;"><g style="opacity:0.1;"><g opacity="0.1"><path d=" M 814.86 192.893 C 814.86 192.893 823.36 200.718 821.69 204.471 C 820.02 208.223 814.86 192.893 814.86 192.893 Z " fill="rgb(0,0,0)"/></g></g></g></g></g></g><path d=" M 553.75 13.334 L 553.75 226.646 C 553.739 227.553 554.118 228.427 554.805 229.065 C 555.49 229.705 556.423 230.057 557.39 230.041 C 620.006 228.211 672.223 179.65 672.223 119.99 C 672.223 60.33 620.049 11.748 557.39 9.939 C 556.421 9.916 555.485 10.266 554.798 10.907 C 554.109 11.549 553.732 12.425 553.75 13.334 Z " fill="rgb(97,190,236)"/><path d=" M 397.382 304.641 L 397.382 128.1 C 397.159 99.868 406.8 72.343 424.834 49.739 C 441.885 28.721 468.427 9.695 508.553 9.939 C 509.645 9.933 510.694 10.336 511.47 11.055 C 512.247 11.777 512.685 12.756 512.692 13.781 L 512.692 195.504 C 512.692 195.504 519.192 294.823 399.679 306.572 C 399.1 306.604 398.533 306.419 398.099 306.057 C 397.668 305.694 397.41 305.184 397.382 304.641 L 397.382 304.641 L 397.382 304.641 L 397.382 304.641 L 397.382 304.641 Z " fill="rgb(64,100,172)"/><g style="opacity:0.1;"><g style="opacity:0.1;"><g style="opacity:0.1;"><g style="opacity:0.1;"><g style="opacity:0.1;"><g opacity="0.1"><path d=" M 360.77 632.739 C 362.14 634.231 363.05 635.394 363.05 635.394 L 360.3 642.899 C 360.3 642.899 358.77 641.886 356.84 640.291 C 357.271 637.874 358.336 635.594 359.94 633.658 C 360.21 633.358 360.5 633.03 360.77 632.739 Z " fill="rgb(0,0,0)"/></g></g></g></g></g></g><g style="opacity:0.1;"><g style="opacity:0.1;"><g style="opacity:0.1;"><g style="opacity:0.1;"><g style="opacity:0.1;"><g opacity="0.1"><path d=" M 400.55 633.921 C 401.543 632.957 402.892 632.386 404.32 632.326 C 404.24 634.812 403.98 636.792 403.98 636.792 C 402.769 635.909 401.623 634.949 400.55 633.921 L 400.55 633.921 L 400.55 633.921 L 400.55 633.921 L 400.55 633.921 L 400.55 633.921 Z " fill="rgb(0,0,0)"/></g></g></g></g></g></g><g style="opacity:0.1;"><g style="opacity:0.1;"><g style="opacity:0.1;"><g style="opacity:0.1;"><g style="opacity:0.1;"><g opacity="0.1"><path d=" M 380.89 655.621 C 381.89 658.848 382.38 661.062 382.38 661.062 L 375.53 663.877 C 375.53 663.877 374.04 663.201 371.89 661.954 C 374.57 658.773 377.59 656.362 380.89 655.621 Z " fill="rgb(0,0,0)"/></g></g></g></g></g></g><g style="opacity:0.1;"><g style="opacity:0.1;"><g style="opacity:0.1;"><g style="opacity:0.1;"><g style="opacity:0.1;"><g opacity="0.1"><path d=" M 396.37 668.54 L 395.22 668.727 C 372.29 672.002 387.66 660.387 387.66 660.387 C 387.66 660.387 388.66 659.449 390.09 658.042 C 394.37 661.259 396.14 664.881 396.37 668.54 Z " fill="rgb(0,0,0)"/></g></g></g></g></g></g><g style="opacity:0.1;"><g style="opacity:0.1;"><g style="opacity:0.1;"><g style="opacity:0.1;"><g style="opacity:0.1;"><g opacity="0.1"><ellipse vector-effect="non-scaling-stroke" cx="365.58" cy="641.8204258029944" rx="1.4399999999999977" ry="1.3509745213483484" fill="rgb(0,0,0)"/></g></g></g></g></g></g><g style="opacity:0.1;"><g style="opacity:0.1;"><g style="opacity:0.1;"><g style="opacity:0.1;"><g style="opacity:0.1;"><g opacity="0.1"><ellipse vector-effect="non-scaling-stroke" cx="365.46" cy="648.1249735692866" rx="1.4399999999999977" ry="1.3509745213483484" fill="rgb(0,0,0)"/></g></g></g></g></g></g><g style="opacity:0.1;"><g style="opacity:0.1;"><g style="opacity:0.1;"><g style="opacity:0.1;"><g style="opacity:0.1;"><g opacity="0.1"><ellipse vector-effect="non-scaling-stroke" cx="407.22" cy="643.0588191142306" rx="1.4399999999999977" ry="1.3509745213483484" fill="rgb(0,0,0)"/></g></g></g></g></g></g><g style="opacity:0.1;"><g style="opacity:0.1;"><g style="opacity:0.1;"><g style="opacity:0.1;"><g style="opacity:0.1;"><g opacity="0.1"><ellipse vector-effect="non-scaling-stroke" cx="373.62" cy="675.3790081839873" rx="1.4399999999999977" ry="1.3509745213483484" fill="rgb(0,0,0)"/></g></g></g></g></g></g><g style="opacity:0.1;"><g style="opacity:0.1;"><g style="opacity:0.1;"><g style="opacity:0.1;"><g style="opacity:0.1;"><g opacity="0.1"><ellipse vector-effect="non-scaling-stroke" cx="404.22" cy="653.52887165468" rx="1.4399999999999977" ry="1.3509745213483484" fill="rgb(0,0,0)"/></g></g></g></g></g></g><g style="opacity:0.1;"><g style="opacity:0.1;"><g style="opacity:0.1;"><g style="opacity:0.1;"><g style="opacity:0.1;"><g opacity="0.1"><ellipse vector-effect="non-scaling-stroke" cx="389.34" cy="667.4983234761223" rx="1.4399999999999977" ry="1.3509745213483484" fill="rgb(0,0,0)"/></g></g></g></g></g></g><g style="opacity:0.1;"><g style="opacity:0.1;"><g style="opacity:0.1;"><g style="opacity:0.1;"><g style="opacity:0.1;"><g opacity="0.1"><ellipse vector-effect="non-scaling-stroke" cx="370.5" cy="644.5223748456913" rx="1.4399999999999977" ry="1.3509745213483484" fill="rgb(0,0,0)"/></g></g></g></g></g></g><g style="opacity:0.1;"><g style="opacity:0.1;"><g style="opacity:0.1;"><g style="opacity:0.1;"><g style="opacity:0.1;"><g opacity="0.1"><ellipse vector-effect="non-scaling-stroke" cx="403.26" cy="647.1117426782755" rx="1.4399999999999977" ry="1.3509745213483484" fill="rgb(0,0,0)"/></g></g></g></g></g></g><g style="opacity:0.1;"><g style="opacity:0.1;"><g style="opacity:0.1;"><g style="opacity:0.1;"><g style="opacity:0.1;"><g opacity="0.1"><ellipse vector-effect="non-scaling-stroke" cx="398.34" cy="657.5817952187249" rx="1.4399999999999977" ry="1.3509745213483484" fill="rgb(0,0,0)"/></g></g></g></g></g></g><g style="opacity:0.1;"><g style="opacity:0.1;"><g style="opacity:0.1;"><g style="opacity:0.1;"><g style="opacity:0.1;"><g opacity="0.1"><ellipse vector-effect="non-scaling-stroke" cx="383.22" cy="674.365777292976" rx="1.4399999999999977" ry="1.3509745213483484" fill="rgb(0,0,0)"/></g></g></g></g></g></g><g style="opacity:0.1;"><g style="opacity:0.1;"><g style="opacity:0.1;"><g style="opacity:0.1;"><g style="opacity:0.1;"><g opacity="0.1"><ellipse vector-effect="non-scaling-stroke" cx="380.1" cy="667.723485896347" rx="1.4399999999999977" ry="1.3509745213483484" fill="rgb(0,0,0)"/></g></g></g></g></g></g><g style="opacity:0.1;"><g style="opacity:0.1;"><g style="opacity:0.1;"><g style="opacity:0.1;"><g style="opacity:0.1;"><g opacity="0.1"><ellipse vector-effect="non-scaling-stroke" cx="372.66" cy="652.7408031838936" rx="1.4399999999999977" ry="1.3509745213483484" fill="rgb(0,0,0)"/></g></g></g></g></g></g><g style="opacity:0.1;"><g style="opacity:0.1;"><g style="opacity:0.1;"><g style="opacity:0.1;"><g style="opacity:0.1;"><g opacity="0.1"><ellipse vector-effect="non-scaling-stroke" cx="385.14" cy="680.4451626390437" rx="1.4399999999999977" ry="1.3509745213483484" fill="rgb(0,0,0)"/></g></g></g></g></g></g><g style="opacity:0.1;"><g style="opacity:0.1;"><g style="opacity:0.1;"><g style="opacity:0.1;"><g style="opacity:0.1;"><g opacity="0.1"><ellipse vector-effect="non-scaling-stroke" cx="376.5" cy="682.1338807907291" rx="1.4399999999999977" ry="1.3509745213483484" fill="rgb(0,0,0)"/></g></g></g></g></g></g></g></g></g></g></g></g></g></g></g></g></g></g></g></g></g></g></g></g><path d=" M 392.352 643.784 C 392.352 643.784 401.08 654.498 388.341 670.666 C 388.341 670.666 365.055 700.473 369.308 710.543 C 369.308 710.543 388.564 680.526 404.218 680.107 C 419.872 679.69 409.603 661.85 392.352 643.784 Z " fill="rgb(74,134,232)"/><path d=" M 346.282 643.784 C 346.282 643.784 337.554 654.498 350.311 670.666 C 350.311 670.666 373.578 700.473 369.326 710.543 C 369.326 710.543 350.088 680.526 334.416 680.107 C 318.743 679.69 329.049 661.85 346.282 643.784 Z " fill="rgb(74,134,232)"/><path d=" M 332.93 709.149 C 332.93 709.149 357.33 708.452 364.684 703.539 C 364.684 703.539 402.212 692.756 404.051 700.63 C 404.051 700.63 440.706 739.81 413.168 740.019 C 413.168 740.019 349.16 735.995 341.806 731.814 C 334.453 727.633 332.93 709.149 332.93 709.149 Z " fill="rgb(168,168,168)"/></g></g></g></svg>