<?xml version="1.0" encoding="UTF-8" standalone="no"?><!-- Generator: Gravit.io --><svg xmlns="http://www.w3.org/2000/svg" xmlns:xlink="http://www.w3.org/1999/xlink" style="isolation:isolate" viewBox="0 0 896 525.827" width="896pt" height="525.827pt"><defs><clipPath id="_clipPath_7vR2Xy6QioU8wewYh7vgjcuduD19VAhz"><rect width="896" height="525.827"/></clipPath></defs><g clip-path="url(#_clipPath_7vR2Xy6QioU8wewYh7vgjcuduD19VAhz)"><path d=" M 228.134 484.579 C 240.562 507.628 266.94 517.523 266.94 517.523 C 266.94 517.523 273.167 490.047 260.739 466.998 C 248.31 443.949 221.933 434.055 221.933 434.055 C 221.933 434.055 215.706 461.53 228.134 484.579 Z " fill="rgb(63,61,86)"/><path d=" M 236.677 476.996 C 259.115 490.496 267.757 517.31 267.757 517.31 C 267.757 517.31 240.019 522.237 217.58 508.737 C 195.142 495.238 186.5 468.424 186.5 468.424 C 186.5 468.424 214.238 463.497 236.677 476.996 Z " fill="rgb(74,134,232)"/><rect x="0" y="523.827" width="896" height="2" transform="matrix(1,0,0,1,0,0)" fill="rgb(47,46,65)"/><path d=" M 614.347 38.327 L 655.347 30.327 C 655.347 30.327 665.347 -3.673 677.347 0.327 C 677.347 0.327 669.347 38.327 669.347 38.327 L 612.347 64.327 L 614.347 38.327 Z " fill="rgb(160,97,106)"/><path d=" M 365.347 72.327 L 347.347 95.327 C 347.347 95.327 321.347 94.327 329.347 108.327 C 329.347 108.327 355.347 114.327 356.347 111.327 C 356.347 111.327 386.347 82.327 386.347 82.327 L 365.347 72.327 Z " fill="rgb(160,97,106)"/><path d=" M 438.847 45.827 L 453.847 37.827 C 453.847 37.827 517.847 32.827 541.847 48.827 C 541.847 48.827 440.847 66.827 440.847 66.827 L 438.847 45.827 Z " fill="rgb(74,134,232)"/><path d=" M 467.347 31.327 C 467.347 31.327 459.347 12.327 470.347 10.327 C 476.621 9.097 483.074 9.097 489.347 10.327 L 477.347 20.327 L 467.347 31.327 Z " fill="rgb(63,61,86)"/><g opacity="0.1"><path d=" M 467.347 31.327 C 467.347 31.327 459.347 12.327 470.347 10.327 C 476.621 9.097 483.074 9.097 489.347 10.327 L 477.347 20.327 L 467.347 31.327 Z " fill="rgb(0,0,0)"/></g><path d=" M 412.347 146.327 L 383.347 144.327 L 388.347 153.327 C 388.347 153.327 348.347 165.327 361.347 199.327 C 361.347 199.327 394.347 265.327 394.347 265.327 L 407.347 290.327 C 407.347 290.327 434.347 294.327 435.347 286.327 C 435.347 286.327 435.347 274.327 430.347 270.327 C 430.347 270.327 422.347 258.327 422.347 254.327 C 422.347 254.327 423.347 246.327 420.347 244.327 C 420.347 244.327 416.347 239.327 416.347 233.327 C 416.347 233.327 405.347 205.327 405.347 205.327 C 405.347 205.327 440.347 204.327 451.347 213.327 C 451.347 213.327 498.347 256.327 498.347 256.327 C 500.338 258.411 502.022 260.768 503.347 263.327 C 505.347 267.327 505.347 269.327 509.347 271.327 C 513.347 273.327 510.347 281.327 509.347 282.327 C 508.347 283.327 498.347 323.327 498.347 323.327 C 498.347 323.327 487.347 342.327 499.347 343.327 C 511.347 344.327 522.347 345.327 523.347 343.327 C 524.459 340.555 525.796 337.879 527.347 335.327 C 530.347 330.327 527.347 319.327 527.347 319.327 C 527.347 319.327 556.347 282.327 547.347 259.327 C 538.347 236.327 519.347 184.327 519.347 184.327 L 490.347 172.327 L 437.347 153.327 L 412.347 146.327 Z " fill="rgb(47,46,65)"/><path d=" M 410.347 285.327 C 410.347 285.327 404.347 308.327 402.347 309.327 C 402.347 309.327 378.347 329.327 393.347 332.327 C 393.347 332.327 419.347 334.327 422.347 331.327 C 422.347 331.327 424.347 325.327 429.347 324.327 C 429.347 324.327 443.347 320.327 442.347 313.327 C 442.347 313.327 436.347 287.327 433.347 285.327 C 430.347 283.327 410.347 285.327 410.347 285.327 Z " fill="rgb(47,46,65)"/><path d=" M 497.347 336.327 C 497.347 336.327 488.347 343.327 493.347 356.327 C 493.347 356.327 505.347 383.327 505.347 383.327 C 505.347 383.327 513.347 408.327 526.347 404.327 C 531.629 402.702 534.269 398.272 535.543 393.583 C 537.402 386.415 536.078 378.794 531.911 372.673 L 524.347 361.327 L 516.347 340.327 L 497.347 336.327 Z " fill="rgb(47,46,65)"/><path d=" M 472.347 42.327 C 472.347 42.327 460.347 41.327 458.347 44.327 C 458.347 44.327 447.347 87.327 458.347 91.327 C 458.347 91.327 502.347 102.327 507.347 97.327 C 507.347 97.327 514.347 48.327 514.347 48.327 L 472.347 42.327 Z " fill="rgb(160,97,106)"/><g opacity="0.1"><path d=" M 472.347 42.327 C 472.347 42.327 460.347 41.327 458.347 44.327 C 458.347 44.327 447.347 87.327 458.347 91.327 C 458.347 91.327 502.347 102.327 507.347 97.327 C 507.347 97.327 514.347 48.327 514.347 48.327 L 472.347 42.327 Z " fill="rgb(0,0,0)"/></g><path d=" M 454.347 75.327 C 454.347 75.327 468.347 89.327 477.347 87.327 C 477.347 87.327 507.347 76.327 509.347 72.327 C 509.347 72.327 536.347 67.327 536.347 67.327 L 509.347 142.327 L 528.347 205.327 C 528.347 205.327 539.347 192.327 509.347 191.327 C 509.347 191.327 439.347 175.327 432.347 155.327 C 432.347 155.327 388.347 149.327 386.347 148.327 C 384.347 147.327 391.347 141.327 391.347 141.327 L 420.347 133.327 L 441.347 106.327 L 454.347 75.327 Z " fill="rgb(242,242,242)"/><path d=" M 463.347 44.327 C 463.347 44.327 468.347 37.327 463.347 37.327 C 463.347 37.327 444.347 37.327 439.347 38.327 C 439.347 38.327 415.347 34.327 413.347 40.327 C 413.347 40.327 411.347 83.327 415.347 86.327 C 415.347 86.327 421.347 89.327 416.347 95.327 C 416.347 95.327 399.347 121.327 402.347 128.327 C 402.347 128.327 370.347 137.327 375.347 145.327 C 378.103 149.968 382.963 152.958 388.347 153.327 C 388.347 153.327 390.347 137.327 402.347 145.327 C 402.347 145.327 430.347 173.327 443.347 160.327 C 443.347 160.327 461.347 135.327 462.347 118.327 C 462.347 118.327 462.347 90.327 460.347 80.327 C 458.347 70.327 463.347 44.327 463.347 44.327 Z " fill="rgb(74,134,232)"/><path d=" M 515.347 63.327 C 515.347 63.327 523.347 70.327 515.347 87.327 C 515.347 87.327 486.347 144.327 503.347 170.327 C 503.347 170.327 527.347 203.327 523.347 208.327 C 520.915 211.495 519.518 215.336 519.347 219.327 L 530.347 215.327 C 530.347 215.327 532.347 201.327 536.347 191.327 C 536.347 191.327 528.347 151.327 528.347 151.327 L 532.347 112.327 C 532.347 112.327 548.347 87.327 550.347 86.327 C 550.347 86.327 546.347 42.327 546.347 42.327 C 546.347 42.327 536.347 39.327 531.347 42.327 C 526.347 45.327 515.347 63.327 515.347 63.327 Z " fill="rgb(74,134,232)"/><path d=" M 419.347 41.327 L 413.347 41.327 L 372.347 62.327 C 372.347 62.327 369.347 49.327 367.347 52.327 C 367.347 52.327 366.347 63.327 361.347 65.327 C 361.347 65.327 353.347 70.327 361.347 74.327 C 361.347 74.327 370.347 75.327 370.347 82.327 C 370.347 82.327 376.347 90.327 381.347 88.327 C 381.347 88.327 387.347 85.327 392.347 87.327 C 392.347 87.327 394.347 92.327 401.347 89.327 C 401.347 89.327 426.347 87.327 426.347 87.327 L 419.347 41.327 Z " fill="rgb(74,134,232)"/><path d=" M 539.347 44.327 L 546.347 42.327 C 546.347 42.327 567.347 44.327 572.347 44.327 C 572.347 44.327 582.347 43.327 585.347 43.327 C 585.347 43.327 603.347 41.327 605.347 39.327 C 605.347 39.327 616.347 32.327 617.347 35.327 C 617.347 35.327 629.347 57.327 619.347 66.327 C 619.347 66.327 607.347 71.327 601.347 75.327 C 601.347 75.327 547.347 87.327 546.347 86.327 C 545.347 85.327 539.347 44.327 539.347 44.327 Z " fill="rgb(74,134,232)"/><circle vector-effect="non-scaling-stroke" cx="498.34727999999996" cy="52.32715999999999" r="29.99999999999997" fill="rgb(160,97,106)"/><path d=" M 476.271 53.534 C 476.612 54.187 476.823 54.9 476.892 55.633 C 477.715 59.135 480.812 61.63 484.408 61.689 C 484.119 62.991 484.398 64.354 485.174 65.439 C 485.951 66.523 487.152 67.226 488.478 67.372 C 490.506 64.773 492.019 61.811 492.935 58.645 C 493.16 57.401 493.676 56.229 494.441 55.223 C 495.506 54.093 497.171 53.816 498.711 53.618 C 506.694 52.589 514.726 51.991 522.773 51.825 C 523.867 51.903 524.962 51.68 525.937 51.178 C 528.198 49.721 527.443 46.208 526.015 43.928 C 523.202 39.471 518.924 36.133 513.916 34.487 C 510.329 33.322 506.521 33.079 502.774 32.641 C 497.757 32.056 492.763 31.107 487.712 31.077 C 482.661 31.048 477.438 32.02 473.309 34.929 C 470.303 37.048 465.368 42.987 467.782 46.734 C 468.169 47.334 469.39 47.63 469.91 48.242 C 470.617 49.074 470.62 50.332 471.423 51.088 C 472.764 52.349 475.195 51.948 476.271 53.534 Z " fill="rgb(47,46,65)"/><path d=" M 498.347 2.327 C 498.347 2.327 464.347 14.327 467.347 31.327 C 467.347 31.327 479.347 68.327 498.347 67.327 C 498.347 67.327 527.347 45.646 527.347 45.646 L 522.347 17.327 C 522.347 17.327 503.347 2.327 498.347 2.327 Z " fill="rgb(63,61,86)"/><path d=" M 494.057 62.336 C 494.057 62.336 507.424 47.833 514.153 56.242 C 514.153 56.242 513.847 55.827 494.057 62.336 Z " fill="rgb(47,46,65)"/><path d=" M 519.296 433.143 C 501.37 433.143 479.191 427.204 457.578 405.74 C 404.668 353.191 354.401 347.921 353.9 347.874 L 354.086 345.882 C 354.595 345.93 405.574 351.272 458.988 404.32 C 486.434 431.579 514.763 433.249 533.695 429.848 C 546.2 427.577 558.109 422.777 568.694 415.742 L 569.876 417.355 C 559.066 424.553 546.902 429.468 534.128 431.802 C 529.233 432.69 524.27 433.138 519.296 433.143 L 519.296 433.143 Z " fill="rgb(47,46,65)"/><circle vector-effect="non-scaling-stroke" cx="380.84728" cy="377.82716" r="12" fill="rgb(47,46,65)"/><circle vector-effect="non-scaling-stroke" cx="465.84728" cy="433.82716" r="12" fill="rgb(47,46,65)"/><path d=" M 683.5 524.827 Q 647.024 519.117 613.357 515.113 L 622 497.827 C 619 496.827 606 506.827 606 506.827 L 617 456.827 C 602 458.827 595 509.827 595 509.827 L 578 492.827 L 586.368 512.074 C 517.687 504.858 458.422 502.605 408.603 503.122 L 416 488.327 C 413 487.327 400 497.327 400 497.327 L 411 447.327 C 396 449.327 389 500.327 389 500.327 L 372 483.327 L 380.863 503.713 C 346.738 504.705 312.685 507.447 278.841 511.929 C 286.222 488.933 312 466.827 312 466.827 C 292.179 472.994 281.868 483.04 276.531 492.352 C 275.451 445.108 282.719 398.044 298 353.327 C 298 353.327 258 443.327 264 503.327 L 264.761 513.985 C 229.962 519.414 212.5 524.827 212.5 524.827 L 683.5 524.827 Z " fill="rgb(63,61,86)"/></g></svg>