<?xml version="1.0" encoding="UTF-8" standalone="no"?><!-- Generator: Gravit.io --><svg xmlns="http://www.w3.org/2000/svg" xmlns:xlink="http://www.w3.org/1999/xlink" style="isolation:isolate" viewBox="0 0 798.627 689.223" width="798.627pt" height="689.223pt"><defs><clipPath id="_clipPath_qtQTDhcvTCABpOWEJao1jxIfuRheAoWh"><rect x="0" y="0" width="798.627" height="689.223"/></clipPath></defs><g clip-path="url(#_clipPath_qtQTDhcvTCABpOWEJao1jxIfuRheAoWh)"><clipPath id="_clipPath_j1qMcz7Yb48yIdpKG9nUeWAHi4n80OdX"><rect x="0" y="0" width="798.627" height="689.223" transform="matrix(1,0,0,1,0,0)" fill="rgb(255,255,255)"/></clipPath><g clip-path="url(#_clipPath_j1qMcz7Yb48yIdpKG9nUeWAHi4n80OdX)"><g><circle vector-effect="non-scaling-stroke" cx="435.92153" cy="118.40512" r="73.53607" fill="rgb(160,97,106)"/><path d=" M 381.036 155.173 C 381.036 155.173 394.89 259.616 373.576 271.339 C 373.576 271.339 500.399 284.128 500.399 284.128 C 500.399 284.128 467.361 193.54 482.281 165.83 L 381.036 155.173 L 381.036 155.173 Z " fill="rgb(160,97,106)"/><path d=" M 608.57 284.656 L 596.25 340.756 L 570.2 459.446 L 569.42 465.946 L 560.43 541.196 L 554.45 591.186 L 550.44 624.766 C 526.06 637.296 508.39 645.946 508.39 645.946 C 508.39 645.946 506.87 638.326 504.42 628.576 C 487.31 633.706 455.65 642.216 428.82 643.916 C 438.59 654.806 443.08 665.036 436.99 672.586 C 418.61 695.346 342.73 647.666 316.19 629.886 C 315.572 634.143 315.338 638.447 315.49 642.746 L 295.18 627.126 L 297.19 591.186 L 300.58 530.376 L 304.84 454.116 C 303.497 450.851 302.371 447.5 301.47 444.086 C 295.25 421.966 287.7 377.796 281.91 340.756 C 277.25 310.946 273.75 285.756 273.01 280.396 C 272.91 279.696 272.86 279.336 272.86 279.336 L 385.29 229.656 C 393.28 248.186 430.59 253.756 430.59 253.756 C 461.5 251.626 485.73 235.326 485.73 235.326 L 608.57 284.656 L 608.57 284.656 Z " fill="rgb(208,205,225)"/><path d=" M 516.92 624.636 C 516.92 624.636 512.16 626.266 504.42 628.576 C 487.31 633.706 455.65 642.216 428.82 643.916 C 405.72 645.396 386.2 641.836 382.63 626.766 C 381.1 620.286 383.27 614.956 388 610.576 C 402.12 597.486 439 592.796 468.25 591.186 C 476.51 590.736 484.15 590.526 490.51 590.446 C 501.31 590.306 508.39 590.526 508.39 590.526 L 508.56 591.186 L 516.92 624.636 L 516.92 624.636 Z " fill="rgb(160,97,106)"/><path d=" M 374.746 48.847 L 360.997 43.342 C 360.997 43.342 389.746 11.691 429.744 14.444 L 418.494 2.059 C 418.494 2.059 445.993 -8.95 470.992 19.948 C 484.134 35.139 499.339 52.996 508.817 73.111 L 523.542 73.111 L 517.396 86.643 L 538.906 100.175 L 516.829 97.744 C 518.144 105.154 518.346 112.719 517.428 120.189 C 516.481 127.661 512.667 134.473 506.793 139.187 L 506.793 139.187 C 506.793 139.187 489.741 103.891 489.741 98.387 L 489.741 112.148 C 489.741 112.148 475.992 99.763 475.992 91.506 L 468.492 101.139 L 464.742 86.002 L 418.494 101.139 L 425.994 88.754 L 397.245 92.883 L 408.495 77.745 C 408.495 77.745 375.997 95.635 374.746 110.772 C 373.497 125.909 363.984 140.253 363.984 140.253 C 363.984 140.253 338.498 69.488 374.746 48.847 Z " fill="rgb(47,46,65)"/><path d=" M 688.5 542.566 C 681.01 550.686 662.45 562.916 639.95 576.156 C 631.58 581.076 622.67 586.146 613.58 591.186 C 591.89 603.216 569.18 615.136 550.44 624.766 C 526.06 637.296 508.39 645.946 508.39 645.946 C 508.39 645.946 506.87 638.326 504.42 628.576 C 501.14 615.526 496.2 598.656 491.05 591.186 C 490.87 590.926 490.69 590.686 490.51 590.446 C 489.01 588.476 487.5 587.326 486.01 587.326 L 560.43 541.196 L 592.59 521.256 L 569.42 465.946 L 540.36 396.566 L 557.9 340.756 L 575.53 284.656 L 608.57 284.656 C 608.57 284.656 619.51 308.536 633.5 341.836 C 635.59 346.816 637.75 352.006 639.95 357.366 C 668.73 427.366 704.61 525.116 688.5 542.566 Z " fill="rgb(208,205,225)"/><path d=" M 436.99 672.586 C 418.61 695.346 342.73 647.666 316.19 629.886 C 310.41 626.016 306.97 623.566 306.97 623.566 L 331.25 591.186 L 338.94 580.936 C 338.94 580.936 345.82 584.586 355.99 590.526 C 356.36 590.746 356.73 590.966 357.11 591.186 C 365.88 596.336 376.89 603.066 388 610.576 C 403.33 620.946 418.83 632.776 428.82 643.916 C 438.59 654.806 443.08 665.036 436.99 672.586 Z " fill="rgb(160,97,106)"/><path d=" M 355.99 590.526 C 353.276 590.516 350.567 590.736 347.89 591.186 C 324.9 595.136 318.12 615.946 316.19 629.886 C 315.572 634.143 315.338 638.447 315.49 642.746 L 295.18 627.126 L 287.78 621.436 C 269.97 615.226 254.1 604.196 240.34 591.186 C 228.403 579.7 217.695 567.001 208.39 553.296 C 199.122 539.788 190.86 525.616 183.67 510.896 C 179.609 502.58 179.452 492.89 183.24 484.446 L 208.39 428.396 L 245.15 346.476 Q 245.555 343.551 246.04 340.756 C 253.33 298.956 272.86 280.396 272.86 280.396 L 287.78 280.396 L 297.76 340.756 L 310.16 415.746 L 301.47 444.086 L 281.39 509.536 L 300.58 530.376 L 355.99 590.526 L 355.99 590.526 Z " fill="rgb(208,205,225)"/><path d=" M 372.877 415.806 L 385.631 430.687 C 390.37 429.783 395.319 428.721 400.416 427.529 L 396.752 415.806 L 405.71 426.256 C 459.707 412.976 526.637 387.155 526.637 387.155 C 526.637 387.155 454.38 392.453 400.428 380.666 C 376.558 375.451 351.998 387.284 342.202 409.669 C 336.509 422.679 337.403 433.951 357.596 433.951 C 364.419 433.835 371.224 433.195 377.949 432.037 L 372.877 415.806 L 372.877 415.806 Z " fill="rgb(74,134,232)"/><path d=" M 663.65 660.386 L 663.65 666.456 C 663.654 668.122 663.345 669.774 662.74 671.326 C 662.472 672.018 662.147 672.687 661.77 673.326 C 659.346 677.396 654.957 679.888 650.22 679.886 L 203.67 679.886 C 198.933 679.888 194.545 677.396 192.12 673.326 C 191.743 672.687 191.419 672.018 191.15 671.326 C 190.546 669.774 190.237 668.122 190.24 666.456 L 190.24 660.386 C 190.239 656.824 191.654 653.407 194.173 650.889 C 196.692 648.37 200.108 646.955 203.67 646.956 L 229.41 646.956 L 229.41 644.126 C 229.41 643.977 229.469 643.835 229.574 643.73 C 229.679 643.625 229.822 643.566 229.97 643.566 L 243.4 643.566 C 243.549 643.566 243.691 643.625 243.797 643.73 C 243.902 643.835 243.961 643.977 243.96 644.126 L 243.96 646.956 L 252.35 646.956 L 252.35 644.126 C 252.35 643.977 252.409 643.835 252.514 643.73 C 252.619 643.625 252.762 643.566 252.91 643.566 L 266.34 643.566 C 266.489 643.566 266.631 643.625 266.736 643.73 C 266.842 643.835 266.9 643.977 266.9 644.126 L 266.9 646.956 L 275.3 646.956 L 275.3 644.126 C 275.3 643.977 275.359 643.835 275.464 643.73 C 275.569 643.625 275.712 643.566 275.86 643.566 L 289.29 643.566 C 289.439 643.566 289.581 643.625 289.686 643.73 C 289.792 643.835 289.85 643.977 289.85 644.126 L 289.85 646.956 L 298.24 646.956 L 298.24 644.126 C 298.24 643.977 298.299 643.835 298.404 643.73 C 298.509 643.625 298.652 643.566 298.8 643.566 L 312.23 643.566 C 312.379 643.566 312.521 643.625 312.626 643.73 C 312.732 643.835 312.79 643.977 312.79 644.126 L 312.79 646.956 L 321.18 646.956 L 321.18 644.126 C 321.18 643.977 321.239 643.835 321.344 643.73 C 321.449 643.625 321.592 643.566 321.74 643.566 L 335.17 643.566 C 335.319 643.566 335.461 643.625 335.566 643.73 C 335.672 643.835 335.73 643.977 335.73 644.126 L 335.73 646.956 L 344.13 646.956 L 344.13 644.126 C 344.13 643.977 344.189 643.835 344.294 643.73 C 344.399 643.625 344.542 643.566 344.69 643.566 L 358.12 643.566 C 358.269 643.566 358.411 643.625 358.516 643.73 C 358.622 643.835 358.68 643.977 358.68 644.126 L 358.68 646.956 L 367.07 646.956 L 367.07 644.126 C 367.07 643.977 367.129 643.835 367.234 643.73 C 367.339 643.625 367.482 643.566 367.63 643.566 L 472.83 643.566 C 472.979 643.566 473.121 643.625 473.226 643.73 C 473.332 643.835 473.39 643.977 473.39 644.126 L 473.39 646.956 L 481.79 646.956 L 481.79 644.126 C 481.79 643.977 481.849 643.835 481.954 643.73 C 482.059 643.625 482.202 643.566 482.35 643.566 L 495.78 643.566 C 496.088 643.569 496.337 643.818 496.34 644.126 L 496.34 646.956 L 504.73 646.956 L 504.73 644.126 C 504.73 643.977 504.789 643.835 504.894 643.73 C 504.999 643.625 505.142 643.566 505.29 643.566 L 518.72 643.566 C 518.869 643.566 519.011 643.625 519.117 643.73 C 519.222 643.835 519.281 643.977 519.28 644.126 L 519.28 646.956 L 527.67 646.956 L 527.67 644.126 C 527.67 643.977 527.729 643.835 527.834 643.73 C 527.939 643.625 528.082 643.566 528.23 643.566 L 541.66 643.566 C 541.809 643.566 541.951 643.625 542.057 643.73 C 542.162 643.835 542.221 643.977 542.22 644.126 L 542.22 646.956 L 550.62 646.956 L 550.62 644.126 C 550.62 643.977 550.679 643.835 550.784 643.73 C 550.889 643.625 551.032 643.566 551.18 643.566 L 564.61 643.566 C 564.916 643.57 565.162 643.82 565.16 644.126 L 565.16 646.956 L 573.56 646.956 L 573.56 644.126 C 573.56 643.977 573.619 643.835 573.724 643.73 C 573.829 643.625 573.972 643.566 574.12 643.566 L 587.55 643.566 C 587.699 643.566 587.841 643.625 587.947 643.73 C 588.052 643.835 588.111 643.977 588.11 644.126 L 588.11 646.956 L 596.5 646.956 L 596.5 644.126 C 596.5 643.977 596.559 643.835 596.664 643.73 C 596.769 643.625 596.912 643.566 597.06 643.566 L 610.49 643.566 C 610.639 643.566 610.781 643.625 610.887 643.73 C 610.992 643.835 611.051 643.977 611.05 644.126 L 611.05 646.956 L 650.22 646.956 C 653.782 646.955 657.199 648.37 659.718 650.889 C 662.237 653.407 663.651 656.824 663.65 660.386 L 663.65 660.386 L 663.65 660.386 Z " fill="rgb(63,61,86)"/><rect x="60.5" y="671.326" width="733" height="2" transform="matrix(1,0,0,1,0,0)" fill="rgb(63,61,86)"/><path d=" M 627.695 404.757 L 461.252 404.757 L 461.252 401.326 L 385.78 401.326 L 385.78 404.757 L 218.651 404.757 C 215.665 404.757 212.801 405.943 210.69 408.054 C 208.578 410.166 207.392 413.029 207.392 416.015 L 207.392 643.927 C 207.392 650.145 212.433 655.185 218.651 655.185 L 627.695 655.185 C 633.912 655.185 638.953 650.145 638.953 643.927 L 638.953 416.015 C 638.953 413.029 637.767 410.166 635.656 408.054 C 633.544 405.943 630.68 404.757 627.695 404.757 L 627.695 404.757 L 627.695 404.757 Z " fill="rgb(63,61,86)"/><circle vector-effect="non-scaling-stroke" cx="423.50024" cy="484.32605" r="25" fill="none" stroke-width="2" stroke="rgb(208,205,225)" stroke-opacity="100" stroke-linejoin="miter" stroke-linecap="butt" stroke-miterlimit="10"/><circle vector-effect="non-scaling-stroke" cx="415.50024" cy="493.32605" r="25" fill="rgb(208,205,225)"/><rect x="80.446" y="661.223" width="28" height="28" transform="matrix(1,0,0,1,0,0)" fill="rgb(208,205,225)"/><path d=" M 91.45 639.223 L 91.45 673.223 L 125.45 673.223 L 125.45 639.223 L 91.45 639.223 L 91.45 639.223 Z  M 123.97 671.743 L 92.92 671.743 L 92.92 640.703 L 123.97 640.703 L 123.97 671.743 L 123.97 671.743 Z " fill="rgb(63,61,86)"/><rect x="728.446" y="661.223" width="28" height="28" transform="matrix(1,0,0,1,0,0)" fill="rgb(208,205,225)"/><path d=" M 739.45 639.223 L 739.45 673.223 L 773.45 673.223 L 773.45 639.223 L 739.45 639.223 L 739.45 639.223 Z  M 771.97 671.743 L 740.92 671.743 L 740.92 640.703 L 771.97 640.703 L 771.97 671.743 L 771.97 671.743 Z " fill="rgb(63,61,86)"/><circle vector-effect="non-scaling-stroke" cx="94.58008" cy="150.77286" r="79.34043" fill="rgb(74,134,232)"/><path d=" M 122.229 56.49 C 115.045 55.576 107.775 55.576 100.591 56.49 C 67.909 60.781 40.719 83.712 30.976 115.202 C 28.806 122.229 27.577 129.514 27.321 136.864 C 27.285 137.886 27.261 138.92 27.261 139.954 C 27.307 186.409 64.955 224.056 111.41 224.103 C 113.201 224.103 114.992 224.043 116.759 223.934 C 120.908 223.674 125.03 223.103 129.093 222.227 C 169.15 213.613 197.182 177.404 195.487 136.467 C 193.791 95.53 162.861 61.762 122.229 56.49 L 122.229 56.49 L 122.229 56.49 Z  M 137.748 217.347 L 137.736 217.347 C 130.959 219.659 123.905 221.062 116.759 221.518 C 114.992 221.638 113.201 221.698 111.41 221.698 C 66.286 221.643 29.72 185.077 29.665 139.954 C 29.665 138.92 29.689 137.886 29.725 136.864 C 31.442 92.977 67.489 58.267 111.41 58.209 C 151.405 58.211 185.527 87.151 192.057 126.61 C 198.588 166.068 175.61 204.458 137.748 217.347 L 137.748 217.347 L 137.748 217.347 Z " fill="rgb(63,61,86)"/><rect x="110.208" y="63.018" width="2.404" height="16.83" transform="matrix(1,0,0,1,0,0)" fill="rgb(63,61,86)"/><rect x="61.739" y="83.085" width="2.404" height="16.827" transform="matrix(0.707,-0.707,0.707,0.707,-46.264,71.305)" fill="rgb(63,61,86)"/><rect x="41.687" y="131.539" width="2.404" height="16.83" transform="matrix(0,-1,1,0,-97.065,182.843)" fill="rgb(63,61,86)"/><rect x="61.743" y="180.018" width="2.404" height="16.827" transform="matrix(-0.707,-0.707,0.707,-0.707,-25.788,366.182)" fill="rgb(63,61,86)"/><rect x="158.667" y="83.115" width="2.404" height="16.827" transform="matrix(-0.707,-0.707,0.707,-0.707,208.192,269.293)" fill="rgb(63,61,86)"/><rect x="178.729" y="131.539" width="2.404" height="16.83" transform="matrix(0,-1,1,0,39.977,319.885)" fill="rgb(63,61,86)"/><rect x="158.624" y="179.989" width="2.404" height="16.827" transform="matrix(0.707,-0.707,0.707,0.707,-86.409,168.196)" fill="rgb(63,61,86)"/><rect x="110.208" y="200.06" width="2.404" height="16.83" transform="matrix(1,0,0,1,0,0)" fill="rgb(63,61,86)"/><path d=" M 115.016 135.145 C 112.879 133.542 109.941 133.542 107.803 135.145 C 107.091 135.686 106.505 136.375 106.084 137.165 C 104.602 139.995 105.592 143.49 108.338 145.122 C 111.085 146.754 114.628 145.952 116.405 143.298 C 118.182 140.643 117.572 137.062 115.016 135.145 L 115.016 135.145 L 115.016 135.145 Z  M 111.41 143.56 C 109.421 143.554 107.809 141.943 107.803 139.954 C 107.808 139.224 108.03 138.513 108.441 137.91 C 109.413 136.502 111.242 135.972 112.817 136.642 C 114.391 137.313 115.277 138.998 114.936 140.675 C 114.595 142.352 113.121 143.558 111.41 143.56 L 111.41 143.56 L 111.41 143.56 Z " fill="rgb(63,61,86)"/><rect x="100.591" y="35.369" width="21.638" height="21.638" transform="matrix(1,0,0,1,0,0)" fill="rgb(63,61,86)"/><ellipse vector-effect="non-scaling-stroke" cx="111.40987" cy="28.7569" rx="28.851060000000004" ry="10.218090000000004" fill="rgb(63,61,86)"/><rect x="107.803" y="94.273" width="7.213" height="40.872" transform="matrix(1,0,0,1,0,0)" fill="rgb(63,61,86)"/><rect x="0" y="220.44" width="226" height="2.404" transform="matrix(1,0,0,1,0,0)" fill="rgb(63,61,86)"/><path d=" M 150.594 599.754 C 151.527 631.704 132.859 643.413 109.43 644.097 Q 108.614 644.121 107.805 644.126 Q 106.176 644.139 104.577 644.072 C 83.389 643.192 66.617 631.945 65.75 602.232 C 64.852 571.482 103.018 531.529 105.882 528.574 L 105.887 528.571 C 105.996 528.458 106.052 528.402 106.052 528.402 C 106.052 528.402 149.661 567.807 150.594 599.754 Z " fill="rgb(74,134,232)"/><path d=" M 107.744 639.255 L 122.626 617.124 L 107.774 641.636 L 107.805 644.126 Q 106.175 644.139 104.577 644.072 L 105.316 612.06 L 105.295 611.813 L 105.323 611.766 L 105.393 608.741 L 89.095 585.078 L 105.374 606.477 L 105.432 607.116 L 105.989 582.93 L 91.912 558.397 L 106.029 578.681 L 105.882 528.574 L 105.882 528.407 L 105.887 528.571 L 106.822 568.062 L 119.651 552.021 L 106.864 571.464 L 107.144 593.098 L 118.949 571.984 L 107.187 596.279 L 107.343 608.308 L 124.512 578.897 L 107.395 612.505 L 107.744 639.255 L 107.744 639.255 Z " fill="rgb(63,61,86)"/><path d=" M 798.594 599.754 C 799.527 631.704 780.859 643.413 757.43 644.097 Q 756.614 644.121 755.805 644.126 Q 754.176 644.139 752.577 644.072 C 731.389 643.192 714.617 631.945 713.75 602.232 C 712.852 571.482 751.019 531.529 753.882 528.574 L 753.887 528.571 C 753.996 528.458 754.052 528.402 754.052 528.402 C 754.052 528.402 797.661 567.807 798.594 599.754 Z " fill="rgb(74,134,232)"/><path d=" M 755.744 639.255 L 770.626 617.124 L 755.774 641.636 L 755.805 644.126 Q 754.175 644.139 752.577 644.072 L 753.316 612.06 L 753.295 611.813 L 753.323 611.766 L 753.393 608.741 L 737.095 585.078 L 753.374 606.477 L 753.432 607.116 L 753.989 582.93 L 739.912 558.397 L 754.029 578.681 L 753.882 528.574 L 753.882 528.407 L 753.887 528.571 L 754.822 568.062 L 767.651 552.021 L 754.864 571.464 L 755.144 593.098 L 766.949 571.984 L 755.187 596.279 L 755.343 608.308 L 772.512 578.897 L 755.395 612.505 L 755.744 639.255 L 755.744 639.255 Z " fill="rgb(63,61,86)"/></g></g></g></svg>