<?xml version="1.0" encoding="UTF-8" standalone="no"?><!-- Generator: Gravit.io --><svg xmlns="http://www.w3.org/2000/svg" xmlns:xlink="http://www.w3.org/1999/xlink" style="isolation:isolate" viewBox="0 0 1139.171 654.543" width="1139.171pt" height="654.543pt"><defs><clipPath id="_clipPath_mqUjXxC92qGp9WUhLsJLc27vdLolMiET"><rect width="1139.171" height="654.543"/></clipPath></defs><g clip-path="url(#_clipPath_mqUjXxC92qGp9WUhLsJLc27vdLolMiET)"><circle vector-effect="non-scaling-stroke" cx="246.82682" cy="521.76476" r="59.24333999999999" fill="rgb(242,242,242)"/><circle vector-effect="non-scaling-stroke" cx="256.45989" cy="513.095" r="59.24333999999999" fill="rgb(0,138,255)"/><rect x="304.171" y="447.543" width="733" height="2" transform="matrix(1,0,0,1,0,0)" fill="rgb(63,61,86)"/><rect x="406.171" y="560.543" width="733" height="2" transform="matrix(1,0,0,1,0,0)" fill="rgb(63,61,86)"/><rect x="192.672" y="652.543" width="255" height="2" transform="matrix(1,0,0,1,0,0)" fill="rgb(63,61,86)"/><rect x="471" y="550" width="28" height="28" transform="matrix(1,0,0,1,0,0)" fill="rgb(0,138,255)"/><path d=" M 516 562 L 482 562 L 482 528 L 516 528 L 516 562 Z  M 483.478 560.522 L 514.522 560.522 L 514.522 529.478 L 483.478 529.478 L 483.478 560.522 Z " fill="rgb(63,61,86)"/><rect x="1078" y="550" width="28" height="28" transform="matrix(1,0,0,1,0,0)" fill="rgb(0,138,255)"/><path d=" M 1123 562 L 1089 562 L 1089 528 L 1123 528 L 1123 562 Z  M 1090.478 560.522 L 1121.522 560.522 L 1121.522 529.478 L 1090.478 529.478 L 1090.478 560.522 Z " fill="rgb(63,61,86)"/><path d=" M 1057.171 231.958 L 1054.793 231.958 L 1054.793 166.797 C 1054.793 156.794 1050.819 147.202 1043.747 140.129 C 1036.674 133.056 1027.081 129.083 1017.079 129.083 L 879.025 129.083 C 869.023 129.083 859.43 133.056 852.358 140.129 C 845.285 147.202 841.312 156.794 841.312 166.797 L 841.312 524.278 C 841.312 534.28 845.285 543.873 852.358 550.946 C 859.43 558.018 869.023 561.992 879.025 561.992 L 1017.079 561.992 C 1027.081 561.992 1036.674 558.018 1043.747 550.946 C 1050.819 543.873 1054.793 534.28 1054.793 524.278 L 1054.793 278.341 L 1057.171 278.341 L 1057.171 231.958 Z " fill="rgb(63,61,86)"/><path d=" M 1046.761 169.013 L 1046.761 525.973 C 1046.764 541.528 1034.156 554.14 1018.601 554.143 L 879.881 554.143 C 864.326 554.14 851.719 541.528 851.721 525.973 L 851.721 169.013 C 851.723 153.462 864.33 140.855 879.881 140.853 L 896.711 140.853 C 895.03 144.979 895.512 149.671 897.997 153.368 C 900.483 157.066 904.646 159.283 909.101 159.283 L 988.191 159.283 C 992.647 159.284 996.81 157.066 999.296 153.369 C 1001.781 149.671 1002.263 144.979 1000.581 140.853 L 1018.601 140.853 C 1034.153 140.855 1046.76 153.462 1046.761 169.013 Z " fill="rgb(0,138,255)"/><rect x="928.58" y="376.218" width="41.324" height="12.246" transform="matrix(1,0,0,1,0,0)" fill="rgb(63,61,86)"/><rect x="878.621" y="280.875" width="141.24" height="5.248" transform="matrix(1,0,0,1,0,0)" fill="rgb(63,61,86)"/><rect x="878.621" y="297.494" width="141.24" height="5.248" transform="matrix(1,0,0,1,0,0)" fill="rgb(63,61,86)"/><rect x="878.621" y="314.114" width="141.24" height="5.248" transform="matrix(1,0,0,1,0,0)" fill="rgb(63,61,86)"/><rect x="878.621" y="330.733" width="141.24" height="5.248" transform="matrix(1,0,0,1,0,0)" fill="rgb(63,61,86)"/><rect x="878.621" y="347.352" width="141.24" height="5.248" transform="matrix(1,0,0,1,0,0)" fill="rgb(63,61,86)"/><rect x="929.684" y="211.179" width="24.492" height="24.492" transform="matrix(1,0,0,1,0,0)" fill="rgb(242,242,242)"/><path d=" M 939.059 217.303 L 939.059 247.043 L 968.799 247.043 L 968.799 217.303 L 939.059 217.303 Z  M 967.509 245.753 L 940.349 245.753 L 940.349 218.593 L 967.509 218.593 L 967.509 245.753 Z " fill="rgb(63,61,86)"/><g opacity="0.1"><path d=" M 1046.761 487.853 L 1046.761 525.973 C 1046.764 541.528 1034.156 554.14 1018.601 554.143 L 879.881 554.143 C 864.326 554.14 851.719 541.528 851.721 525.973 L 851.721 333.763 L 968.591 426.093 L 970.591 427.673 L 992.331 444.843 L 994.361 446.453 L 1046.761 487.853 Z " fill="rgb(0,0,0)"/></g><circle vector-effect="non-scaling-stroke" cx="937.24147" cy="498.70691" r="43.867830000000026" fill="rgb(242,242,242)"/><path d=" M 320.171 654.543 C 272.123 654.543 233.171 615.592 233.171 567.543 C 233.171 519.494 272.123 480.543 320.171 480.543 C 368.22 480.543 407.171 519.494 407.171 567.543 C 407.117 615.569 368.198 654.489 320.171 654.543 L 320.171 654.543 Z  M 320.171 482.543 C 273.227 482.543 235.171 520.599 235.171 567.543 C 235.171 614.487 273.227 652.543 320.171 652.543 C 367.116 652.543 405.171 614.487 405.171 567.543 C 405.118 520.621 367.094 482.596 320.171 482.543 L 320.171 482.543 Z " fill="rgb(63,61,86)"/><path d=" M 950.171 532.543 C 919.796 532.543 895.171 507.919 895.171 477.543 C 895.171 447.168 919.796 422.543 950.171 422.543 C 980.547 422.543 1005.171 447.168 1005.171 477.543 C 1005.137 507.905 980.533 532.509 950.171 532.543 L 950.171 532.543 Z  M 950.171 424.543 C 920.9 424.543 897.171 448.272 897.171 477.543 C 897.171 506.814 920.9 530.543 950.171 530.543 C 979.442 530.543 1003.171 506.814 1003.171 477.543 C 1003.139 448.286 979.429 424.576 950.171 424.543 L 950.171 424.543 Z " fill="rgb(63,61,86)"/><path d=" M 377.171 115.958 L 374.793 115.958 L 374.793 50.797 C 374.793 40.794 370.819 31.202 363.747 24.129 C 356.674 17.056 347.081 13.083 337.079 13.083 L 199.025 13.083 C 189.023 13.083 179.43 17.056 172.358 24.129 C 165.285 31.202 161.312 40.794 161.312 50.797 L 161.312 408.278 C 161.312 418.28 165.285 427.873 172.358 434.946 C 179.43 442.018 189.023 445.992 199.025 445.992 L 337.079 445.992 C 347.081 445.992 356.674 442.018 363.747 434.946 C 370.819 427.873 374.793 418.28 374.793 408.278 L 374.793 162.341 L 377.171 162.341 L 377.171 115.958 Z " fill="rgb(63,61,86)"/><path d=" M 366.761 49.013 L 366.761 405.973 C 366.764 421.528 354.156 434.14 338.601 434.143 L 199.881 434.143 C 184.326 434.14 171.719 421.528 171.721 405.973 L 171.721 49.013 C 171.723 33.462 184.33 20.855 199.881 20.853 L 216.711 20.853 C 215.03 24.979 215.512 29.671 217.997 33.369 C 220.483 37.066 224.646 39.283 229.101 39.283 L 308.191 39.283 C 312.647 39.284 316.81 37.066 319.296 33.369 C 321.781 29.671 322.263 24.979 320.581 20.853 L 338.601 20.853 C 354.153 20.855 366.76 33.462 366.761 49.013 Z " fill="rgb(0,138,255)"/><rect x="248.58" y="256.218" width="41.324" height="12.246" transform="matrix(1,0,0,1,0,0)" fill="rgb(63,61,86)"/><rect x="198.621" y="160.875" width="141.24" height="5.248" transform="matrix(1,0,0,1,0,0)" fill="rgb(63,61,86)"/><rect x="198.621" y="177.494" width="141.24" height="5.248" transform="matrix(1,0,0,1,0,0)" fill="rgb(63,61,86)"/><rect x="198.621" y="194.114" width="141.24" height="5.248" transform="matrix(1,0,0,1,0,0)" fill="rgb(63,61,86)"/><rect x="198.621" y="210.733" width="141.24" height="5.248" transform="matrix(1,0,0,1,0,0)" fill="rgb(63,61,86)"/><rect x="198.621" y="227.352" width="141.24" height="5.248" transform="matrix(1,0,0,1,0,0)" fill="rgb(63,61,86)"/><rect x="249.684" y="91.179" width="24.492" height="24.492" transform="matrix(1,0,0,1,0,0)" fill="rgb(242,242,242)"/><path d=" M 259.059 97.303 L 259.059 127.043 L 288.799 127.043 L 288.799 97.303 L 259.059 97.303 Z  M 287.509 125.753 L 260.349 125.753 L 260.349 98.593 L 287.509 98.593 L 287.509 125.753 Z " fill="rgb(63,61,86)"/><g opacity="0.1"><path d=" M 366.761 367.853 L 366.761 405.973 C 366.764 421.528 354.156 434.14 338.601 434.143 L 199.881 434.143 C 184.326 434.14 171.719 421.528 171.721 405.973 L 171.721 213.763 L 288.591 306.093 L 290.591 307.673 L 312.331 324.843 L 314.361 326.453 L 366.761 367.853 Z " fill="rgb(0,0,0)"/></g><circle vector-effect="non-scaling-stroke" cx="257.24147000000005" cy="378.70690999999994" r="43.86783000000001" fill="rgb(242,242,242)"/><path d=" M 270.171 412.543 C 239.796 412.543 215.171 387.919 215.171 357.543 C 215.171 327.168 239.796 302.543 270.171 302.543 C 300.547 302.543 325.171 327.168 325.171 357.543 C 325.137 387.905 300.533 412.509 270.171 412.543 L 270.171 412.543 Z  M 270.171 304.543 C 240.9 304.543 217.171 328.272 217.171 357.543 C 217.171 386.814 240.9 410.543 270.171 410.543 C 299.442 410.543 323.171 386.814 323.171 357.543 C 323.139 328.286 299.429 304.576 270.171 304.543 L 270.171 304.543 Z " fill="rgb(63,61,86)"/></g></svg>